<svg id="Layer_1" data-name="Layer 1" xmlns="http://www.w3.org/2000/svg" viewBox="0 0 199.65 202.27"><defs><style>.cls-1{fill:#191919;stroke:#191919;stroke-width:11px;}</style></defs><title>mascot-mark-dark</title><g id="Style-Guide"><g id="Artboard-Copy-4"><path class="cls-1" d="M102,5.5C42,5.5-1,52.57,6.32,112.47,11.68,156,37.7,190.05,42.53,196a1.45,1.45,0,0,0,2.23.05L62,173.15a1.46,1.46,0,0,1,2.3.13l15.58,22.85a1.46,1.46,0,0,0,2.34.1L99.7,174.62a1.45,1.45,0,0,1,2.32.07l15.25,21.37a1.45,1.45,0,0,0,2.38,0l16.18-23.33a1.45,1.45,0,0,1,2.24-.19l17.68,23.12a1.46,1.46,0,0,0,2.25-.18c5.28-7.72,31-48.06,35.3-83C200.42,54.3,162.05,5.5,102,5.5Zm1.56,93.84C97.72,99.34,93,93.7,93,86.75s4.76-12.59,10.62-12.59,10.63,5.64,10.63,12.59S109.45,99.34,103.58,99.34Zm47.18-1.51c-7.11,0-12.87-7.32-12.87-16.36s5.76-16.36,12.87-16.36,12.86,7.32,12.86,16.36S157.86,97.83,150.76,97.83Z"/></g></g></svg>