<svg width="23" height="17" viewBox="0 0 23 17" fill="none" xmlns="http://www.w3.org/2000/svg">
<path d="M5.25488 3.00997C4.74219 3.55197 4.22705 4.09396 3.71436 4.63595C2.89648 5.49777 2.07861 6.35958 1.26074 7.2214C1.0752 7.41671 0.889648 7.61447 0.704102 7.80978C0.333008 8.2004 0.333008 8.79855 0.704102 9.19161C1.2168 9.73361 1.73193 10.2756 2.24463 10.8176C3.0625 11.6794 3.88037 12.5412 4.69824 13.403C4.88379 13.5984 5.06934 13.7961 5.25488 13.9914C5.60645 14.3625 6.28516 14.3723 6.63672 13.9914C7.00293 13.5935 7.01269 13.0075 6.63672 12.6096C6.12402 12.0676 5.60889 11.5256 5.09619 10.9836C4.27832 10.1218 3.46045 9.25997 2.64258 8.39816C2.45703 8.20285 2.27148 8.00509 2.08594 7.80978C2.08594 8.27121 2.08594 8.73019 2.08594 9.19161C2.59863 8.64962 3.11377 8.10763 3.62646 7.56564C4.44434 6.70382 5.26221 5.84201 6.08008 4.98019C6.26562 4.78488 6.45117 4.58712 6.63672 4.39181C6.8125 4.20626 6.92236 3.95968 6.92236 3.70089C6.92236 3.46163 6.81494 3.17599 6.63672 3.00997C6.25586 2.66085 5.63086 2.61447 5.25488 3.00997Z" fill="white"/>
<path d="M16.3638 4.39137C16.8765 4.93336 17.3916 5.47535 17.9043 6.01735C18.7222 6.87916 19.54 7.74098 20.3579 8.6028C20.5435 8.79811 20.729 8.99586 20.9146 9.19117C20.9146 8.72975 20.9146 8.27076 20.9146 7.80934C20.4019 8.35133 19.8867 8.89332 19.374 9.43531C18.5562 10.2971 17.7383 11.1589 16.9204 12.0208C16.7349 12.2161 16.5493 12.4138 16.3638 12.6091C16.188 12.7947 16.0781 13.0413 16.0781 13.3001C16.0781 13.5393 16.1855 13.825 16.3638 13.991C16.7446 14.3401 17.3696 14.3865 17.7456 13.991C18.2583 13.449 18.7734 12.907 19.2861 12.365C20.104 11.5032 20.9219 10.6414 21.7398 9.77955C21.9253 9.58424 22.1109 9.38649 22.2964 9.19117C22.6675 8.80055 22.6675 8.2024 22.2964 7.80934C21.7837 7.26735 21.2686 6.72535 20.7559 6.18336C19.938 5.32155 19.1201 4.45973 18.3023 3.59791C18.1167 3.4026 17.9312 3.20485 17.7456 3.00953C17.394 2.63844 16.7153 2.62867 16.3638 3.00953C15.9976 3.40992 15.9878 3.99586 16.3638 4.39137Z" fill="white"/>
<path d="M13.3291 1.61131C13.1435 2.0532 12.9604 2.49754 12.7749 2.93943C12.3354 3.99412 11.8935 5.04881 11.4541 6.1035C10.9218 7.37792 10.3896 8.65234 9.85739 9.92675C9.39596 11.0327 8.93454 12.1362 8.47311 13.2422C8.2485 13.7769 8.00924 14.3091 7.80172 14.8511C7.79928 14.8584 7.7944 14.8657 7.79195 14.8731C7.70162 15.0903 7.77731 15.4321 7.88961 15.625C8.00924 15.8276 8.24117 16.0205 8.47311 16.0742C8.72213 16.1304 9.00289 16.1182 9.22506 15.9766C9.29098 15.9253 9.3569 15.874 9.42282 15.8228C9.54489 15.7007 9.6279 15.5566 9.67428 15.3906C9.85983 14.9487 10.0429 14.5044 10.2285 14.0625C10.6679 13.0078 11.1098 11.9531 11.5493 10.8984C12.0815 9.62402 12.6137 8.3496 13.146 7.07518C13.6074 5.96922 14.0688 4.86571 14.5303 3.75975C14.7549 3.22508 14.9941 2.69285 15.2016 2.15086C15.2041 2.14353 15.209 2.13621 15.2114 2.12889C15.3017 1.9116 15.2261 1.5698 15.1137 1.37693C14.9941 1.17429 14.7622 0.981422 14.5303 0.927711C14.2812 0.871559 14.0005 0.883766 13.7783 1.02537C13.7124 1.07664 13.6465 1.12791 13.5805 1.17918C13.4585 1.30125 13.3755 1.44529 13.3291 1.61131Z" fill="white"/>
</svg>
