<svg width="21" height="21" viewBox="0 0 21 21" fill="none" xmlns="http://www.w3.org/2000/svg">
<path d="M19.9004 18.25L15.8754 14.25C16.9504 12.825 17.5754 11.1 17.5754 9.175C17.6004 4.525 13.8254 0.75 9.17539 0.75C4.52539 0.75 0.775391 4.525 0.775391 9.175C0.775391 13.825 4.55039 17.575 9.17539 17.575C11.1004 17.575 12.8254 16.925 14.2504 15.875L18.2504 19.9C18.4754 20.125 18.7754 20.25 19.0504 20.25C19.3504 20.25 19.6254 20.125 19.8504 19.9C20.3504 19.425 20.3504 18.7 19.9004 18.25ZM3.10039 9.175C3.10039 5.8 5.82539 3.075 9.20039 3.075C12.5754 3.075 15.3004 5.8 15.3004 9.175C15.3004 12.55 12.5504 15.25 9.17539 15.25C5.80039 15.25 3.10039 12.525 3.10039 9.175Z" fill="white"/>
</svg>
