<svg height='100px' width='100px'  fill="#ffffff" xmlns:dc="http://purl.org/dc/elements/1.1/" xmlns:cc="http://creativecommons.org/ns#" xmlns:rdf="http://www.w3.org/1999/02/22-rdf-syntax-ns#" xmlns:svg="http://www.w3.org/2000/svg" xmlns="http://www.w3.org/2000/svg" xmlns:sodipodi="http://sodipodi.sourceforge.net/DTD/sodipodi-0.dtd" xmlns:inkscape="http://www.inkscape.org/namespaces/inkscape" viewBox="0 0 8.4666665 8.4666669" version="1.1" x="0px" y="0px"><g transform="translate(0,-288.53333)"><path style="color:#000000;font-style:normal;font-variant:normal;font-weight:normal;font-stretch:normal;font-size:medium;line-height:normal;font-family:sans-serif;font-variant-ligatures:normal;font-variant-position:normal;font-variant-caps:normal;font-variant-numeric:normal;font-variant-alternates:normal;font-feature-settings:normal;text-indent:0;text-align:start;text-decoration:none;text-decoration-line:none;text-decoration-style:solid;text-decoration-color:#000000;letter-spacing:normal;word-spacing:normal;text-transform:none;writing-mode:lr-tb;direction:ltr;text-orientation:mixed;dominant-baseline:auto;baseline-shift:baseline;text-anchor:start;white-space:normal;shape-padding:0;clip-rule:nonzero;display:inline;overflow:visible;visibility:visible;opacity:1;isolation:auto;mix-blend-mode:normal;color-interpolation:sRGB;color-interpolation-filters:linearRGB;solid-color:#000000;solid-opacity:1;vector-effect:none;fill:#ffffff;fill-opacity:1;fill-rule:evenodd;stroke:none;stroke-width:1.99999988;stroke-linecap:round;stroke-linejoin:round;stroke-miterlimit:4;stroke-dasharray:none;stroke-dashoffset:114.27863312;stroke-opacity:1;paint-order:stroke fill markers;color-rendering:auto;image-rendering:auto;shape-rendering:auto;text-rendering:auto;enable-background:accumulate" d="m 15.996094,1.0039062 c -8.2927036,0 -15.00000029,6.7073009 -15.00000025,14.9999998 l 0.007812,9.994141 c 0,0.791698 0.3053671,1.561233 0.8710938,2.126953 l 2,2 c 0.9161015,0.916082 2.2437246,1.079102 3.2773438,0.650391 C 8.1859633,30.346679 8.9980469,29.295395 8.9980469,28 V 17.996094 c 0,-1.679055 -1.412224,-3.036659 -3.0859375,-2.988282 C 5.1507228,15.03049 4.4187633,15.334768 3.875,15.878906 l -0.8789062,0.878906 v -0.753906 c 0,-7.2193131 5.7807032,-13.0078122 13.0000002,-13.0078122 7.219296,0 13.007812,5.7884991 13.007812,13.0078122 v 0.753906 L 28.125,15.878906 c -0.543763,-0.543987 -1.275723,-0.848568 -2.037109,-0.871094 -1.673714,-0.04838 -3.085938,1.309227 -3.085938,2.988282 V 28 c 0,1.295395 0.819896,2.346679 1.853516,2.775391 1.033619,0.428711 2.353429,0.265653 3.269531,-0.650391 l 2,-2 c 0.56573,-0.565757 0.878906,-1.335255 0.878906,-2.126953 l -0.0078,-9.994141 c 0,-8.2926989 -6.707297,-14.9999998 -15,-14.9999998 z m -0.01367,17.9824218 c -0.549207,0.0097 -0.987816,0.4605 -0.982422,1.009766 v 6.001953 c -0.03025,1.363243 2.030246,1.363243 2,0 v -6.001953 c 0.0055,-0.563023 -0.454614,-1.019633 -1.017578,-1.009766 z m -3.994141,2 c -0.553044,0.0054 -0.996686,0.458687 -0.990234,1.011719 v 2 c 0,1.334635 2.001953,1.334635 2.001953,0 v -2 c 0.0066,-0.561452 -0.450267,-1.018281 -1.011719,-1.011719 z m 7.994141,0 c -0.54921,0.01074 -0.986956,0.462442 -0.980469,1.011719 v 2 c -0.03023,1.363231 2.030234,1.363231 2,0 v -2 c 0.0067,-0.564568 -0.455031,-1.022728 -1.019531,-1.011719 z" transform="matrix(0.26458333,0,0,0.26458333,0,288.53333)"></path></g></svg>