<?xml version="1.0" encoding="utf-8"?>
<!-- Generator: Adobe Illustrator 23.0.0, SVG Export Plug-In . SVG Version: 6.00 Build 0)  -->
<svg version="1.1" xmlns="http://www.w3.org/2000/svg" xmlns:xlink="http://www.w3.org/1999/xlink" x="0px" y="0px"
	 viewBox="0 0 100 100" style="enable-background:new 0 0 100 100;" xml:space="preserve">
<style type="text/css">
	.st0{fill:000000;}
	.st1{fill:333333;}
</style>
<g id="Layer_2">
</g>
<g id="Layer_1">
	<g>
		<path class="st0" d="M41.7,64.1l8.4-7c0.7-0.6,0.7-1.8-0.1-2.3L41,49c-0.8-0.5-0.9-1.7-0.1-2.3l3.8-3.2c0.6-0.5,0.7-1.3,0.2-1.9
			l-3-3.7c-0.3-0.4-0.7-0.6-1.1-0.6H5.4c-2,0-3.7,1.7-3.7,3.7v19.7c0,2,1.7,3.7,3.7,3.7h35.3C41.1,64.5,41.4,64.4,41.7,64.1z"/>
		<path class="st0" d="M93,37.3H54.3c-1.2,0-1.8,1.3-1.1,2.3l1.6,2.1c0.4,0.6,0.3,1.5-0.2,1.9l-3.8,3.2c-0.7,0.6-0.7,1.8,0.1,2.3
			l9,5.8c0.8,0.5,0.9,1.7,0.1,2.3L54.2,62c-1,0.8-0.4,2.5,0.9,2.5h37.8c2,0,3.7-1.7,3.7-3.7V41C96.7,39,95,37.3,93,37.3z"/>
		<path class="st0" d="M49.2,29.2c1.5,0,2.7-1.2,2.7-2.7v-8.2c0-1.5-1.2-2.7-2.7-2.7s-2.7,1.2-2.7,2.7v8.2
			C46.5,28,47.7,29.2,49.2,29.2z"/>
		<path class="st0" d="M37.8,32.4c0.5,0.5,1.2,0.8,1.9,0.8s1.4-0.3,1.9-0.8c1-1,1-2.7,0-3.8l-5.8-5.8c-1-1-2.7-1-3.8,0
			c-1,1-1,2.7,0,3.8L37.8,32.4z"/>
		<path class="st0" d="M58.7,33.1c0.7,0,1.4-0.3,1.9-0.8l5.8-5.8c1-1,1-2.7,0-3.8c-1-1-2.7-1-3.8,0l-5.8,5.8c-1,1-1,2.7,0,3.8
			C57.3,32.9,58,33.1,58.7,33.1z"/>
		<path class="st0" d="M49.2,72.6c-1.5,0-2.7,1.2-2.7,2.7v8.2c0,1.5,1.2,2.7,2.7,2.7s2.7-1.2,2.7-2.7v-8.2
			C51.9,73.8,50.7,72.6,49.2,72.6z"/>
		<path class="st0" d="M60.6,69.4c-1-1-2.7-1-3.8,0c-1,1-1,2.7,0,3.8l5.8,5.8c0.5,0.5,1.2,0.8,1.9,0.8c0.7,0,1.4-0.3,1.9-0.8
			c1-1,1-2.7,0-3.8L60.6,69.4z"/>
		<path class="st0" d="M37.8,69.4L32,75.2c-1,1-1,2.7,0,3.8c0.5,0.5,1.2,0.8,1.9,0.8s1.4-0.3,1.9-0.8l5.8-5.8c1-1,1-2.7,0-3.8
			C40.5,68.4,38.8,68.4,37.8,69.4z"/>
	</g>
	<g>
		<path class="st1" d="M43.4,62.4l8.4-7c0.7-0.6,0.7-1.8-0.1-2.3l-9-5.8c-0.8-0.5-0.9-1.7-0.1-2.3l3.8-3.2c0.6-0.5,0.7-1.3,0.2-1.9
			l-3-3.7c-0.3-0.4-0.7-0.6-1.1-0.6H7.1c-2,0-3.7,1.7-3.7,3.7V59c0,2,1.7,3.7,3.7,3.7h35.3C42.8,62.8,43.1,62.7,43.4,62.4z"/>
		<path class="st1" d="M94.7,35.6H56c-1.2,0-1.8,1.3-1.1,2.3l1.6,2.1c0.4,0.6,0.3,1.5-0.2,1.9l-3.8,3.2c-0.7,0.6-0.7,1.8,0.1,2.3
			l9,5.8c0.8,0.5,0.9,1.7,0.1,2.3l-5.8,4.8c-1,0.8-0.4,2.5,0.9,2.5h37.8c2,0,3.7-1.7,3.7-3.7V39.3C98.4,37.3,96.7,35.6,94.7,35.6z"
			/>
		<path class="st1" d="M50.9,27.5c1.5,0,2.7-1.2,2.7-2.7v-8.2c0-1.5-1.2-2.7-2.7-2.7s-2.7,1.2-2.7,2.7v8.2
			C48.2,26.3,49.4,27.5,50.9,27.5z"/>
		<path class="st1" d="M39.5,30.7c0.5,0.5,1.2,0.8,1.9,0.8s1.4-0.3,1.9-0.8c1-1,1-2.7,0-3.8l-5.8-5.8c-1-1-2.7-1-3.8,0
			c-1,1-1,2.7,0,3.8L39.5,30.7z"/>
		<path class="st1" d="M60.4,31.4c0.7,0,1.4-0.3,1.9-0.8l5.8-5.8c1-1,1-2.7,0-3.8c-1-1-2.7-1-3.8,0l-5.8,5.8c-1,1-1,2.7,0,3.8
			C59,31.2,59.7,31.4,60.4,31.4z"/>
		<path class="st1" d="M50.9,70.9c-1.5,0-2.7,1.2-2.7,2.7v8.2c0,1.5,1.2,2.7,2.7,2.7s2.7-1.2,2.7-2.7v-8.2
			C53.6,72.1,52.4,70.9,50.9,70.9z"/>
		<path class="st1" d="M62.3,67.7c-1-1-2.7-1-3.8,0c-1,1-1,2.7,0,3.8l5.8,5.8c0.5,0.5,1.2,0.8,1.9,0.8c0.7,0,1.4-0.3,1.9-0.8
			c1-1,1-2.7,0-3.8L62.3,67.7z"/>
		<path class="st1" d="M39.5,67.7l-5.8,5.8c-1,1-1,2.7,0,3.8c0.5,0.5,1.2,0.8,1.9,0.8s1.4-0.3,1.9-0.8l5.8-5.8c1-1,1-2.7,0-3.8
			C42.2,66.7,40.5,66.7,39.5,67.7z"/>
	</g>
</g>
</svg>
