<?xml version="1.0" encoding="utf-8"?>
<!-- Generator: Adobe Illustrator 23.0.0, SVG Export Plug-In . SVG Version: 6.00 Build 0)  -->
<svg version="1.1" id="Layer_1" xmlns="http://www.w3.org/2000/svg" xmlns:xlink="http://www.w3.org/1999/xlink" x="0px" y="0px"
	 viewBox="0 0 60 60" style="enable-background:new 0 0 60 60;" xml:space="preserve">
<style type="text/css">
	.st0{fill:#BFBFBF;}
	.st1{fill:#FFFFFF;}
</style>
<path class="st0" d="M55.7,38c0.5,0,0.9-0.4,0.9-0.9V24.7c0-0.5-0.4-0.9-0.9-0.9H37.1v-4.4h7.1h0c0.5,0,0.9-0.4,0.9-0.9
	c0-0.3-0.2-0.6-0.4-0.7L30.6,3.7c-0.3-0.3-0.9-0.3-1.2,0L15.2,17.8c-0.3,0.3-0.3,0.6-0.2,1c0.1,0.3,0.5,0.5,0.8,0.5h7.1v4.4H4.3
	c-0.5,0-0.9,0.4-0.9,0.9v12.4c0,0.5,0.4,0.9,0.9,0.9h18.6v4.4H4.3c-0.5,0-0.9,0.4-0.9,0.9v12.4c0,0.5,0.4,0.9,0.9,0.9h51.4
	c0.5,0,0.9-0.4,0.9-0.9V43.3c0-0.5-0.4-0.9-0.9-0.9H37.1V38H55.7z M54.8,25.6v10.6H37.1V25.6H54.8z M5.2,36.2V25.6h17.7v10.6H5.2z
	 M54.8,44.2v10.6H5.2V44.2h18.6c0.5,0,0.9-0.4,0.9-0.9v-6.2V24.7v-6.2c0-0.5-0.4-0.9-0.9-0.9H18l12-12l12,12h-5.8
	c-0.5,0-0.9,0.4-0.9,0.9v6.2v12.4v6.2c0,0.5,0.4,0.9,0.9,0.9H54.8z"/>
<path class="st1" d="M56.5,38c0.5,0,0.9-0.4,0.9-0.9V24.7c0-0.5-0.4-0.9-0.9-0.9H37.9v-4.4H45h0c0.5,0,0.9-0.4,0.9-0.9
	c0-0.3-0.2-0.6-0.4-0.7L31.4,3.7c-0.3-0.3-0.9-0.3-1.2,0L16,17.9c-0.3,0.3-0.3,0.6-0.2,1c0.1,0.3,0.5,0.5,0.8,0.5h7.1v4.4H5.1
	c-0.5,0-0.9,0.4-0.9,0.9v12.4c0,0.5,0.4,0.9,0.9,0.9h18.6v4.4H5.1c-0.5,0-0.9,0.4-0.9,0.9v12.4c0,0.5,0.4,0.9,0.9,0.9h51.4
	c0.5,0,0.9-0.4,0.9-0.9V43.3c0-0.5-0.4-0.9-0.9-0.9H37.9V38H56.5z M55.6,25.6v10.6H37.9V25.6H55.6z M6,36.2V25.6h17.7v10.6H6z
	 M55.6,44.2v10.6H6V44.2h18.6c0.5,0,0.9-0.4,0.9-0.9v-6.2V24.7v-6.2c0-0.5-0.4-0.9-0.9-0.9h-5.8l12-12l12,12H37
	c-0.5,0-0.9,0.4-0.9,0.9v6.2v12.4v6.2c0,0.5,0.4,0.9,0.9,0.9H55.6z"/>
</svg>
