<?xml version="1.0" encoding="utf-8"?>
<!-- Generator: Adobe Illustrator 23.0.0, SVG Export Plug-In . SVG Version: 6.00 Build 0)  -->
<svg version="1.1" id="Layer_1" xmlns="http://www.w3.org/2000/svg" xmlns:xlink="http://www.w3.org/1999/xlink" x="0px" y="0px"
	 viewBox="0 0 28.3 28.3" style="enable-background:new 0 0 28.3 28.3;" xml:space="preserve">
<style type="text/css">
	<!-- .st0{fill:url(#SVGID_1_);}
	.st1{fill:url(#SVGID_2_);}
	.st2{fill:url(#SVGID_3_);} -->
	.st0{fill:white;}
	.st1{fill:white;}
	.st2{fill:white;}
</style>
<title>Send Forward</title>
<g>
	<g>
		<g id="Icons">
			
				<image style="overflow:visible;opacity:0.25;enable-background:new    ;" width="38" height="35" xlink:href="D01A70E4926E83E9.png"  transform="matrix(1 0 0 1 -2.1068 1.9349)">
			</image>
			
				<linearGradient id="SVGID_1_" gradientUnits="userSpaceOnUse" x1="5.0242" y1="17.19" x2="35.8542" y2="3.39" gradientTransform="matrix(1 0 0 -1 0 33.1351)">
				<stop  offset="0" style="stop-color:#F0F0F0"/>
				<stop  offset="0.71" style="stop-color:#CCCCCC"/>
			</linearGradient>
			<path class="st0" d="M25.5,21.6h-8v-8.5h1.2c0.5,0,0.9-0.4,0.9-0.9c0-0.2-0.1-0.5-0.3-0.6l-4.6-4.6c-0.4-0.4-0.9-0.4-1.3,0
				L9,11.5c-0.4,0.4-0.4,0.9,0,1.3c0.2,0.2,0.4,0.3,0.6,0.3h1.2v8.5h-8c-0.7,0-1.2,0.5-1.2,1.2l0,0v4.3c0,0.7,0.5,1.2,1.2,1.2l0,0
				h22.7c0.7,0,1.2-0.5,1.2-1.2l0,0v-4.4C26.7,22.1,26.2,21.6,25.5,21.6L25.5,21.6z"/>
			
				<linearGradient id="SVGID_2_" gradientUnits="userSpaceOnUse" x1="8.6922" y1="22.138" x2="37.5722" y2="9.208" gradientTransform="matrix(1 0 0 -1 0 33.1351)">
				<stop  offset="0" style="stop-color:#F0F0F0"/>
				<stop  offset="0.71" style="stop-color:#CCCCCC"/>
			</linearGradient>
			<path class="st1" d="M25.8,15.2h-6.5v4h6.5c0.5,0,0.9-0.4,0.9-0.9c0,0,0,0,0,0v-2.2C26.7,15.6,26.3,15.2,25.8,15.2z"/>
			
				<linearGradient id="SVGID_3_" gradientUnits="userSpaceOnUse" x1="4.5651" y1="16.4344" x2="33.4751" y2="3.4944" gradientTransform="matrix(1 0 0 -1 0 33.1351)">
				<stop  offset="0" style="stop-color:#F0F0F0"/>
				<stop  offset="0.71" style="stop-color:#CCCCCC"/>
			</linearGradient>
			<path class="st2" d="M9.1,15.2H2.6c-0.5,0-0.9,0.4-0.9,0.9v2.2c0,0.5,0.4,0.9,0.9,0.9c0,0,0,0,0,0h6.6V15.2z"/>
		</g>
	</g>
</g>
</svg>
