<?xml version="1.0" encoding="UTF-8"?>
<svg width="400px" height="400px" viewBox="0 0 400 400" version="1.1" xmlns="http://www.w3.org/2000/svg" xmlns:xlink="http://www.w3.org/1999/xlink">
    <!-- Generator: Sketch 42 (36781) - http://www.bohemiancoding.com/sketch -->
    <title>Paintbrush</title>
    <desc>Created with Sketch.</desc>
    <defs>
        <rect id="path-1" x="390" y="884" width="400" height="400"></rect>
        <mask id="mask-2" maskContentUnits="userSpaceOnUse" maskUnits="objectBoundingBox" x="0" y="0" width="400" height="400" fill="white">
            <use xlink:href="#path-1"></use>
        </mask>
        <path d="M26.9913676,166.217405 C26.9913676,170.906717 26.7718949,175.21199 27.0317968,179.485501 C27.8288291,192.485059 36.0330644,200.183153 49.5364099,200.443029 C60.2819078,200.648042 71.0562837,200.91658 81.7786793,200.367954 C90.707752,199.911728 96.0386279,205.926405 95.879799,214.271301 C95.4552926,236.476232 95.7036433,258.695601 95.7758382,280.909195 C95.807604,291.16562 100.384765,298.600952 108.577449,301.771435 C115.294468,304.373079 122.109672,304.373079 128.84113,301.75411 C134.527205,299.539392 138.419958,295.427581 140.120871,289.615029 C141.044966,286.458984 141.533004,283.060387 141.550331,279.765742 C141.677394,257.43376 141.61675,235.101779 141.634077,212.76691 C141.642741,205.045716 146.147706,200.518104 153.832138,200.503667 C165.059898,200.483454 176.287658,200.587404 187.512531,200.471904 C198.292682,200.359291 205.988665,195.412991 208.885127,186.790895 C211.134722,180.10054 210.438762,173.202285 210.300148,166.217405 L26.9913676,166.217405 Z M183.911446,28.5670456 C179.545095,28.5670456 176.004654,32.1071296 176.004654,36.4759281 C176.004654,46.4262782 176.021981,52.2417178 175.998878,62.1545303 C175.984439,69.4137236 171.219572,74.3917862 164.398592,74.3398111 C157.77687,74.2878359 153.115964,69.3155484 153.104413,62.2238305 C153.089974,53.7201216 153.092861,45.2164126 153.098637,36.6029784 C153.098637,32.2543924 149.572635,28.7143085 145.223611,28.7143085 L137.845286,28.7143085 C133.588671,28.7143085 130.134864,32.1677672 130.143527,36.4239529 C130.155078,41.5030783 130.163742,46.5591035 130.114649,51.6151288 C130.062669,57.2602055 125.817605,62.0996677 120.466515,62.8157695 C114.679367,63.5896215 109.360042,60.3065257 107.676456,54.7856118 C107.30393,53.5613087 107.254837,52.2041802 107.249061,50.9076895 C107.223071,46.339653 107.223071,41.7716164 107.225959,37.1313922 C107.228847,32.5142681 103.483372,28.7691711 98.8686704,28.7691711 L92.7609767,28.7691711 C88.0740798,28.7691711 84.2766249,32.5662432 84.2766249,37.2526675 L84.2766249,43.3279829 C84.2737371,60.8840271 84.2766249,67.2047806 84.2621859,84.7608249 C84.2564103,92.337644 79.5868403,97.3388066 72.6359095,97.2723939 C65.9448805,97.2059812 61.3359542,92.0922058 61.3417298,84.7694874 C61.353281,67.4531062 61.353281,61.3720159 61.3561688,44.0527472 L61.3561688,37.0476545 C61.3561688,32.4420804 57.6222455,28.7085335 53.0190948,28.7085335 L38.5685515,28.7085335 L38.5685515,143.166435 C98.831129,143.16066 159.093706,143.17221 219.356284,143.111572 C223.569582,143.105797 227.615387,143.41476 230.367459,146.957732 C231.70451,148.678686 233.145521,150.936717 233.15996,152.960859 C233.229268,163.687949 233.873247,174.556526 232.432235,185.11614 C229.587754,205.946618 208.327782,223.366949 187.258405,223.401599 C182.975799,223.410262 178.696082,223.407375 174.312404,223.407375 C168.929548,223.404487 164.551645,227.770398 164.551645,233.152712 L164.551645,239.499453 C164.548758,257.176772 164.51988,262.717899 164.54587,280.395218 C164.580523,306.082483 136.626236,328.411577 111.005688,326.534697 C89.1594929,324.935018 68.8986991,303.241176 68.8380554,281.28457 C68.7918506,265.362855 68.814953,249.44114 68.8236164,233.198912 C68.8265042,227.822373 64.4601529,223.453575 59.0830723,223.444912 C57.5178855,223.442025 56.1721715,223.433362 55.4097927,223.41315 C47.7831171,223.205249 45.9897942,223.725 38.5075085,222.564222 C17.3341705,219.284014 0.0564725025,198.511287 0.0218189214,177.178383 C0.0102677277,170.251253 -0.0157224581,163.324123 0.0131555262,156.396993 C0.0478091072,148.208022 3.17674752,143.166435 11.4892665,140.131945 C11.4892665,130.889034 11.4892665,124.299462 11.4892665,114.998801 C11.4834909,82.9907829 11.4892214,50.9827647 11.4661641,18.9747464 C11.4563609,5.36601074 27.1045157,1 30.1372513,1 C35.3727267,1 27.2407812,6.89052847 38.9208629,6.89052847 C99.0939186,6.89052847 139.546199,6.64509035 199.303412,6.64509035 C215.209405,6.64509035 221.874444,7.08110395 221.874444,18.9631964 C221.877332,52.6459689 221.885995,86.3258538 221.865781,120.005739 C221.860005,125.543978 218.73252,129.745301 213.658658,131.269905 C208.968873,132.679008 203.643773,131.064892 201.116949,126.776943 C199.808776,124.550675 199.055061,121.654505 199.04351,119.055749 C198.907783,89.9150254 198.965539,71.6919669 198.968427,42.5512434 L198.968427,35.8839891 C198.968427,31.8443664 195.693664,28.5670456 191.653634,28.5670456 L183.911446,28.5670456 Z" id="path-3"></path>
        <filter x="-50%" y="-50%" width="200%" height="200%" filterUnits="objectBoundingBox" id="filter-4">
            <feOffset dx="0" dy="8" in="SourceAlpha" result="shadowOffsetOuter1"></feOffset>
            <feGaussianBlur stdDeviation="5.5" in="shadowOffsetOuter1" result="shadowBlurOuter1"></feGaussianBlur>
            <feColorMatrix values="0 0 0 0 0   0 0 0 0 0   0 0 0 0 0  0 0 0 0.5 0" type="matrix" in="shadowBlurOuter1"></feColorMatrix>
        </filter>
        <path d="M34.9913676,159.572315 C34.9913676,164.261627 34.7718949,168.5669 35.0317968,172.840411 C35.8288291,185.839969 44.0330644,193.538063 57.5364099,193.797939 C68.2819078,194.002952 79.0562837,194.27149 89.7786793,193.722864 C98.707752,193.266637 104.038628,199.281315 103.879799,207.626211 C103.455293,229.831142 103.703643,252.050511 103.775838,274.264104 C103.807604,284.52053 108.384765,291.955861 116.577449,295.126344 C123.294468,297.727988 130.109672,297.727988 136.84113,295.109019 C142.527205,292.894301 146.419958,288.782491 148.120871,282.969939 C149.044966,279.813893 149.533004,276.415297 149.550331,273.120651 C149.677394,250.78867 149.61675,228.456689 149.634077,206.12182 C149.642741,198.400625 154.147706,193.873014 161.832138,193.858576 C173.059898,193.838364 184.287658,193.942314 195.512531,193.826814 C206.292682,193.714201 213.988665,188.767901 216.885127,180.145804 C219.134722,173.45545 218.438762,166.557195 218.300148,159.572315 L34.9913676,159.572315 Z M199.653634,21.9219553 L191.911446,21.9219553 C187.545095,21.9219553 184.004654,25.4620392 184.004654,29.8308377 L184.004654,29.8683753 C184.004654,39.7811878 184.021981,45.5966275 183.998878,55.50944 C183.984439,62.7686333 179.219572,67.7466959 172.398592,67.6947207 C165.77687,67.6427456 161.115964,62.6704581 161.104413,55.5787402 C161.089974,47.0750312 161.092861,38.5713223 161.098637,29.9578881 C161.098637,25.6093021 157.572635,22.0692182 153.223611,22.0692182 L145.845286,22.0692182 C141.588671,22.0692182 138.134864,25.5226769 138.143527,29.7788626 C138.155078,34.8579879 138.163742,39.9140132 138.114649,44.9700384 C138.062669,50.6151151 133.817605,55.4545774 128.466515,56.1706792 C122.679367,56.9445311 117.360042,53.6614353 115.676456,48.1405214 C115.30393,46.9162183 115.254837,45.5590899 115.249061,44.2625991 C115.223071,39.6945626 115.223071,35.1265261 115.225959,30.4863019 C115.228847,25.8691777 111.483372,22.1240808 106.86867,22.1240808 L100.760977,22.1240808 C96.0740798,22.1240808 92.2766249,25.9211529 92.2766249,30.6075772 L92.2766249,36.6828925 C92.2737371,54.2389368 92.2766249,60.5596902 92.2621859,78.1157345 C92.2564103,85.6925536 87.5868403,90.6937162 80.6359095,90.6273036 C73.9448805,90.5608909 69.3359542,85.4471155 69.3417298,78.124397 C69.353281,60.8080159 69.353281,54.7269255 69.3561688,37.4076568 L69.3561688,30.4025642 C69.3561688,25.7969901 65.6222455,22.0634431 61.0190948,22.0634431 L46.5685515,22.0634431 L46.5685515,136.521344 L46.5685515,136.524232 C106.831129,136.515569 167.093706,136.527119 227.356284,136.466482 C231.569582,136.460707 235.615387,136.76967 238.367459,140.312641 C239.70451,142.033596 241.145521,144.291626 241.15996,146.315769 C241.229268,157.042859 241.873247,167.911436 240.432235,178.47105 C237.587754,199.301528 216.327782,216.721859 195.258405,216.756509 C190.975799,216.765172 186.696082,216.762284 182.312404,216.762284 C176.929548,216.759397 172.551645,221.125308 172.551645,226.507621 L172.551645,232.854362 C172.548758,250.531682 172.51988,256.072808 172.54587,273.750128 C172.580523,299.437393 148.626236,321.766486 123.005688,319.889607 C101.159493,318.289928 80.8986991,296.596086 80.8380554,274.63948 C80.7918506,258.717765 80.814953,242.79605 80.8236164,226.553821 C80.8265042,221.177283 76.4601529,216.808484 71.0830723,216.799822 C69.5178855,216.796934 68.1721715,216.788272 67.4097927,216.768059 C59.7831171,216.560159 57.9897942,217.07991 50.5075085,215.919132 C29.3341705,212.638924 12.0564725,191.866196 12.0218189,170.533293 C12.0102677,163.606163 11.9842775,156.679033 12.0131555,149.751903 C12.0478091,141.562932 15.1752948,137.82361 23.4892665,136.197943 L23.4892665,108.353711 C23.4834909,76.3456925 23.4892665,44.3376743 23.4661641,12.3296561 C23.4575007,0.303188265 30.5412702,0.245438119 46.9208629,0.245438119 C107.093919,0.245438119 147.546199,0 207.303412,0 C223.209405,0 229.874444,0.4360136 229.874444,12.3181061 C229.877332,46.0008785 229.885995,79.6807635 229.865781,113.360648 C229.860005,118.898887 226.73252,123.10021 221.658658,124.624814 C216.968873,126.033918 211.643773,124.419801 209.116949,120.131853 C207.808776,117.905585 207.055061,115.009415 207.04351,112.410658 C206.907783,83.269935 206.965539,65.0468765 206.968427,35.9061531 L206.968427,29.2388987 C206.968427,25.1992761 203.693664,21.9219553 199.653634,21.9219553 L199.653634,21.9219553 Z" id="path-5"></path>
        <filter x="-50%" y="-50%" width="200%" height="200%" filterUnits="objectBoundingBox" id="filter-6">
            <feOffset dx="0" dy="2" in="SourceAlpha" result="shadowOffsetOuter1"></feOffset>
            <feGaussianBlur stdDeviation="4" in="shadowOffsetOuter1" result="shadowBlurOuter1"></feGaussianBlur>
            <feColorMatrix values="0 0 0 0 0   0 0 0 0 0   0 0 0 0 0  0 0 0 0.5 0" type="matrix" in="shadowBlurOuter1"></feColorMatrix>
        </filter>
    </defs>
    <g id="Page-1" stroke="none" stroke-width="1" fill="none" fill-rule="evenodd">
        <g id="Artboard-6-Copy" transform="translate(-390.000000, -884.000000)">
            <use id="Rectangle-4-Copy" stroke-opacity="0" stroke="#979797" mask="url(#mask-2)" stroke-width="2" xlink:href="#path-1"></use>
            <g id="Paintbrush" transform="translate(470.000000, 921.000000)">
                <g id="Fill-9-Copy-4">
                    <use fill="black" fill-opacity="1" filter="url(#filter-4)" xlink:href="#path-3"></use>
                    <use fill="#BFBFBF" fill-rule="evenodd" xlink:href="#path-3"></use>
                </g>
                <g id="Fill-9-Copy-5">
                    <use fill="black" fill-opacity="1" filter="url(#filter-6)" xlink:href="#path-5"></use>
                    <use fill="#FFFFFF" fill-rule="evenodd" xlink:href="#path-5"></use>
                </g>
            </g>
        </g>
    </g>
</svg>