<?xml version="1.0" encoding="UTF-8"?>
<svg width="400px" height="400px" viewBox="0 0 400 400" version="1.1" xmlns="http://www.w3.org/2000/svg" xmlns:xlink="http://www.w3.org/1999/xlink">
    <!-- Generator: Sketch 42 (36781) - http://www.bohemiancoding.com/sketch -->
    <title>Bucket</title>
    <desc>Created with Sketch.</desc>
    <defs>
        <rect id="path-1" x="390" y="4684" width="400" height="400"></rect>
        <mask id="mask-2" maskContentUnits="userSpaceOnUse" maskUnits="objectBoundingBox" x="0" y="0" width="400" height="400" fill="white">
            <use xlink:href="#path-1"></use>
        </mask>
        <path d="M15.1284424,83.2956974 C16.4734805,68.5799616 23.6287706,56.1161556 34.4203556,45.6097562 C49.989954,30.4535388 69.1723874,22.4466772 90.3228514,19.2069217 C121.026735,14.5023692 150.276101,18.6283008 176.569512,36.1693745 C193.505001,47.4681196 204.823132,62.7885403 207.390696,83.3243678 C142.946165,59.5409656 79.2679934,59.556604 15.1284424,83.2956974 M30.1141482,106.68814 C30.1141482,97.9775501 66.2842047,90.9142054 111.006723,90.9142054 C155.726634,90.9142054 190.752365,97.9775501 190.752365,106.68814 C190.752365,115.401336 154.579702,122.46468 109.859791,122.46468 C65.137273,122.46468 30.1141482,115.401336 30.1141482,106.68814 M189.540267,256.389345 C178.284696,263.197262 165.86134,266.556912 153.052198,268.407456 C119.032638,273.320521 85.1538385,273.304882 51.660825,264.388387 C49.525968,263.820192 47.4249976,263.093006 45.3527004,262.324118 C27.4996652,255.703861 26.4882799,254.257309 26.4882799,235.522504 L26.4882799,142.950986 L26.4882799,135.718226 C30.2314481,137.198661 33.4141837,138.381967 36.3597129,139.841551 C41.0595264,142.16646 42.8346639,147.765008 42.8503039,149.644222 C43.004097,169.405949 43.019737,189.172888 43.019737,208.934615 C43.019737,219.868464 50.1020405,224.922274 55.27366,224.922274 C67.3320833,224.922274 69.4565136,213.154377 69.7953798,205.395124 C70.0534395,199.556787 69.7849532,193.697599 69.910073,187.851444 C70.0795061,180.073945 77.151383,174.764708 84.09032,174.785559 C91.0318637,174.80641 98.982186,180.115648 99.0682059,187.91921 C99.190719,199.009443 99.0525659,210.102282 99.1203391,221.195122 C99.1724724,229.824913 104.169445,235.392184 111.512415,235.19931 C118.612965,235.01165 123.255432,229.587731 123.289319,221.189909 C123.351879,206.466354 123.273679,191.742799 123.323206,177.02185 C123.351879,168.212218 128.049086,162.702287 135.384235,162.684043 C142.716779,162.665798 147.390525,168.170515 147.513039,176.96451 C147.539105,178.781171 147.640765,180.597832 147.640765,182.406673 C147.640765,193.728876 153.58917,199.113699 163.014864,198.897368 C172.464017,198.681037 177.81289,191.325775 177.81289,181.585657 C177.81289,170.182656 177.78161,159.561575 177.78161,148.320171 C177.78161,142.239439 181.712458,138.845906 187.63219,137.573983 C188.961588,137.287279 193.554528,136.557487 195.624219,135.7078 C195.738912,138.238615 195.910951,140.310703 195.910951,142.380185 C195.929198,176.464081 195.778012,210.547977 196.067351,244.629267 C196.114271,250.292974 194.041974,253.668263 189.540267,256.389345 M225.536339,104.154719 C225.536339,53.8437362 206.70136,32.5178078 172.603601,15.1174797 C159.379999,8.36950943 142.643792,7.88993178 127.877046,6.37561324 C118.042106,5.62236357 100.686944,6.002898 89.6425123,7.50939735 C79.7137327,8.86211908 70.0195529,11.6744249 60.7085525,15.1174797 C37.4519047,23.7186005 16.2706126,39.3387199 6.46695286,62.8875462 C2.39795184,72.6537279 0.463807858,83.1809785 0.34650802,93.7603571 C-0.242597829,145.729372 0.114515009,197.708812 0.0415284436,249.685646 C0.0284951284,259.793266 4.55626884,267.489966 12.0999517,273.588942 C26.6920515,285.382904 44.2218605,289.88937 62.1869822,292.990986 C71.2764162,294.560039 80.4805435,295.46446 89.6325374,296.668617 C105.186078,297.996001 116.342277,297.544144 129.537205,297.512867 C144.457616,296.668617 154.450358,294.982276 165.492182,292.990986 C178.833084,290.587885 205.744967,280.77885 217.608596,268.180579 C229.472226,255.582309 220.337991,258.031377 220.207658,241.470309 C219.832298,194.21106 219.832298,151.093381 220.017371,104.154719 L225.536339,104.154719 Z" id="path-3"></path>
        <filter x="-50%" y="-50%" width="200%" height="200%" filterUnits="objectBoundingBox" id="filter-4">
            <feOffset dx="0" dy="8" in="SourceAlpha" result="shadowOffsetOuter1"></feOffset>
            <feGaussianBlur stdDeviation="5.5" in="shadowOffsetOuter1" result="shadowBlurOuter1"></feGaussianBlur>
            <feColorMatrix values="0 0 0 0 0   0 0 0 0 0   0 0 0 0 0  0 0 0 0.5 0" type="matrix" in="shadowBlurOuter1"></feColorMatrix>
        </filter>
        <path d="M24.9184439,77.2956974 C26.263482,62.5799616 33.4187721,50.1161556 44.2103571,39.6097562 C59.7799555,24.4535388 78.9623889,16.4466772 100.112853,13.2069217 C130.816737,8.50236922 160.066103,12.6283008 186.359513,30.1693745 C203.295003,41.4681196 214.613134,56.7885403 217.180697,77.3243678 C152.736167,53.5409656 89.0579949,53.556604 24.9184439,77.2956974 M39.9041498,100.68814 C39.9041498,91.9775501 76.0742062,84.9142054 120.796724,84.9142054 C165.516635,84.9142054 200.542367,91.9775501 200.542367,100.68814 C200.542367,109.401336 164.369704,116.46468 119.649792,116.46468 C74.9272745,116.46468 39.9041498,109.401336 39.9041498,100.68814 M199.330269,250.389345 C188.074697,257.197262 175.651341,260.556912 162.842199,262.407456 C128.82264,267.320521 94.9438401,267.304882 61.4508265,258.388387 C59.3159695,257.820192 57.2149991,257.093006 55.142702,256.324118 C37.2896667,249.703861 36.2782815,248.257309 36.2782815,229.522504 L36.2782815,136.950986 L36.2782815,129.718226 C40.0214496,131.198661 43.2041852,132.381967 46.1497144,133.841551 C50.8495279,136.16646 52.6246655,141.765008 52.6403054,143.644222 C52.7940986,163.405949 52.8097385,183.172888 52.8097385,202.934615 C52.8097385,213.868464 59.892042,218.922274 65.0636615,218.922274 C77.1220848,218.922274 79.2465152,207.154377 79.5853814,199.395124 C79.843441,193.556787 79.5749547,187.697599 79.7000745,181.851444 C79.8695076,174.073945 86.9413845,168.764708 93.8803215,168.785559 C100.821865,168.80641 108.772188,174.115648 108.858207,181.91921 C108.980721,193.009443 108.842567,204.102282 108.910341,215.195122 C108.962474,223.824913 113.959447,229.392184 121.302417,229.19931 C128.402967,229.01165 133.045434,223.587731 133.07932,215.189909 C133.14188,200.466354 133.06368,185.742799 133.113207,171.02185 C133.14188,162.212218 137.839087,156.702287 145.174237,156.684043 C152.50678,156.665798 157.180527,162.170515 157.30304,170.96451 C157.329107,172.781171 157.430767,174.597832 157.430767,176.406673 C157.430767,187.728876 163.379172,193.113699 172.804865,192.897368 C182.254019,192.681037 187.602891,185.325775 187.602891,175.585657 C187.602891,164.182656 187.571612,153.561575 187.571612,142.320171 C187.571612,136.239439 191.502459,132.845906 197.422191,131.573983 C198.751589,131.287279 203.34453,130.557487 205.41422,129.7078 C205.528913,132.238615 205.700953,134.310703 205.700953,136.380185 C205.7192,170.464081 205.568013,204.547977 205.857353,238.629267 C205.904273,244.292974 203.831976,247.668263 199.330269,250.389345 M229.807373,98.1547187 C229.974199,56.4236442 213.898908,29.8357553 179.801149,12.4354272 C166.577547,5.68745695 152.433794,1.88993178 137.667047,0.375613238 C127.832108,-0.377636435 110.476945,0.00289800212 99.4325138,1.50939735 C89.5037343,2.86211908 79.8095544,5.67442495 70.498554,9.11747968 C47.2419063,17.7186005 28.2706126,32.4213043 18.4669529,55.9701306 C14.3979518,65.7363123 12.4638079,76.2635629 12.346508,86.8429416 C11.7574022,138.811956 12.114515,190.791396 12.0415284,242.76823 C12.0284951,252.87585 16.5562688,260.57255 24.0999517,266.671527 C38.6920515,278.465488 56.2218605,282.971954 74.1869822,286.07357 C83.2764162,287.642623 92.4805435,288.547044 101.632537,289.751201 C114.827466,289.719924 127.834714,289.686041 141.029643,289.654764 C152.149667,288.088318 163.319218,286.821607 174.361043,284.830317 C187.701945,282.427216 200.505874,278.249157 212.097704,270.932991 C224.823433,262.905279 230.127992,252.031377 229.997659,235.470309 C229.6223,188.21106 229.6223,145.093381 229.807373,98.1547187" id="path-5"></path>
        <filter x="-50%" y="-50%" width="200%" height="200%" filterUnits="objectBoundingBox" id="filter-6">
            <feOffset dx="0" dy="2" in="SourceAlpha" result="shadowOffsetOuter1"></feOffset>
            <feGaussianBlur stdDeviation="4" in="shadowOffsetOuter1" result="shadowBlurOuter1"></feGaussianBlur>
            <feColorMatrix values="0 0 0 0 0   0 0 0 0 0   0 0 0 0 0  0 0 0 0.5 0" type="matrix" in="shadowBlurOuter1"></feColorMatrix>
        </filter>
    </defs>
    <g id="Page-1" stroke="none" stroke-width="1" fill="none" fill-rule="evenodd">
        <g id="Artboard-6-Copy" transform="translate(-390.000000, -4684.000000)">
            <use id="Rectangle-4-Copy-9" stroke-opacity="0" stroke="#979797" mask="url(#mask-2)" stroke-width="2" xlink:href="#path-1"></use>
            <g id="Bucket" transform="translate(475.000000, 4730.000000)">
                <g id="Fill-27-Copy-4">
                    <use fill="black" fill-opacity="1" filter="url(#filter-4)" xlink:href="#path-3"></use>
                    <use fill="#BFBFBF" fill-rule="evenodd" xlink:href="#path-3"></use>
                </g>
                <g id="Fill-27-Copy-5">
                    <use fill="black" fill-opacity="1" filter="url(#filter-6)" xlink:href="#path-5"></use>
                    <use fill="#FFFFFF" fill-rule="evenodd" xlink:href="#path-5"></use>
                </g>
            </g>
        </g>
    </g>
</svg>