<?xml version="1.0" encoding="utf-8"?>
<!-- Generator: Adobe Illustrator 23.0.0, SVG Export Plug-In . SVG Version: 6.00 Build 0)  -->
<svg version="1.1" id="Layer_1" xmlns="http://www.w3.org/2000/svg" xmlns:xlink="http://www.w3.org/1999/xlink" x="0px" y="0px"
	 viewBox="0 0 92.2 75.2" style="enable-background:new 0 0 92.2 75.2;" xml:space="preserve">
<style type="text/css">
	.st0{opacity:0.5;fill:#FFFFFF;}
	.st1{fill:none;stroke:#000000;stroke-width:7;stroke-linecap:round;stroke-linejoin:round;stroke-miterlimit:10;}
</style>
<g>
	<path class="st0" d="M11.6,71.3c-4.4,0-7.9-3.6-7.9-7.9V11.3c0-4.4,3.6-7.9,7.9-7.9h68.6c4.4,0,7.9,3.6,7.9,7.9v52.1
		c0,4.4-3.6,7.9-7.9,7.9C80.2,71.3,11.6,71.3,11.6,71.3z"/>
	<path d="M80.3,6.8c2.4,0,4.4,2,4.4,4.4v52.1c0,2.4-2,4.4-4.4,4.4H11.6c-2.4,0-4.4-2-4.4-4.4v-52c0-2.4,2-4.4,4.4-4.4L80.3,6.8
		 M80.3-0.2H11.6C5.4-0.2,0.2,5,0.2,11.3v52.1c0,6.3,5.1,11.4,11.4,11.4h68.6c6.3,0,11.4-5.1,11.4-11.4V11.3
		C91.7,5,86.6-0.2,80.3-0.2L80.3-0.2z"/>
</g>
<g>
	<polyline class="st1" points="20,16.8 43,37.8 20,57.8 	"/>
	<polyline class="st1" points="49,16.8 72,37.8 49,57.8 	"/>
</g>
</svg>
