<?xml version="1.0" encoding="utf-8"?>
<!-- Generator: Adobe Illustrator 23.0.0, SVG Export Plug-In . SVG Version: 6.00 Build 0)  -->
<svg version="1.1" id="Layer_1" xmlns="http://www.w3.org/2000/svg" xmlns:xlink="http://www.w3.org/1999/xlink" x="0px" y="0px"
	 viewBox="0 0 18 22.2" style="enable-background:new 0 0 18 22.2;" xml:space="preserve">
<path d="M9,17.5c0.3,0,0.6-0.3,0.6-0.6v-6.1c0-0.3-0.3-0.6-0.6-0.6c-0.3,0-0.6,0.3-0.6,0.6V17C8.4,17.3,8.7,17.5,9,17.5z M10.7,0
	H7.3c-1.1,0-2,0.9-2,2v0.2H1.5C0.7,2.1,0,2.8,0,3.7v2.6c0,0.8,0.7,1.5,1.5,1.5h0.2v12c0,1.4,1.1,2.5,2.5,2.5h9.6
	c1.4,0,2.5-1.1,2.5-2.5v-12h0.2c0.8,0,1.5-0.7,1.5-1.5V3.7c0-0.8-0.7-1.5-1.5-1.5h-3.7V2C12.7,0.9,11.8,0,10.7,0z M6.4,2
	c0-0.5,0.4-0.8,0.9-0.8h3.5c0.5,0,0.9,0.4,0.9,0.8v0.2H6.4V2z M15.1,19.7c0,0.7-0.6,1.3-1.3,1.3H4.2c-0.7,0-1.3-0.6-1.3-1.3v-12
	h12.3C15.2,7.7,15.1,19.7,15.1,19.7z M16.9,6.2c0,0.2-0.2,0.4-0.4,0.4h-15c-0.2,0-0.4-0.2-0.4-0.4V3.6c0-0.2,0.2-0.4,0.4-0.4h15
	c0.2,0,0.4,0.2,0.4,0.4C16.9,3.6,16.9,6.2,16.9,6.2z M5.7,17.5c0.3,0,0.6-0.3,0.6-0.6v-6.1c0-0.3-0.3-0.6-0.6-0.6
	c-0.3,0-0.6,0.3-0.6,0.6V17C5.2,17.3,5.4,17.5,5.7,17.5z M12.3,17.5c0.3,0,0.6-0.3,0.6-0.6v-6.1c0-0.3-0.3-0.6-0.6-0.6
	c-0.3,0-0.6,0.3-0.6,0.6V17C11.7,17.3,12,17.5,12.3,17.5z"/>
</svg>
