<?xml version="1.0" encoding="utf-8"?>
<!-- Generator: Adobe Illustrator 23.0.0, SVG Export Plug-In . SVG Version: 6.00 Build 0)  -->
<svg version="1.1" id="Layer_1" xmlns="http://www.w3.org/2000/svg" xmlns:xlink="http://www.w3.org/1999/xlink" x="0px" y="0px"
	 viewBox="0 0 25.5 25.5" style="enable-background:new 0 0 25.5 25.5;" xml:space="preserve">
<style type="text/css">
	.st0{fill-rule:evenodd;clip-rule:evenodd;fill:#BFBFBF;}
	.st1{fill-rule:evenodd;clip-rule:evenodd;fill:#FFFFFF;}
</style>
<title>11 - Mirror Vertically (design, graphic, tool)</title>
<desc>Created with Sketch.</desc>
<g>
	<g transform="translate(-535.000000, -829.000000)">
		<g transform="translate(535.000000, 829.000000)">
			<path class="st0" d="M14.7,9.7c-0.3,0.2-0.5,0.5-0.5,0.8c0,0.3,0.2,0.7,0.5,0.8l8,5c0.3,0.2,0.7,0.2,1,0c0.3-0.2,0.5-0.5,0.5-0.9
				v-10c0-0.4-0.2-0.7-0.5-0.9c-0.3-0.2-0.7-0.2-1,0L14.7,9.7z"/>
			<path class="st0" d="M9.8,11.4c0.6-0.4,0.6-1.3,0-1.7l-8-5c-0.3-0.2-0.7-0.2-1,0C0.5,4.8,0.3,5.1,0.3,5.5v10
				c0,0.4,0.2,0.7,0.5,0.9c0.3,0.2,0.7,0.2,1,0L9.8,11.4z"/>
			<path class="st0" d="M13.3,11v-1c0-0.6-0.4-1-1-1s-1,0.4-1,1v1c0,0.6,0.4,1,1,1S13.3,11.6,13.3,11"/>
			<path class="st0" d="M13.3,16v-1c0-0.6-0.4-1-1-1s-1,0.4-1,1v1c0,0.6,0.4,1,1,1S13.3,16.6,13.3,16"/>
			<path class="st0" d="M12.3,7c0.6,0,1-0.4,1-1V5c0-0.6-0.4-1-1-1s-1,0.4-1,1v1C11.3,6.6,11.7,7,12.3,7"/>
			<path class="st0" d="M7.3,19.8v-0.4l0.4,0.4c2.3,2.3,5.9,2.3,8.3-0.1c0.4-0.4,0.4-1,0-1.4c-0.4-0.4-1-0.4-1.4,0
				c-1.6,1.6-3.9,1.6-5.5,0.1L8.7,18h0.4c0.6,0,1-0.4,1-1c0-0.6-0.4-1-1-1H6.3c-0.1,0-0.3,0-0.4,0.1c-0.2,0.1-0.4,0.3-0.5,0.5
				c0,0.1-0.1,0.3-0.1,0.4v2.8c0,0.6,0.4,1,1,1S7.3,20.4,7.3,19.8"/>
		</g>
	</g>
</g>
<text transform="matrix(1 0 0 1 2.2898 37.1631)" style="font-family:'HelveticaNeue-Bold'; font-size:5px;">Created by Ben Davis</text>
<text transform="matrix(1 0 0 1 2.2898 42.1631)" style="font-family:'HelveticaNeue-Bold'; font-size:5px;">from the Noun Project</text>
<g>
	<g transform="translate(-535.000000, -829.000000)">
		<g transform="translate(535.000000, 829.000000)">
			<path class="st1" d="M15.7,9.6c-0.3,0.2-0.5,0.5-0.5,0.8c0,0.3,0.2,0.7,0.5,0.8l8,5c0.3,0.2,0.7,0.2,1,0c0.3-0.2,0.5-0.5,0.5-0.9
				v-10c0-0.4-0.2-0.7-0.5-0.9c-0.3-0.2-0.7-0.2-1,0L15.7,9.6z"/>
			<path class="st1" d="M10.8,11.3c0.6-0.4,0.6-1.3,0-1.7l-8-5c-0.3-0.2-0.7-0.2-1,0C1.5,4.7,1.3,5.1,1.3,5.4v10
				c0,0.4,0.2,0.7,0.5,0.9c0.3,0.2,0.7,0.2,1,0L10.8,11.3z"/>
			<path class="st1" d="M14.3,11v-1c0-0.6-0.4-1-1-1s-1,0.4-1,1v1c0,0.6,0.4,1,1,1S14.3,11.5,14.3,11"/>
			<path class="st1" d="M14.3,16v-1c0-0.6-0.4-1-1-1s-1,0.4-1,1v1c0,0.6,0.4,1,1,1S14.3,16.5,14.3,16"/>
			<path class="st1" d="M13.3,7c0.6,0,1-0.4,1-1V5c0-0.6-0.4-1-1-1s-1,0.4-1,1v1C12.3,6.5,12.7,7,13.3,7"/>
			<path class="st1" d="M8.3,19.8v-0.4l0.4,0.4c2.3,2.3,5.9,2.3,8.3-0.1c0.4-0.4,0.4-1,0-1.4c-0.4-0.4-1-0.4-1.4,0
				c-1.6,1.6-3.9,1.6-5.5,0.1L9.7,18h0.4c0.6,0,1-0.4,1-1c0-0.6-0.4-1-1-1H7.3C7.1,16,7,16,6.9,16c-0.2,0.1-0.4,0.3-0.5,0.5
				c0,0.1-0.1,0.3-0.1,0.4v2.8c0,0.6,0.4,1,1,1S8.3,20.3,8.3,19.8"/>
		</g>
	</g>
</g>
</svg>
