<?xml version="1.0" encoding="utf-8"?>
<!-- Generator: Adobe Illustrator 23.0.0, SVG Export Plug-In . SVG Version: 6.00 Build 0)  -->
<svg version="1.1" id="Layer_1" xmlns="http://www.w3.org/2000/svg" xmlns:xlink="http://www.w3.org/1999/xlink" x="0px" y="0px"
	 viewBox="0 0 25.5 25.5" style="enable-background:new 0 0 25.5 25.5;" xml:space="preserve">
<style type="text/css">
	.st0{fill-rule:evenodd;clip-rule:evenodd;fill:#BFBFBF;}
	.st1{fill-rule:evenodd;clip-rule:evenodd;fill:#FFFFFF;}
</style>
<title>11 - Mirror Vertically (design, graphic, tool)</title>
<desc>Created with Sketch.</desc>
<g>
	<g transform="translate(-535.000000, -829.000000)">
		<g transform="translate(535.000000, 829.000000)">
			<path class="st0" d="M8.7,9.8c0.2,0.3,0.5,0.5,0.8,0.5c0.3,0,0.7-0.2,0.8-0.5l5-8c0.2-0.3,0.2-0.7,0-1c-0.2-0.3-0.5-0.5-0.9-0.5
				h-10c-0.4,0-0.7,0.2-0.9,0.5s-0.2,0.7,0,1L8.7,9.8z"/>
			<path class="st0" d="M10.4,14.7c-0.4-0.6-1.3-0.6-1.7,0l-5,8c-0.2,0.3-0.2,0.7,0,1c0.2,0.3,0.5,0.5,0.9,0.5h10
				c0.4,0,0.7-0.2,0.9-0.5c0.2-0.3,0.2-0.7,0-1L10.4,14.7z"/>
			<path class="st0" d="M10,11.3H9c-0.6,0-1,0.4-1,1s0.4,1,1,1h1c0.6,0,1-0.4,1-1S10.6,11.3,10,11.3"/>
			<path class="st0" d="M15,11.3h-1c-0.6,0-1,0.4-1,1s0.4,1,1,1h1c0.6,0,1-0.4,1-1S15.6,11.3,15,11.3"/>
			<path class="st0" d="M6,12.3c0-0.6-0.4-1-1-1H4c-0.6,0-1,0.4-1,1s0.4,1,1,1h1C5.6,13.3,6,12.8,6,12.3"/>
			<path class="st0" d="M18.8,17.3h-0.4l0.4-0.4c2.3-2.3,2.3-5.9-0.1-8.3c-0.4-0.4-1-0.4-1.4,0c-0.4,0.4-0.4,1,0,1.4
				c1.6,1.6,1.6,3.9,0.1,5.5L17,15.8v-0.4c0-0.6-0.4-1-1-1c-0.6,0-1,0.4-1,1v2.8c0,0.1,0,0.3,0.1,0.4c0.1,0.2,0.3,0.4,0.5,0.5
				c0.1,0,0.3,0.1,0.4,0.1h2.8c0.6,0,1-0.4,1-1S19.4,17.3,18.8,17.3"/>
		</g>
	</g>
</g>
<text transform="matrix(1 0 0 1 2.2898 37.1631)" style="font-family:'HelveticaNeue-Bold'; font-size:5px;">Created by Ben Davis</text>
<text transform="matrix(1 0 0 1 2.2898 42.1631)" style="font-family:'HelveticaNeue-Bold'; font-size:5px;">from the Noun Project</text>
<g>
	<g transform="translate(-535.000000, -829.000000)">
		<g transform="translate(535.000000, 829.000000)">
			<path class="st1" d="M9.6,9.8c0.2,0.3,0.5,0.5,0.8,0.5c0.3,0,0.7-0.2,0.8-0.5l5-8c0.2-0.3,0.2-0.7,0-1c-0.2-0.3-0.5-0.5-0.9-0.5
				h-10c-0.4,0-0.7,0.2-0.9,0.5s-0.2,0.7,0,1L9.6,9.8z"/>
			<path class="st1" d="M11.3,14.7c-0.4-0.6-1.3-0.6-1.7,0l-5,8c-0.2,0.3-0.2,0.7,0,1c0.2,0.3,0.5,0.5,0.9,0.5h10
				c0.4,0,0.7-0.2,0.9-0.5c0.2-0.3,0.2-0.7,0-1L11.3,14.7z"/>
			<path class="st1" d="M11,11.3h-1c-0.6,0-1,0.4-1,1s0.4,1,1,1h1c0.6,0,1-0.4,1-1S11.5,11.3,11,11.3"/>
			<path class="st1" d="M16,11.3h-1c-0.6,0-1,0.4-1,1s0.4,1,1,1h1c0.6,0,1-0.4,1-1S16.5,11.3,16,11.3"/>
			<path class="st1" d="M7,12.3c0-0.6-0.4-1-1-1H5c-0.6,0-1,0.4-1,1s0.4,1,1,1h1C6.5,13.3,7,12.8,7,12.3"/>
			<path class="st1" d="M19.8,17.3h-0.4l0.4-0.4c2.3-2.3,2.3-5.9-0.1-8.3c-0.4-0.4-1-0.4-1.4,0c-0.4,0.4-0.4,1,0,1.4
				c1.6,1.6,1.6,3.9,0.1,5.5L18,15.8v-0.4c0-0.6-0.4-1-1-1s-1,0.4-1,1v2.8c0,0.1,0,0.3,0.1,0.4c0.1,0.2,0.3,0.4,0.5,0.5
				c0.1,0,0.3,0.1,0.4,0.1h2.8c0.6,0,1-0.4,1-1S20.3,17.3,19.8,17.3"/>
		</g>
	</g>
</g>
</svg>
