<svg height='100px' width='100px'  fill="#ffffff" xmlns:x="http://ns.adobe.com/Extensibility/1.0/" xmlns:i="http://ns.adobe.com/AdobeIllustrator/10.0/" xmlns:graph="http://ns.adobe.com/Graphs/1.0/" xmlns="http://www.w3.org/2000/svg" xmlns:xlink="http://www.w3.org/1999/xlink" version="1.1" x="0px" y="0px" viewBox="0 0 100 100" style="enable-background:new 0 0 100 100;" xml:space="preserve"><g><g i:extraneous="self"><g><path d="M76.1,52.2v24L58,52.7c-0.6-0.8-1.5-1.2-2.4-1.2s-1.8,0.4-2.4,1.2L37.5,72.9L28.3,61c-0.6-0.8-1.5-1.2-2.4-1.2     c-1,0-1.8,0.4-2.4,1.2L9.3,79.2V32.4h47c-0.2-1.1-0.3-2.3-0.3-3.4c0-1.2,0.1-2.3,0.3-3.4H5.9c-1.9,0-3.4,1.5-3.4,3.4v56.5     c0,1.9,1.5,3.4,3.4,3.4h73.6c1.9,0,3.4-1.5,3.4-3.4V52.2c-1.1,0.2-2.3,0.3-3.4,0.3C78.4,52.4,77.3,52.3,76.1,52.2z"></path><circle cx="29.6" cy="46.3" r="6.9"></circle><path d="M79.5,11.1c-9.9,0-18,8-18,18c0,9.9,8,18,18,18c9.9,0,18-8,18-18C97.5,19.1,89.5,11.1,79.5,11.1z M86.7,30.4l-10.2,6.5     c-1.1,0.7-2.5-0.1-2.5-1.4v-13c0-1.3,1.4-2.1,2.5-1.4l10.2,6.5C87.7,28.3,87.7,29.7,86.7,30.4z"></path></g></g></g></svg>