<?xml version="1.0" encoding="utf-8"?>
<!-- Generator: Adobe Illustrator 24.0.3, SVG Export Plug-In . SVG Version: 6.00 Build 0)  -->
<svg version="1.1" xmlns="http://www.w3.org/2000/svg" xmlns:xlink="http://www.w3.org/1999/xlink" x="0px" y="0px"
	 viewBox="0 0 110 110" style="enable-background:new 0 0 110 110;" xml:space="preserve">
<style type="text/css">
	.st0{fill:#FFFFFF;}
</style>
<g id="Layer_2">
</g>
<g id="Layer_1">
	<g>
		<g>
			<circle class="st0" cx="29.9" cy="44.5" r="6.9"/>
			<path class="st0" d="M76.3,68.6l0.1,5.9L58.3,50.9c-0.6-0.8-1.5-1.2-2.4-1.2c-0.9,0-1.8,0.4-2.4,1.2L37.8,71.1l-9.2-11.9
				C28,58.4,27.1,58,26.2,58c-1,0-1.8,0.4-2.4,1.2L9.6,77.4V30.6l66.8,0l0,11.3c1.7-2.5,4.1-3.5,6.9-4.9v-6.4v-3.3
				c0-1.9-1.6-3.5-3.5-3.5l-73.5,0c-1.9,0-3.4,1.5-3.4,3.4v56.5c0,1.9,1.5,3.4,3.4,3.4h73.6c1.9,0,3.4-1.5,3.4-3.4V73.5
				C80.5,72.2,78.1,71.1,76.3,68.6z"/>
			<path class="st0" d="M90.2,37.5c-9.9,0-18,8-18,18c0,9.9,8,18,18,18c9.9,0,18-8,18-18S100.2,37.5,90.2,37.5z M97.4,56.8
				l-10.2,6.5c-1.1,0.7-2.5-0.1-2.5-1.4v-13c0-1.3,1.4-2.1,2.5-1.4L97.4,54C98.4,54.7,98.4,56.1,97.4,56.8z"/>
		</g>
	</g>
</g>
</svg>
