<svg height='100px' width='100px'  fill="#ffffff" xmlns="http://www.w3.org/2000/svg" xmlns:xlink="http://www.w3.org/1999/xlink" version="1.1" x="0px" y="0px" viewBox="0 0 28 32" style="enable-background:new 0 0 28 32;" xml:space="preserve"><g><g><path d="M23,15H1c-0.55,0-1,0.45-1,1v10c0,0.55,0.45,1,1,1h22c0.551,0,1-0.45,1-1V16C24,15.45,23.551,15,23,15z M5.882,23.504    c0,0.28-0.216,0.496-0.496,0.496c-0.288,0-0.544-0.216-0.544-0.496v-1.75H2.236v1.75c0,0.28-0.208,0.496-0.488,0.496    c-0.36,0-0.567-0.216-0.567-0.496v-4.541c0-0.288,0.208-0.496,0.567-0.496c0.28,0,0.488,0.208,0.488,0.496v1.743h2.606v-1.743    c0-0.288,0.256-0.496,0.544-0.496c0.28,0,0.496,0.208,0.496,0.496V23.504z M11.062,19.467H9.735v4.037    c0,0.695-1.056,0.712-1.056,0v-4.037H7.281c-0.696,0-0.696-1.023,0-1.023h3.781C11.774,18.443,11.774,19.467,11.062,19.467z     M17.988,23.448c0,0.353-0.225,0.552-0.48,0.552c-0.287,0-0.512-0.199-0.512-0.552V20.49l-1.328,1.679    c-0.287,0.353-0.646,0.353-0.911,0l-1.191-1.679v2.958c0,0.353-0.288,0.552-0.575,0.552c-0.256,0-0.48-0.199-0.48-0.552v-4.501    c0-0.416,0.353-0.553,0.48-0.553c0.231,0,0.367,0.137,0.503,0.289l1.76,2.374l1.822-2.463c0.264-0.327,0.912-0.2,0.912,0.353    V23.448z M22.529,24h-2.646c-0.279,0-0.504-0.199-0.504-0.488v-4.564c0-0.264,0.225-0.488,0.504-0.488    c0.256,0,0.473,0.225,0.473,0.488v4.006h2.174C23.312,22.953,23.33,24,22.529,24z"></path><path d="M27,7.586L20.414,1C19.836,0.42,18.82,0,18,0H7C5.346,0,4,1.346,4,3v10c0,0.553,0.447,1,1,1s1-0.447,1-1V3    c0-0.551,0.448-1,1-1h9c1.105,0,2,0.896,2,2v3.75C18,8.988,19.014,10,20.25,10H24c1.105,0,2,0.896,2,2v17c0,0.551-0.447,1-1,1H7    c-0.552,0-1-0.449-1-1c0-0.553-0.447-1-1-1s-1,0.447-1,1c0,1.654,1.346,3,3,3h18c1.654,0,3-1.346,3-3V10    C28,9.181,27.58,8.165,27,7.586z"></path></g></g></svg>