<?xml version="1.0" encoding="utf-8"?>
<!-- Generator: Adobe Illustrator 23.0.0, SVG Export Plug-In . SVG Version: 6.00 Build 0)  -->
<svg version="1.1" id="Layer_1" xmlns="http://www.w3.org/2000/svg" xmlns:xlink="http://www.w3.org/1999/xlink" x="0px" y="0px"
	 viewBox="0 0 16 16" style="enable-background:new 0 0 16 16;" xml:space="preserve">
<style type="text/css">
	.st0{opacity:0.5;fill:#FFFFFF;}
</style>
<path class="st0" d="M8.1,15c-0.4,0-0.8-0.2-1.1-0.4L1.4,9c-0.6-0.6-0.6-1.5,0-2.1l5.6-5.6C7.2,1,7.6,0.9,8.1,0.9s0.8,0.2,1.1,0.4
	l5.6,5.6c0.6,0.6,0.6,1.5,0,2.1l-5.6,5.6C8.8,14.9,8.4,15,8.1,15z"/>
<path d="M8.1,1.8c0.1,0,0.3,0,0.4,0.2L14,7.6c0.2,0.2,0.2,0.6,0,0.8L8.4,14c-0.1,0.1-0.2,0.2-0.4,0.2c-0.1,0-0.3,0-0.4-0.2L2,8.4
	C1.8,8.1,1.8,7.8,2,7.5l5.6-5.6C7.7,1.8,7.8,1.8,8.1,1.8 M8,0C7.3,0,6.8,0.2,6.2,0.7L0.8,6.2c-1,1-1,2.5,0,3.5l5.6,5.6
	c0.4,0.4,1,0.7,1.7,0.7s1.2-0.3,1.7-0.8l5.6-5.6c0.9-0.9,0.9-2.5,0-3.4L9.8,0.7C9.3,0.2,8.7,0,8,0z"/>
</svg>
