<?xml version="1.0" encoding="utf-8"?>
<!-- Generator: Adobe Illustrator 23.0.0, SVG Export Plug-In . SVG Version: 6.00 Build 0)  -->
<svg version="1.1" id="Layer_1" xmlns="http://www.w3.org/2000/svg" xmlns:xlink="http://www.w3.org/1999/xlink" x="0px" y="0px"
	 viewBox="0 0 10.1 14.9" style="enable-background:new 0 0 10.1 14.9;" xml:space="preserve">
<style type="text/css">
	.st0{opacity:0.9;enable-background:new    ;}
</style>
<path class="st0" d="M8.3,6.5v6.7H1.6V6.5H8.3 M6.9,0H3.1c-1,0-1.5,0.7-1.5,1.6V5h1.5V1.6h3.7V5H0.6C0.2,5,0,5.2,0,5.6v8.7
	c0,0.3,0.2,0.6,0.7,0.6h8.7c0.3,0,0.7-0.2,0.7-0.7V5.6C9.9,5.2,9.7,5,9.3,5h-1V1.6C8.3,0.7,7.7,0.1,6.9,0z"/>
<circle class="st0" cx="5.1" cy="9.9" r="1.5"/>
</svg>
