<?xml version="1.0" encoding="utf-8"?>
<!-- Generator: Adobe Illustrator 23.0.0, SVG Export Plug-In . SVG Version: 6.00 Build 0)  -->
<svg version="1.1" id="Layer_1" xmlns="http://www.w3.org/2000/svg" xmlns:xlink="http://www.w3.org/1999/xlink" x="0px" y="0px"
	 viewBox="0 0 29.1 29.1" style="enable-background:new 0 0 29.1 29.1;" xml:space="preserve">
<style type="text/css">
	<!-- .st0{opacity:0.4;fill:url(#SVGID_1_);enable-background:new    ;}
	.st1{fill:url(#SVGID_2_);}
	.st2{opacity:0.65;fill:url(#SVGID_3_);enable-background:new    ;} -->
	.st0{opacity:0.4;fill:white;enable-background:new    ;}
	.st1{fill:white;}
	.st2{opacity:0.65;fill:white;enable-background:new    ;}
</style>
<title>Onion_4</title>
<g>
	<g>
		<g id="Icons">
			
				<image style="overflow:visible;opacity:0.5;enable-background:new    ;" width="28" height="48" xlink:href="791CE73B260CD94D.png"  transform="matrix(-0.7071 0.7071 -0.7071 -0.7071 38.1566 22.5154)">
			</image>
			
				<linearGradient id="SVGID_1_" gradientUnits="userSpaceOnUse" x1="-365.1496" y1="-78.8402" x2="-350.575" y2="-78.8402" gradientTransform="matrix(5.551115e-17 1 1 -5.551115e-17 86.1275 365.1151)">
				<stop  offset="0" style="stop-color:#F0F0F0"/>
				<stop  offset="0.71" style="stop-color:#CCCCCC"/>
			</linearGradient>
			<path class="st0" d="M5.4,14.5c0-5.1,4.1-9.2,9.2-9.2l0,0c-1.2-3.9-5.3-6.2-9.2-5s-6.2,5.3-5,9.2C1,12,2.9,13.9,5.4,14.5
				L5.4,14.5z"/>
			
				<linearGradient id="SVGID_2_" gradientUnits="userSpaceOnUse" x1="-350.9306" y1="-64.4182" x2="-336.0506" y2="-64.4182" gradientTransform="matrix(5.551115e-17 1 1 -5.551115e-17 86.1275 365.1151)">
				<stop  offset="0" style="stop-color:#F0F0F0"/>
				<stop  offset="0.71" style="stop-color:#CCCCCC"/>
			</linearGradient>
			<circle class="st1" cx="21.7" cy="21.6" r="7.4"/>
			
				<linearGradient id="SVGID_3_" gradientUnits="userSpaceOnUse" x1="-358.0335" y1="-71.7462" x2="-343.4535" y2="-71.7462" gradientTransform="matrix(5.551115e-17 1 1 -5.551115e-17 86.1275 365.1151)">
				<stop  offset="0" style="stop-color:#F0F0F0"/>
				<stop  offset="0.71" style="stop-color:#CCCCCC"/>
			</linearGradient>
			<path class="st2" d="M12.5,21.6c0-5.1,4.1-9.2,9.2-9.2l0,0c-1.2-3.9-5.3-6.2-9.2-5s-6.2,5.3-5,9.2C8.1,19.1,10,21,12.5,21.6
				L12.5,21.6z"/>
		</g>
	</g>
</g>
</svg>
