<svg height="682pt" fill="#ffffff" viewBox="-113 -21 682 682.66669" width="682pt" xmlns="http://www.w3.org/2000/svg"><path d="m248.046875 217.363281h-18.75v-18.75h18.75zm-31.25 0h-18.75v-18.75h18.75zm0 0"/><path d="m362.265625 236.046875c-26.210937-17.238281-41.855469-45.898437-41.855469-76.664063v-10.769531h-195.125v10.769531c0 30.765626-15.648437 59.425782-41.855468 76.664063-110.445313 72.648437-119.058594 210.625-21.632813 293.203125 37.90625 32.132812 86.730469 51.554688 139.289063 55.765625l-29.757813 29.757813 13.257813 13.257812 28.882812-28.882812v40.851562h18.75v-40.851562l28.886719 28.890624 13.257812-13.265624-29.757812-29.757813c52.558593-4.210937 101.382812-23.632813 139.289062-55.765625 97.382813-82.546875 88.875-220.515625-21.628906-293.203125zm-42.832031 311.253906c69.410156-62.261719 84.609375-177.332031 39.609375-261.953125l-16.554688 8.800782c37.214844 69.957031 29.8125 164.71875-21.226562 224.5-15.148438 17.734374-34.503907 32.464843-56.449219 40.734374 9.847656-13.609374 17.550781-31.535156 23.28125-54.074218 19.480469-67.84375 20.773438-143.042969 3.734375-217.464844l-18.277344 4.183594c16.347657 71.390625 15.128907 143.402344-3.519531 208.242187l-.078125.285157c-8.511719 33.582031-21.28125 54.933593-39.027344 65.269531-1.09375.523437-2.195312.910156-3.292969 1.191406-2.90625.128906-5.816406.152344-8.714843.054687-9.183594-2.105468-17.753907-10.484374-23.433594-19.0625-1.816406-3.304687-3.035156-6.023437-5.273437-8.949218-32.117188-65.269532-38.183594-148.449219-18.035157-247.253906l-18.371093-3.75c-17.929688 87.925781-19.34375 180.84375 20.539062 261.207031l.703125.847656c1.292969 1.550781 2.214844 3.699219 4.210937 7.304687.695313 1.144532.425782.671876 1.179688 1.78125-26.804688-10.25-49.132812-29.566406-65.535156-52.835937-42.5625-60.386719-46.273438-147.1875-11.691406-212.210937l-16.558594-8.800782c-45.914063 86.332032-28.417969 200.777344 39.457031 261.882813-67.132813-29.453125-113.070313-88.550781-113.070313-156.503907 0-54.613281 29.414063-105.28125 80.691407-139.015624 29.230469-19.226563 47.53125-50.324219 50.015625-84.347657h158.203125c2.492187 34.023438 20.785156 65.121094 50.015625 84.347657 51.277344 33.734374 80.691406 84.402343 80.691406 139.015624 0 68.003907-46.007812 127.140626-113.222656 156.574219zm0 0"/><path d="m152.589844 118.925781-35.855469-62.097656 25.519531-14.734375 48.367188 83.773438 3.90625-2.253907h13.585937v-104.863281h29.464844v104.863281h13.585937l3.910157 2.253907 48.371093-83.773438 25.515626 14.734375-35.859376 62.097656 16.242188 9.375 45.226562-78.339843-57.992187-33.480469-40.25 69.714843v-86.195312h-66.964844v86.195312l-40.25-69.714843-57.992187 33.480469 45.226562 78.339843zm0 0"/></svg>
