<?xml version="1.0" encoding="utf-8"?>
<!-- Generator: Adobe Illustrator 23.0.0, SVG Export Plug-In . SVG Version: 6.00 Build 0)  -->
<svg version="1.1" id="Layer_1" xmlns="http://www.w3.org/2000/svg" xmlns:xlink="http://www.w3.org/1999/xlink" x="0px" y="0px"
	 viewBox="0 0 44 44" style="enable-background:new 0 0 44 44;" xml:space="preserve">
<style type="text/css">
	.st0{fill-rule:evenodd;clip-rule:evenodd;fill:url(#SVGID_1_);}
	.st1{fill-rule:evenodd;clip-rule:evenodd;fill:url(#SVGID_2_);}
	.st2{fill-rule:evenodd;clip-rule:evenodd;fill:url(#SVGID_3_);}
	.st3{fill-rule:evenodd;clip-rule:evenodd;fill:url(#SVGID_4_);}
	.st4{fill-rule:evenodd;clip-rule:evenodd;fill:url(#SVGID_5_);}
</style>
<title>Group 18</title>
<desc>Created with Sketch.</desc>
<g id="Artboard-2-Copy-4" transform="translate(-1489.000000, -2842.000000)">
	<linearGradient id="SVGID_1_" gradientUnits="userSpaceOnUse" x1="1503.8827" y1="2863.9883" x2="1518.1173" y2="2863.9883">
		<stop  offset="0" style="stop-color:#F0F0F0"/>
		<stop  offset="0.71" style="stop-color:#CCCCCC"/>
	</linearGradient>
	<circle class="st0" cx="1511" cy="2864" r="7.1"/>
	<linearGradient id="SVGID_2_" gradientUnits="userSpaceOnUse" x1="1502.5575" y1="2880.5957" x2="1519.4425" y2="2880.5957">
		<stop  offset="0" style="stop-color:#F0F0F0"/>
		<stop  offset="0.71" style="stop-color:#CCCCCC"/>
	</linearGradient>
	<path class="st1" d="M1502.9,2877.6l7.4,7.4c0.4,0.4,1,0.4,1.4,0l7.4-7.4c0.6-0.6,0.2-1.7-0.7-1.7h-14.8
		C1502.7,2875.9,1502.2,2877,1502.9,2877.6z"/>
	<linearGradient id="SVGID_3_" gradientUnits="userSpaceOnUse" x1="1522.8779" y1="2863.9883" x2="1532.3372" y2="2863.9883">
		<stop  offset="0" style="stop-color:#F0F0F0"/>
		<stop  offset="0.71" style="stop-color:#CCCCCC"/>
	</linearGradient>
	<path class="st2" d="M1524.6,2872.1l7.4-7.4c0.4-0.4,0.4-1,0-1.4l-7.4-7.4c-0.6-0.6-1.7-0.2-1.7,0.7v14.8
		C1522.9,2872.3,1524,2872.8,1524.6,2872.1z"/>
	<linearGradient id="SVGID_4_" gradientUnits="userSpaceOnUse" x1="1502.5575" y1="2847.5183" x2="1519.4425" y2="2847.5183">
		<stop  offset="0" style="stop-color:#F0F0F0"/>
		<stop  offset="0.71" style="stop-color:#CCCCCC"/>
	</linearGradient>
	<path class="st3" d="M1519.1,2850.5l-7.4-7.4c-0.4-0.4-1-0.4-1.4,0l-7.4,7.4c-0.6,0.6-0.2,1.7,0.7,1.7h14.8
		C1519.3,2852.2,1519.8,2851.2,1519.1,2850.5z"/>
	<linearGradient id="SVGID_5_" gradientUnits="userSpaceOnUse" x1="1489.6628" y1="2863.8523" x2="1499.1221" y2="2863.8523">
		<stop  offset="0" style="stop-color:#F0F0F0"/>
		<stop  offset="0.71" style="stop-color:#CCCCCC"/>
	</linearGradient>
	<path class="st4" d="M1497.4,2855.7l-7.4,7.4c-0.4,0.4-0.4,1,0,1.4l7.4,7.4c0.6,0.6,1.7,0.2,1.7-0.7v-14.8
		C1499.1,2855.5,1498,2855.1,1497.4,2855.7z"/>
</g>
</svg>
