<svg id="Layer_1" data-name="Layer 1" xmlns="http://www.w3.org/2000/svg" viewBox="0 0 98.47 98.47"><defs><style>.cls-1{fill:#fff;}</style></defs><title>pan</title><path class="cls-1" d="M98.69,49,86.16,36.49A1.85,1.85,0,0,0,83,37.8v7a1.59,1.59,0,0,1-1.59,1.58H55.59A1.59,1.59,0,0,1,54,44.75V18.92a1.59,1.59,0,0,1,1.59-1.59h6.94a1.85,1.85,0,0,0,1.31-3.16L51.31,1.64a1.86,1.86,0,0,0-2.62,0L36.16,14.17a1.85,1.85,0,0,0,1.31,3.16h6.94A1.59,1.59,0,0,1,46,18.92V44.75a1.59,1.59,0,0,1-1.59,1.58H18.59A1.59,1.59,0,0,1,17,44.75v-7a1.85,1.85,0,0,0-3.16-1.31L1.31,49a1.86,1.86,0,0,0,0,2.62L13.84,64.17A1.85,1.85,0,0,0,17,62.86V55.92a1.59,1.59,0,0,1,1.59-1.59H44.41A1.59,1.59,0,0,1,46,55.92V81.75a1.59,1.59,0,0,1-1.59,1.58H37.47a1.85,1.85,0,0,0-1.31,3.16L48.69,99a1.84,1.84,0,0,0,2.62,0L63.84,86.49a1.85,1.85,0,0,0-1.31-3.16H55.59A1.59,1.59,0,0,1,54,81.75V55.92a1.59,1.59,0,0,1,1.59-1.59H81.41A1.59,1.59,0,0,1,83,55.92v6.94a1.85,1.85,0,0,0,3.16,1.31L98.69,51.64A1.86,1.86,0,0,0,98.69,49Z" transform="translate(-0.77 -1.1)"/></svg>