<svg version="1.1" xmlns="http://www.w3.org/2000/svg" xmlns:xlink="http://www.w3.org/1999/xlink" width="550" height="550"><g fill="#ffffff" fill-rule="nonzero" stroke="none" stroke-width="1" stroke-linecap="butt" stroke-linejoin="miter" stroke-miterlimit="10" stroke-dasharray="" stroke-dashoffset="0" font-family="none" font-weight="none" font-size="none" text-anchor="none" style="mix-blend-mode: normal"><g id="svg"><path d="M257.3193,496.33893l55.02154,-0.73733c37.51378,1.0702 70.05012,-19.8145 70.07952,-44.98323l0.04777,-40.89803c-1.10013,-0.6777 -1.69963,-1.7707 -2.49742,-2.92432l0.32323,-275.4718c-2.49902,-1.53941 -2.49533,-4.68528 -4.99436,-6.22469l-79.95207,-68.14191c0.00368,-3.14587 -7.49705,-4.61826 -12.49872,-4.55124c-2.50269,1.60645 -10.00707,3.27992 -12.50976,4.88635l-82.61134,68.74656c-2.50269,1.60645 -5.00538,3.21289 -5.00906,6.35875l-0.32339,276.85397c1.824,1.12361 2.89806,3.20189 4.99678,5.37585l-0.04509,38.60189c-2.53415,23.63118 29.95586,43.64537 69.97232,43.10913zM220.18075,172.79526l125.05104,-1.67577l-0.26459,226.51837l-125.05104,1.67577zM220.22078,139.76098l62.58984,-55.89501l62.46123,54.21922l-0.01286,11.01233l-125.05104,1.67577zM219.85328,454.3689l0.03673,-31.46043l125.05104,-1.67577l-0.03673,31.46043c-0.01471,12.58345 -15.03225,22.22304 -35.04048,22.49207l-55.02154,0.73733c-20.00824,0.26903 -35.00372,-8.96836 -34.98903,-21.55362z"/></g></g></svg>