<?xml version="1.0" encoding="utf-8"?>
<!-- Generator: Adobe Illustrator 23.0.0, SVG Export Plug-In . SVG Version: 6.00 Build 0)  -->
<svg version="1.1" id="Layer_1" xmlns="http://www.w3.org/2000/svg" xmlns:xlink="http://www.w3.org/1999/xlink" x="0px" y="0px"
	 viewBox="0 0 402.5 402.5" style="enable-background:new 0 0 402.5 402.5;" xml:space="preserve">
<style type="text/css">
	.st0{fill:#BFBFBF;}
	.st1{fill:#FFFFFF;}
</style>
<g>
	<path class="st0" d="M245.8,96.8l-102.4,1.4c-6.2,0.1-11.2,5.1-11.2,11.3L132,313.3c0,6.3,5.2,11.4,11.5,11.4l102.4-1.4
		c6.2-0.1,11.2-5.1,11.2-11.3l0.2-203.8C257.3,101.8,252.2,96.7,245.8,96.8z M241.7,293.8c0,5-3.7,9.1-8.4,9.2l-76.5,1.1
		c-4.7,0.1-8.6-4.1-8.6-9.2l0.2-165.3c0-5,3.7-9.1,8.4-9.2l76.5-1.1c4.7-0.1,8.6,4.1,8.6,9.2L241.7,293.8z"/>
	<path class="st0" d="M245.6,346.9l-102.4,1.4c-6.2,0.1-11.2,5.1-11.2,11.3l0,20.3h0c0,12.6,15,21.8,35,21.6l55-0.7
		c20-0.3,35-9.9,35-22.5l0-20C257,351.9,251.9,346.8,245.6,346.9z M237.5,376.6c0,7.9-10.5,13.9-24.5,14l-38.4,0.5
		c-14,0.2-24.4-5.6-24.4-13.5l0-12.7c0-3.9,3.5-7,7.8-7.1l71.5-0.9c4.4-0.1,8,3.1,8,7.1L237.5,376.6z"/>
	<path class="st0" d="M254.8,61.4l-54.9-47.6c-2.9-2.5-7.1-2.5-10,0.1l-55.1,49.2c-1.6,1.4-2.5,3.5-2.5,5.6c0,4.2,3.4,7.6,7.6,7.5
		l110-1.5c4.1-0.1,7.4-3.4,7.4-7.5l0-0.1C257.4,64.9,256.4,62.8,254.8,61.4z M229,60.3c0,1.7-1.4,3.1-3,3.1l-60.4,0.8
		c-2.3,0-4.1-1.8-4.1-4.1l0-0.7c0-0.7,0.3-1.4,0.9-1.9l31.3-27.9c1-0.9,2.4-0.9,3.4,0L227.4,56c1,0.9,1.6,2.1,1.6,3.5L229,60.3z"/>
</g>
<g>
	<path class="st1" d="M254.8,88.8l-102.4,1.4c-6.2,0.1-11.2,5.1-11.2,11.3L141,305.3c0,6.3,5.2,11.4,11.5,11.4l102.4-1.4
		c6.2-0.1,11.2-5.1,11.2-11.3l0.2-203.8C266.3,93.8,261.2,88.7,254.8,88.8z M250.7,285.8c0,5-3.7,9.1-8.4,9.2l-76.5,1.1
		c-4.7,0.1-8.6-4.1-8.6-9.2l0.2-165.3c0-5,3.7-9.1,8.4-9.2l76.5-1.1c4.7-0.1,8.6,4.1,8.6,9.2L250.7,285.8z"/>
	<path class="st1" d="M254.6,338.9l-102.4,1.4c-6.2,0.1-11.2,5.1-11.2,11.3l0,20.3h0c0,12.6,15,21.8,35,21.6l55-0.7
		c20-0.3,35-9.9,35-22.5l0-20C266,343.9,260.9,338.8,254.6,338.9z M246.5,368.6c0,7.9-10.5,13.9-24.5,14l-38.4,0.5
		c-14,0.2-24.4-5.6-24.4-13.5l0-12.7c0-3.9,3.5-7,7.8-7.1l71.5-0.9c4.4-0.1,8,3.1,8,7.1L246.5,368.6z"/>
	<path class="st1" d="M263.8,53.4L208.9,5.7c-2.9-2.5-7.1-2.5-10,0.1l-55.1,49.2c-1.6,1.4-2.5,3.5-2.5,5.6c0,4.2,3.4,7.6,7.6,7.5
		l110-1.5c4.1-0.1,7.4-3.4,7.4-7.5l0-0.1C266.4,56.9,265.4,54.8,263.8,53.4z M238,52.3c0,1.7-1.4,3.1-3,3.1l-60.4,0.8
		c-2.3,0-4.1-1.8-4.1-4.1l0-0.7c0-0.7,0.3-1.4,0.9-1.9l31.3-27.9c1-0.9,2.4-0.9,3.4,0L236.4,48c1,0.9,1.6,2.1,1.6,3.5L238,52.3z"/>
</g>
</svg>
