<?xml version="1.0" encoding="utf-8"?>
<!-- Generator: Adobe Illustrator 23.0.0, SVG Export Plug-In . SVG Version: 6.00 Build 0)  -->
<svg version="1.1" id="Layer_1" xmlns="http://www.w3.org/2000/svg" xmlns:xlink="http://www.w3.org/1999/xlink" x="0px" y="0px"
	 viewBox="0 0 39 38" style="enable-background:new 0 0 39 38;" xml:space="preserve">
<style type="text/css">
	.st0{fill:none;stroke:#DDDDDD;stroke-width:3;}
	.st1{fill:none;stroke:#DDDDDD;stroke-width:2;}
</style>
<title>Group</title>
<desc>Created with Sketch.</desc>
<path class="st0" d="M31.4,34.2H7.6c-2.2,0-4-1.8-4-4V7.8c0-2.2,1.8-4,4-4h23.8c2.2,0,4,1.8,4,4v22.3C35.4,32.4,33.6,34.2,31.4,34.2
	z"/>
<path class="st1" d="M26.8,24.4H12.2c-1,0-1.8-0.8-1.8-1.8v-7.3c0-1,0.8-1.8,1.8-1.8h14.7c1,0,1.8,0.8,1.8,1.8v7.3
	C28.6,23.6,27.8,24.4,26.8,24.4z"/>
</svg>
