<svg id="Layer_1" data-name="Layer 1" xmlns="http://www.w3.org/2000/svg" viewBox="0 0 92.64 90.53"><defs><style>.cls-1{fill:#fff;}</style></defs><title>redo</title><path class="cls-1" d="M94.25,37.86,49.7,5.68a5,5,0,0,0-7.93,4.05V23.61C24.35,25.21,10,35.82,5.26,51.13.3,67.07,7.14,83.65,23.1,94.41a5,5,0,0,0,2.79.85h1.17a5,5,0,0,0,3.38-8.69c-5.39-4.93-7.17-10.52-5-15.73,2-4.77,7.65-9.43,16.37-10.43V73.93A5,5,0,0,0,49.69,78L94.24,46a5,5,0,0,0,1.13-7,5,5,0,0,0-1.13-1.13ZM51.77,64.18V55.25a5,5,0,0,0-4.81-5c-14.28-.56-26.39,6-30.81,16.79a21.52,21.52,0,0,0-1,2.93,24.42,24.42,0,0,1-.38-15.88c4.45-14.32,19-20.69,31.58-20.69h.34a5,5,0,0,0,5-5V19.5l31,22.39Z" transform="translate(-3.67 -4.73)"/></svg>