<?xml version="1.0" encoding="utf-8"?>
<!-- Generator: Adobe Illustrator 22.1.0, SVG Export Plug-In . SVG Version: 6.00 Build 0)  -->
<svg version="1.1" id="Layer_1" xmlns="http://www.w3.org/2000/svg" xmlns:xlink="http://www.w3.org/1999/xlink" x="0px" y="0px"
	 viewBox="0 0 87.4 59.5" style="enable-background:new 0 0 87.4 59.5;" xml:space="preserve">
<style type="text/css">
	.st0{fill:none;stroke:#FFFFFF;stroke-width:4;stroke-miterlimit:10;}
</style>
<title>reset</title>
<path class="st0" d="M8.4,2H79c3.5,0,6.4,2.9,6.4,6.4v42.7c0,3.5-2.9,6.4-6.4,6.4H8.4c-3.5,0-6.4-2.9-6.4-6.4V8.4C2,4.9,4.9,2,8.4,2
	z"/>
<path class="st0" d="M27,17.8h33.5c0.6,0,1.2,0.5,1.2,1.2v21.5c0,0.6-0.5,1.2-1.2,1.2H27c-0.6,0-1.2-0.5-1.2-1.2V19
	C25.8,18.3,26.3,17.8,27,17.8z"/>
</svg>
