<?xml version="1.0" encoding="utf-8"?>
<!-- Generator: Adobe Illustrator 23.0.0, SVG Export Plug-In . SVG Version: 6.00 Build 0)  -->
<svg version="1.1" id="Layer_1" xmlns="http://www.w3.org/2000/svg" xmlns:xlink="http://www.w3.org/1999/xlink" x="0px" y="0px"
	 viewBox="0 0 60 60" style="enable-background:new 0 0 60 60;" xml:space="preserve">
<style type="text/css">
	.st0{fill:#BFBFBF;}
	.st1{fill:#FFFFFF;}
</style>
<path class="st0" d="M3.1,22c-0.5,0-0.9,0.4-0.9,0.9v12.4c0,0.5,0.4,0.9,0.9,0.9h18.6v4.4h-7.1h0c-0.5,0-0.9,0.4-0.9,0.9
	c0,0.3,0.2,0.6,0.4,0.7l14.1,14.1c0.3,0.3,0.9,0.3,1.2,0l14.2-14.2c0.3-0.3,0.3-0.6,0.2-1c-0.1-0.3-0.5-0.5-0.8-0.5h-7.1v-4.4h18.6
	c0.5,0,0.9-0.4,0.9-0.9V22.9c0-0.5-0.4-0.9-0.9-0.9H35.9v-4.4h18.6c0.5,0,0.9-0.4,0.9-0.9V4.3c0-0.5-0.4-0.9-0.9-0.9H3.1
	c-0.5,0-0.9,0.4-0.9,0.9v12.4c0,0.5,0.4,0.9,0.9,0.9h18.6V22H3.1z M4,34.5V23.8h17.7v10.6H4z M53.6,23.8v10.6H35.9V23.8H53.6z
	 M4,15.8V5.2h49.6v10.6H35c-0.5,0-0.9,0.4-0.9,0.9v6.2v12.4v6.2c0,0.5,0.4,0.9,0.9,0.9h5.8l-12,12l-12-12h5.8c0.5,0,0.9-0.4,0.9-0.9
	v-6.2V22.9v-6.2c0-0.5-0.4-0.9-0.9-0.9H4z"/>
<path class="st1" d="M4.3,22c-0.5,0-0.9,0.4-0.9,0.9v12.4c0,0.5,0.4,0.9,0.9,0.9h18.6v4.4h-7.1h0c-0.5,0-0.9,0.4-0.9,0.9
	c0,0.3,0.2,0.6,0.4,0.7l14.1,14.1c0.3,0.3,0.9,0.3,1.2,0l14.2-14.2c0.3-0.3,0.3-0.6,0.2-1c-0.1-0.3-0.5-0.5-0.8-0.5h-7.1v-4.4h18.6
	c0.5,0,0.9-0.4,0.9-0.9V22.9c0-0.5-0.4-0.9-0.9-0.9H37.1v-4.4h18.6c0.5,0,0.9-0.4,0.9-0.9V4.3c0-0.5-0.4-0.9-0.9-0.9H4.3
	c-0.5,0-0.9,0.4-0.9,0.9v12.4c0,0.5,0.4,0.9,0.9,0.9h18.6V22H4.3z M5.2,34.4V23.8h17.7v10.6H5.2z M54.8,23.8v10.6H37.1V23.8H54.8z
	 M5.2,15.8V5.2h49.6v10.6H36.2c-0.5,0-0.9,0.4-0.9,0.9v6.2v12.4v6.2c0,0.5,0.4,0.9,0.9,0.9H42l-12,12l-12-12h5.8
	c0.5,0,0.9-0.4,0.9-0.9v-6.2V22.9v-6.2c0-0.5-0.4-0.9-0.9-0.9H5.2z"/>
</svg>
