<svg height='100px' width='100px'  fill="#ffffff" xmlns="http://www.w3.org/2000/svg" xmlns:xlink="http://www.w3.org/1999/xlink" version="1.1" x="0px" y="0px" viewBox="0 0 100 100" enable-background="new 0 0 100 100" xml:space="preserve"><path d="M93.8,59.6c-1.3-1.3-3.1-1.5-4.7-0.8L69.5,39.3c-0.2-0.2-0.3-0.4-0.5-0.7c0.5-0.8,0.7-1.7,0.7-2.7c0-1.5-0.6-2.9-1.7-4  c-1.1-1.1-2.5-1.7-4-1.7c-1,0-1.9,0.3-2.7,0.7c-0.2-0.2-0.4-0.3-0.7-0.5L41.2,10.9c0.7-1.5,0.4-3.4-0.8-4.7c-1.6-1.6-4.3-1.6-5.9,0  c-1.6,1.6-1.6,4.3,0,5.9c1.3,1.3,3.1,1.5,4.7,0.8l12.5,12.5c-12.6-4.8-27.1-3-38.2,5.4c-0.8-0.5-1.7-0.7-2.7-0.7  c-1.5,0-2.9,0.6-4,1.7C5.6,33,5,34.4,5,35.9c0,1.5,0.6,2.9,1.7,4c1.1,1.1,2.5,1.7,4,1.7c1.5,0,2.9-0.6,4-1.7c1.1-1.1,1.7-2.5,1.7-4  c0-0.7-0.1-1.4-0.4-2c12.6-9.4,30.2-9.5,42.8,0c-0.2,0.6-0.4,1.3-0.4,2c0,1.5,0.6,2.9,1.7,4c1.1,1.1,2.5,1.7,4,1.7  c0.7,0,1.4-0.1,2-0.4c9.4,12.7,9.4,30.2,0,42.8c-0.6-0.2-1.3-0.4-2-0.4c-1.5,0-2.9,0.6-4,1.7c-1.1,1.1-1.7,2.5-1.7,4  c0,1.5,0.6,2.9,1.7,4c1.1,1.1,2.5,1.7,4,1.7c1.5,0,2.9-0.6,4-1.7c1.1-1.1,1.7-2.5,1.7-4c0-1-0.3-1.9-0.7-2.7  c8.4-11.1,10.2-25.7,5.4-38.2L87,60.9c-0.7,1.5-0.4,3.4,0.8,4.7c1.6,1.6,4.3,1.6,5.9,0C95.4,63.9,95.4,61.3,93.8,59.6z M12.6,37.8  c-1,1-2.8,1-3.8,0C8.2,37.3,8,36.6,8,35.9c0-0.7,0.3-1.4,0.8-1.9s1.2-0.8,1.9-0.8c0,0,0,0,0,0c0.7,0,1.4,0.3,1.9,0.8  c0.5,0.5,0.8,1.2,0.8,1.9c0,0,0,0.1,0,0.1C13.3,36.7,13.1,37.4,12.6,37.8z M66.8,89.3c0,0.7-0.3,1.4-0.8,1.9c-1,1-2.8,1-3.8,0  c-0.5-0.5-0.8-1.2-0.8-1.9c0-0.7,0.3-1.4,0.8-1.9c0.5-0.5,1.1-0.7,1.8-0.8c0,0,0.1,0,0.1,0c0.7,0,1.4,0.3,1.9,0.8  C66.5,87.9,66.8,88.6,66.8,89.3C66.8,89.3,66.8,89.3,66.8,89.3z M62.2,37.8c-0.5-0.5-0.7-1.1-0.8-1.8c0,0,0-0.1,0-0.1  c0-0.2,0-0.4,0.1-0.6c0.1-0.5,0.4-1,0.7-1.4c0.4-0.4,0.8-0.6,1.4-0.7c0.2,0,0.4-0.1,0.6-0.1c0,0,0,0,0,0c0.7,0,1.4,0.3,1.9,0.8  c0.5,0.5,0.8,1.2,0.8,1.9c0,0,0,0,0,0c0,0.2,0,0.4-0.1,0.6c-0.1,0.5-0.4,1-0.7,1.4c-0.4,0.4-0.9,0.6-1.4,0.7c-0.2,0-0.5,0.1-0.7,0  C63.3,38.6,62.6,38.3,62.2,37.8z"></path></svg>