<?xml version="1.0" encoding="utf-8"?>
<!-- Generator: Adobe Illustrator 23.0.0, SVG Export Plug-In . SVG Version: 6.00 Build 0)  -->
<svg version="1.1" id="Layer_1" xmlns="http://www.w3.org/2000/svg" xmlns:xlink="http://www.w3.org/1999/xlink" x="0px" y="0px"
	 viewBox="0 0 100 100" style="enable-background:new 0 0 100 100;" xml:space="preserve">
<style type="text/css">
	.st0{fill:#BFBFBF;}
	.st1{fill:#FFFFFF;}
</style>
<g>
	<path class="st0" d="M15,86.5h12.8h2c1.1,0,2-0.9,2-2v-2v-6v-2c0-1.1-0.9-2-2-2h-2H15c-1.1,0-2,0.9-2,2v10
		C13,85.6,13.9,86.5,15,86.5z M17,76.5h10.8v6H17V76.5z"/>
	<path class="st0" d="M93,28.5H53.5c0.1,0,0.2,0,0.2-0.1c0,0,0.1,0,0.1-0.1c0.1,0,0.1-0.1,0.2-0.1l0.1-0.1c0,0,0.1,0,0.1-0.1l7-6
		c0,0,0,0,0.1-0.1c0.1,0,0.1-0.1,0.1-0.1l0.1-0.1c0-0.1,0.1-0.1,0.1-0.2s0.1-0.1,0.1-0.2c0-0.1,0-0.1,0.1-0.2c0-0.1,0-0.1,0.1-0.2
		c0-0.1,0-0.1,0-0.2c0-0.1,0-0.1,0-0.2c0,0,0,0,0-0.1V6.5c0-1.1-0.9-2-2-2H40c-1.1,0-2,0.9-2,2v14c0,0,0,0,0,0.1c0,0.1,0,0.1,0,0.2
		c0,0.1,0,0.1,0,0.2s0,0.1,0.1,0.2c0,0.1,0,0.1,0.1,0.2c0,0.1,0.1,0.1,0.1,0.2c0,0.1,0.1,0.1,0.1,0.2c0,0.1,0.1,0.1,0.1,0.1
		c0,0.1,0.1,0.1,0.1,0.2c0,0,0,0,0.1,0.1l7,6c0,0,0.1,0,0.1,0.1l0.1,0.1c0.1,0,0.1,0.1,0.2,0.1c0,0,0.1,0,0.1,0.1
		c0.1,0,0.2,0.1,0.2,0.1H7c-1.1,0-2,0.9-2,2v62c0,1.1,0.9,2,2,2h86c1.1,0,2-0.9,2-2V30.5C95,29.4,94.1,28.5,93,28.5z M42,19.6V8.5
		h16v11.1l-5.7,4.9h-4.5L42,19.6z M52,40.5h6v6h-6V40.5z M52,58.5h19v6H52V58.5z M52,76.5h31v6H52V76.5z M48,82.5h-9.5v-6H48V82.5z
		 M48,64.5h-9.5v-6H48V64.5z M48,46.5h-9.5v-6H48V46.5z M48,36.5H36.5c-1.1,0-2,0.9-2,2v2v6v2c0,1.1,0.9,2,2,2H48v4H36.5
		c-1.1,0-2,0.9-2,2v2v6v2c0,1.1,0.9,2,2,2H48v4H36.5c-1.1,0-2,0.9-2,2v2v6v2c0,1.1,0.9,2,2,2H48v4H9v-58h39V36.5z M91,90.5H52v-4h33
		c1.1,0,2-0.9,2-2v-10c0-1.1-0.9-2-2-2H52v-4h21c1.1,0,2-0.9,2-2v-10c0-1.1-0.9-2-2-2H52v-4h8c1.1,0,2-0.9,2-2v-10c0-1.1-0.9-2-2-2
		h-8v-4h39V90.5z"/>
	<path class="st0" d="M15,68.5h12.8h2c1.1,0,2-0.9,2-2v-2v-6v-2c0-1.1-0.9-2-2-2h-2H15c-1.1,0-2,0.9-2,2v10
		C13,67.6,13.9,68.5,15,68.5z M17,58.5h10.8v6H17V58.5z"/>
	<path class="st0" d="M15,50.5h12.8h2c1.1,0,2-0.9,2-2v-2v-6v-2c0-1.1-0.9-2-2-2h-2H15c-1.1,0-2,0.9-2,2v10
		C13,49.6,13.9,50.5,15,50.5z M17,40.5h10.8v6H17V40.5z"/>
</g>
<g>
	<path class="st1" d="M16,85.5h12.8h2c1.1,0,2-0.9,2-2v-2v-6v-2c0-1.1-0.9-2-2-2h-2H16c-1.1,0-2,0.9-2,2v10
		C14,84.6,14.9,85.5,16,85.5z M18,75.5h10.8v6H18V75.5z"/>
	<path class="st1" d="M94,27.5H54.5c0.1,0,0.2,0,0.2-0.1c0,0,0.1,0,0.1-0.1c0.1,0,0.1-0.1,0.2-0.1l0.1-0.1c0,0,0.1,0,0.1-0.1l7-6
		c0,0,0,0,0.1-0.1c0.1,0,0.1-0.1,0.1-0.1l0.1-0.1c0-0.1,0.1-0.1,0.1-0.2s0.1-0.1,0.1-0.2c0-0.1,0-0.1,0.1-0.2c0-0.1,0-0.1,0.1-0.2
		c0-0.1,0-0.1,0-0.2c0-0.1,0-0.1,0-0.2c0,0,0,0,0-0.1V5.5c0-1.1-0.9-2-2-2H41c-1.1,0-2,0.9-2,2v14c0,0,0,0,0,0.1c0,0.1,0,0.1,0,0.2
		c0,0.1,0,0.1,0,0.2s0,0.1,0.1,0.2c0,0.1,0,0.1,0.1,0.2c0,0.1,0.1,0.1,0.1,0.2c0,0.1,0.1,0.1,0.1,0.2c0,0.1,0.1,0.1,0.1,0.1
		c0,0.1,0.1,0.1,0.1,0.2c0,0,0,0,0.1,0.1l7,6c0,0,0.1,0,0.1,0.1l0.1,0.1c0.1,0,0.1,0.1,0.2,0.1c0,0,0.1,0,0.1,0.1
		c0.1,0,0.2,0.1,0.2,0.1H8c-1.1,0-2,0.9-2,2v62c0,1.1,0.9,2,2,2h86c1.1,0,2-0.9,2-2V29.5C96,28.4,95.1,27.5,94,27.5z M43,18.6V7.5
		h16v11.1l-5.7,4.9h-4.5L43,18.6z M53,39.5h6v6h-6V39.5z M53,57.5h19v6H53V57.5z M53,75.5h31v6H53V75.5z M49,81.5h-9.5v-6H49V81.5z
		 M49,63.5h-9.5v-6H49V63.5z M49,45.5h-9.5v-6H49V45.5z M49,35.5H37.5c-1.1,0-2,0.9-2,2v2v6v2c0,1.1,0.9,2,2,2H49v4H37.5
		c-1.1,0-2,0.9-2,2v2v6v2c0,1.1,0.9,2,2,2H49v4H37.5c-1.1,0-2,0.9-2,2v2v6v2c0,1.1,0.9,2,2,2H49v4H10v-58h39V35.5z M92,89.5H53v-4
		h33c1.1,0,2-0.9,2-2v-10c0-1.1-0.9-2-2-2H53v-4h21c1.1,0,2-0.9,2-2v-10c0-1.1-0.9-2-2-2H53v-4h8c1.1,0,2-0.9,2-2v-10
		c0-1.1-0.9-2-2-2h-8v-4h39V89.5z"/>
	<path class="st1" d="M16,67.5h12.8h2c1.1,0,2-0.9,2-2v-2v-6v-2c0-1.1-0.9-2-2-2h-2H16c-1.1,0-2,0.9-2,2v10
		C14,66.6,14.9,67.5,16,67.5z M18,57.5h10.8v6H18V57.5z"/>
	<path class="st1" d="M16,49.5h12.8h2c1.1,0,2-0.9,2-2v-2v-6v-2c0-1.1-0.9-2-2-2h-2H16c-1.1,0-2,0.9-2,2v10
		C14,48.6,14.9,49.5,16,49.5z M18,39.5h10.8v6H18V39.5z"/>
</g>
</svg>
