<?xml version="1.0" encoding="UTF-8" standalone="no"?>
<svg
   xmlns:dc="http://purl.org/dc/elements/1.1/"
   xmlns:cc="http://creativecommons.org/ns#"
   xmlns:rdf="http://www.w3.org/1999/02/22-rdf-syntax-ns#"
   xmlns:svg="http://www.w3.org/2000/svg"
   xmlns="http://www.w3.org/2000/svg"
   xmlns:sodipodi="http://sodipodi.sourceforge.net/DTD/sodipodi-0.dtd"
   xmlns:inkscape="http://www.inkscape.org/namespaces/inkscape"
   height="100px"
   width="100px"
   fill="#ffffff"
   data-name="Layer 2"
   viewBox="0 0 62 62"
   x="0px"
   y="0px"
   version="1.1"
   id="svg839"
   sodipodi:docname="touch.svg"
   inkscape:version="1.0.1 (c497b03c, 2020-09-10)">
  <metadata
     id="metadata845">
    <rdf:RDF>
      <cc:Work
         rdf:about="">
        <dc:format>image/svg+xml</dc:format>
        <dc:type
           rdf:resource="http://purl.org/dc/dcmitype/StillImage" />
        <dc:title>hand gesture</dc:title>
      </cc:Work>
    </rdf:RDF>
  </metadata>
  <defs
     id="defs843" />
  <sodipodi:namedview
     pagecolor="#ffffff"
     bordercolor="#666666"
     borderopacity="1"
     objecttolerance="10"
     gridtolerance="10"
     guidetolerance="10"
     inkscape:pageopacity="0"
     inkscape:pageshadow="2"
     inkscape:window-width="1792"
     inkscape:window-height="1075"
     id="namedview841"
     showgrid="false"
     inkscape:zoom="8.67"
     inkscape:cx="50"
     inkscape:cy="50"
     inkscape:window-x="0"
     inkscape:window-y="86"
     inkscape:window-maximized="0"
     inkscape:current-layer="svg839" />
  <title
     id="title833">hand gesture</title>
  <path
     d="M 48.83,28.17 C 48.079212,27.420046 47.061185,26.999166 46,27 c -0.791504,-0.0015 -1.565101,0.235491 -2.22,0.68 -0.215692,-0.572051 -0.557487,-1.088161 -1,-1.51 C 42.041507,25.432183 41.043836,25.0123 40,25 c -0.791504,-0.0015 -1.565101,0.235491 -2.22,0.68 -0.215692,-0.572051 -0.557487,-1.088161 -1,-1.51 C 35.50646,22.915458 33.555099,22.658271 32,23.54 V 14 c 8.34e-4,-1.061185 -0.420046,-2.079212 -1.17,-2.83 -0.957028,-0.945279 -2.320942,-1.3537039 -3.64,-1.09 -1.890515,0.43395 -3.220288,2.130556 -3.19,4.07 V 37.34 L 21.26,34.21 C 19.499152,32.207031 16.476212,31.938619 14.39,33.6 L 13.7,34.16 C 12.523934,35.075641 12.222673,36.728272 13,38 l 7.13,11.5 c 2.785724,5.095468 8.065221,8.33092 13.87,8.5 8.836556,0 16,-7.163444 16,-16 V 31 c 8.34e-4,-1.061185 -0.420046,-2.079212 -1.17,-2.83 z"
     id="path835"
     style="fill:#ffffff"
     sodipodi:nodetypes="cccccccccccccccccccscc" />
  <path
     d="M22,17.85a1,1,0,0,0,.32-1.38A6.86,6.86,0,1,1,35,12.86a6.76,6.76,0,0,1-1,3.61,1,1,0,0,0,.32,1.38,1,1,0,0,0,.53.15,1,1,0,0,0,.85-.47,8.85,8.85,0,1,0-15.06,0A1,1,0,0,0,22,17.85Z"
     id="path837" />
</svg>
