<svg id="Layer_1" data-name="Layer 1" xmlns="http://www.w3.org/2000/svg" viewBox="0 0 92.64 90.53"><defs><style>.cls-1{fill:#fff;}</style></defs><title>undo</title><path class="cls-1" d="M5.75,37.89A4.85,4.85,0,0,0,4.62,39a5,5,0,0,0,1.13,7L50.3,78a4.94,4.94,0,0,0,2.86.91,5,5,0,0,0,5-5V60.41c8.72,1,14.37,5.66,16.37,10.43,2.17,5.21.39,10.8-5,15.73a5,5,0,0,0,3.38,8.69H74.1a5.06,5.06,0,0,0,2.79-.85c16-10.76,22.8-27.34,17.84-43.28C90,35.82,75.64,25.21,58.22,23.61V9.73a5,5,0,0,0-.95-2.93,5,5,0,0,0-7-1.12L5.74,37.86Zm11.55,4,31-22.39v8.9a5,5,0,0,0,5,5h.34c12.58,0,27.13,6.37,31.58,20.69A24.48,24.48,0,0,1,84.84,70a23,23,0,0,0-1-2.93C79.42,56.25,67.31,49.69,53,50.25a5,5,0,0,0-4.81,5v8.93Z" transform="translate(-3.67 -4.73)"/></svg>