<?xml version="1.0" encoding="utf-8"?>
<!-- Generator: Adobe Illustrator 23.0.0, SVG Export Plug-In . SVG Version: 6.00 Build 0)  -->
<svg version="1.1" id="Layer_1" xmlns="http://www.w3.org/2000/svg" xmlns:xlink="http://www.w3.org/1999/xlink" x="0px" y="0px"
	 viewBox="0 0 32 32" style="enable-background:new 0 0 32 32;" xml:space="preserve">
<style type="text/css">
	.st0{fill:#BFBFBF;}
	.st1{fill:#FFFFFF;}
</style>
<path class="st0" d="M9.7,23.3c1.6,1.5,3.8,2.3,6,2.3c5,0,9-4,9-9c0-5-4-9-9-9c-1.7,0-3.4,0.5-4.8,1.4l2.6,2.6
	c0.8,0.7,1.2,1.2,1.2,2c0,0.8-0.6,2-2,2h-10c-1.1,0-2-0.8-2-2v-10c0-1.4,1.2-2,2-2c0.8,0,1.3,0.4,2,1.2l1.9,1.9
	c2.6-2,5.8-3.1,9.1-3.1c8.3,0,15,6.7,15,15s-6.7,15-15,15c-3.7,0-7.1-1.3-10-3.8c-0.9-0.8-1-1.7-1-2.2c0-1,0.8-3,3-3
	C8.4,22.6,8.9,22.6,9.7,23.3z"/>
<path class="st1" d="M10.4,22.1c1.6,1.5,3.8,2.3,6,2.3c5,0,9-4,9-9c0-5-4-9-9-9c-1.7,0-3.4,0.5-4.8,1.4l2.6,2.6
	c0.8,0.7,1.2,1.2,1.2,2c0,0.8-0.6,2-2,2h-10c-1.1,0-2-0.8-2-2v-10c0-1.4,1.3-2,2-2c0.8,0,1.3,0.4,2,1.2l1.9,1.9
	c2.6-2,5.8-3.1,9.1-3.1c8.3,0,15,6.7,15,15s-6.7,15-15,15c-3.7,0-7.1-1.3-10-3.8c-0.9-0.8-1-1.7-1-2.2c0-1,0.8-3,3-3
	C9,21.4,9.6,21.4,10.4,22.1z"/>
</svg>
