<svg id="Layer_1" data-name="Layer 1" xmlns="http://www.w3.org/2000/svg" viewBox="0 0 500 500"><defs><style>.cls-1{fill:none;stroke-width:34.98px;}.cls-1,.cls-2{stroke:#fff;stroke-linecap:round;stroke-miterlimit:10;}.cls-2{fill:#fff;stroke-width:21.47px;}</style></defs><title>unlink</title><path class="cls-1" d="M213.53,142.32c-137.66.31-184-.7-184.68,107.73s47,107.42,184.68,107.72"/><path class="cls-1" d="M286.92,142c137.66.3,184-.71,184.68,107.73s-47,107.42-184.68,107.72"/><path class="cls-2" d="M173,35.45c17,33.33,29.43,60.73,29.43,60.73"/><path class="cls-2" d="M325.88,35.89c-17,33.33-29.43,60.73-29.43,60.73"/><path class="cls-2" d="M249.89,23.51c-.79,37.42,0,67.49,0,67.49"/><path class="cls-2" d="M173.6,465.55c17-33.34,29.43-60.73,29.43-60.73"/><path class="cls-2" d="M326.45,465.11c-17-33.33-29.44-60.73-29.44-60.73"/><path class="cls-2" d="M250.46,477.49c-.79-37.42,0-67.49,0-67.49"/></svg>