<?xml version="1.0" encoding="UTF-8"?>
<svg width="400px" height="400px" viewBox="0 0 400 400" version="1.1" xmlns="http://www.w3.org/2000/svg" xmlns:xlink="http://www.w3.org/1999/xlink">
    <!-- Generator: Sketch 42 (36781) - http://www.bohemiancoding.com/sketch -->
    <title>Vector</title>
    <desc>Created with Sketch.</desc>
    <defs>
        <path d="M159.943229,110.119933 C158.696229,109.178933 157.383229,108.182933 156.011229,107.137933 C99.3452292,63.9419331 64.2683841,19.5989358 42.0713841,0.521935782 C38.0923841,-2.89806422 26.0442292,11.4319331 28.4092292,16.1149331 C37.3302292,33.7829331 52.9772292,64.8769331 79.9752292,118.772933 C80.6622292,120.144933 81.9742292,121.068933 83.4792292,121.362933 C89.7322292,122.585933 95.3542292,126.615933 98.3462292,132.790933 C103.402229,143.222933 99.0432292,155.778933 88.6102292,160.833933 C77.9272292,166.006933 65.3712292,161.648933 60.3162292,151.215933 C57.3232292,145.040933 57.6442292,138.131933 60.5582292,132.466933 C61.2602292,131.102933 61.3482292,129.499933 60.6972292,128.110933 C35.1262292,73.5289331 27.6531693,31.803137 19.3141693,13.853137 C17.1031693,9.09413699 -0.460654015,16.0675516 0.00925874431,27.3175634 C1.23077078,56.5613424 2.73225874,110.413563 1.52325874,181.653563 C1.49425874,183.377563 1.46125874,185.025563 1.42725874,186.587563 C1.31025874,191.995563 5.25525874,196.586563 10.6002587,197.418563 C31.2482587,200.629563 58.1272587,211.243563 74.4562587,236.409563 C76.0712587,238.898563 77.7302587,241.269563 79.2392587,243.651563 C80.5422587,245.709563 83.1832587,246.455563 85.3752587,245.392563 C94.9582587,240.747563 107.468229,235.028933 117.051229,230.383933 L121.427229,228.365933 C122.303229,227.966933 124.750229,226.770933 125.321229,226.381933 C134.918229,221.730933 144.499229,217.088933 154.081229,212.446933 C156.273229,211.384933 165.574951,201.72498 164.766951,199.42698 C163.832951,196.76698 154.749229,201.120933 153.796229,198.310933 C144.162229,169.899933 152.487229,142.225933 162.760229,124.030933 C165.420229,119.319933 161.335259,114.451563 157.017259,111.192563" id="path-1"></path>
        <filter x="-50%" y="-50%" width="200%" height="200%" filterUnits="objectBoundingBox" id="filter-2">
            <feOffset dx="0" dy="8" in="SourceAlpha" result="shadowOffsetOuter1"></feOffset>
            <feGaussianBlur stdDeviation="5.5" in="shadowOffsetOuter1" result="shadowBlurOuter1"></feGaussianBlur>
            <feColorMatrix values="0 0 0 0 0   0 0 0 0 0   0 0 0 0 0  0 0 0 0.5 0" type="matrix" in="shadowBlurOuter1"></feColorMatrix>
        </filter>
        <path d="M168.012923,101.001576 C166.765923,100.060576 165.452923,99.0645756 164.080923,98.0195756 C107.414923,54.8235756 66.0789225,20.2725756 43.8819225,1.19557564 C39.9029225,-2.22442436 34.1139225,2.31357564 36.4789225,6.99657564 C45.3999225,24.6645756 61.0469225,55.7585756 88.0449225,109.654576 C88.7319225,111.026576 90.0439225,111.950576 91.5489225,112.244576 C97.8019225,113.467576 103.423923,117.497576 106.415923,123.672576 C111.471923,134.104576 107.112923,146.660576 96.6799225,151.715576 C96.6479225,151.731576 96.6149225,151.744576 96.5819225,151.757576 L96.5789225,151.750576 C96.5279225,151.776576 96.4809225,151.808576 96.4289225,151.833576 C85.9969225,156.888576 73.4409225,152.530576 68.3859225,142.097576 C65.3929225,135.922576 65.7139225,129.013576 68.6279225,123.348576 C69.3299225,121.984576 69.4179225,120.381576 68.7669225,118.992576 C43.1959225,64.4105756 28.4859225,32.8625756 20.1469225,14.9125756 C17.9359225,10.1535756 10.7859225,11.8835756 11.0049225,17.1265756 C12.2239225,46.3705756 13.7279225,100.222576 12.5189225,171.462576 C12.4899225,173.186576 12.4569225,174.834576 12.4229225,176.396576 C12.3059225,181.804576 16.2509225,186.395576 21.5959225,187.227576 C42.2439225,190.438576 69.1229225,201.052576 85.4519225,226.218576 C87.0669225,228.707576 88.7259225,231.078576 90.2349225,233.460576 C91.5379225,235.518576 94.1789225,236.264576 96.3709225,235.201576 C105.953923,230.556576 115.537923,225.910576 125.120923,221.265576 L129.496923,219.247576 L129.475923,219.205576 C130.372923,218.848576 132.819923,217.652576 133.390923,217.263576 C133.395923,217.260576 133.400923,217.257576 133.405923,217.254576 C142.987923,212.612576 152.568923,207.970576 162.150923,203.328576 C164.342923,202.266576 165.393923,199.732576 164.585923,197.434576 C163.651923,194.774576 162.818923,192.002576 161.865923,189.192576 C152.231923,160.781576 160.556923,133.107576 170.829923,114.912576 C173.489923,110.201576 172.330923,104.260576 168.012923,101.001576" id="path-3"></path>
        <filter x="-50%" y="-50%" width="200%" height="200%" filterUnits="objectBoundingBox" id="filter-4">
            <feOffset dx="0" dy="2" in="SourceAlpha" result="shadowOffsetOuter1"></feOffset>
            <feGaussianBlur stdDeviation="4" in="shadowOffsetOuter1" result="shadowBlurOuter1"></feGaussianBlur>
            <feColorMatrix values="0 0 0 0 0   0 0 0 0 0   0 0 0 0 0  0 0 0 0.5 0" type="matrix" in="shadowBlurOuter1"></feColorMatrix>
        </filter>
        <filter x="-50%" y="-50%" width="200%" height="200%" filterUnits="objectBoundingBox" id="filter-5">
            <feOffset dx="0" dy="8" in="SourceAlpha" result="shadowOffsetOuter1"></feOffset>
            <feGaussianBlur stdDeviation="5.5" in="shadowOffsetOuter1" result="shadowBlurOuter1"></feGaussianBlur>
            <feColorMatrix values="0 0 0 0 0   0 0 0 0 0   0 0 0 0 0  0 0 0 0.5 0" type="matrix" in="shadowBlurOuter1" result="shadowMatrixOuter1"></feColorMatrix>
            <feMerge>
                <feMergeNode in="shadowMatrixOuter1"></feMergeNode>
                <feMergeNode in="SourceGraphic"></feMergeNode>
            </feMerge>
        </filter>
        <polygon id="path-6" points="92.5656235 3.55271368e-15 92.5656235 63.5412924 0 63.5412924 0 1.77635684e-14 92.5656235 1.77635684e-14"></polygon>
        <filter x="-50%" y="-50%" width="200%" height="200%" filterUnits="objectBoundingBox" id="filter-8">
            <feOffset dx="0" dy="2" in="SourceAlpha" result="shadowOffsetOuter1"></feOffset>
            <feGaussianBlur stdDeviation="4" in="shadowOffsetOuter1" result="shadowBlurOuter1"></feGaussianBlur>
            <feColorMatrix values="0 0 0 0 0   0 0 0 0 0   0 0 0 0 0  0 0 0 0.5 0" type="matrix" in="shadowBlurOuter1" result="shadowMatrixOuter1"></feColorMatrix>
            <feMerge>
                <feMergeNode in="shadowMatrixOuter1"></feMergeNode>
                <feMergeNode in="SourceGraphic"></feMergeNode>
            </feMerge>
        </filter>
        <polygon id="path-9" points="93.533 64 0.967376512 64 0.967376512 0.458707568 93.533 0.458707568"></polygon>
    </defs>
    <g id="Page-1" stroke="none" stroke-width="1" fill="none" fill-rule="evenodd">
        <g id="Artboard-6-Copy" transform="translate(-390.000000, -3734.000000)">
            <rect id="Rectangle-4-Copy-7" x="390" y="3734" width="400" height="400"></rect>
            <g id="Vector" transform="translate(500.000000, 3786.000000)">
                <g id="Fill-1-Copy-3">
                    <use fill="black" fill-opacity="1" filter="url(#filter-2)" xlink:href="#path-1"></use>
                    <use fill="#BFBFBF" fill-rule="evenodd" xlink:href="#path-1"></use>
                </g>
                <g id="Fill-1">
                    <use fill="black" fill-opacity="1" filter="url(#filter-4)" xlink:href="#path-3"></use>
                    <use fill="#FFFFFF" fill-rule="evenodd" xlink:href="#path-3"></use>
                </g>
                <g id="Group-5-Copy" filter="url(#filter-5)" transform="translate(85.000000, 222.000000)">
                    <mask id="mask-7" fill="white">
                        <use xlink:href="#path-6"></use>
                    </mask>
                    <g id="Clip-4"></g>
                    <path d="M14.3677001,25.5622544 L70.0989235,-0.438007568 C72.0889235,-1.41400757 74.4699235,-1.10000757 76.1389235,0.357992432 C80.9869235,4.59399243 85.8359235,8.82999243 90.6839235,13.0649924 C93.6429235,15.6499924 93.0149235,20.4149924 89.4869235,22.1449924 L8.28292349,61.9729924 C4.66792349,63.7459924 0.435923488,61.1609924 0.361923488,57.1359924 C0.241923488,50.5809924 0.120923488,44.0269924 0.000923488132,37.4719924 C-0.0380765119,35.3369924 1.16092349,33.3729924 3.07792349,32.4329924 L14.3677001,25.5622544 Z" id="Fill-3" fill="#BEBEBE" mask="url(#mask-7)"></path>
                    <path d="M-96.9220765,133.432992 L-29.9010765,100.561992 C-27.9110765,99.5859924 -25.5300765,99.8999924 -23.8610765,101.357992 C-19.0130765,105.593992 -14.1640765,109.829992 -9.31607651,114.064992 C-6.35707651,116.649992 -6.98507651,121.414992 -10.5130765,123.144992 L-91.7170765,162.972992 C-95.3320765,164.745992 -99.5640765,162.160992 -99.6380765,158.135992 C-99.7580765,151.580992 -99.8790765,145.026992 -99.9990765,138.471992 C-100.038077,136.336992 -98.8390765,134.372992 -96.9220765,133.432992" id="Fill-3-Copy-3" fill="#39DAA1" mask="url(#mask-7)"></path>
                </g>
                <g id="Group-5" filter="url(#filter-8)" transform="translate(97.000000, 213.000000)">
                    <mask id="mask-10" fill="white">
                        <use xlink:href="#path-9"></use>
                    </mask>
                    <g id="Clip-4"></g>
                    <path d="M4.07792349,33.4329924 L71.0989235,0.561992432 C73.0889235,-0.414007568 75.4699235,-0.100007568 77.1389235,1.35799243 C81.9869235,5.59399243 86.8359235,9.82999243 91.6839235,14.0649924 C94.6429235,16.6499924 94.0149235,21.4149924 90.4869235,23.1449924 L9.28292349,62.9729924 C5.66792349,64.7459924 1.43592349,62.1609924 1.36192349,58.1359924 C1.24192349,51.5809924 1.12092349,45.0269924 1.00092349,38.4719924 C0.961923488,36.3369924 2.16092349,34.3729924 4.07792349,33.4329924" id="Fill-3" fill="#FFFFFF" mask="url(#mask-10)"></path>
                    <path d="M-95.9220765,134.432992 L-28.9010765,101.561992 C-26.9110765,100.585992 -24.5300765,100.899992 -22.8610765,102.357992 C-18.0130765,106.593992 -13.1640765,110.829992 -8.31607651,115.064992 C-5.35707651,117.649992 -5.98507651,122.414992 -9.51307651,124.144992 L-90.7170765,163.972992 C-94.3320765,165.745992 -98.5640765,163.160992 -98.6380765,159.135992 C-98.7580765,152.580992 -98.8790765,146.026992 -98.9990765,139.471992 C-99.0380765,137.336992 -97.8390765,135.372992 -95.9220765,134.432992" id="Fill-3-Copy-3" fill="#39DAA1" mask="url(#mask-10)"></path>
                </g>
            </g>
        </g>
    </g>
</svg>