<svg height='100px' width='100px'  fill="#ffffff" xmlns="http://www.w3.org/2000/svg" xmlns:xlink="http://www.w3.org/1999/xlink" version="1.1" x="0px" y="0px" viewBox="0 0 28 32" style="enable-background:new 0 0 28 32;" xml:space="preserve"><g><g><g><path d="M16.117,19.402h-1.335v1.991h1.335c0.535,0,0.959-0.472,0.959-0.968C17.076,19.866,16.652,19.402,16.117,19.402z"></path><path d="M23,15H1c-0.55,0-1,0.45-1,1v10c0,0.55,0.45,1,1,1h22c0.551,0,1-0.45,1-1V16C24,15.45,23.551,15,23,15z M9.745,24H6.291     c-0.504,0-0.704-0.488-0.416-0.832l2.847-3.781H6.362c-0.695,0-0.639-0.983,0-0.983h3.223c0.607,0,0.783,0.575,0.352,1.039     l-2.727,3.542h2.599C10.448,22.984,10.528,24,9.745,24z M12.309,23.512c0,0.664-1.056,0.68-1.056,0v-4.564     c0-0.656,1.056-0.68,1.056,0V23.512z M16.117,22.393h-1.335v1.056c0,0.353-0.224,0.552-0.512,0.552     c-0.264,0-0.544-0.199-0.544-0.552v-4.501c0-0.264,0.208-0.553,0.544-0.553h1.847c1.039,0,1.975,0.696,1.975,2.031     C18.092,21.689,17.156,22.393,16.117,22.393z"></path></g><path d="M27,7.586L20.414,1C19.836,0.42,18.82,0,18,0H7C5.346,0,4,1.346,4,3v10c0,0.553,0.447,1,1,1s1-0.447,1-1V3    c0-0.551,0.448-1,1-1h9c1.105,0,2,0.896,2,2v3.75C18,8.988,19.014,10,20.25,10H24c1.105,0,2,0.896,2,2v17c0,0.551-0.447,1-1,1H7    c-0.552,0-1-0.449-1-1c0-0.553-0.447-1-1-1s-1,0.447-1,1c0,1.654,1.346,3,3,3h18c1.654,0,3-1.346,3-3V10    C28,9.181,27.58,8.165,27,7.586z"></path></g></g></svg>