<svg id="Layer_1" data-name="Layer 1" xmlns="http://www.w3.org/2000/svg" viewBox="0 0 102.24 80.79"><defs><style>.cls-1{fill:#fff;}</style></defs><title>zoomSelect</title><path class="cls-1" d="M80.41,22.91A18.53,18.53,0,0,0,51.86,46.24L38.73,59.35a3.71,3.71,0,0,0,5.06,5.43l.18-.19L57.08,51.47A18.54,18.54,0,0,0,80.41,22.92ZM67.3,47.14a11.07,11.07,0,1,1,.11,0Z" transform="translate(-10.55 -1.26)"/><path class="cls-1" d="M19,11.36H12.24a1.69,1.69,0,0,1-1.69-1.69V2.94a1.69,1.69,0,0,1,1.69-1.68H19a1.68,1.68,0,0,1,1.68,1.68V9.67A1.69,1.69,0,0,1,19,11.36ZM13.92,8h3.36V4.62H13.92Z" transform="translate(-10.55 -1.26)"/><path class="cls-1" d="M111.11,11.36h-6.73a1.69,1.69,0,0,1-1.68-1.69V2.94a1.68,1.68,0,0,1,1.68-1.68h6.73a1.69,1.69,0,0,1,1.69,1.68V9.67A1.69,1.69,0,0,1,111.11,11.36Zm-5-3.37h3.37V4.62h-3.37Z" transform="translate(-10.55 -1.26)"/><path class="cls-1" d="M19,82H12.24a1.69,1.69,0,0,1-1.69-1.68V73.63A1.69,1.69,0,0,1,12.24,72H19a1.68,1.68,0,0,1,1.68,1.68v6.73A1.68,1.68,0,0,1,19,82Zm-5-3.36h3.36V75.31H13.92Z" transform="translate(-10.55 -1.26)"/><path class="cls-1" d="M111.11,82h-6.73a1.68,1.68,0,0,1-1.68-1.68V73.63A1.68,1.68,0,0,1,104.38,72h6.73a1.69,1.69,0,0,1,1.69,1.68v6.73A1.69,1.69,0,0,1,111.11,82Zm-5-3.36h3.37V75.31h-3.37Z" transform="translate(-10.55 -1.26)"/><path class="cls-1" d="M15.6,75.31a1.68,1.68,0,0,1-1.68-1.68v-64a1.68,1.68,0,0,1,3.36,0v64A1.68,1.68,0,0,1,15.6,75.31Z" transform="translate(-10.55 -1.26)"/><path class="cls-1" d="M104.38,8H19a1.69,1.69,0,1,1,0-3.37h85.41a1.69,1.69,0,0,1,0,3.37Z" transform="translate(-10.55 -1.26)"/><path class="cls-1" d="M107.75,75.31a1.69,1.69,0,0,1-1.69-1.68v-64a1.69,1.69,0,0,1,3.37,0v64A1.68,1.68,0,0,1,107.75,75.31Z" transform="translate(-10.55 -1.26)"/><path class="cls-1" d="M104.38,78.68H19a1.69,1.69,0,1,1,0-3.37h85.41a1.69,1.69,0,0,1,0,3.37Z" transform="translate(-10.55 -1.26)"/></svg>