<svg id="Layer_1" data-name="Layer 1" xmlns="http://www.w3.org/2000/svg" viewBox="0 0 78.08 78.08"><defs><style>.cls-1{fill:#fff;}</style></defs><title>zoomIn</title><path class="cls-1" d="M71.55,12.32A30,30,0,0,0,25.34,50.08L4.1,71.3a6,6,0,0,0,8.19,8.78l.29-.3L33.8,58.54A30,30,0,0,0,71.56,12.33ZM50.34,51.54a17.91,17.91,0,1,1,.18,0Z" transform="translate(-2.19 -3.61)"/><path class="cls-1" d="M58.34,29.54h-4v-4a4,4,0,1,0-8,0v4h-4a4,4,0,0,0,0,8h4v4a4,4,0,0,0,8,0v-4h4a4,4,0,0,0,0-8Z" transform="translate(-2.19 -3.61)"/></svg>