<?xml version="1.0" encoding="utf-8"?>
<!-- Generator: Adobe Illustrator 23.0.0, SVG Export Plug-In . SVG Version: 6.00 Build 0)  -->
<svg version="1.1" id="Layer_1" xmlns="http://www.w3.org/2000/svg" xmlns:xlink="http://www.w3.org/1999/xlink" x="0px" y="0px"
	 viewBox="0 0 31.1 31.4" style="enable-background:new 0 0 31.1 31.4;" xml:space="preserve">
<style type="text/css">
	<!-- .st0{fill:url(#SVGID_1_);} -->
	.st0{fill:white;}
</style>
<title>Zoom_4</title>
<g>
	<g>
		<g id="Icons">
			
				<image style="overflow:visible;opacity:0.5;enable-background:new    ;" width="44" height="44" xlink:href="6C392C7775ECF314.png"  transform="matrix(1 0 0 1 -3.6059 -4.3075)">
			</image>
			
				<linearGradient id="SVGID_1_" gradientUnits="userSpaceOnUse" x1="0" y1="19.5972" x2="31.0569" y2="19.5972" gradientTransform="matrix(1 0 0 -1 0 35.2748)">
				<stop  offset="0" style="stop-color:#F0F0F0"/>
				<stop  offset="0.71" style="stop-color:#CCCCCC"/>
			</linearGradient>
			<path class="st0" d="M30.4,27.5l-7.6-7.6l-0.2-0.2c4-5.6,2.7-13.4-2.8-17.4S6.4-0.4,2.3,5.2s-2.7,13.4,2.8,17.4
				c4.2,3,9.9,3.1,14.2,0.2l0.2,0.3l7.6,7.6c0.9,0.9,2.3,0.9,3.2,0S31.3,28.4,30.4,27.5L30.4,27.5z M12.5,21.4c-5,0-9-4-9-9s4-9,9-9
				s9,4,9,9S17.5,21.4,12.5,21.4z"/>
		</g>
	</g>
</g>
</svg>
