<?xml version="1.0" encoding="utf-8"?>
<!-- Generator: Adobe Illustrator 23.0.0, SVG Export Plug-In . SVG Version: 6.00 Build 0)  -->
<svg version="1.1" id="Layer_1" xmlns="http://www.w3.org/2000/svg" xmlns:xlink="http://www.w3.org/1999/xlink" x="0px" y="0px"
	 viewBox="0 0 24.9 24.9" style="enable-background:new 0 0 24.9 24.9;" xml:space="preserve">
<style type="text/css">
	<!-- .st0{fill:url(#SVGID_1_);}
	.st1{fill:url(#SVGID_2_);} -->
	.st0{fill:white;}
	.st1{fill:white;}
</style>
<title>Zoom In_4</title>
<g>
	<g>
		<g id="Icons">
			
				<image style="overflow:visible;opacity:0.5;enable-background:new    ;" width="44" height="45" xlink:href="7E8736FDF6310AE0.png"  transform="matrix(1 0 0 1 -3.3235 -4.5893)">
			</image>
			
				<linearGradient id="SVGID_1_" gradientUnits="userSpaceOnUse" x1="0" y1="24.2408" x2="24.9908" y2="24.2408" gradientTransform="matrix(1 0 0 -1 0 36.7112)">
				<stop  offset="0" style="stop-color:#F0F0F0"/>
				<stop  offset="0.71" style="stop-color:#CCCCCC"/>
			</linearGradient>
			<path class="st0" d="M22.6,19.8c4-5.6,2.8-13.4-2.8-17.4S6.4-0.4,2.4,5.2s-2.8,13.4,2.8,17.4c4.2,3,9.9,3.2,14.2,0.3 M12.5,21.4
				c-5,0-9-4-9-9s4-9,9-9c5,0,9,4,9,9l0,0C21.5,17.4,17.4,21.4,12.5,21.4z"/>
			
				<linearGradient id="SVGID_2_" gradientUnits="userSpaceOnUse" x1="7.3465" y1="24.1371" x2="17.6167" y2="24.1371" gradientTransform="matrix(1 0 0 -1 0 36.7112)">
				<stop  offset="0" style="stop-color:#F0F0F0"/>
				<stop  offset="0.71" style="stop-color:#CCCCCC"/>
			</linearGradient>
			<path class="st1" d="M16,10.8h-1.8V9c-0.1-0.9-0.9-1.6-1.8-1.5c-0.8,0.1-1.5,0.7-1.5,1.5v1.8H9c-0.9,0.1-1.6,0.9-1.5,1.8
				C7.5,13.4,8.2,14,9,14.1h1.8v1.8c-0.1,0.9,0.6,1.7,1.5,1.8c0.9,0.1,1.7-0.6,1.8-1.5c0-0.1,0-0.2,0-0.3v-1.8H16
				c0.9,0.1,1.7-0.6,1.8-1.5c0.1-0.9-0.6-1.7-1.5-1.8C16.1,10.8,16,10.8,16,10.8z"/>
		</g>
	</g>
</g>
</svg>
