<svg width="50" height="50" viewBox="0 0 50 50" fill="none" xmlns="http://www.w3.org/2000/svg">
<path d="M40.0481 28.4428C39.452 28.4445 38.9693 28.9273 38.9676 29.5234V43.0516C38.9625 44.8396 37.5146 46.2875 35.726 46.2932H6.96322C5.1753 46.2875 3.72669 44.8396 3.72162 43.0516V14.2882C3.72669 12.5003 5.1753 11.052 6.96322 11.0466H18.8241C19.4212 11.0466 19.9047 10.5628 19.9047 9.96603C19.9047 9.36927 19.4212 8.8855 18.8241 8.8855H6.96322C3.97974 8.88685 1.5619 11.305 1.56055 14.2882V43.0516C1.5619 46.0348 3.97974 48.453 6.96322 48.454H35.726C38.7094 48.453 41.1276 46.0348 41.1286 43.0516V29.5234C41.1269 28.9273 40.6442 28.4445 40.0481 28.4428Z" fill="#E0E0E0" stroke="#E0E0E0"/>
<path d="M47.9366 15.3602C48.1511 15.1623 48.1511 14.8234 47.9366 14.6254L34.7372 2.44123C34.417 2.14558 33.8981 2.37275 33.8981 2.80863V9.64921H32.2211C28.0668 9.64921 24.161 11.0111 21.2234 13.484C18.2858 15.957 16.668 19.245 16.668 22.7423V27.1919C16.668 27.6277 17.1866 27.8549 17.507 27.5594L19.4386 25.7778C23.1448 22.3596 28.4057 20.3822 33.8981 20.3373V27.1772C33.8981 27.6131 34.417 27.8403 34.7372 27.5446L47.9366 15.3602ZM18.5243 24.316V22.7423C18.5243 19.6624 19.949 16.7667 22.536 14.589C25.1229 12.4113 28.5625 11.2119 32.2211 11.2119H35.7542V5.69922L45.8226 14.9928L35.7542 24.2867V18.774H34.0888C28.2295 18.774 22.5949 20.7871 18.5243 24.316Z" fill="#E0E0E0" stroke="#E0E0E0" stroke-width="0.5"/>
</svg>
