<svg width="20" height="20" viewBox="0 0 20 20" fill="none" xmlns="http://www.w3.org/2000/svg">
<path fill-rule="evenodd" clip-rule="evenodd" d="M10.0102 5.03666e-06C7.63381 -0.00234798 5.33425 0.819829 3.52358 2.3192C1.71292 3.81857 0.50952 5.89712 0.129034 8.18236C-0.251452 10.4676 0.215849 12.8102 1.44719 14.7902C2.67854 16.7703 4.59344 18.2585 6.84874 18.988C7.35211 19.0778 7.53014 18.7727 7.53014 18.5156C7.53014 18.2584 7.53014 17.6723 7.53014 16.859C4.73701 17.4511 4.14769 15.5493 4.14769 15.5493C3.96239 14.9598 3.56874 14.4534 3.03658 14.1199C2.13419 13.5219 3.11025 13.5219 3.11025 13.5219C3.42657 13.5654 3.72859 13.6785 3.99341 13.8526C4.25824 14.0266 4.47894 14.2571 4.63879 14.5266C4.77462 14.7665 4.95774 14.978 5.17765 15.1488C5.39756 15.3196 5.64993 15.4465 5.92028 15.522C6.19063 15.5976 6.47363 15.6204 6.75305 15.5892C7.03247 15.5579 7.30281 15.4732 7.54855 15.3399C7.58708 14.848 7.80479 14.3856 8.16243 14.0362C5.9402 13.791 3.60748 12.9537 3.60748 9.25182C3.59223 8.28476 3.95928 7.34902 4.63265 6.63834C4.33275 5.7975 4.3678 4.87762 4.73087 4.06075C4.73087 4.06075 5.57188 3.79761 7.48103 5.0595C9.12043 4.62098 10.8508 4.62098 12.4902 5.0595C14.3994 3.79761 15.2342 4.06075 15.2342 4.06075C15.6024 4.86897 15.6462 5.78226 15.357 6.6204C16.0304 7.33108 16.3974 8.26682 16.3822 9.23387C16.3822 12.9777 14.0433 13.797 11.815 14.0183C12.0539 14.2523 12.2384 14.5336 12.356 14.8431C12.4736 15.1527 12.5214 15.4832 12.4964 15.8124C12.4964 17.1162 12.4964 18.1687 12.4964 18.4857C12.4964 18.8027 12.6744 19.0478 13.1839 18.9522C15.4135 18.2034 17.2997 16.711 18.5093 14.7386C19.719 12.7662 20.1741 10.4408 19.7944 8.17323C19.4146 5.90562 18.2245 3.84173 16.4341 2.34617C14.6438 0.850603 12.3685 0.0196145 10.0102 5.03666e-06Z" fill="white"/>
</svg>
