<svg width="40" height="40" viewBox="0 0 40 40" fill="none" xmlns="http://www.w3.org/2000/svg">
<path d="M9.41621 2.74945H30.7495C34.4295 2.74945 37.4162 5.73612 37.4162 9.41615V30.7495C37.4162 34.4295 34.4295 37.4161 30.7495 37.4161H9.41621C5.73618 37.4161 2.74951 34.4295 2.74951 30.7495V9.41615C2.74951 5.73612 5.73618 2.74945 9.41621 2.74945Z" stroke="#C7C7C7" stroke-width="4" stroke-miterlimit="2"/>
<path d="M30.7492 10.7494C32.2219 10.7494 33.4159 9.55556 33.4159 8.08277C33.4159 6.61001 32.2219 5.41611 30.7492 5.41611C29.2765 5.41611 28.0825 6.61001 28.0825 8.08277C28.0825 9.55556 29.2765 10.7494 30.7492 10.7494Z" fill="#C7C7C7"/>
<path fill-rule="evenodd" clip-rule="evenodd" d="M8.69189 20.0251C8.69189 13.7705 13.7706 8.6918 20.0252 8.6918C26.2799 8.6918 31.3586 13.7705 31.3586 20.0251C31.3586 26.2798 26.2799 31.3585 20.0252 31.3585C13.7706 31.3585 8.69189 26.2798 8.69189 20.0251ZM14.6919 20.0251C14.6919 17.0812 17.0813 14.6918 20.0252 14.6918C22.9692 14.6918 25.3586 17.0812 25.3586 20.0251C25.3586 22.9691 22.9692 25.3585 20.0252 25.3585C17.0813 25.3585 14.6919 22.9691 14.6919 20.0251Z" fill="#C7C7C7"/>
</svg>
