<svg width="40" height="40" viewBox="0 0 40 40" fill="none" xmlns="http://www.w3.org/2000/svg">
<path d="M10.7677 11.1587C13.4726 15.5516 16.8197 17.4641 20.809 16.896C20.346 13.6987 21.3024 11.7863 23.6784 11.1587C25.9051 10.8298 27.3397 11.3076 27.9823 12.592C29.0731 12.5032 30.0295 12.0254 30.8517 11.1587C30.1637 12.4281 29.573 13.272 29.0797 13.6907C29.6779 14.0756 30.6512 13.8049 31.9997 12.8787C31.3464 14.0289 30.317 14.8898 28.9117 15.4614C28.9491 19.776 28.161 23.1236 26.5477 25.5041C23.9051 29.4 15.5197 31.4654 9.33301 28.372C12.8895 28.1934 15.2806 27.2374 16.5064 25.5041C14.8619 26.3103 12.9491 25.3538 10.7677 22.6347C12.1429 23.0524 13.0992 23.0524 13.637 22.6347C11.3357 21.7974 9.90099 20.3627 9.33301 18.3307C10.9473 18.8685 11.9037 18.8685 12.2024 18.3307C9.93123 16.1787 9.45301 13.7881 10.7677 11.1587Z" fill="#C7C7C7"/>
<path d="M9.32783 2.66071H30.6611C34.3411 2.66071 37.3278 5.64738 37.3278 9.3274V30.6607C37.3278 34.3407 34.3411 37.3274 30.6611 37.3274H9.32783C5.6478 37.3274 2.66113 34.3407 2.66113 30.6607V9.3274C2.66113 5.64738 5.6478 2.66071 9.32783 2.66071Z" stroke="#C7C7C7" stroke-width="4" stroke-miterlimit="2"/>
</svg>
