<?xml version="1.0" encoding="iso-8859-1"?>
<!-- Generator: Adobe Illustrator 19.0.0, SVG Export Plug-In . SVG Version: 6.00 Build 0)  -->
<svg xmlns="http://www.w3.org/2000/svg" xmlns:xlink="http://www.w3.org/1999/xlink" version="1.1" id="Capa_1" x="0px" y="0px" viewBox="0 0 512 512" style="enable-background:new 0 0 512 512;" xml:space="preserve" width="512px" height="512px">
<g>
	<g>
		<g>
			<path d="M176,128H0v384h384V336C383.868,221.18,290.82,128.132,176,128z M352,480H32V160h144     c97.155,0.115,175.885,78.845,176,176V480z" fill="#FFFFFF"/>
			<path d="M192,64.512c41.086,2.393,81.093,14.079,117.008,34.176l15.664-27.904C283.969,48.019,238.574,34.924,192,32.512V0h-32     v96h32V64.512z" fill="#FFFFFF"/>
			<path d="M479.488,320c-2.37-45.924-15.127-90.712-37.312-130.992l-28,15.504C433.764,240.038,445.147,279.5,447.488,320H416v32     h96v-32H479.488z" fill="#FFFFFF"/>
			<path d="M379.424,110.096c-8.362-7.528-17.133-14.589-26.272-21.152l-18.672,25.968c8.184,5.887,16.041,12.217,23.536,18.96     L379.424,110.096z" fill="#FFFFFF"/>
			<path d="M403.2,134.032l-23.904,21.28c6.694,7.529,12.965,15.424,18.784,23.648l26.128-18.512     C417.688,151.27,410.675,142.451,403.2,134.032z" fill="#FFFFFF"/>
		</g>
	</g>
</g>
<g>
</g>
<g>
</g>
<g>
</g>
<g>
</g>
<g>
</g>
<g>
</g>
<g>
</g>
<g>
</g>
<g>
</g>
<g>
</g>
<g>
</g>
<g>
</g>
<g>
</g>
<g>
</g>
<g>
</g>
</svg>
