<?xml version="1.0" encoding="iso-8859-1"?>
<!-- Generator: Adobe Illustrator 18.0.0, SVG Export Plug-In . SVG Version: 6.00 Build 0)  -->
<!DOCTYPE svg PUBLIC "-//W3C//DTD SVG 1.1//EN" "http://www.w3.org/Graphics/SVG/1.1/DTD/svg11.dtd">
<svg xmlns="http://www.w3.org/2000/svg" xmlns:xlink="http://www.w3.org/1999/xlink" version="1.1" id="Capa_1" x="0px" y="0px" viewBox="0 0 491.541 491.541" style="enable-background:new 0 0 491.541 491.541;" xml:space="preserve" width="512px" height="512px">
<g>
	<path d="M350.373,116.048H24.445C10.942,116.048,0,126.988,0,140.492V466.42c0,13.503,10.942,24.445,24.445,24.445h325.928   c13.503,0,24.444-10.942,24.444-24.445V140.492C374.817,126.988,363.876,116.048,350.373,116.048z M325.928,441.975H48.889V164.936   h277.039V441.975z" fill="#FFFFFF"/>
	<path d="M486.695,411.913h-26.513V126.63h26.513c1.958,0,3.724-1.178,4.472-2.991c0.756-1.814,0.342-3.892-1.05-5.283   l-42.802-42.802c-1.894-1.894-4.965-1.894-6.858,0l-42.803,42.802c-1.392,1.392-1.806,3.469-1.05,5.283   c0.749,1.813,2.515,2.991,4.473,2.991h26.513v285.283h-26.513c-1.958,0-3.724,1.177-4.473,2.991   c-0.755,1.815-0.342,3.893,1.05,5.285l42.803,42.802c1.893,1.894,4.965,1.894,6.858,0l42.802-42.802   c1.393-1.392,1.807-3.469,1.05-5.285C490.419,413.09,488.654,411.913,486.695,411.913z" fill="#FFFFFF"/>
	<path d="M70.676,94.563c1.392,1.392,3.469,1.806,5.284,1.05c1.814-0.747,2.992-2.514,2.992-4.472V64.628h285.283v26.513   c0,1.958,1.177,3.725,2.991,4.472c1.814,0.756,3.891,0.342,5.284-1.05l42.802-42.802c1.894-1.895,1.894-4.967,0-6.86L372.51,2.1   c-1.393-1.393-3.469-1.807-5.284-1.051c-1.814,0.748-2.991,2.514-2.991,4.472v26.515H78.952V5.521c0-1.957-1.177-3.724-2.992-4.472   c-1.814-0.756-3.892-0.342-5.284,1.051L27.875,44.901c-1.894,1.893-1.894,4.965,0,6.86L70.676,94.563z" fill="#FFFFFF"/>
</g>
<g>
</g>
<g>
</g>
<g>
</g>
<g>
</g>
<g>
</g>
<g>
</g>
<g>
</g>
<g>
</g>
<g>
</g>
<g>
</g>
<g>
</g>
<g>
</g>
<g>
</g>
<g>
</g>
<g>
</g>
</svg>
