<?xml version="1.0" encoding="iso-8859-1"?>
<!-- Generator: Adobe Illustrator 19.0.0, SVG Export Plug-In . SVG Version: 6.00 Build 0)  -->
<svg xmlns="http://www.w3.org/2000/svg" xmlns:xlink="http://www.w3.org/1999/xlink" version="1.1" id="Capa_1" x="0px" y="0px" viewBox="0 0 511.994 511.994" style="enable-background:new 0 0 511.994 511.994;" xml:space="preserve" width="512px" height="512px">
<g>
	<g>
		<g>
			<path d="M321.901,191.664c-9.25-7.271-22.688-5.625-29.948,3.646c-20.99,26.833-38.844,56.208-53.063,87.354     c-4.896,10.708-0.177,23.375,10.542,28.25c2.875,1.313,5.885,1.938,8.854,1.938c8.094,0,15.833-4.625,19.417-12.479     c12.823-28.083,28.927-54.583,47.854-78.771C332.817,212.33,331.182,198.914,321.901,191.664z" fill="#FFFFFF"/>
			<path d="M232.723,363.351c-3.49-0.667-6.948-0.417-10.115,0.583c-3.24-0.896-6.698-1.063-10.219-0.292     c-11.51,2.5-18.823,13.875-16.313,25.375c2.833,13.042,4.906,26.375,6.156,39.646c1.042,10.979,10.25,19.333,21.24,19.333     c0.083,0,0.167,0,0.25,0c11.104-0.125,20.25-8.75,21.031-19.833c0.938-13.313,2.646-26.75,5.083-39.958     C251.973,376.622,244.317,365.497,232.723,363.351z" fill="#FFFFFF"/>
			<path d="M202.026,281.914c-15.51-29.75-35.104-58.563-58.25-85.604c-7.656-8.938-21.135-9.979-30.083-2.333     c-8.948,7.667-9.99,21.125-2.333,30.083c21.042,24.583,38.813,50.688,52.833,77.563c3.802,7.313,11.24,11.479,18.938,11.479     c3.323,0,6.688-0.771,9.844-2.417C203.421,305.247,207.473,292.351,202.026,281.914z" fill="#FFFFFF"/>
			<path d="M69.271,125.039C47.667,108.122,32.76,99.31,32.135,98.935c-10.156-5.979-23.209-2.583-29.178,7.563     c-5.979,10.146-2.604,23.208,7.531,29.208c0.125,0.083,13.313,7.917,32.49,22.917c3.896,3.063,8.531,4.542,13.136,4.542     c6.333,0,12.604-2.813,16.813-8.188C80.188,145.705,78.553,132.289,69.271,125.039z" fill="#FFFFFF"/>
			<path d="M458.661,63.997c-24.16,0-44.387,16.247-50.918,38.323c-12.578,3.71-26.452,10.634-41.426,20.948     c-9.698,6.688-12.146,19.958-5.458,29.667c4.135,6,10.802,9.229,17.583,9.229c4.167,0,8.385-1.229,12.083-3.771     c9.904-6.819,17.413-10.604,23.016-12.931c9.434,15.077,26.063,25.202,45.12,25.202c29.406,0,53.333-23.917,53.333-53.333     C511.994,87.914,488.067,63.997,458.661,63.997z" fill="#FFFFFF"/>
		</g>
	</g>
</g>
<g>
</g>
<g>
</g>
<g>
</g>
<g>
</g>
<g>
</g>
<g>
</g>
<g>
</g>
<g>
</g>
<g>
</g>
<g>
</g>
<g>
</g>
<g>
</g>
<g>
</g>
<g>
</g>
<g>
</g>
</svg>
