<?xml version="1.0" encoding="UTF-8" standalone="no"?>
<svg
   xmlns:dc="http://purl.org/dc/elements/1.1/"
   xmlns:cc="http://creativecommons.org/ns#"
   xmlns:rdf="http://www.w3.org/1999/02/22-rdf-syntax-ns#"
   xmlns:svg="http://www.w3.org/2000/svg"
   xmlns="http://www.w3.org/2000/svg"
   xmlns:xlink="http://www.w3.org/1999/xlink"
   xmlns:sodipodi="http://sodipodi.sourceforge.net/DTD/sodipodi-0.dtd"
   xmlns:inkscape="http://www.inkscape.org/namespaces/inkscape"
   width="400px"
   height="400px"
   viewBox="0 0 400 400"
   version="1.1"
   id="svg48"
   inkscape:version="0.91 r13725"
   sodipodi:docname="Square.svg">
  <metadata
     id="metadata92">
    <rdf:RDF>
      <cc:Work
         rdf:about="">
        <dc:format>image/svg+xml</dc:format>
        <dc:type
           rdf:resource="http://purl.org/dc/dcmitype/StillImage" />
      </cc:Work>
    </rdf:RDF>
  </metadata>
  <sodipodi:namedview
     pagecolor="#ffffff"
     bordercolor="#666666"
     borderopacity="1"
     objecttolerance="10"
     gridtolerance="10"
     guidetolerance="10"
     inkscape:pageopacity="0"
     inkscape:pageshadow="2"
     inkscape:window-width="640"
     inkscape:window-height="480"
     id="namedview90"
     showgrid="false"
     inkscape:zoom="0.59"
     inkscape:cx="200"
     inkscape:cy="164.12143"
     inkscape:window-x="365"
     inkscape:window-y="150"
     inkscape:window-maximized="0"
     inkscape:current-layer="svg48" />
  <!-- Generator: Sketch 42 (36781) - http://www.bohemiancoding.com/sketch -->
  <title
     id="title50">Square</title>
  <desc
     id="desc52">Created with Sketch.</desc>
  <defs
     id="defs54">
    <rect
       id="path-1"
       x="390"
       y="1359"
       width="400"
       height="400" />
    <mask
       id="mask-2"
       maskContentUnits="userSpaceOnUse"
       maskUnits="objectBoundingBox"
       x="0"
       y="0"
       width="400"
       height="400"
       fill="white">
      <use
         xlink:href="#path-1"
         id="use58" />
    </mask>
    <path
       d="M192.714864,217.755692 L29.8073335,217.755692 C23.1368838,217.755692 17.7287493,212.350189 17.7287493,205.680412 L17.7287493,42.7872186 C17.7287493,36.1195276 23.1368838,30.7119384 29.8073335,30.7119384 L192.714864,30.7119384 C199.385314,30.7119384 204.791362,36.1195276 204.791362,42.7872186 L204.791362,205.680412 C204.791362,212.350189 199.385314,217.755692 192.714864,217.755692 M2.84217094e-14,222.752288 C2.84217094e-14,229.419979 5.40604796,234.827568 12.0764977,234.827568 L210.923502,234.827568 C226.17197,234.827568 228.861147,224.626817 232.497737,216.573492 C236.134326,208.520168 223,223.289505 223,222.752288 L223,23.9253305 C223,17.2555533 217.591866,11.8479641 210.923502,11.8479641 L12.0764977,11.8479641 C11.2810662,11.8479641 17.1992121,1.85483977 16.4467627,2.00160084 C15.6943134,2.1483619 2.84217094e-14,9.94672811 2.84217094e-14,23.9253305 L2.84217094e-14,222.752288 Z"
       id="path-3" />
    <filter
       x="-50%"
       y="-50%"
       width="200%"
       height="200%"
       filterUnits="objectBoundingBox"
       id="filter-4">
      <feOffset
         dx="0"
         dy="8"
         in="SourceAlpha"
         result="shadowOffsetOuter1"
         id="feOffset62" />
      <feGaussianBlur
         stdDeviation="5.5"
         in="shadowOffsetOuter1"
         result="shadowBlurOuter1"
         id="feGaussianBlur64" />
      <feColorMatrix
         values="0 0 0 0 0   0 0 0 0 0   0 0 0 0 0  0 0 0 0.5 0"
         type="matrix"
         in="shadowBlurOuter1"
         id="feColorMatrix66" />
    </filter>
    <path
       d="M204.714864,205.907728 L41.8073335,205.907728 C35.1368838,205.907728 29.7287493,200.502225 29.7287493,193.832448 L29.7287493,30.9392545 C29.7287493,24.2715635 35.1368838,18.8639743 41.8073335,18.8639743 L204.714864,18.8639743 C211.385314,18.8639743 216.791362,24.2715635 216.791362,30.9392545 L216.791362,193.832448 C216.791362,200.502225 211.385314,205.907728 204.714864,205.907728 M12,12.0773665 L12,210.904324 C12,217.572015 17.406048,222.979604 24.0764977,222.979604 L222.923502,222.979604 C229.591866,222.979604 235,217.572015 235,210.904324 L235,12.0773665 C235,5.4075892 229.591866,-4.8316906e-13 222.923502,-4.8316906e-13 L24.0764977,-4.8316906e-13 C17.406048,-4.8316906e-13 12,5.4075892 12,12.0773665"
       id="path-5" />
    <filter
       x="-50%"
       y="-50%"
       width="200%"
       height="200%"
       filterUnits="objectBoundingBox"
       id="filter-6">
      <feOffset
         dx="0"
         dy="2"
         in="SourceAlpha"
         result="shadowOffsetOuter1"
         id="feOffset70" />
      <feGaussianBlur
         stdDeviation="4"
         in="shadowOffsetOuter1"
         result="shadowBlurOuter1"
         id="feGaussianBlur72" />
      <feColorMatrix
         values="0 0 0 0 0   0 0 0 0 0   0 0 0 0 0  0 0 0 0.5 0"
         type="matrix"
         in="shadowBlurOuter1"
         id="feColorMatrix74" />
    </filter>
  </defs>
  <g
     id="Page-1"
     transform="matrix(1.2365877,0,0,1.2326443,-48.062584,-48.552684)"
     style="fill:none;fill-rule:evenodd;stroke:none;stroke-width:1">
    <g
       id="Artboard-6-Copy"
       transform="translate(-390,-1359)">
      <use
         id="Rectangle-4-Copy-2"
         mask="url(#mask-2)"
         xlink:href="#path-1"
         style="stroke:#979797;stroke-width:2;stroke-opacity:0"
         x="0"
         y="0"
         width="100%"
         height="100%" />
      <g
         id="Square"
         transform="translate(473,1442)">
        <g
           id="Fill-29-Copy-4">
          <use
             xlink:href="#path-3"
             id="use81"
             style="fill:#000000;fill-opacity:1;filter:url(#filter-4)"
             x="0"
             y="0"
             width="100%"
             height="100%" />
          <use
             xlink:href="#path-3"
             id="use83"
             style="fill:#bfbfbf;fill-rule:evenodd"
             x="0"
             y="0"
             width="100%"
             height="100%" />
        </g>
        <g
           id="Fill-29-Copy-5">
          <use
             xlink:href="#path-5"
             id="use86"
             style="fill:#000000;fill-opacity:1;filter:url(#filter-6)"
             x="0"
             y="0"
             width="100%"
             height="100%" />
          <use
             xlink:href="#path-5"
             id="use88"
             style="fill:#ffffff;fill-rule:evenodd"
             x="0"
             y="0"
             width="100%"
             height="100%" />
        </g>
      </g>
    </g>
  </g>
</svg>
