<svg xmlns="http://www.w3.org/2000/svg" viewBox="0 0 25 25" width="25" height="25">
	<style>
		tspan { white-space:pre }
		.shp0 { fill: #000000 } 
	</style>
	<path id="Layer" fill-rule="evenodd" class="shp0" d="M0 4.92C0 3.31 1.31 2 2.92 2L17.08 2C18.69 2 20 3.3 20 4.92L20 15.41C20 17.03 18.69 18.33 17.08 18.33L2.92 18.33C1.31 18.33 0 17.03 0 15.41L0 4.92ZM1.17 4.92L1.17 15.41C1.17 16.38 1.95 17.17 2.92 17.17L17.08 17.17C18.05 17.17 18.83 16.38 18.83 15.41L18.83 4.92C18.83 3.95 18.05 3.17 17.08 3.17L2.92 3.17C1.95 3.17 1.17 3.95 1.17 4.92ZM4.68 7.25L3.51 7.25C3.19 7.25 2.93 6.99 2.93 6.67C2.93 6.34 3.19 6.08 3.51 6.08L7 6.08C7.32 6.08 7.58 6.34 7.58 6.67C7.58 6.99 7.32 7.25 7 7.25L5.85 7.25L5.83 13.08L7 13.08C7.32 13.08 7.58 13.34 7.58 13.67C7.58 13.99 7.32 14.25 7 14.25L3.51 14.25C3.19 14.25 2.93 13.99 2.93 13.67C2.93 13.34 3.19 13.08 3.51 13.08L4.67 13.08L4.68 7.25Z" />
	<path id="Layer" class="shp0" d="M24.68 14.69L13.18 10.37C12.99 10.3 12.79 10.34 12.65 10.48C12.51 10.62 12.46 10.83 12.53 11.01L16.86 22.51C16.93 22.7 17.11 22.83 17.32 22.83C17.32 22.83 17.32 22.83 17.33 22.83C17.53 22.83 17.71 22.71 17.79 22.53L19.84 17.68L24.69 15.62C24.88 15.54 25 15.35 25 15.15C25 14.94 24.87 14.76 24.68 14.69Z" />
</svg>