<svg xmlns="http://www.w3.org/2000/svg" viewBox="0 0 22 22" width="22" height="22">
	<style>
		tspan { white-space:pre }
		.shp0 { fill: #000000 } 
	</style>
	<path id="Layer" fill-rule="evenodd" class="shp0" d="M21 6.63L21 15.8C21 16.53 20.62 17.22 19.98 17.57L12.02 22.18C11.71 22.37 11.35 22.46 11 22.46C10.65 22.46 10.29 22.37 9.98 22.18L2.02 17.59C1.4 17.22 1 16.55 1 15.82L1 6.63C1 5.89 1.38 5.21 2.02 4.85L9.98 0.27C10.6 -0.09 11.38 -0.09 12.02 0.27L19.98 4.85C20.6 5.21 21 5.89 21 6.63ZM3.43 5.92L11 10.27L18.57 5.92L11.21 1.66C11.14 1.64 11.07 1.61 11 1.61C10.93 1.61 10.86 1.61 10.79 1.66L3.43 5.92ZM10.2 20.41L10.2 11.68L2.63 7.31L2.63 15.82C2.63 15.96 2.73 16.11 2.84 16.18L10.2 20.41ZM19.37 15.8L19.37 7.31L11.8 11.68L11.8 20.43L19.16 16.18C19.3 16.08 19.37 15.96 19.37 15.8Z" />
</svg>