<svg xmlns="http://www.w3.org/2000/svg" viewBox="0 0 22 22" width="22" height="22">
	<style>
		tspan { white-space:pre }
		.shp0 { fill: #000000;stroke: #000000;stroke-width: 0.25 } 
	</style>
	<path id="Layer" fill-rule="evenodd" class="shp0" d="M18.65 1.35C18.87 1.58 19 1.88 19 2.2L19 19.84C19 20.15 18.87 20.46 18.65 20.68C18.43 20.9 18.12 21.03 17.81 21.03L4.19 21.03C3.87 21.03 3.57 20.9 3.35 20.68C3.12 20.45 3 20.15 3 19.84C3 19.83 3 6.11 3 6.11C3 6.07 3.01 6.02 3.02 5.98C3.03 5.97 3.03 5.95 3.04 5.94C3.06 5.88 3.09 5.83 3.13 5.79L7.52 1.13C7.55 1.1 7.59 1.07 7.63 1.05L7.66 1.05C7.69 1.03 7.73 1.01 7.77 1C7.81 1 7.85 1 7.88 1L17.81 1C18.12 1 18.43 1.13 18.65 1.35ZM17.98 2.2C17.98 2.15 17.96 2.11 17.93 2.08C17.9 2.04 17.85 2.03 17.81 2.03L8.39 2.03L8.39 5.46C8.39 5.77 8.27 6.08 8.05 6.3C7.82 6.52 7.52 6.65 7.2 6.65L4.01 6.65L4.01 19.83C4.01 19.87 4.03 19.92 4.06 19.95C4.1 19.98 4.14 20 4.19 20L17.81 20C17.85 20 17.9 19.98 17.93 19.95C17.96 19.92 17.98 19.87 17.98 19.83L17.98 2.2ZM12.72 7.11C13.01 7.4 13.17 7.79 13.17 8.19L13.17 15.88C13.18 16.01 13.14 16.13 13.06 16.22L11.39 18.27C11.34 18.33 11.28 18.37 11.22 18.41C11.15 18.44 11.07 18.45 11 18.45C10.92 18.45 10.85 18.44 10.78 18.41C10.71 18.37 10.65 18.33 10.6 18.27L8.94 16.22C8.86 16.13 8.82 16.01 8.82 15.88L8.82 8.19C8.82 7.79 8.98 7.4 9.27 7.11C9.56 6.82 9.95 6.66 10.35 6.66L11.64 6.66C12.05 6.66 12.44 6.82 12.72 7.11ZM9.99 7.83C9.9 7.93 9.84 8.06 9.84 8.19L9.84 9.01L12.15 9.01L12.15 8.19C12.15 8.06 12.1 7.93 12 7.83C11.91 7.74 11.78 7.68 11.64 7.68L10.35 7.68C10.22 7.68 10.09 7.74 9.99 7.83ZM6.76 3.44L4.69 5.63L7.2 5.63C7.25 5.63 7.29 5.61 7.32 5.58C7.35 5.55 7.37 5.5 7.37 5.46L7.37 2.8L6.76 3.44ZM12.15 15.7L12.15 10.03L9.84 10.03L9.84 15.7L11 17.12L12.15 15.7Z" />
</svg>