<svg xmlns="http://www.w3.org/2000/svg" viewBox="0 0 20 20" width="20" height="20">
	<style>
		tspan { white-space:pre }
		.shp0 { fill: #000000 } 
	</style>
	<path id="Layer" class="shp0" d="M18.93 5.51C18.93 5.48 18.93 5.48 18.93 5.48C18.93 5.44 18.93 5.44 18.93 5.41L18.93 1.28C18.93 0.57 18.36 0 17.65 0C17.61 0 17.58 0 17.51 0L6.3 1.78C5.62 1.81 5.09 2.38 5.09 3.06L5.09 7.15C5.09 7.19 5.09 7.19 5.09 7.19C5.09 7.22 5.09 7.22 5.09 7.26L5.09 14.66C4.59 14.41 3.99 14.23 3.34 14.23C1.49 14.23 0 15.48 0 17.04C0 18.61 1.49 19.85 3.34 19.85C5.19 19.85 6.69 18.61 6.69 17.04C6.69 16.87 6.65 16.69 6.65 16.51L6.65 6.05L17.4 4.48L17.4 10.6C16.9 10.35 16.3 10.18 15.66 10.18C13.81 10.18 12.31 11.42 12.31 12.99C12.31 14.55 13.81 15.8 15.66 15.8C17.51 15.8 19 14.55 19 12.99C19 12.81 18.96 12.63 18.96 12.45L18.96 5.51L18.93 5.51Z" />
</svg>