<svg id="Layer_1" data-name="Layer 1" xmlns="http://www.w3.org/2000/svg" viewBox="0 0 14.64 14.64"><defs><style>.cls-1,.cls-2,.cls-3{fill:none;stroke:#e6e6e6;stroke-miterlimit:10;}.cls-2{stroke-width:1.5px;}.cls-3{stroke-width:2px;}</style></defs><title>button</title><path class="cls-1" d="M10.56,3.1c.83.83-.22,3.22-2.34,5.35S3.69,11.63,2.86,10.8" transform="translate(-1.57 -1.8)"/><path class="cls-2" d="M2.7,11c-1-1,0-3.57,2.24-5.79S9.75,2,10.73,2.93" transform="translate(-1.57 -1.8)"/><path class="cls-3" d="M13.12,5.55a1.93,1.93,0,0,1,1.67.39c1.11,1.11,0,4-2.53,6.55S6.82,16.13,5.71,15a1.8,1.8,0,0,1-.4-1.54" transform="translate(-1.57 -1.8)"/><line class="cls-2" x1="1.13" y1="9.16" x2="5.6" y2="13.63"/><line class="cls-2" x1="9.16" y1="1.13" x2="13.88" y2="5.85"/><path class="cls-3" d="M13.33,5.53" transform="translate(-1.57 -1.8)"/></svg>