<svg id="Layer_1" data-name="Layer 1" xmlns="http://www.w3.org/2000/svg" viewBox="0 0 16.92 17.12"><defs><style>.cls-1{fill:#e6e6e6;}</style></defs><title>path</title><path class="cls-1" d="M2.79.55a3.47,3.47,0,0,1,1.37,1.5A6,6,0,0,1,4.61,3.5c.15.88.18,1.66.25,2.35A5.28,5.28,0,0,0,5,6.72C5,7,5.15,7,5,6.89l0,0H5l-.07,0a.76.76,0,0,0-.16-.06A1.2,1.2,0,0,0,4.4,6.7a1.05,1.05,0,0,0-.72.2c-.1.09,0,0,.06-.1s.33-.51.51-.82a17.92,17.92,0,0,1,1.3-2.07A3.83,3.83,0,0,1,6.91,2.73a2.29,2.29,0,0,1,1.52-.19,2.52,2.52,0,0,1,1.12.61,5.09,5.09,0,0,1,.6.63c.16.23.32.48.46.72s.2.5.29.75.11.48.17.72a10.2,10.2,0,0,1,.06,2.63c-.07.81-.19,1.59-.3,2.31a11.19,11.19,0,0,0-.16,1.89V13s0,0-.06-.1,0,0-.34-.26a1.11,1.11,0,0,0-.43-.12.82.82,0,0,0-.28,0l-.15,0,.2-.15a18.51,18.51,0,0,0,1.45-1.47c.27-.28.54-.56.85-.85a5.5,5.5,0,0,1,1.22-.92,2.19,2.19,0,0,1,1.57-.25,1.9,1.9,0,0,1,.58.23,2.22,2.22,0,0,1,.43.36,3.79,3.79,0,0,1,.37.55,3.72,3.72,0,0,1,.37,1.79,20.23,20.23,0,0,0,0,2.08,1,1,0,0,0,.41.84l.16.14a1.5,1.5,0,0,1-1.91,2.3,3.91,3.91,0,0,1-1.18-1.36,4.18,4.18,0,0,1-.47-1.61,19.43,19.43,0,0,1,0-2.4,1.83,1.83,0,0,0,0-.39s0,0,.07.08a1,1,0,0,0,.53.31c.46.07.53-.05.5,0a3.58,3.58,0,0,0-.55.45c-.23.22-.48.47-.73.74-.51.53-1,1.09-1.71,1.71a4.43,4.43,0,0,1-.72.49,2.22,2.22,0,0,1-.67.24,2,2,0,0,1-.56,0,1.85,1.85,0,0,1-.69-.21,1.8,1.8,0,0,1-.72-.66A1.78,1.78,0,0,1,7.88,14a5.08,5.08,0,0,1-.15-.52c0-.16,0-.28-.05-.42a12.23,12.23,0,0,1,.19-2.58C8,9.73,8.08,9,8.14,8.34c.13-1.34,0-2.59-.54-2.91-.1-.11,0,0,.17,0a.82.82,0,0,0,.43,0,3.37,3.37,0,0,0-.28.31A16.1,16.1,0,0,0,6.84,7.48a10.07,10.07,0,0,1-.67,1.08,3.57,3.57,0,0,1-.69.74,1.9,1.9,0,0,1-1.24.39,1.42,1.42,0,0,1-.45-.08l-.23-.09-.1,0,0,0a2.83,2.83,0,0,1-.28-.2,3.17,3.17,0,0,1-1-1.75,8.56,8.56,0,0,1-.23-1.34C1.8,5.35,1.76,4.63,1.65,4a2.84,2.84,0,0,0-.19-.69c-.07-.15-.11-.13-.1-.15A1.51,1.51,0,0,1,2.79.55Z" transform="translate(-0.57 -0.38)"/></svg>