<?xml version="1.0" encoding="utf-8"?>
<!-- Generator: Adobe Illustrator 23.0.0, SVG Export Plug-In . SVG Version: 6.00 Build 0)  -->
<svg version="1.1" id="Layer_1" xmlns="http://www.w3.org/2000/svg" xmlns:xlink="http://www.w3.org/1999/xlink" x="0px" y="0px"
	 viewBox="0 0 31.2 29.6" style="enable-background:new 0 0 31.2 29.6;" xml:space="preserve">
<style type="text/css">
	<!-- .st0{fill:url(#SVGID_1_);}
	.st1{fill:url(#SVGID_2_);}
	.st2{fill:url(#SVGID_3_);} -->
	.st0{fill:white;}
	.st1{fill:white;}
	.st2{fill:white;}
</style>
<title>Paintbrush_2</title>
<g>
	<g>
		<g id="Icons">
			
				<image style="overflow:visible;opacity:0.25;enable-background:new    ;" width="31" height="31" xlink:href="6BF5C2C39D36C891.png"  transform="matrix(1 0 0 1 9.7575 -4.6266)">
			</image>
			
				<linearGradient id="SVGID_1_" gradientUnits="userSpaceOnUse" x1="18.0547" y1="30.5996" x2="27.2347" y2="23.4496" gradientTransform="matrix(1 0 0 -1 0 34.6365)">
				<stop  offset="0" style="stop-color:#F0F0F0"/>
				<stop  offset="0.71" style="stop-color:#CCCCCC"/>
			</linearGradient>
			<path class="st0" d="M31,0.2c-1.4-1.4-10.1,5.2-16.2,11.2c-0.4,0.4-0.8,0.8-1.1,1.1c-0.4,0.4-0.4,0.9,0,1.3l3.6,3.6
				c0.4,0.3,0.9,0.3,1.3,0c0.4-0.4,0.7-0.7,1.1-1.1C25.9,10.4,32.4,1.5,31,0.2z"/>
			
				<image style="overflow:visible;opacity:0.25;enable-background:new    ;" width="23" height="23" xlink:href="6BF5C2C39D36C893.png"  transform="matrix(1 0 0 1 -3.2425 15.3734)">
			</image>
			
				<linearGradient id="SVGID_2_" gradientUnits="userSpaceOnUse" x1="2.7058" y1="11.0281" x2="11.9858" y2="3.8081" gradientTransform="matrix(1 0 0 -1 0 34.6365)">
				<stop  offset="0" style="stop-color:#F0F0F0"/>
				<stop  offset="0.71" style="stop-color:#CCCCCC"/>
			</linearGradient>
			<path class="st1" d="M5.8,29.5c1.6-0.1,3.1-0.9,4.2-2.1c1.2-1.8,1-4.2-0.4-5.8c-0.8-0.9-1.9-1.4-3.1-1.6c-1.2-0.1-2.4,0.2-3.4,1
				c-0.6,0.7-1.1,1.5-1.4,2.4l0,0c-0.1,0.2-0.1,0.4-0.1,0.6c-0.1,0.5-0.1,0.9-0.2,1.4c-0.1,0.6-0.3,1.2-0.6,1.8
				c-0.2,0.3-0.4,0.6-0.6,0.8c-0.3,0.3-0.3,0.9,0,1.2c0.1,0.1,0.2,0.2,0.4,0.2C2.3,29.7,4.1,29.7,5.8,29.5z"/>
			
				<image style="overflow:visible;opacity:0.25;enable-background:new    ;" width="20" height="20" xlink:href="6BF5C2C39D36C896.png"  transform="matrix(1 0 0 1 5.7575 10.3734)">
			</image>
			
				<linearGradient id="SVGID_3_" gradientUnits="userSpaceOnUse" x1="8.6988" y1="18.6747" x2="17.7988" y2="11.6047" gradientTransform="matrix(1 0 0 -1 0 34.6365)">
				<stop  offset="0" style="stop-color:#F0F0F0"/>
				<stop  offset="0.71" style="stop-color:#CCCCCC"/>
			</linearGradient>
			<path class="st2" d="M13,21.9c0.9-0.5,1.8-1.1,2.7-1.8c0.2-0.2,0.3-0.5,0.1-0.8c0,0,0,0,0,0l-3.8-3.8c-0.2-0.2-0.6-0.2-0.8,0
				c0,0,0,0,0,0c-0.6,0.8-1.2,1.6-1.7,2.5c-0.1,0.3,0,0.6,0.2,0.7c1.2,0.6,2.1,1.6,2.6,2.9C12.4,21.9,12.7,22,13,21.9
				C13,21.9,13,21.9,13,21.9z"/>
		</g>
	</g>
</g>
</svg>
