<?xml version="1.0" encoding="utf-8"?>
<!-- Generator: Adobe Illustrator 23.0.0, SVG Export Plug-In . SVG Version: 6.00 Build 0)  -->
<svg version="1.1" id="Layer_1" xmlns="http://www.w3.org/2000/svg" xmlns:xlink="http://www.w3.org/1999/xlink" x="0px" y="0px"
	 viewBox="0 0 26.3 31.3" style="enable-background:new 0 0 26.3 31.3;" xml:space="preserve">
<style type="text/css">
	<!-- .st0{fill:url(#SVGID_1_);}
	.st1{fill:url(#SVGID_2_);} -->
	.st0{fill:white;}
	.st1{fill:white;}
</style>
<title>Copy</title>
<g>
	<g>
		<g id="Icons">
			
				<image style="overflow:visible;opacity:0.25;enable-background:new    ;" width="39" height="45" xlink:href="81EDD77319084885.png"  transform="matrix(1 0 0 1 -3.27 -4.73)">
			</image>
			
				<linearGradient id="SVGID_1_" gradientUnits="userSpaceOnUse" x1="1.4987" y1="29.5681" x2="25.3187" y2="11.0781" gradientTransform="matrix(1 0 0 -1 0 36.4298)">
				<stop  offset="0" style="stop-color:#F0F0F0"/>
				<stop  offset="0.71" style="stop-color:#CCCCCC"/>
			</linearGradient>
			<path class="st0" d="M18.9,18.8c-0.5,0-0.9,0.2-1.2,0.7c-0.5,0.8-1.5,1.3-2.5,1.3c-1.7,0-3.1-1.4-3.1-3.1c0,0,0-0.1,0-0.1
				c-0.1-1.7,1.2-3.1,2.9-3.2c0,0,0.1,0,0.1,0c1,0,2,0.5,2.5,1.3c0.3,0.4,0.7,0.6,1.2,0.6c0.8,0,1.4-0.6,1.4-1.4
				c0-0.3-0.1-0.6-0.3-0.9c-1.1-1.6-2.9-2.5-4.8-2.5c-3.3,0-6,2.7-6,6s2.7,6,6,6c1.9,0,3.7-0.9,4.8-2.4c0.2-0.2,0.3-0.5,0.3-0.9
				C20.3,19.4,19.7,18.8,18.9,18.8C18.9,18.8,18.9,18.8,18.9,18.8z"/>
			
				<linearGradient id="SVGID_2_" gradientUnits="userSpaceOnUse" x1="1.6112" y1="29.7113" x2="25.4412" y2="11.2213" gradientTransform="matrix(1 0 0 -1 0 36.4298)">
				<stop  offset="0" style="stop-color:#F0F0F0"/>
				<stop  offset="0.71" style="stop-color:#CCCCCC"/>
			</linearGradient>
			<path class="st1" d="M24.1,3.7h-1.5V2.2c0-1.2-1-2.2-2.2-2.2H2.2C1,0,0,1,0,2.2v23.3c0,1.2,1,2.2,2.2,2.2h1.5v1.5
				c0,1.2,1,2.2,2.2,2.2h18.3c1.2,0,2.2-1,2.2-2.2V5.9C26.3,4.7,25.3,3.7,24.1,3.7z M23,27.4c0,0.3-0.3,0.6-0.6,0.6l0,0H7.5
				c-0.2,0-0.4-0.1-0.5-0.4c0-0.1,0-0.1,0-0.2V7.6C7,7.3,7.3,7,7.6,7h14.8c0.1,0,0.1,0,0.2,0C22.8,7.1,23,7.3,23,7.5V27.4z"/>
		</g>
	</g>
</g>
</svg>
