<?xml version="1.0" encoding="utf-8"?>
<!-- Generator: Adobe Illustrator 23.0.0, SVG Export Plug-In . SVG Version: 6.00 Build 0)  -->
<svg version="1.1" id="Layer_1" xmlns="http://www.w3.org/2000/svg" xmlns:xlink="http://www.w3.org/1999/xlink" x="0px" y="0px"
	 viewBox="0 0 40.3 31.5" style="enable-background:new 0 0 40.3 31.5;" xml:space="preserve">
<style type="text/css">
	<!-- .st0{fill:url(#SVGID_1_);} -->
	.st0{fill:white;}
</style>
<title>Eraser_1</title>
<g>
	<g>
		<g id="Icons">
			
				<image style="overflow:visible;opacity:0.25;enable-background:new    ;" width="53" height="44" xlink:href="6618D512492D7636.png"  transform="matrix(1 0 0 1 -3.1658 -4.3267)">
			</image>
			
				<linearGradient id="SVGID_1_" gradientUnits="userSpaceOnUse" x1="14.321" y1="20.5302" x2="25.411" y2="10.0502" gradientTransform="matrix(1 0 0 -1 0 35.2364)">
				<stop  offset="0" style="stop-color:#F0F0F0"/>
				<stop  offset="1" style="stop-color:#CCCCCC"/>
			</linearGradient>
			<path class="st0" d="M9.2,21.8l4.6,4.6l2.1,2.1H1.5C0.7,28.5,0,29.2,0,30l0,0c0,0.1,0,0.1,0,0.2c0.1,0.7,0.6,1.2,1.3,1.3h18.5
				h0.1c0.3,0,0.7-0.2,0.9-0.4l0,0L39.8,12c0.6-0.7,0.6-1.7-0.1-2.3l-4.6-4.6l-4.6-4.6c-0.6-0.7-1.6-0.7-2.3-0.1l-19,19
				C8.6,20.1,8.6,21.1,9.2,21.8C9.2,21.8,9.2,21.8,9.2,21.8z M19.9,13c0.1-0.1,0.3-0.1,0.5,0c0,0,0,0,0,0l6.9,6.8
				c0.1,0.1,0.1,0.3,0,0.5l-7.3,7.3c-0.1,0.1-0.3,0.1-0.5,0l-6.8-6.9c-0.1-0.1-0.1-0.3,0-0.5c0,0,0,0,0,0L19.9,13z"/>
		</g>
	</g>
</g>
</svg>
