<?xml version="1.0" encoding="utf-8"?>
<svg version="1.1" xmlns="http://www.w3.org/2000/svg" xmlns:xlink="http://www.w3.org/1999/xlink" x="0px" y="0px"
	 viewBox="0 0 32.5 32.4" style="enable-background:new 0 0 32.5 32.4;" xml:space="preserve">
<title>Eyedropper</title>
<path class="st0" d="M26.3,14L26,13.6c-0.3-0.3-0.3-0.8,0-1.1l1.1-1.1l3.2-3.1c1.8-1.6,1.9-4.4,0.2-6.1s-4.4-1.9-6.1-0.2c-0.1,0.1-0.2,0.2-0.2,0.2l-3.2,3.1l-1.1,1.1c-0.3,0.3-0.8,0.3-1.1,0l-0.4-0.4c-0.4-0.4-1.1-0.4-1.6,0l-1.4,1.4c-0.4,0.4-0.4,1.1,0,1.6c0,0,0,0,0,0l0.9,0.9l6.1,6.1l0.9,0.9c0.4,0.4,1.1,0.4,1.6,0c0,0,0,0,0,0l1.3-1.4C26.8,15.1,26.8,14.4,26.3,14C26.3,14,26.3,14,26.3,14zM15.6,12.6c-0.5-0.5-1.4-0.5-1.9,0l-8.2,8.1c-0.1,0.1-0.2,0.2-0.2,0.3c0,0.1-0.1,0.1-0.1,0.2c-0.1,0.1-0.1,0.2-0.1,0.2c-1.4,3-2.8,6-4.3,9.1c0,0.1,0,0.2,0,0.4c0,0.2,0.1,0.4,0.2,0.5c0.1,0.1,0.3,0.2,0.5,0.2c0.1,0,0.3,0,0.4,0l9.1-4.3c0.1,0,0.1-0.1,0.2-0.1l0.2-0.1l0.3-0.2l8.1-8.1c0.5-0.5,0.5-1.4,0-1.9c0,0,0,0,0,0L15.6,12.6z"/>
</svg>
