<?xml version="1.0" encoding="utf-8"?>
<!-- Generator: Adobe Illustrator 23.0.0, SVG Export Plug-In . SVG Version: 6.00 Build 0)  -->
<svg version="1.1" id="Layer_1" xmlns="http://www.w3.org/2000/svg" xmlns:xlink="http://www.w3.org/1999/xlink" x="0px" y="0px"
	 viewBox="0 0 35.8 35.3" style="enable-background:new 0 0 35.8 35.3;" xml:space="preserve">
<style type="text/css">
	<!-- .st0{fill:url(#SVGID_1_);}
	.st1{fill:url(#SVGID_2_);} -->
	.st0{fill:white;}
	.st1{fill:white;}
</style>
<title>Paintbrush_3</title>
<g>
	<g>
		<g id="Icons">
			
				<image style="overflow:visible;opacity:0.25;enable-background:new    ;" width="49" height="48" xlink:href="6FB1C00FAF332B74.png"  transform="matrix(1 0 0 1 -3.2601 -4.6)">
			</image>
			
				<linearGradient id="SVGID_1_" gradientUnits="userSpaceOnUse" x1="-0.4546" y1="10.6123" x2="15.9854" y2="-3.0477" gradientTransform="matrix(1 0 0 -1 0 38.6898)">
				<stop  offset="0" style="stop-color:#F0F0F0"/>
				<stop  offset="0.71" style="stop-color:#CCCCCC"/>
			</linearGradient>
			<path class="st0" d="M6.1,30.1L6.1,30.1c-0.2-0.2-1.9-2.9-2.3-3.5c-0.2-0.3-0.6-0.3-0.9-0.1c-0.1,0-0.1,0.1-0.1,0.1
				c-0.4,0.6-2,3-2.3,3.5l0,0l0,0l0,0c-1.1,1.5-0.7,3.6,0.9,4.7c1.5,1.1,3.6,0.7,4.7-0.9c0.4-0.6,0.6-1.3,0.6-2
				C6.7,31.3,6.5,30.6,6.1,30.1L6.1,30.1z"/>
			
				<linearGradient id="SVGID_2_" gradientUnits="userSpaceOnUse" x1="12.5996" y1="26.3291" x2="29.0496" y2="12.6691" gradientTransform="matrix(1 0 0 -1 0 38.6898)">
				<stop  offset="0" style="stop-color:#F0F0F0"/>
				<stop  offset="0.71" style="stop-color:#CCCCCC"/>
			</linearGradient>
			<path class="st1" d="M35.1,19.3L22,6.2l0.7-0.7c0.5-0.7,0.3-1.7-0.4-2.2C21.7,3,21,3,20.4,3.4l-2.3,2.3l-0.2,0.2V1.6
				c0-0.9-0.7-1.6-1.6-1.6c-0.9,0-1.6,0.7-1.6,1.6v7.4l-8.8,8.8l0,0L3.8,20c-0.6,0.7-0.5,1.6,0.2,2.2c0.6,0.5,1.5,0.5,2,0l0.7-0.7
				l13.1,13.1c0.9,0.9,2.3,0.9,3.2,0l12.2-12.1C36,21.7,36,20.2,35.1,19.3z M31,20.8l-21-1.4c-0.6,0-0.8-0.4-0.3-0.9l5.2-5.2v1.3
				c0,0.9,0.7,1.6,1.6,1.6c0.9,0,1.6-0.7,1.6-1.6v-4.4l1.3-1.3c0.3-0.3,0.8-0.3,1,0c0,0,0,0,0,0l11,11c0.2,0.2,0.2,0.5,0.1,0.7
				C31.3,20.7,31.1,20.8,31,20.8z"/>
		</g>
	</g>
</g>
</svg>
