<?xml version="1.0" encoding="utf-8"?>
<svg version="1.1" xmlns="http://www.w3.org/2000/svg" xmlns:xlink="http://www.w3.org/1999/xlink" x="0px" y="0px"
	 viewBox="0 0 35.8 35.3" style="enable-background:new 0 0 35.8 35.3;" xml:space="preserve">
<title>Fillbucket</title>
<path d="M6.1,30.1L6.1,30.1c-0.2-0.2-1.9-2.9-2.3-3.5c-0.2-0.3-0.6-0.3-0.9-0.1c-0.1,0-0.1,0.1-0.1,0.1c-0.4,0.6-2,3-2.3,3.5l0,0l0,0l0,0c-1.1,1.5-0.7,3.6,0.9,4.7c1.5,1.1,3.6,0.7,4.7-0.9c0.4-0.6,0.6-1.3,0.6-2C6.7,31.3,6.5,30.6,6.1,30.1L6.1,30.1zM35.1,19.3L22,6.2l0.7-0.7c0.5-0.7,0.3-1.7-0.4-2.2C21.7,3,21,3,20.4,3.4l-2.3,2.3l-0.2,0.2V1.6c0-0.9-0.7-1.6-1.6-1.6c-0.9,0-1.6,0.7-1.6,1.6v7.4l-8.8,8.8l0,0L3.8,20c-0.6,0.7-0.5,1.6,0.2,2.2c0.6,0.5,1.5,0.5,2,0l0.7-0.7l13.1,13.1c0.9,0.9,2.3,0.9,3.2,0l12.2-12.1C36,21.7,36,20.2,35.1,19.3zM31,20.8l-21-1.4c-0.6,0-0.8-0.4-0.3-0.9l5.2-5.2v1.3c0,0.9,0.7,1.6,1.6,1.6c0.9,0,1.6-0.7,1.6-1.6v-4.4l1.3-1.3c0.3-0.3,0.8-0.3,1,0c0,0,0,0,0,0l11,11c0.2,0.2,0.2,0.5,0.1,0.7C31.3,20.7,31.1,20.8,31,20.8z"/>
</svg>
