<?xml version="1.0" encoding="utf-8"?>
<!-- Generator: Adobe Illustrator 23.0.0, SVG Export Plug-In . SVG Version: 6.00 Build 0)  -->
<svg version="1.1" id="Layer_1" xmlns="http://www.w3.org/2000/svg" xmlns:xlink="http://www.w3.org/1999/xlink" x="0px" y="0px"
	 viewBox="0 0 28.1 28.1" style="enable-background:new 0 0 28.1 28.1;" xml:space="preserve">
<style type="text/css">
	<!-- .st0{fill:url(#SVGID_1_);} -->
	.st0{fill:white;}
</style>
<title>Line_1</title>
<g>
	<g>
		<g id="Icons">
			
				<image style="overflow:visible;opacity:0.25;enable-background:new    ;" width="41" height="41" xlink:href="8BB3139E14C817AE.png"  transform="matrix(1 0 0 1 -3.1502 -4.8294)">
			</image>
			
				<linearGradient id="SVGID_1_" gradientUnits="userSpaceOnUse" x1="12.4673" y1="19.7679" x2="14.8673" y2="17.3679" gradientTransform="matrix(1 0 0 -1 0 32.231)">
				<stop  offset="0" style="stop-color:#F0F0F0"/>
				<stop  offset="1" style="stop-color:#CCCCCC"/>
			</linearGradient>
			<path class="st0" d="M27.4,0.7c-0.9-0.9-2.3-0.9-3.2,0L0.7,24.2c-0.9,0.9-0.9,2.3,0,3.2c0,0,0,0,0,0c0.4,0.4,1,0.7,1.6,0.7
				c0.6,0,1.2-0.3,1.6-0.7L27.4,3.9C28.3,3,28.3,1.6,27.4,0.7C27.4,0.7,27.4,0.7,27.4,0.7z"/>
		</g>
	</g>
</g>
</svg>
