<?xml version="1.0" encoding="utf-8"?>
<!-- Generator: Adobe Illustrator 23.0.0, SVG Export Plug-In . SVG Version: 6.00 Build 0)  -->
<svg version="1.1" id="Layer_1" xmlns="http://www.w3.org/2000/svg" xmlns:xlink="http://www.w3.org/1999/xlink" x="0px" y="0px"
	 viewBox="0 0 26.6 31.7" style="enable-background:new 0 0 26.6 31.7;" xml:space="preserve">
<style type="text/css">
	<!-- .st0{fill:url(#SVGID_1_);}
	.st1{fill:url(#SVGID_2_);} -->
	.st0{fill:white;}
	.st1{fill:white;}
</style>
<title>Paste</title>
<g>
	<g>
		<g id="Icons">
			
				<image style="overflow:visible;opacity:0.25;enable-background:new    ;" width="39" height="45" xlink:href="ABA2956A20B971D1.png"  transform="matrix(1 0 0 1 -3.4 -4.34)">
			</image>
			
				<linearGradient id="SVGID_1_" gradientUnits="userSpaceOnUse" x1="-0.4626" y1="29.9107" x2="25.7774" y2="12.0907" gradientTransform="matrix(1 0 0 -1 0 37.2098)">
				<stop  offset="0" style="stop-color:#F0F0F0"/>
				<stop  offset="0.71" style="stop-color:#CCCCCC"/>
			</linearGradient>
			<path class="st0" d="M19.9,12.5c-1-0.9-2.3-1.4-3.7-1.4h-4.5c-0.7,0-1.3,0.6-1.3,1.3c0,0,0,0,0,0v10.2c0,0.7,0.6,1.3,1.3,1.3
				c0.7,0,1.3-0.6,1.3-1.3v-3.4h3.1c1.4,0.1,2.7-0.4,3.7-1.3l0,0c0.7-0.7,1.1-1.7,1.1-2.8C21,14.2,20.6,13.2,19.9,12.5z M18,16.3
				c-0.5,0.4-1.1,0.5-1.8,0.5h-3.2v-3.1h3.1c0.6,0,1.3,0.2,1.8,0.6c0.2,0.2,0.4,0.6,0.4,0.9C18.4,15.6,18.3,16,18,16.3z"/>
			
				<linearGradient id="SVGID_2_" gradientUnits="userSpaceOnUse" x1="-9.461796e-02" y1="30.4677" x2="26.1554" y2="12.6377" gradientTransform="matrix(1 0 0 -1 0 37.2098)">
				<stop  offset="0" style="stop-color:#F0F0F0"/>
				<stop  offset="0.71" style="stop-color:#CCCCCC"/>
			</linearGradient>
			<path class="st1" d="M24.4,3.7h-1.5V2.2c0-1.2-1-2.2-2.2-2.2l0,0H2.2C1,0,0,1,0,2.2l0,0v23.6c0,1.2,1,2.2,2.2,2.2h0h1.5v1.5
				c0,1.2,1,2.2,2.2,2.2h18.5c1.2,0,2.2-1,2.2-2.2c0,0,0,0,0,0V5.9C26.6,4.7,25.6,3.7,24.4,3.7C24.4,3.7,24.4,3.7,24.4,3.7z
				 M23.2,27.7c0,0.3-0.3,0.6-0.6,0.6l0,0H7.6c-0.2,0-0.4-0.1-0.5-0.4c0-0.1,0-0.1,0-0.2V7.7c0-0.3,0.3-0.6,0.6-0.6h15
				c0.1,0,0.1,0,0.2,0c0.2,0.1,0.3,0.3,0.4,0.5L23.2,27.7z"/>
		</g>
	</g>
</g>
</svg>
