<?xml version="1.0" encoding="utf-8"?>
<svg version="1.1" xmlns="http://www.w3.org/2000/svg" xmlns:xlink="http://www.w3.org/1999/xlink" x="0px" y="0px"
	 viewBox="0 0 26.6 31.7" style="enable-background:new 0 0 26.6 31.7;" xml:space="preserve">
<title>Paste</title>
<path d="M19.9,12.5c-1-0.9-2.3-1.4-3.7-1.4h-4.5c-0.7,0-1.3,0.6-1.3,1.3c0,0,0,0,0,0v10.2c0,0.7,0.6,1.3,1.3,1.3c0.7,0,1.3-0.6,1.3-1.3v-3.4h3.1c1.4,0.1,2.7-0.4,3.7-1.3l0,0c0.7-0.7,1.1-1.7,1.1-2.8C21,14.2,20.6,13.2,19.9,12.5zM18,16.3c-0.5,0.4-1.1,0.5-1.8,0.5h-3.2v-3.1h3.1c0.6,0,1.3,0.2,1.8,0.6c0.2,0.2,0.4,0.6,0.4,0.9C18.4,15.6,18.3,16,18,16.3zM24.4,3.7h-1.5V2.2c0-1.2-1-2.2-2.2-2.2l0,0H2.2C1,0,0,1,0,2.2l0,0v23.6c0,1.2,1,2.2,2.2,2.2h0h1.5v1.5c0,1.2,1,2.2,2.2,2.2h18.5c1.2,0,2.2-1,2.2-2.2c0,0,0,0,0,0V5.9C26.6,4.7,25.6,3.7,24.4,3.7C24.4,3.7,24.4,3.7,24.4,3.7zM23.2,27.7c0,0.3-0.3,0.6-0.6,0.6l0,0H7.6c-0.2,0-0.4-0.1-0.5-0.4c0-0.1,0-0.1,0-0.2V7.7c0-0.3,0.3-0.6,0.6-0.6h15c0.1,0,0.1,0,0.2,0c0.2,0.1,0.3,0.3,0.4,0.5L23.2,27.7z"/>
</svg>
