<?xml version="1.0" encoding="utf-8"?>
<svg version="1.1" xmlns="http://www.w3.org/2000/svg" xmlns:xlink="http://www.w3.org/1999/xlink" x="0px" y="0px"
	 viewBox="0 0 25 33.4" style="enable-background:new 0 0 25 33.4;" xml:space="preserve">
<title>Redo</title>
<path class="st0" d="M24.3,5l-6.8-4.8c-0.7-0.5-1.6-0.3-2.1,0.4c-0.2,0.3-0.3,0.6-0.3,0.9v2.1C6.8,3.5,0.1,10.2,0,18.5c-0.1,7.4,5.3,13.8,12.7,14.9c0.1,0,0.3,0,0.4,0c1.2,0,2.3-1,2.3-2.2c0-1.1-0.8-2.1-1.9-2.3C7.8,27.9,4,22.4,5,16.7c0.9-4.9,5.1-8.5,10.1-8.7v2.9c0,0.9,0.7,1.5,1.5,1.5c0.3,0,0.6-0.1,0.9-0.3l6.9-4.6c0.7-0.5,0.9-1.4,0.4-2.1C24.6,5.3,24.5,5.1,24.3,5z"/>
</svg>
