<?xml version="1.0" encoding="utf-8"?>
<!-- Generator: Adobe Illustrator 24.0.0, SVG Export Plug-In . SVG Version: 6.00 Build 0)  -->
<svg version="1.1" id="Layer_1" xmlns="http://www.w3.org/2000/svg" xmlns:xlink="http://www.w3.org/1999/xlink" x="0px" y="0px"
	 viewBox="0 0 30 25" style="enable-background:new 0 0 30 25;" xml:space="preserve">
<style type="text/css">
	.st0{opacity:0.66;}
	.st1{opacity:0.33;}
</style>
<g>
	<rect x="2.5" y="1.5" width="7" height="6.06"/>
	<path d="M9,2v5.06H3V2H9 M10,1H2v7.06h8V1L10,1z"/>
</g>
<g>
	<rect x="11.5" y="1.5" width="7" height="6.06"/>
	<path d="M18,2v5.06h-6V2H18 M19,1h-8v7.06h8V1L19,1z"/>
</g>
<g>
	<rect x="20.5" y="1.5" width="7" height="6.06"/>
	<path d="M27,2v5.06h-6V2H27 M28,1h-8v7.06h8V1L28,1z"/>
</g>
<g class="st0">
	<rect x="2.5" y="9.44" width="7" height="6.06"/>
	<path d="M9,9.94V15H3V9.94H9 M10,8.94H2V16h8V8.94L10,8.94z"/>
</g>
<g class="st0">
	<rect x="11.5" y="9.44" width="7" height="6.06"/>
	<path d="M18,9.94V15h-6V9.94H18 M19,8.94h-8V16h8V8.94L19,8.94z"/>
</g>
<g class="st0">
	<rect x="20.5" y="9.44" width="7" height="6.06"/>
	<path d="M27,9.94V15h-6V9.94H27 M28,8.94h-8V16h8V8.94L28,8.94z"/>
</g>
<g class="st1">
	<rect x="2.5" y="17.44" width="7" height="6.06"/>
	<path d="M9,17.94V23H3v-5.06H9 M10,16.94H2V24h8V16.94L10,16.94z"/>
</g>
<g class="st1">
	<rect x="11.5" y="17.44" width="7" height="6.06"/>
	<path d="M18,17.94V23h-6v-5.06H18 M19,16.94h-8V24h8V16.94L19,16.94z"/>
</g>
<g class="st1">
	<rect x="20.5" y="17.44" width="7" height="6.06"/>
	<path d="M27,17.94V23h-6v-5.06H27 M28,16.94h-8V24h8V16.94L28,16.94z"/>
</g>
</svg>
