<?xml version="1.0" encoding="utf-8"?>
<!-- Generator: Adobe Illustrator 24.0.0, SVG Export Plug-In . SVG Version: 6.00 Build 0)  -->
<svg version="1.1" id="Layer_1" xmlns="http://www.w3.org/2000/svg" xmlns:xlink="http://www.w3.org/1999/xlink" x="0px" y="0px"
	 viewBox="0 0 30 25" style="enable-background:new 0 0 30 25;" xml:space="preserve">
<style type="text/css">
	.st0{fill:url(#SVGID_1_);}
	.st1{fill:url(#SVGID_2_);}
	.st2{fill:url(#SVGID_3_);}
	.st3{fill:url(#SVGID_4_);}
	.st4{fill:url(#SVGID_5_);}
	.st5{fill:url(#SVGID_6_);}
	.st6{opacity:0.66;}
	.st7{fill:url(#SVGID_7_);}
	.st8{fill:url(#SVGID_8_);}
	.st9{fill:url(#SVGID_9_);}
	.st10{fill:url(#SVGID_10_);}
	.st11{fill:url(#SVGID_11_);}
	.st12{fill:url(#SVGID_12_);}
	.st13{opacity:0.33;}
	.st14{fill:url(#SVGID_13_);}
	.st15{fill:url(#SVGID_14_);}
	.st16{fill:url(#SVGID_15_);}
	.st17{fill:url(#SVGID_16_);}
	.st18{fill:url(#SVGID_17_);}
	.st19{fill:url(#SVGID_18_);}
</style>
<g>
	<linearGradient id="SVGID_1_" gradientUnits="userSpaceOnUse" x1="2.5" y1="4.53" x2="9.5" y2="4.53">
		<stop  offset="0" style="stop-color:#F0F0F0"/>
		<stop  offset="0.71" style="stop-color:#CCCCCC"/>
	</linearGradient>
	<rect x="2.5" y="1.5" class="st0" width="7" height="6.1"/>
	<linearGradient id="SVGID_2_" gradientUnits="userSpaceOnUse" x1="2" y1="4.53" x2="10" y2="4.53">
		<stop  offset="0" style="stop-color:#F0F0F0"/>
		<stop  offset="0.71" style="stop-color:#CCCCCC"/>
	</linearGradient>
	<path class="st1" d="M9,2v5.1H3V2H9 M10,1H2v7.1h8V1L10,1z"/>
</g>
<g>
	<linearGradient id="SVGID_3_" gradientUnits="userSpaceOnUse" x1="11.5" y1="4.53" x2="18.5" y2="4.53">
		<stop  offset="0" style="stop-color:#F0F0F0"/>
		<stop  offset="0.71" style="stop-color:#CCCCCC"/>
	</linearGradient>
	<rect x="11.5" y="1.5" class="st2" width="7" height="6.1"/>
	<linearGradient id="SVGID_4_" gradientUnits="userSpaceOnUse" x1="11" y1="4.53" x2="19" y2="4.53">
		<stop  offset="0" style="stop-color:#F0F0F0"/>
		<stop  offset="0.71" style="stop-color:#CCCCCC"/>
	</linearGradient>
	<path class="st3" d="M18,2v5.1h-6V2H18 M19,1h-8v7.1h8V1L19,1z"/>
</g>
<g>
	<linearGradient id="SVGID_5_" gradientUnits="userSpaceOnUse" x1="20.5" y1="4.53" x2="27.5" y2="4.53">
		<stop  offset="0" style="stop-color:#F0F0F0"/>
		<stop  offset="0.71" style="stop-color:#CCCCCC"/>
	</linearGradient>
	<rect x="20.5" y="1.5" class="st4" width="7" height="6.1"/>
	<linearGradient id="SVGID_6_" gradientUnits="userSpaceOnUse" x1="20" y1="4.53" x2="28" y2="4.53">
		<stop  offset="0" style="stop-color:#F0F0F0"/>
		<stop  offset="0.71" style="stop-color:#CCCCCC"/>
	</linearGradient>
	<path class="st5" d="M27,2v5.1h-6V2H27 M28,1h-8v7.1h8V1L28,1z"/>
</g>
<g class="st6">
	<linearGradient id="SVGID_7_" gradientUnits="userSpaceOnUse" x1="2.5" y1="12.47" x2="9.5" y2="12.47">
		<stop  offset="0" style="stop-color:#F0F0F0"/>
		<stop  offset="0.71" style="stop-color:#CCCCCC"/>
	</linearGradient>
	<rect x="2.5" y="9.4" class="st7" width="7" height="6.1"/>
	<linearGradient id="SVGID_8_" gradientUnits="userSpaceOnUse" x1="2" y1="12.47" x2="10" y2="12.47">
		<stop  offset="0" style="stop-color:#F0F0F0"/>
		<stop  offset="0.71" style="stop-color:#CCCCCC"/>
	</linearGradient>
	<path class="st8" d="M9,9.9V15H3V9.9H9 M10,8.9H2V16h8V8.9L10,8.9z"/>
</g>
<g class="st6">
	<linearGradient id="SVGID_9_" gradientUnits="userSpaceOnUse" x1="11.5" y1="12.47" x2="18.5" y2="12.47">
		<stop  offset="0" style="stop-color:#F0F0F0"/>
		<stop  offset="0.71" style="stop-color:#CCCCCC"/>
	</linearGradient>
	<rect x="11.5" y="9.4" class="st9" width="7" height="6.1"/>
	<linearGradient id="SVGID_10_" gradientUnits="userSpaceOnUse" x1="11" y1="12.47" x2="19" y2="12.47">
		<stop  offset="0" style="stop-color:#F0F0F0"/>
		<stop  offset="0.71" style="stop-color:#CCCCCC"/>
	</linearGradient>
	<path class="st10" d="M18,9.9V15h-6V9.9H18 M19,8.9h-8V16h8V8.9L19,8.9z"/>
</g>
<g class="st6">
	<linearGradient id="SVGID_11_" gradientUnits="userSpaceOnUse" x1="20.5" y1="12.47" x2="27.5" y2="12.47">
		<stop  offset="0" style="stop-color:#F0F0F0"/>
		<stop  offset="0.71" style="stop-color:#CCCCCC"/>
	</linearGradient>
	<rect x="20.5" y="9.4" class="st11" width="7" height="6.1"/>
	<linearGradient id="SVGID_12_" gradientUnits="userSpaceOnUse" x1="20" y1="12.47" x2="28" y2="12.47">
		<stop  offset="0" style="stop-color:#F0F0F0"/>
		<stop  offset="0.71" style="stop-color:#CCCCCC"/>
	</linearGradient>
	<path class="st12" d="M27,9.9V15h-6V9.9H27 M28,8.9h-8V16h8V8.9L28,8.9z"/>
</g>
<g class="st13">
	<linearGradient id="SVGID_13_" gradientUnits="userSpaceOnUse" x1="2.5" y1="20.47" x2="9.5" y2="20.47">
		<stop  offset="0" style="stop-color:#F0F0F0"/>
		<stop  offset="0.71" style="stop-color:#CCCCCC"/>
	</linearGradient>
	<rect x="2.5" y="17.4" class="st14" width="7" height="6.1"/>
	<linearGradient id="SVGID_14_" gradientUnits="userSpaceOnUse" x1="2" y1="20.47" x2="10" y2="20.47">
		<stop  offset="0" style="stop-color:#F0F0F0"/>
		<stop  offset="0.71" style="stop-color:#CCCCCC"/>
	</linearGradient>
	<path class="st15" d="M9,17.9V23H3v-5.1H9 M10,16.9H2V24h8V16.9L10,16.9z"/>
</g>
<g class="st13">
	<linearGradient id="SVGID_15_" gradientUnits="userSpaceOnUse" x1="11.5" y1="20.47" x2="18.5" y2="20.47">
		<stop  offset="0" style="stop-color:#F0F0F0"/>
		<stop  offset="0.71" style="stop-color:#CCCCCC"/>
	</linearGradient>
	<rect x="11.5" y="17.4" class="st16" width="7" height="6.1"/>
	<linearGradient id="SVGID_16_" gradientUnits="userSpaceOnUse" x1="11" y1="20.47" x2="19" y2="20.47">
		<stop  offset="0" style="stop-color:#F0F0F0"/>
		<stop  offset="0.71" style="stop-color:#CCCCCC"/>
	</linearGradient>
	<path class="st17" d="M18,17.9V23h-6v-5.1H18 M19,16.9h-8V24h8V16.9L19,16.9z"/>
</g>
<g class="st13">
	<linearGradient id="SVGID_17_" gradientUnits="userSpaceOnUse" x1="20.5" y1="20.47" x2="27.5" y2="20.47">
		<stop  offset="0" style="stop-color:#F0F0F0"/>
		<stop  offset="0.71" style="stop-color:#CCCCCC"/>
	</linearGradient>
	<rect x="20.5" y="17.4" class="st18" width="7" height="6.1"/>
	<linearGradient id="SVGID_18_" gradientUnits="userSpaceOnUse" x1="20" y1="20.47" x2="28" y2="20.47">
		<stop  offset="0" style="stop-color:#F0F0F0"/>
		<stop  offset="0.71" style="stop-color:#CCCCCC"/>
	</linearGradient>
	<path class="st19" d="M27,17.9V23h-6v-5.1H27 M28,16.9h-8V24h8V16.9L28,16.9z"/>
</g>
</svg>
