<?xml version="1.0" encoding="utf-8"?>
<!-- Generator: Adobe Illustrator 23.0.0, SVG Export Plug-In . SVG Version: 6.00 Build 0)  -->
<svg version="1.1" id="Layer_1" xmlns="http://www.w3.org/2000/svg" xmlns:xlink="http://www.w3.org/1999/xlink" x="0px" y="0px"
	 viewBox="0 0 22 27.1" style="enable-background:new 0 0 22 27.1;" xml:space="preserve">
<style type="text/css">
	<!-- .st0{fill:url(#SVGID_1_);} -->
	.st0{fill:white;}
</style>
<title>Type_1</title>
<g>
	<g>
		<g id="Icons">
			
				<image style="overflow:visible;opacity:0.25;enable-background:new    ;" width="35" height="40" xlink:href="82FC905BE70AC514.png"  transform="matrix(1 0 0 1 -3.6498 -4.3229)">
			</image>
			
				<linearGradient id="SVGID_1_" gradientUnits="userSpaceOnUse" x1="4.3381" y1="19.9452" x2="18.3881" y2="5.3252" gradientTransform="matrix(1 0 0 -1 0 31.2439)">
				<stop  offset="0" style="stop-color:#F0F0F0"/>
				<stop  offset="1" style="stop-color:#CCCCCC"/>
			</linearGradient>
			<path class="st0" d="M21.9,24.3L12.9,1.3c-0.4-1.1-1.6-1.6-2.7-1.2c-0.5,0.2-1,0.6-1.2,1.2l-8.9,23C0,24.6,0,24.8,0,25.1
				c0,0.5,0.2,1.1,0.6,1.5c0.7,0.7,1.8,0.8,2.6,0.2c0.4-0.2,0.6-0.6,0.8-1l2.5-6.3h9.1l2.5,6.3c0.4,1.1,1.6,1.6,2.7,1.2
				c0.3-0.1,0.5-0.3,0.7-0.5c0.4-0.4,0.6-0.9,0.6-1.5C22,24.8,21.9,24.5,21.9,24.3z M13.9,15.3H8.1L11,7.7L13.9,15.3z"/>
		</g>
	</g>
</g>
</svg>
