<?xml version="1.0" encoding="utf-8"?>
<!-- Generator: Adobe Illustrator 23.0.3, SVG Export Plug-In . SVG Version: 6.00 Build 0)  -->
<svg version="1.1" id="Layer_1" xmlns="http://www.w3.org/2000/svg" xmlns:xlink="http://www.w3.org/1999/xlink" x="0px" y="0px"
	 viewBox="0 0 18 18" style="enable-background:new 0 0 18 18;" xml:space="preserve">
<style type="text/css">
	.st0{display:none;fill:none;stroke:#CCCCCB;stroke-width:2;stroke-miterlimit:10;}
	.st1{fill:none;stroke:#CCCCCB;stroke-width:2;stroke-linejoin:round;stroke-miterlimit:10;}
	.st2{fill:none;stroke:#CCCCCB;stroke-linejoin:round;stroke-miterlimit:10;}
	.st3{fill:#CCCCCB;stroke:#CCCCCB;stroke-linejoin:round;stroke-miterlimit:10;}
</style>
<polyline class="st0" points="8.79,5.8 12.26,9.28 8.78,12.76 "/>
<polyline class="st0" points="2.32,1.16 2.32,9.28 11.64,9.28 "/>
<polyline class="st0" points="5.86,7.12 5.86,1.46 15.87,1.46 15.87,16.05 5.86,16.05 5.86,11.54 "/>
<path class="st0" d="M16.03,9.02c0,0-2.67-4.76-7.03-4.76S1.97,9.02,1.97,9.02S4.36,13.98,9,13.98S16.03,9.02,16.03,9.02z"/>
<circle class="st0" cx="9" cy="9.12" r="2.99"/>
<rect x="2.24" y="8.74" class="st1" width="13.21" height="7.6"/>
<line class="st2" x1="8.84" y1="12.61" x2="8.84" y2="14.77"/>
<circle class="st3" cx="8.84" cy="11.81" r="0.68"/>
<path class="st1" d="M13.61,8.74c0-4.13,0.67-7.34-4.77-7.34S4.09,4.47,4.1,8.74"/>
</svg>
