<?xml version="1.0" encoding="UTF-8" standalone="no"?>
<svg
   xmlns:dc="http://purl.org/dc/elements/1.1/"
   xmlns:cc="http://creativecommons.org/ns#"
   xmlns:rdf="http://www.w3.org/1999/02/22-rdf-syntax-ns#"
   xmlns:svg="http://www.w3.org/2000/svg"
   xmlns="http://www.w3.org/2000/svg"
   xmlns:sodipodi="http://sodipodi.sourceforge.net/DTD/sodipodi-0.dtd"
   xmlns:inkscape="http://www.inkscape.org/namespaces/inkscape"
   viewBox="0 0 14 14"
   x="0px"
   y="0px"
   version="1.1"
   id="svg839"
   sodipodi:docname="action-icon.svg"
   width="14"
   height="14"
   inkscape:version="1.0.1 (c497b03c, 2020-09-10)">
  <metadata
     id="metadata845">
    <rdf:RDF>
      <cc:Work
         rdf:about="">
        <dc:format>image/svg+xml</dc:format>
        <dc:type
           rdf:resource="http://purl.org/dc/dcmitype/StillImage" />
        <dc:title></dc:title>
      </cc:Work>
    </rdf:RDF>
  </metadata>
  <defs
     id="defs843" />
  <sodipodi:namedview
     pagecolor="#ffffff"
     bordercolor="#666666"
     borderopacity="1"
     objecttolerance="10"
     gridtolerance="10"
     guidetolerance="10"
     inkscape:pageopacity="0"
     inkscape:pageshadow="2"
     inkscape:window-width="1580"
     inkscape:window-height="1035"
     id="namedview841"
     showgrid="false"
     inkscape:zoom="42"
     inkscape:cx="9.3542368"
     inkscape:cy="8.3999715"
     inkscape:window-x="882"
     inkscape:window-y="23"
     inkscape:window-maximized="0"
     inkscape:current-layer="svg839" />
  <path
     fill-rule="evenodd"
     d="M 128.55542,16.775429 126.22296,14.441277 124,14.62861 c 0.29325,-1.242561 0.81439,-2.41987 1.53694,-3.472126 l 0.55232,-0.804345 2.64703,-0.180934 c 0.45386,-0.6366329 0.99495,-1.277991 1.61235,-1.8958394 1.78076,-1.7820483 3.75695,-2.9288324 5.25159,-3.1777647 0.79917,-0.1523916 1.5325,-0.1216725 2.23247,0.059664 0.20229,0.7693822 0.22705,1.5365504 0.0418,2.3339979 -0.28192,1.483165 -1.41626,3.4128432 -3.15765,5.1554932 -0.6174,0.617848 -1.25829,1.159334 -1.89446,1.613514 l -0.18081,2.648954 -0.82996,0.556837 C 130.76033,18.1714 129.59551,18.690296 128.36822,19 Z m 5.39574,-7.7041936 c 0.40794,0.4082412 1.05978,0.4178226 1.45591,0.0214 0.39614,-0.396422 0.38656,-1.0487306 -0.0214,-1.4569718 -0.40795,-0.4082413 -1.05978,-0.4178227 -1.45592,-0.021401 -0.39613,0.3964221 -0.38656,1.0487306 0.0214,1.4569719 z"
     transform="translate(-124,-5)"
     id="path833"
     style="fill:#cfcfcf;fill-opacity:1" />
  <g
     style="fill:none"
     id="g1042"
     transform="translate(4.5714286,0.54761905)" />
</svg>
