<svg width="18" height="18" viewBox="0 0 18 18" fill="none" xmlns="http://www.w3.org/2000/svg">
<path d="M16.5938 11.6719V9.42064C16.4655 9.59189 16.2617 9.70312 16.0312 9.70312C15.6429 9.70312 15.3281 9.38837 15.3281 9C15.3281 8.61163 15.6429 8.29688 16.0312 8.29688C16.2617 8.29688 16.4655 8.40811 16.5938 8.57936V5.90501C16.4655 6.07626 16.2617 6.1875 16.0312 6.1875C15.6429 6.1875 15.3281 5.87274 15.3281 5.48438C15.3281 5.09601 15.6429 4.78125 16.0312 4.78125C16.2617 4.78125 16.4655 4.89262 16.5938 5.06387V2.8125C16.5938 2.68616 16.5767 2.5638 16.5454 2.44734C16.417 2.58508 16.2345 2.67188 16.0312 2.67188C15.6429 2.67188 15.3281 2.35712 15.3281 1.96875C15.3281 1.7655 15.4149 1.58299 15.5527 1.45459C15.4362 1.42328 15.3138 1.40625 15.1875 1.40625H12.9363C13.1075 1.53452 13.2188 1.73831 13.2188 1.96875C13.2188 2.35712 12.904 2.67188 12.5156 2.67188C12.1273 2.67188 11.8125 2.35712 11.8125 1.96875C11.8125 1.73831 11.9237 1.53452 12.095 1.40625H9.42064C9.59189 1.53452 9.70312 1.73831 9.70312 1.96875C9.70312 2.35712 9.38837 2.67188 9 2.67188C8.61163 2.67188 8.29688 2.35712 8.29688 1.96875C8.29688 1.73831 8.40811 1.53452 8.57936 1.40625H5.90501C6.07626 1.53452 6.1875 1.73831 6.1875 1.96875C6.1875 2.35712 5.87274 2.67188 5.48438 2.67188C5.09601 2.67188 4.78125 2.35712 4.78125 1.96875C4.78125 1.73831 4.89249 1.53452 5.06374 1.40625H2.8125C2.75496 1.40625 2.69838 1.4101 2.64249 1.41696C2.6613 1.48041 2.67188 1.54756 2.67188 1.61719C2.67188 2.00555 2.35712 2.32031 1.96875 2.32031C1.81384 2.32031 1.67102 2.26964 1.55484 2.18463C1.45995 2.37373 1.40625 2.58687 1.40625 2.8125V5.06374C1.53452 4.89249 1.73831 4.78125 1.96875 4.78125C2.35712 4.78125 2.67188 5.09601 2.67188 5.48438C2.67188 5.87274 2.35712 6.1875 1.96875 6.1875C1.73831 6.1875 1.53452 6.07626 1.40625 5.90501V8.57936C1.53452 8.40811 1.73831 8.29688 1.96875 8.29688C2.35712 8.29688 2.67188 8.61163 2.67188 9C2.67188 9.38837 2.35712 9.70312 1.96875 9.70312C1.73831 9.70312 1.53452 9.59175 1.40625 9.4205V12.095C1.53452 11.9237 1.73831 11.8124 1.96875 11.8124C2.35712 11.8124 2.67188 12.1273 2.67188 12.5155C2.67188 12.9039 2.35712 13.2186 1.96875 13.2186C1.73831 13.2186 1.53452 13.1074 1.40625 12.9361V15.1875C1.40625 15.3138 1.42328 15.4362 1.45459 15.5527C1.58299 15.4149 1.7655 15.3281 1.96875 15.3281C2.35712 15.3281 2.67188 15.6429 2.67188 16.0312C2.67188 16.2345 2.58508 16.417 2.44734 16.5454C2.5638 16.5767 2.68616 16.5938 2.8125 16.5938H5.06374C4.89249 16.4655 4.78125 16.2617 4.78125 16.0312C4.78125 15.6429 5.09601 15.3281 5.48438 15.3281C5.87274 15.3281 6.1875 15.6429 6.1875 16.0312C6.1875 16.2617 6.07626 16.4655 5.90501 16.5938H8.57936C8.40811 16.4655 8.29688 16.2617 8.29688 16.0312C8.29688 15.6429 8.61163 15.3281 9 15.3281C9.38837 15.3281 9.70312 15.6429 9.70312 16.0312C9.70312 16.2617 9.59189 16.4655 9.42064 16.5938H12.095C11.9237 16.4655 11.8125 16.2617 11.8125 16.0312C11.8125 15.6429 12.1273 15.3281 12.5156 15.3281C12.904 15.3281 13.2188 15.6429 13.2188 16.0312C13.2188 16.2617 13.1075 16.4655 12.9363 16.5938H15.1875C15.3138 16.5938 15.4362 16.5767 15.5527 16.5454C15.4149 16.417 15.3281 16.2345 15.3281 16.0312C15.3281 15.6429 15.6429 15.3281 16.0312 15.3281C16.2345 15.3281 16.417 15.4149 16.5454 15.5527C16.5767 15.4362 16.5938 15.3138 16.5938 15.1875C16.5938 14.7991 16.9085 14.4844 17.2969 14.4844C17.6852 14.4844 18 14.7991 18 15.1875C18 16.7384 16.7384 18 15.1875 18H2.8125C1.26164 18 0 16.7384 0 15.1875V2.8125C0 1.26164 1.26164 0 2.8125 0H15.1875C16.7384 0 18 1.26164 18 2.8125V11.6719C18 12.0602 17.6852 12.375 17.2969 12.375C16.9085 12.375 16.5938 12.0602 16.5938 11.6719ZM9 8.29688C8.61163 8.29688 8.29688 8.61163 8.29688 9C8.29688 9.38837 8.61163 9.70312 9 9.70312C9.38837 9.70312 9.70312 9.38837 9.70312 9C9.70312 8.61163 9.38837 8.29688 9 8.29688ZM7.24219 10.0547C6.85382 10.0547 6.53906 10.3694 6.53906 10.7578C6.53906 11.1462 6.85382 11.4609 7.24219 11.4609C7.63055 11.4609 7.94531 11.1462 7.94531 10.7578C7.94531 10.3694 7.63055 10.0547 7.24219 10.0547ZM10.7578 6.53906C10.3694 6.53906 10.0547 6.85382 10.0547 7.24219C10.0547 7.63055 10.3694 7.94531 10.7578 7.94531C11.1462 7.94531 11.4609 7.63055 11.4609 7.24219C11.4609 6.85382 11.1462 6.53906 10.7578 6.53906ZM10.7578 10.0547C10.3694 10.0547 10.0547 10.3694 10.0547 10.7578C10.0547 11.1462 10.3694 11.4609 10.7578 11.4609C11.1462 11.4609 11.4609 11.1462 11.4609 10.7578C11.4609 10.3694 11.1462 10.0547 10.7578 10.0547ZM5.48438 8.29688C5.09601 8.29688 4.78125 8.61163 4.78125 9C4.78125 9.38837 5.09601 9.70312 5.48438 9.70312C5.87274 9.70312 6.1875 9.38837 6.1875 9C6.1875 8.61163 5.87274 8.29688 5.48438 8.29688ZM3.72656 6.53906C3.3382 6.53906 3.02344 6.85382 3.02344 7.24219C3.02344 7.63055 3.3382 7.94531 3.72656 7.94531C4.11493 7.94531 4.42969 7.63055 4.42969 7.24219C4.42969 6.85382 4.11493 6.53906 3.72656 6.53906ZM9 4.78125C8.61163 4.78125 8.29688 5.09601 8.29688 5.48438C8.29688 5.87274 8.61163 6.1875 9 6.1875C9.38837 6.1875 9.70312 5.87274 9.70312 5.48438C9.70312 5.09601 9.38837 4.78125 9 4.78125ZM5.48438 4.78125C5.09601 4.78125 4.78125 5.09601 4.78125 5.48438C4.78125 5.87274 5.09601 6.1875 5.48438 6.1875C5.87274 6.1875 6.1875 5.87274 6.1875 5.48438C6.1875 5.09601 5.87274 4.78125 5.48438 4.78125ZM9 11.8125C8.61163 11.8125 8.29688 12.1273 8.29688 12.5156C8.29688 12.904 8.61163 13.2188 9 13.2188C9.38837 13.2188 9.70312 12.904 9.70312 12.5156C9.70312 12.1273 9.38837 11.8125 9 11.8125ZM12.5156 8.29688C12.1273 8.29688 11.8125 8.61163 11.8125 9C11.8125 9.38837 12.1273 9.70312 12.5156 9.70312C12.904 9.70312 13.2188 9.38837 13.2188 9C13.2188 8.61163 12.904 8.29688 12.5156 8.29688ZM12.5156 4.78125C12.1273 4.78125 11.8125 5.09601 11.8125 5.48438C11.8125 5.87274 12.1273 6.1875 12.5156 6.1875C12.904 6.1875 13.2188 5.87274 13.2188 5.48438C13.2188 5.09601 12.904 4.78125 12.5156 4.78125ZM12.5156 11.8125C12.1273 11.8125 11.8125 12.1273 11.8125 12.5156C11.8125 12.904 12.1273 13.2188 12.5156 13.2188C12.904 13.2188 13.2188 12.904 13.2188 12.5156C13.2188 12.1273 12.904 11.8125 12.5156 11.8125ZM5.48438 11.8125C5.09601 11.8125 4.78125 12.1273 4.78125 12.5156C4.78125 12.904 5.09601 13.2188 5.48438 13.2188C5.87274 13.2188 6.1875 12.904 6.1875 12.5156C6.1875 12.1273 5.87274 11.8125 5.48438 11.8125ZM7.24219 13.5703C6.85382 13.5703 6.53906 13.8851 6.53906 14.2734C6.53906 14.6618 6.85382 14.9766 7.24219 14.9766C7.63055 14.9766 7.94531 14.6618 7.94531 14.2734C7.94531 13.8851 7.63055 13.5703 7.24219 13.5703ZM3.72656 13.5703C3.3382 13.5703 3.02344 13.8851 3.02344 14.2734C3.02344 14.6618 3.3382 14.9766 3.72656 14.9766C4.11493 14.9766 4.42969 14.6618 4.42969 14.2734C4.42969 13.8851 4.11493 13.5703 3.72656 13.5703ZM3.72656 10.0547C3.3382 10.0547 3.02344 10.3694 3.02344 10.7578C3.02344 11.1462 3.3382 11.4609 3.72656 11.4609C4.11493 11.4609 4.42969 11.1462 4.42969 10.7578C4.42969 10.3694 4.11493 10.0547 3.72656 10.0547ZM7.24219 6.53906C6.85382 6.53906 6.53906 6.85382 6.53906 7.24219C6.53906 7.63055 6.85382 7.94531 7.24219 7.94531C7.63055 7.94531 7.94531 7.63055 7.94531 7.24219C7.94531 6.85382 7.63055 6.53906 7.24219 6.53906ZM3.72656 2.98828C3.3382 2.98828 3.02344 3.30304 3.02344 3.69141C3.02344 4.07977 3.3382 4.39453 3.72656 4.39453C4.11493 4.39453 4.42969 4.07977 4.42969 3.69141C4.42969 3.30304 4.11493 2.98828 3.72656 2.98828ZM7.24219 2.98828C6.85382 2.98828 6.53906 3.30304 6.53906 3.69141C6.53906 4.07977 6.85382 4.39453 7.24219 4.39453C7.63055 4.39453 7.94531 4.07977 7.94531 3.69141C7.94531 3.30304 7.63055 2.98828 7.24219 2.98828ZM10.7578 13.5703C10.3694 13.5703 10.0547 13.8851 10.0547 14.2734C10.0547 14.6618 10.3694 14.9766 10.7578 14.9766C11.1462 14.9766 11.4609 14.6618 11.4609 14.2734C11.4609 13.8851 11.1462 13.5703 10.7578 13.5703ZM10.7578 2.98828C10.3694 2.98828 10.0547 3.30304 10.0547 3.69141C10.0547 4.07977 10.3694 4.39453 10.7578 4.39453C11.1462 4.39453 11.4609 4.07977 11.4609 3.69141C11.4609 3.30304 11.1462 2.98828 10.7578 2.98828ZM14.2734 6.53906C13.8851 6.53906 13.5703 6.85382 13.5703 7.24219C13.5703 7.63055 13.8851 7.94531 14.2734 7.94531C14.6618 7.94531 14.9766 7.63055 14.9766 7.24219C14.9766 6.85382 14.6618 6.53906 14.2734 6.53906ZM14.2734 10.0547C13.8851 10.0547 13.5703 10.3694 13.5703 10.7578C13.5703 11.1462 13.8851 11.4609 14.2734 11.4609C14.6618 11.4609 14.9766 11.1462 14.9766 10.7578C14.9766 10.3694 14.6618 10.0547 14.2734 10.0547ZM14.2734 13.5703C13.8851 13.5703 13.5703 13.8851 13.5703 14.2734C13.5703 14.6618 13.8851 14.9766 14.2734 14.9766C14.6618 14.9766 14.9766 14.6618 14.9766 14.2734C14.9766 13.8851 14.6618 13.5703 14.2734 13.5703ZM14.2734 2.98828C13.8851 2.98828 13.5703 3.30304 13.5703 3.69141C13.5703 4.07977 13.8851 4.39453 14.2734 4.39453C14.6618 4.39453 14.9766 4.07977 14.9766 3.69141C14.9766 3.30304 14.6618 2.98828 14.2734 2.98828Z" fill="white"/>
</svg>
