<svg width="20" height="20" viewBox="0 0 20 20" fill="none" xmlns="http://www.w3.org/2000/svg">
<path d="M10.006 3.77359L8.16131 2.38994L10.006 1.00629L9.25125 0L6.06445 2.38994L9.25125 4.77987L10.006 3.77359Z" fill="white"/>
<path d="M12.8672 18.4026L13.2345 19.6051C13.6653 19.4735 14.0857 19.3102 14.4923 19.1165L13.9515 17.9844C13.6008 18.1501 13.2384 18.29 12.8672 18.4026Z" fill="white"/>
<path d="M10.5723 18.7412V19.999C11.0223 19.9988 11.4716 19.966 11.9169 19.9009L11.7339 18.6562C11.3493 18.7129 10.961 18.7412 10.5723 18.7412Z" fill="white"/>
<path d="M18.1399 5.78908C16.4449 3.2708 13.6079 1.76097 10.5723 1.76172V3.01958C14.9141 3.01887 18.4345 6.5381 18.4352 10.88C18.4356 13.4971 17.1336 15.9429 14.9622 17.4039L15.6666 18.4466C19.8449 15.6343 20.9522 9.96734 18.1399 5.78908Z" fill="white"/>
<path d="M5.63186 5.54122C5.12347 5.32538 4.53636 5.56255 4.32055 6.07095L0.390719 15.3287C0.174927 15.837 0.412074 16.4241 0.920415 16.6399L7.33796 19.3646C7.84634 19.5804 8.43345 19.3433 8.64926 18.8349L12.5791 9.57712C12.7949 9.06876 12.5577 8.48173 12.0494 8.2659L5.63186 5.54122ZM7.98312 17.1859C7.76736 17.6943 7.18035 17.9315 6.67197 17.7158L2.56968 15.975C2.06124 15.7593 1.824 15.1722 2.03978 14.6638L4.98669 7.72053C5.20246 7.21217 5.78946 6.97495 6.29784 7.19067L10.4001 8.93143C10.9086 9.14718 11.1458 9.73426 10.93 10.2427L7.98312 17.1859Z" fill="white"/>
</svg>
