<svg width="18" height="19" viewBox="0 0 18 19" fill="none" xmlns="http://www.w3.org/2000/svg">
<rect x="0.2375" y="18.7625" width="0.475" height="17.525" rx="0.2375" transform="rotate(-90 0.2375 18.7625)" fill="white" stroke="white" stroke-width="0.475"/>
<rect x="0.2375" y="0.711719" width="0.475" height="17.525" rx="0.2375" transform="rotate(-90 0.2375 0.711719)" fill="white" stroke="white" stroke-width="0.475"/>
<path d="M9.35355 2.49723C9.15829 2.30197 8.84171 2.30197 8.64645 2.49723L5.46447 5.67921C5.2692 5.87447 5.2692 6.19105 5.46447 6.38632C5.65973 6.58158 5.97631 6.58158 6.17157 6.38632L9 3.55789L11.8284 6.38632C12.0237 6.58158 12.3403 6.58158 12.5355 6.38632C12.7308 6.19105 12.7308 5.87447 12.5355 5.67921L9.35355 2.49723ZM9.5 8.55078L9.5 2.85078H8.5L8.5 8.55078H9.5Z" fill="white"/>
<path d="M8.64645 16.5028C8.84171 16.698 9.15829 16.698 9.35355 16.5028L12.5355 13.3208C12.7308 13.1255 12.7308 12.8089 12.5355 12.6137C12.3403 12.4184 12.0237 12.4184 11.8284 12.6137L9 15.4421L6.17157 12.6137C5.97631 12.4184 5.65973 12.4184 5.46447 12.6137C5.2692 12.8089 5.2692 13.1255 5.46447 13.3208L8.64645 16.5028ZM8.5 10.4492L8.5 16.1492H9.5L9.5 10.4492H8.5Z" fill="white"/>
</svg>
