<svg width="19" height="19" viewBox="0 0 19 19" fill="none" xmlns="http://www.w3.org/2000/svg">
<path d="M0.791656 3.95841H3.27944C3.45193 4.63748 3.84584 5.23969 4.3989 5.66983C4.95196 6.09997 5.63261 6.3335 6.33325 6.3335C7.03389 6.3335 7.71454 6.09997 8.2676 5.66983C8.82066 5.23969 9.21457 4.63748 9.38706 3.95841H18.2081C18.4181 3.95841 18.6194 3.875 18.7679 3.72653C18.9163 3.57807 18.9998 3.37671 18.9998 3.16675C18.9998 2.95679 18.9163 2.75543 18.7679 2.60696C18.6194 2.4585 18.4181 2.37509 18.2081 2.37509H9.38706C9.21457 1.69602 8.82066 1.09381 8.2676 0.66367C7.71454 0.23353 7.03389 0 6.33325 0C5.63261 0 4.95196 0.23353 4.3989 0.66367C3.84584 1.09381 3.45193 1.69602 3.27944 2.37509H0.791656C0.581696 2.37509 0.380335 2.4585 0.231871 2.60696C0.0834064 2.75543 0 2.95679 0 3.16675C0 3.37671 0.0834064 3.57807 0.231871 3.72653C0.380335 3.875 0.581696 3.95841 0.791656 3.95841V3.95841ZM6.33325 1.58344C6.6464 1.58344 6.95252 1.6763 7.21289 1.85027C7.47327 2.02425 7.6762 2.27153 7.79604 2.56084C7.91588 2.85015 7.94723 3.16851 7.88614 3.47564C7.82505 3.78277 7.67425 4.06489 7.45282 4.28632C7.23139 4.50775 6.94927 4.65855 6.64214 4.71964C6.33501 4.78073 6.01666 4.74938 5.72734 4.62954C5.43803 4.5097 5.19075 4.30677 5.01677 4.04639C4.8428 3.78602 4.74994 3.4799 4.74994 3.16675C4.74994 2.74683 4.91675 2.34411 5.21368 2.04718C5.51061 1.75025 5.91333 1.58344 6.33325 1.58344V1.58344Z" fill="#CFCFCF"/>
<path d="M0.791656 10.2924H9.61269C9.78518 10.9715 10.1791 11.5737 10.7322 12.0038C11.2852 12.434 11.9659 12.6675 12.6665 12.6675C13.3671 12.6675 14.0478 12.434 14.6009 12.0038C15.1539 11.5737 15.5478 10.9715 15.7203 10.2924H18.2081C18.4181 10.2924 18.6194 10.209 18.7679 10.0605C18.9163 9.91205 18.9998 9.71069 18.9998 9.50073C18.9998 9.29077 18.9163 9.08941 18.7679 8.94095C18.6194 8.79248 18.4181 8.70908 18.2081 8.70908H15.7203C15.5478 8.03 15.1539 7.42779 14.6009 6.99765C14.0478 6.56751 13.3671 6.33398 12.6665 6.33398C11.9659 6.33398 11.2852 6.56751 10.7322 6.99765C10.1791 7.42779 9.78518 8.03 9.61269 8.70908H0.791656C0.581696 8.70908 0.380335 8.79248 0.231871 8.94095C0.0834064 9.08941 0 9.29077 0 9.50073C0 9.71069 0.0834064 9.91205 0.231871 10.0605C0.380335 10.209 0.581696 10.2924 0.791656 10.2924ZM12.6665 7.91742C12.9797 7.91742 13.2858 8.01028 13.5461 8.18426C13.8065 8.35823 14.0095 8.60551 14.1293 8.89483C14.2491 9.18414 14.2805 9.50249 14.2194 9.80962C14.1583 10.1168 14.0075 10.3989 13.7861 10.6203C13.5646 10.8417 13.2825 10.9925 12.9754 11.0536C12.6683 11.1147 12.3499 11.0834 12.0606 10.9635C11.7713 10.8437 11.524 10.6407 11.35 10.3804C11.176 10.12 11.0832 9.81388 11.0832 9.50073C11.0832 9.08081 11.25 8.67809 11.5469 8.38116C11.8439 8.08423 12.2466 7.91742 12.6665 7.91742Z" fill="#CFCFCF"/>
<path d="M0.791656 16.6244H3.27944C3.45193 17.3035 3.84584 17.9057 4.3989 18.3358C4.95196 18.766 5.63261 18.9995 6.33325 18.9995C7.03389 18.9995 7.71454 18.766 8.2676 18.3358C8.82066 17.9057 9.21457 17.3035 9.38706 16.6244H18.2081C18.4181 16.6244 18.6194 16.541 18.7679 16.3926C18.9163 16.2441 18.9998 16.0427 18.9998 15.8328C18.9998 15.6228 18.9163 15.4214 18.7679 15.273C18.6194 15.1245 18.4181 15.0411 18.2081 15.0411H9.38706C9.21457 14.362 8.82066 13.7598 8.2676 13.3297C7.71454 12.8995 7.03389 12.666 6.33325 12.666C5.63261 12.666 4.95196 12.8995 4.3989 13.3297C3.84584 13.7598 3.45193 14.362 3.27944 15.0411H0.791656C0.581696 15.0411 0.380335 15.1245 0.231871 15.273C0.0834064 15.4214 0 15.6228 0 15.8328C0 16.0427 0.0834064 16.2441 0.231871 16.3926C0.380335 16.541 0.581696 16.6244 0.791656 16.6244V16.6244ZM6.33325 14.2495C6.6464 14.2495 6.95252 14.3423 7.21289 14.5163C7.47327 14.6903 7.6762 14.9375 7.79604 15.2269C7.91588 15.5162 7.94723 15.8345 7.88614 16.1417C7.82505 16.4488 7.67425 16.7309 7.45282 16.9523C7.23139 17.1738 6.94927 17.3246 6.64214 17.3857C6.33501 17.4467 6.01666 17.4154 5.72734 17.2956C5.43803 17.1757 5.19075 16.9728 5.01677 16.7124C4.8428 16.452 4.74994 16.1459 4.74994 15.8328C4.74994 15.4128 4.91675 15.0101 5.21368 14.7132C5.51061 14.4163 5.91333 14.2495 6.33325 14.2495V14.2495Z" fill="#CFCFCF"/>
</svg>
