<svg width="22" height="16" viewBox="0 0 22 16" fill="none" xmlns="http://www.w3.org/2000/svg">
<path d="M0.646447 11.8154C0.451184 12.0107 0.451184 12.3272 0.646447 12.5225L3.82843 15.7045C4.02369 15.8997 4.34027 15.8997 4.53553 15.7045C4.7308 15.5092 4.7308 15.1926 4.53553 14.9974L1.70711 12.1689L4.53553 9.34052C4.7308 9.14526 4.7308 8.82867 4.53553 8.63341C4.34027 8.43815 4.02369 8.43815 3.82843 8.63341L0.646447 11.8154ZM21 11.6689L1 11.6689V12.6689L21 12.6689V11.6689Z" fill="white"/>
<path d="M21.3536 12.3536C21.5488 12.1583 21.5488 11.8417 21.3536 11.6464L18.1716 8.46447C17.9763 8.2692 17.6597 8.2692 17.4645 8.46447C17.2692 8.65973 17.2692 8.97631 17.4645 9.17157L20.2929 12L17.4645 14.8284C17.2692 15.0237 17.2692 15.3403 17.4645 15.5355C17.6597 15.7308 17.9763 15.7308 18.1716 15.5355L21.3536 12.3536ZM1 12.5H21V11.5H1V12.5Z" fill="white"/>
<path d="M16.3197 2.655L14.0517 9H12.7377L11.3967 5.193L10.0377 9H8.71466L6.45566 2.655H8.13866L9.45266 6.678L10.8747 2.655H12.0177L13.3767 6.75L14.7537 2.655H16.3197Z" fill="white"/>
</svg>
