<svg width="22" height="17" viewBox="0 0 22 17" fill="none" xmlns="http://www.w3.org/2000/svg">
<path d="M21.3536 13.3955C21.5488 13.2003 21.5488 12.8837 21.3536 12.6884L18.1716 9.50646C17.9763 9.3112 17.6597 9.3112 17.4645 9.50646C17.2692 9.70172 17.2692 10.0183 17.4645 10.2136L20.2929 13.042L17.4645 15.8704C17.2692 16.0657 17.2692 16.3823 17.4645 16.5775C17.6597 16.7728 17.9763 16.7728 18.1716 16.5775L21.3536 13.3955ZM-4.37114e-08 13.542L21 13.542L21 12.542L4.37114e-08 12.542L-4.37114e-08 13.542Z" fill="white"/>
<path d="M13.5612 9H11.6262L10.1952 7.002L8.75519 9H6.83819L9.25919 5.796L6.88319 2.655H8.80919L10.1952 4.599L11.5992 2.655H13.5162L11.1312 5.796L13.5612 9Z" fill="white"/>
</svg>
