<svg width="16" height="19" viewBox="0 0 16 19" fill="none" xmlns="http://www.w3.org/2000/svg">
<path d="M12.4718 8.89177V11.7178H10.8158V8.89177L8.15175 5.37277H10.0148L11.6348 7.57777L13.2728 5.37277H15.1538L12.4718 8.89177Z" fill="white"/>
<path d="M3.64645 18.3532C3.84171 18.5484 4.15829 18.5484 4.35355 18.3532L7.53553 15.1712C7.7308 14.9759 7.7308 14.6593 7.53553 14.4641C7.34027 14.2688 7.02369 14.2688 6.82843 14.4641L4 17.2925L1.17157 14.4641C0.976311 14.2688 0.659728 14.2688 0.464466 14.4641C0.269204 14.6593 0.269204 14.9759 0.464466 15.1712L3.64645 18.3532ZM3.5 0L3.5 17.9996H4.5L4.5 0L3.5 0Z" fill="white"/>
</svg>
