<?xml version="1.0" encoding="UTF-8"?>
<svg width="75px" height="75px" viewBox="0 0 75 75" version="1.1" xmlns="http://www.w3.org/2000/svg" xmlns:xlink="http://www.w3.org/1999/xlink">
    <!-- Generator: Sketch 53.2 (72643) - https://sketchapp.com -->
    <title>Group</title>
    <desc>Created with Sketch.</desc>
    <g id="Modals" stroke="none" stroke-width="1" fill="none" fill-rule="evenodd">
        <g id="Group">
            <path d="M37,5.00050295 C19.281303,5.26773057 5,19.7144442 5,37.4967348 C5,55.4459892 19.5507456,69.9967348 37.5,69.9967348 C55.4492544,69.9967348 70,55.4459892 70,37.4967348 C70,35.5488068 69.8286286,33.6409046 69.5001401,31.7872826 L74.3617856,30.5711738 C74.7808659,32.8157208 75,35.1306371 75,37.4967348 C75,58.2074129 58.2106781,74.9967348 37.5,74.9967348 C16.7893219,74.9967348 0,58.2074129 0,37.4967348 C0,16.9529804 16.5197758,0.267626258 37,-8.92824877e-13 L37,5.00050295 Z" id="Combined-Shape" fill="#1EE29A"></path>
            <path d="M26,36.2980544 L33.2846128,45.9876509 C34.280248,47.3119909 36.1609596,47.5784587 37.4852996,46.5828235 C37.7666045,46.3713392 38.0085031,46.1120069 38.1999315,45.8166881 L52.9899145,23" id="Path-21" stroke="#1EE29A" stroke-width="5"></path>
        </g>
    </g>
</svg>