<?xml version="1.0" encoding="utf-8"?>
<!-- Generator: Adobe Illustrator 23.0.0, SVG Export Plug-In . SVG Version: 6.00 Build 0)  -->
<svg version="1.1" id="Layer_1" xmlns="http://www.w3.org/2000/svg" xmlns:xlink="http://www.w3.org/1999/xlink" x="0px" y="0px"
	 viewBox="0 0 89 90" style="enable-background:new 0 0 89 90;" xml:space="preserve">
<style type="text/css">
	.st0{fill:#BFBFBF;}
	.st1{fill:#FFFFFF;}
</style>
<title>Asset 2</title>
<g>
	<g>
		<path class="st0" d="M47.7,3.8c-22-1.6-41.2,15-42.8,37c0,0.1,0,0.1,0,0.2c-0.1,1.3,0.9,2.5,2.2,2.5c0,0,0.1,0,0.1,0l0,0
			c1.4,0,2.5-1.1,2.6-2.5C11.3,21.8,28.1,7.4,47.4,8.8S81.1,27,79.7,46.3c-1.3,17.3-15,31-32.3,32.3c-1.4,0.1-2.5,1.3-2.5,2.7l0,0
			c0,1.3,1.1,2.3,2.3,2.3c0,0,0.1,0,0.1,0c22-1.4,38.8-20.4,37.4-42.4C83.5,21.2,67.6,5.2,47.7,3.8z"/>
		<path class="st0" d="M57.6,16.4C36.3,7.5,16,22.2,14.8,42c-0.1,0.8,0.6,1.5,1.4,1.6c0,0,0.1,0,0.1,0h1.8c0.9,0,1.6-0.7,1.7-1.6
			C21,25.2,38.7,13,56.7,21.5c4.5,2.1,8.1,5.7,10.2,10.2c8.7,18.4-4.1,36.4-21.4,37c-0.4,0-0.7,0.3-0.7,0.8v2.4
			c-0.1,0.9,0.5,1.7,1.4,1.8c0.1,0,0.2,0,0.3,0c19.9-1.1,34.6-21.6,25.6-42.9C69.3,24.3,64.1,19.1,57.6,16.4z"/>
		<path class="st0" d="M40.4,43.6L16,49.7c-2.2,0.6-3.5,2.8-2.9,5c0.2,0.7,0.5,1.3,1,1.8l5.6,5.5L2.7,79.4c-2,2.1-2,5.4,0.1,7.4
			c2.1,2,5.4,2,7.4-0.1l0,0l17.1-17.4l5.6,5.6c1.6,1.6,4.1,1.6,5.7,0c0.6-0.6,0.9-1.3,1.1-2l5.6-24.4c0.5-2.1-0.8-4.3-3-4.8
			C41.7,43.5,41,43.5,40.4,43.6L40.4,43.6z"/>
	</g>
</g>
<g>
	<g>
		<path class="st1" d="M49.2,2.8c-22-1.6-41.2,15-42.8,37c0,0.1,0,0.1,0,0.2c-0.1,1.3,0.9,2.5,2.2,2.5c0,0,0.1,0,0.1,0l0,0
			c1.4,0,2.5-1.1,2.6-2.5C12.9,20.9,29.6,6.4,48.9,7.8S82.7,26,81.2,45.3c-1.3,17.3-15,31-32.3,32.3c-1.4,0.1-2.5,1.3-2.5,2.7l0,0
			c0,1.3,1.1,2.3,2.3,2.3c0,0,0.1,0,0.1,0c22-1.4,38.8-20.4,37.4-42.4C85,20.2,69.2,4.2,49.2,2.8z"/>
		<path class="st1" d="M59.1,15.4C37.9,6.5,17.5,21.2,16.4,41c-0.1,0.8,0.6,1.5,1.4,1.6c0,0,0.1,0,0.1,0h1.8c0.9,0,1.6-0.7,1.7-1.6
			c1.1-16.8,18.8-29,36.9-20.5c4.5,2.1,8.1,5.7,10.2,10.2c8.7,18.4-4.2,36.4-21.4,37c-0.4,0-0.7,0.3-0.7,0.8v2.4
			c-0.1,0.9,0.5,1.7,1.4,1.8c0.1,0,0.2,0,0.3,0c19.9-1.1,34.6-21.6,25.6-42.9C70.9,23.3,65.7,18.1,59.1,15.4z"/>
		<path class="st1" d="M41.9,42.7l-24.4,6.1c-2.2,0.6-3.5,2.8-2.9,5c0.2,0.7,0.5,1.3,1,1.8l5.6,5.5L4.2,78.4c-2,2.1-2,5.4,0.1,7.4
			c2.1,2,5.4,2,7.4-0.1l0,0l17.1-17.4l5.6,5.6c1.6,1.6,4.1,1.6,5.7,0c0.6-0.6,0.9-1.3,1.1-2l5.6-24.4c0.5-2.1-0.8-4.3-3-4.8
			C43.2,42.5,42.6,42.5,41.9,42.7L41.9,42.7z"/>
	</g>
</g>
</svg>
