<svg width="16" height="16" viewBox="0 0 16 16" fill="none" xmlns="http://www.w3.org/2000/svg">
<path fill-rule="evenodd" clip-rule="evenodd" d="M7.99831 0C8.58741 0 9.06497 0.477563 9.06497 1.06667V14.9333C9.06497 15.5224 8.58741 16 7.99831 16C7.4092 16 6.93164 15.5224 6.93164 14.9333V1.06667C6.93164 0.477563 7.4092 0 7.99831 0Z" fill="black"/>
<path d="M14.9333 9.06644C15.5224 9.06644 16 8.58888 16 7.99977C16 7.41067 15.5224 6.93311 14.9333 6.93311L1.06667 6.93311C0.477563 6.93311 0 7.41067 0 7.99977C0 8.58888 0.477563 9.06644 1.06667 9.06644L14.9333 9.06644Z" fill="black"/>
</svg>
