<?xml version="1.0" encoding="UTF-8"?>
<svg width="320px" height="420px" viewBox="0 0 320 420" version="1.1" xmlns="http://www.w3.org/2000/svg" xmlns:xlink="http://www.w3.org/1999/xlink">
    <!-- Generator: Sketch 53.2 (72643) - https://sketchapp.com -->
    <title>Artboard</title>
    <desc>Created with Sketch.</desc>
    <defs>
        <linearGradient x1="50%" y1="0%" x2="50%" y2="100%" id="linearGradient-1">
            <stop stop-color="#302D7E" offset="0%"></stop>
            <stop stop-color="#49658A" offset="100%"></stop>
        </linearGradient>
        <rect id="path-2" x="1" y="4" width="672" height="423" rx="3"></rect>
        <filter x="-2.4%" y="-3.3%" width="104.8%" height="107.6%" filterUnits="objectBoundingBox" id="filter-3">
            <feOffset dx="0" dy="2" in="SourceAlpha" result="shadowOffsetOuter1"></feOffset>
            <feGaussianBlur stdDeviation="5" in="shadowOffsetOuter1" result="shadowBlurOuter1"></feGaussianBlur>
            <feColorMatrix values="0 0 0 0 0   0 0 0 0 0   0 0 0 0 0  0 0 0 0.5 0" type="matrix" in="shadowBlurOuter1"></feColorMatrix>
        </filter>
        <linearGradient x1="50%" y1="50%" x2="50%" y2="121.12578%" id="linearGradient-4">
            <stop stop-color="#FFFDC1" offset="0%"></stop>
            <stop stop-color="#E7DA88" offset="100%"></stop>
        </linearGradient>
        <linearGradient x1="50%" y1="50%" x2="50%" y2="123.200961%" id="linearGradient-5">
            <stop stop-color="#FFFDC1" offset="0%"></stop>
            <stop stop-color="#E7DA88" offset="100%"></stop>
        </linearGradient>
        <linearGradient x1="63.133309%" y1="23.791677%" x2="0%" y2="114.929931%" id="linearGradient-6">
            <stop stop-color="#FFFDC1" offset="0%"></stop>
            <stop stop-color="#E7DA88" offset="100%"></stop>
        </linearGradient>
        <path d="M0,0 L672,0 L672,424 C672,425.656854 670.656854,427 669,427 L3,427 C1.34314575,427 2.02906125e-16,425.656854 0,424 L0,0 Z" id="path-7"></path>
        <linearGradient x1="50%" y1="0%" x2="50%" y2="100%" id="linearGradient-9">
            <stop stop-color="#AC9083" offset="0%"></stop>
            <stop stop-color="#73574B" offset="100%"></stop>
        </linearGradient>
        <linearGradient x1="50%" y1="0%" x2="50%" y2="100%" id="linearGradient-10">
            <stop stop-color="#F2DCCF" offset="0%"></stop>
            <stop stop-color="#B4846B" offset="100%"></stop>
        </linearGradient>
        <linearGradient x1="100%" y1="100%" x2="-4.03868225%" y2="100%" id="linearGradient-11">
            <stop stop-color="#AFE3DB" offset="0%"></stop>
            <stop stop-color="#F3E1FF" offset="100%"></stop>
        </linearGradient>
        <linearGradient x1="100%" y1="100%" x2="-4.03868225%" y2="100%" id="linearGradient-12">
            <stop stop-color="#AFE3DB" offset="0%"></stop>
            <stop stop-color="#F3E1FF" offset="100%"></stop>
        </linearGradient>
        <linearGradient x1="100%" y1="100%" x2="-4.03868225%" y2="100%" id="linearGradient-13">
            <stop stop-color="#AFE3DB" offset="0%"></stop>
            <stop stop-color="#F3E1FF" offset="100%"></stop>
        </linearGradient>
        <linearGradient x1="50%" y1="0%" x2="50%" y2="100%" id="linearGradient-14">
            <stop stop-color="#F2DDCF" offset="0%"></stop>
            <stop stop-color="#D4A890" offset="100%"></stop>
        </linearGradient>
        <linearGradient x1="-1.30618525%" y1="157.213749%" x2="67.6067166%" y2="0%" id="linearGradient-15">
            <stop stop-color="#B1A7A7" offset="0%"></stop>
            <stop stop-color="#73574B" offset="100%"></stop>
        </linearGradient>
        <linearGradient x1="50%" y1="1.23712734%" x2="50%" y2="33.9887691%" id="linearGradient-16">
            <stop stop-color="#EFDDD2" offset="0%"></stop>
            <stop stop-color="#E8C3AF" offset="100%"></stop>
        </linearGradient>
        <linearGradient x1="50%" y1="5.04424426%" x2="50%" y2="100%" id="linearGradient-17">
            <stop stop-color="#CAAA9A" offset="0%"></stop>
            <stop stop-color="#737271" offset="100%"></stop>
        </linearGradient>
        <linearGradient x1="50%" y1="0%" x2="50%" y2="100%" id="linearGradient-18">
            <stop stop-color="#727E8A" offset="0%"></stop>
            <stop stop-color="#98A6B4" offset="100%"></stop>
        </linearGradient>
        <linearGradient x1="50%" y1="0%" x2="50%" y2="100%" id="linearGradient-19">
            <stop stop-color="#81D585" offset="0%"></stop>
            <stop stop-color="#688E54" offset="100%"></stop>
        </linearGradient>
    </defs>
    <g id="Artboard" stroke="none" stroke-width="1" fill="none" fill-rule="evenodd">
        <g id="Group-54-Copy" transform="translate(-1.000000, -7.000000)">
            <g id="Rectangle-38-Copy-24">
                <use fill="black" fill-opacity="1" filter="url(#filter-3)" xlink:href="#path-2"></use>
                <use fill="url(#linearGradient-1)" fill-rule="evenodd" xlink:href="#path-2"></use>
            </g>
            <g id="Group-3" transform="translate(206.000000, 30.000000)">
                <path d="M14.1794565,62.1143886 C28.0834929,60.5401268 38.888918,48.7017982 38.888918,34.3314607 C38.888918,18.8892067 26.4113685,6.37078652 11.0195312,6.37078652 C7.10548114,6.37078652 3.37988462,7.18029488 9.63673585e-14,8.64153814 C5.62834529,3.28568319 13.2331405,0 21.6028426,0 C38.9430138,0 53,14.1030304 53,31.5 C53,48.8969696 38.9430138,63 21.6028426,63 C19.0454456,63 16.5594627,62.6932377 14.1794565,62.1143886 Z" id="Combined-Shape" fill="#FFFDC1"></path>
                <path d="M40.9649807,50.8627446 C38.8316458,50.2911192 37.56563,48.0983156 38.1372554,45.9649807 C38.7088808,43.8316458 40.9016844,42.56563 43.0350193,43.1372554 C45.1683542,43.7088808 46.43437,45.9016844 45.8627446,48.0350193 C45.2911192,50.1683542 43.0983156,51.43437 40.9649807,50.8627446 Z" id="Oval-19" fill="url(#linearGradient-4)" transform="translate(42.000000, 47.000000) rotate(-27.000000) translate(-42.000000, -47.000000) "></path>
                <circle id="Oval-19-Copy" fill="url(#linearGradient-5)" transform="translate(44.000000, 18.000000) rotate(336.000000) translate(-44.000000, -18.000000) " cx="44" cy="18" r="4"></circle>
                <circle id="Oval-19-Copy-3" fill="url(#linearGradient-5)" transform="translate(32.000000, 8.000000) rotate(637.000000) translate(-32.000000, -8.000000) " cx="32" cy="8" r="4"></circle>
                <circle id="Oval-19-Copy-2" fill="url(#linearGradient-6)" transform="translate(45.000000, 30.000000) rotate(635.000000) translate(-45.000000, -30.000000) " cx="45" cy="30" r="6"></circle>
            </g>
            <g id="Group-53">
                <mask id="mask-8" fill="white">
                    <use xlink:href="#path-7"></use>
                </mask>
                <use id="Mask" fill="#D8D8D8" opacity="0" xlink:href="#path-7"></use>
                <g mask="url(#mask-8)">
                    <g transform="translate(-438.000000, 32.000000)">
                        <g id="Group-32-Copy" stroke-width="1" fill="none" transform="translate(430.500000, 223.000000) scale(-1, 1) translate(-430.500000, -223.000000) translate(331.000000, 160.000000)">
                            <path d="M0,34.6190433 C15.1492141,29.4635639 27.4692732,23.1075556 36.9601772,15.5510185 C46.4510812,7.99448134 52.9197574,2.81080852 56.3662059,0 C67.4135485,11.1170435 76.6862772,20.4039261 84.1843918,27.8606478 C91.2566897,34.8939035 105.195226,47.9403542 126,67 L0,34.6190433 Z" id="Path-23" fill="url(#linearGradient-9)"></path>
                            <path d="M56.7033943,0 C56.7033943,0 76.4625085,19.5846884 91.7232974,34.1655976 C106.984086,48.7465067 189.812901,119.626136 197.985387,125.350602 C202.308889,128.379025 103.759214,94.994159 78.3420674,86.479364 C55.3740666,78.7850376 34.5636757,39.0985466 44.2141524,35.2967862 C59.7140098,29.1906894 56.7033943,0 56.7033943,0 Z" id="Path-11-Copy" fill="url(#linearGradient-10)"></path>
                        </g>
                        <path d="M429.867481,167 L498,167 C496.057296,162.069238 494.681838,159.265082 493.873625,158.587533 C489.767069,155.14488 488.588705,160.393241 488.016119,159.640621 C486.443386,157.573388 485.023643,154.955314 482.77844,154.14488 C479.740485,153.048293 477.039864,153.381627 474.676577,155.14488 C471.731112,145.048293 466.533094,140 459.082523,140 C451.631953,140 446.311392,143.361417 443.120841,150.084252 C439.958262,150.084252 437.23762,151.222835 434.958915,153.5 C432.813953,155.643512 429.895865,159.867259 429.014947,165.95586 C428.929069,166.549422 429.213247,166.897469 429.867481,167 Z" id="Path-19-Copy-2" fill="url(#linearGradient-11)"></path>
                        <path d="M573.521506,135 L692,135 C687.753861,123.934818 682.361867,116.763202 675.824018,113.485153 C669.286169,110.207104 661.382767,110.207104 652.113812,113.485153 C646.947654,95.1617177 637.830661,86 624.762834,86 C611.695006,86 602.363081,92.1003502 596.767057,104.301051 C591.220095,104.301051 586.448262,106.367367 582.451558,110.5 C578.689431,114.390077 573.57129,122.055396 572.026217,133.105079 C571.875591,134.182284 572.374021,134.813925 573.521506,135 Z" id="Path-19" fill="url(#linearGradient-12)"></path>
                        <path d="M612.179167,150 L704,150 C700.709242,141.418838 696.530447,135.857177 691.463614,133.315017 C686.396781,130.772856 680.271644,130.772856 673.088204,133.315017 C669.084432,119.105006 662.018762,112 651.891196,112 C641.76363,112 634.531387,116.730884 630.194469,126.192652 C625.895574,126.192652 622.197403,127.795101 619.099957,131 C616.184309,134.016795 612.21775,139.961328 611.020318,148.53047 C610.903583,149.365853 611.289866,149.855697 612.179167,150 Z" id="Path-19-Copy" fill="url(#linearGradient-13)"></path>
                        <g id="Group-52" stroke-width="1" fill="none" transform="translate(556.005393, 39.868297) rotate(89.000000) translate(-556.005393, -39.868297) translate(518.005393, -42.131703)">
                            <circle id="Oval-20" fill="#FFFEF4" cx="11.5" cy="120.5" r="2.5"></circle>
                            <circle id="Oval-20-Copy-9" fill="#FFFEF4" cx="44.5" cy="103.5" r="2.5"></circle>
                            <circle id="Oval-20-Copy-12" fill="#FFFEF4" cx="68.5" cy="161.5" r="2.5"></circle>
                            <circle id="Oval-20-Copy-5" fill="#FFFEF4" cx="58.5" cy="17.5" r="2.5"></circle>
                            <circle id="Oval-20-Copy" fill="#FFFEF4" cx="23.5" cy="86.5" r="1.5"></circle>
                            <circle id="Oval-20-Copy-11" fill="#FFFEF4" cx="72.5" cy="109.5" r="1.5"></circle>
                            <circle id="Oval-20-Copy-2" fill="#FFFEF4" cx="11" cy="69" r="1"></circle>
                            <circle id="Oval-20-Copy-10" fill="#FFFEF4" cx="26" cy="138" r="1"></circle>
                            <circle id="Oval-20-Copy-3" fill="#FFFEF4" cx="32" cy="54" r="1"></circle>
                            <circle id="Oval-20-Copy-8" fill="#FFFEF4" cx="75" cy="81" r="1"></circle>
                            <circle id="Oval-20-Copy-6" fill="#FFFEF4" cx="1" cy="15" r="1"></circle>
                            <circle id="Oval-20-Copy-7" fill="#FFFEF4" cx="48" cy="1" r="1"></circle>
                            <path d="M58.5,18.5 L44.5,103.5" id="Line-2" stroke="#FFFEF3" stroke-width="0.2" stroke-linecap="square"></path>
                            <path d="M11.5,120.5 L45.5,102.5" id="Line-2-Copy-2" stroke="#FFFEF3" stroke-width="0.2" stroke-linecap="square"></path>
                            <path d="M12.5,120.5 L66.5,161.5" id="Line-2-Copy-3" stroke="#FFFEF3" stroke-width="0.2" stroke-linecap="square"></path>
                        </g>
                        <g id="Group-31-Copy" stroke-width="1" fill="none" transform="translate(513.000000, 193.000000) scale(-1, 1) translate(-513.000000, -193.000000) translate(401.000000, 121.000000)">
                            <path d="M81.6636135,2 C81.6636135,2 101.128172,25.8470422 113.316679,40.6006404 C125.505187,55.3542385 223.129697,143.794033 223.129697,143.794033 C223.129697,143.794033 132.337104,125.357585 113.316679,122.602438 C86.4915052,118.716757 0.0812869268,99.1820842 0.0812869268,99.1820842 C0.0812869268,99.1820842 61.559201,39.650251 71.3431388,24.643143 C81.1270766,9.6360351 81.6636135,2 81.6636135,2 Z" id="Path-11" fill="url(#linearGradient-14)"></path>
                            <path d="M81.1960837,0 L36,57.0268341 L50.5358307,70 L77.1518464,66.2526405 C77.1518464,66.2526405 100.160517,64.6254817 99.9991552,50.2163082 C99.8377939,35.8071347 81.1960837,38.8981002 81.1960837,27.0040404 C81.1960837,2.33523194 81.1960837,0 81.1960837,0 Z" id="Path-10" fill="url(#linearGradient-15)"></path>
                            <path d="M67.5629697,17.197179 C67.5629697,17.197179 68.1600618,18.9501196 70.4877005,18.9501196 C72.8153392,18.9501196 72.5206009,18.9501196 74.8312062,18.9501196 C77.6992728,18.9501196 77.6578117,25 80.8556916,25 C84.0086908,25 85.3581524,19.2532269 87.3593513,17.197179 C89.3605502,15.1411311 92,14.180472 92,14.180472 L81.4460195,0.239035789 C81.4460195,0.239035789 80.1002064,-0.534599316 79.1447388,0.701704552 C78.1892712,1.93800842 67.5629697,17.197179 67.5629697,17.197179 Z" id="Path-25-Copy-3" fill="#F6F1F1"></path>
                            <path d="M67.4182769,17.2045258 C67.4182769,17.2045258 68.0013753,19.7082565 70.4337742,19.7082565 C72.8661731,19.7082565 72.6928886,18.9202627 75.1074875,18.9202627 C77.3162588,18.9202627 77.5336904,24.9982496 80.8993132,24.9982496 C81.1143555,25.0930984 80.921451,21.3209367 80.8993132,16.6797894 C80.8646212,9.40670282 80.8993132,6.82121026e-13 80.8993132,6.82121026e-13 C80.8993132,6.82121026e-13 80.6742086,0.0155683551 80.4484764,0.0836873662 C80.2227441,0.151806377 79.4811701,0.351920491 78.9583782,0.998408782 C77.9599078,2.23312455 67.4182769,17.2045258 67.4182769,17.2045258 Z" id="Path-25-Copy-5" fill="#E2E2E2"></path>
                        </g>
                        <g id="Group-30-Copy-2" stroke-width="1" fill="none" transform="translate(601.500000, 207.500000) scale(-1, 1) translate(-601.500000, -207.500000) translate(478.000000, 153.000000)">
                            <path d="M44.7171462,83.0664532 C66.9625514,68.5593118 71.2273134,61.8423831 85.7132246,48.6214079 C100.199136,35.4004327 130.810446,0 130.810446,0 C130.810446,0 137.598631,8.56197875 160.376097,31.1670886 C168.69716,39.4251862 182.134538,54.3466273 199.701544,71.4547587 C221.610104,92.7910372 233.686388,114.712229 245.431336,106.679385 C257.176284,98.6465403 105.517335,91.005744 98.1497751,94.1671564 C84.1991832,100.153341 -5.92369277,116.091422 44.7171462,83.0664532 Z" id="Path-9" fill="url(#linearGradient-16)"></path>
                            <path d="M128.880319,43.8578758 C125.911163,52.9499875 115.75058,66.5977563 102.362826,69.4154958 C88.9750722,72.2332354 36.1065709,83.6622847 4.49433629,97.7411236 C-17.1260907,107.370007 58.0414135,69.4154958 78.1276316,52.9499875 C101.951992,33.4201683 130.831595,0 130.831595,0 C130.831595,0 131.849474,34.7657641 128.880319,43.8578758 Z" id="Path-25" fill="url(#linearGradient-17)"></path>
                            <path d="M116,16.5596634 C116,16.5596634 117.181784,21.4538746 119.788739,21.4538746 C122.395695,21.4538746 122.141308,19.1544111 124.729186,19.1544111 C127.941421,19.1544111 127.936749,25 131.518375,25 C135.049734,25 136.561131,19.4830978 138.802473,17.5092918 C141.043816,15.5354858 144,14.6132532 144,14.6132532 L130.854382,0.219810279 C130.854382,0.219810279 129.97624,0.450990757 128.906116,1.63784247 C127.835992,2.82469418 116,16.5596634 116,16.5596634 Z" id="Path-25-Copy-2" fill="#F6F1F1"></path>
                            <path d="M116,16.1816482 C116,16.1816482 117.148274,21.5768575 119.740311,21.5768575 C122.332349,21.5768575 122.147692,18.9202627 124.720761,18.9202627 C127.628248,18.9202627 127.288799,23.9329813 130.892705,24.9982496 C131.121861,25.0930984 130.916296,21.3209367 130.892705,16.6797894 C130.855736,9.40670282 130.892705,6.82121026e-13 130.892705,6.82121026e-13 C130.892705,6.82121026e-13 130.652827,0.0155683551 130.41228,0.0836873662 C130.171733,0.151806377 129.857773,0.313113029 129.30067,0.95960132 C128.23667,2.19431709 116,16.1816482 116,16.1816482 Z" id="Path-25-Copy-4" fill="#E2E2E2"></path>
                        </g>
                        <path d="M191.312381,334.04783 C204.006123,308.392773 209.329924,301.232575 216.480217,294.489767 C223.63051,287.746959 235.668719,276.526021 259.824389,276.526021 L286.545011,276.526021 C294.376052,276.526021 294.553366,275.449333 294.553366,255.038597 C294.553366,234.627861 291.286234,235.000462 322.73205,235.000462 C354.177866,235.000462 308.500058,235.000462 472.252549,235.730825 C524.973388,235.965969 576.974469,235.327114 623.486591,235.674988 C721.442501,236.407621 642.005849,276.526021 614.326514,294.489767 C556.685971,331.898183 178.618639,359.702888 191.312381,334.04783 Z" id="Path-5-Copy-6" fill="url(#linearGradient-18)"></path>
                        <g id="Group-9-Copy-3" stroke-width="1" fill="none" transform="translate(464.000000, 235.000000)">
                            <path d="M199.593758,2.11201951 L51.4799845,2.68175937 C51.4799845,2.68175937 40.3496485,3.0110445 40.3496485,13.6461884 C40.3496485,24.2813324 40.3496485,80.5318302 40.3496485,80.5318302 C40.3496485,80.5318302 30.7897163,84.9386589 18.8414684,86.8657623 C6.89322052,88.7928656 0.122649706,89.5316232 0.122649706,89.5316232 C0.122649706,89.5316232 0.122649706,13.5074304 0.122649706,10.2724083 C0.122649706,7.03738617 -1.35753821,0 9.51266212,7.66510474e-17 C20.3828625,1.53302095e-16 198.317732,0 198.317732,0 L199.593758,2.11201951 Z" id="Path-7" fill="#CCFCF4"></path>
                            <path d="M193.275085,2.11201951 L55.307968,2.68175937 C55.307968,2.68175937 44.5142505,3.0110445 44.5142505,13.6461884 C44.5142505,24.2813324 44.5142505,80.5318302 44.5142505,80.5318302 C44.5142505,80.5318302 35.2434425,83.7796766 23.6565495,85.70678 C12.0696566,87.6338833 5.50385039,88.3726409 5.50385039,88.3726409 L5.50385039,10.2724083 C5.50385039,10.2724083 3.64664091,5.94045617e-16 14.6098775,7.66510474e-17 C25.5731141,7.66510474e-17 192.03765,0 192.03765,0 L193.275085,2.11201951 Z" id="Path-7-Copy" fill="#9FEADF"></path>
                            <path d="M199.46503,2.11201951 L62.3317637,2.68175937 C62.3317637,2.68175937 51.5380462,3.0110445 51.5380462,13.6461884 C51.5380462,24.2813324 51.5380462,80.5318302 51.5380462,80.5318302 C51.5380462,80.5318302 42.2672382,83.7796766 30.6803452,85.70678 C19.0934522,87.6338833 12.5276461,88.3726409 12.5276461,88.3726409 C12.5276461,88.3726409 11.9594258,15.7869013 12.5276461,10.2724083 C13.0958663,4.75791529 10.6704366,5.94045617e-16 21.6336732,7.66510474e-17 C32.5969098,7.66510474e-17 198.227595,0 198.227595,0 L199.46503,2.11201951 Z" id="Path-7-Copy-8" fill="#6BC3B7"></path>
                            <path d="M177.938929,2.11201951 L39.8162651,2.68175937 C39.8162651,2.68175937 29.5533691,3.0110445 29.5533691,13.6461884 L29.5533691,80.5318302 C29.5533691,80.5318302 42.9059717,83.7796766 31.8889076,85.70678 C20.8718435,87.6338833 14.6289354,88.3726409 14.6289354,88.3726409 L14.6289354,10.2724083 C14.6289354,10.2724083 12.8630612,6.13208379e-16 23.2871396,7.66510474e-17 C33.7112179,7.66510474e-17 198.245037,0 198.245037,0 L177.938929,2.11201951 Z" id="Path-7-Copy-2" fill="#78D3C6"></path>
                            <path d="M199.529204,2.11201951 L54.1073009,2.68175937 C54.1073009,2.68175937 44.1033422,3.0110445 44.1033422,13.6461884 L44.1033422,80.5318302 C44.1033422,80.5318302 53.1936231,83.7796766 42.4545243,85.70678 C31.7154255,87.6338833 25.6300287,88.3726409 25.6300287,88.3726409 L25.6300287,10.2724083 C25.6300287,10.2724083 23.9087082,5.36557332e-16 34.0697825,0 L198.38231,0 L199.529204,2.11201951 Z" id="Path-7-Copy-3" fill="#6BC3B7"></path>
                            <path d="M199.445579,2.11201951 L67.9207657,2.68175937 C67.9207657,2.68175937 57.9168071,3.0110445 57.9168071,13.6461884 L57.9168071,80.5318302 C57.9168071,80.5318302 67.0070879,83.7796766 56.2679891,85.70678 C45.5288903,87.6338833 39.4434935,88.3726409 39.4434935,88.3726409 L39.4434935,10.2724083 C39.4434935,10.2724083 37.722173,5.36557332e-16 47.8832474,0 L198.298684,0 L199.445579,2.11201951 Z" id="Path-7-Copy-7" fill="#4DB0A2"></path>
                            <path d="M199.315783,2.11201951 L51.1348197,2.68175937 C51.1348197,2.68175937 41.429845,3.0110445 41.429845,13.6461884 L41.429845,80.5318302 C41.429845,80.5318302 50.6612201,83.7796766 40.243076,85.70678 C29.8249319,87.6338833 29.6068849,88.3726409 29.6068849,88.3726409 L29.6068849,10.2724083 C29.6068849,10.2724083 27.9370088,6.13208379e-16 37.7944036,7.66510474e-17 C47.6517984,7.66510474e-17 198.290503,0 198.290503,0 L199.315783,2.11201951 Z" id="Path-7-Copy-4" fill="#9FEADF"></path>
                            <path d="M185.356442,2.11201951 L53.1427697,2.68175937 C53.1427697,2.68175937 43.9933041,3.0110445 43.9933041,13.6461884 L43.9933041,80.5318302 C43.9933041,80.5318302 50.8847278,83.7796766 41.0629145,85.70678 C31.2411012,87.6338833 34.7515471,86.0573999 34.7515471,86.0573999 L34.7515471,10.2724083 C34.7515471,10.2724083 33.177254,6.13208379e-16 42.4704151,7.66510474e-17 C51.7635762,7.66510474e-17 198.27703,0 198.27703,0 L185.356442,2.11201951 Z" id="Path-7-Copy-5" fill="#78D1C4"></path>
                            <path d="M188.417269,2.11201951 L61.8313516,2.68175937 C61.8313516,2.68175937 53.1609201,3.0110445 53.1609201,13.6461884 C53.1609201,24.2813324 53.1609201,80.5318302 53.1609201,80.5318302 C53.1609201,80.5318302 43.4511245,85.70678 43.4300371,85.70678 C43.4089497,85.70678 43.4089497,10.2724083 43.4089497,10.2724083 C43.4089497,10.2724083 41.9170812,6.13208379e-16 50.7236849,7.66510474e-17 C59.5302885,7.66510474e-17 187.198507,0 187.198507,0 L188.417269,2.11201951 Z" id="Path-7-Copy-6" fill="#4FBEAE"></path>
                        </g>
                        <path d="M459.034993,280.840952 C459.034993,280.840952 425.263662,275.061861 391.706214,282.281788 C358.148767,289.501716 329.548378,313.690482 311.534495,321.894744 C293.520611,330.099006 289.01565,332.556217 261.889837,338.103868 C234.764024,343.651519 196.379148,343.150909 196.379148,343.150909 L125.907152,343.150909 C125.907152,343.150909 -0.772121853,357.093838 0.00354763932,372.949094 C0.779217132,388.80435 1.52689784,392.476959 2.40621937,399.798891 C2.40621937,399.798891 389.278242,399.798891 414.386484,399.798891 C439.494725,399.798891 998.187368,399.798891 1108,399.798891 C1145.78502,399.798891 1042.92822,339.942597 936.752756,330.918671 C830.57729,321.894744 819.127938,312.648407 778,285.544159 C718.110907,246.075882 690.843543,231.698969 660.103623,227.795098 C557.412498,214.753653 536.630268,276.865893 482.463926,282.281788 C469.180165,283.609983 459.034993,280.840952 459.034993,280.840952 Z" id="Path-3-Copy-7" fill="url(#linearGradient-19)"></path>
                        <g id="Group-9-Copy-4" stroke-width="1" fill="none" transform="translate(426.000000, 279.000000)">
                            <path d="M70.8668073,2.11201951 L51.4799845,2.68175937 C51.4799845,2.68175937 40.3496485,3.0110445 40.3496485,13.6461884 C40.3496485,24.2813324 40.3496485,80.5318302 40.3496485,80.5318302 C40.3496485,80.5318302 30.7897163,84.9386589 18.8414684,86.8657623 C6.89322052,88.7928656 0.122649706,89.5316232 0.122649706,89.5316232 C0.122649706,89.5316232 0.122649706,13.5074304 0.122649706,10.2724083 C0.122649706,7.03738617 -1.35753821,0 9.51266212,7.66510474e-17 C20.3828625,1.53302095e-16 69.5907807,0 69.5907807,0 L70.8668073,2.11201951 Z" id="Path-7" fill="#CCFCF4"></path>
                            <path d="M69.1426485,2.11201951 L55.307968,2.68175937 C55.307968,2.68175937 44.5142505,3.0110445 44.5142505,13.6461884 C44.5142505,24.2813324 44.5142505,80.5318302 44.5142505,80.5318302 C44.5142505,80.5318302 35.2434425,83.7796766 23.6565495,85.70678 C12.0696566,87.6338833 5.50385039,88.3726409 5.50385039,88.3726409 L5.50385039,10.2724083 C5.50385039,10.2724083 3.64664091,5.94045617e-16 14.6098775,7.66510474e-17 C25.5731141,7.66510474e-17 67.9052132,0 67.9052132,0 L69.1426485,2.11201951 Z" id="Path-7-Copy" fill="#9FEADF"></path>
                            <path d="M71.2768296,3.32010817 L62.3317637,4.21574286 C62.3317637,4.21574286 51.5380462,4.73338119 51.5380462,21.4518954 C51.5380462,38.1704096 51.5380462,126.596551 51.5380462,126.596551 C51.5380462,126.596551 42.2672382,131.702187 30.6803452,134.731606 C19.0934522,137.761024 12.5276461,138.922356 12.5276461,138.922356 C12.5276461,138.922356 11.9594258,24.8171097 12.5276461,16.1482914 C13.0958663,7.47947322 10.6704366,9.33843505e-16 21.6336732,1.20495936e-16 C32.5969098,1.20495936e-16 70.0393943,0 70.0393943,0 L71.2768296,3.32010817 Z" id="Path-7-Copy-8" fill="#6BC3B7"></path>
                            <path d="M51.9741771,3.32010817 L39.8162651,4.21574286 C39.8162651,4.21574286 29.5533691,4.73338119 29.5533691,21.4518954 L29.5533691,126.596551 C29.5533691,126.596551 42.9059717,131.702187 31.8889076,134.731606 C20.8718435,137.761024 14.6289354,138.922356 14.6289354,138.922356 L14.6289354,16.1482914 C14.6289354,16.1482914 12.8630612,9.63967489e-16 23.2871396,1.20495936e-16 C33.7112179,1.20495936e-16 72.2802845,0 72.2802845,0 L51.9741771,3.32010817 Z" id="Path-7-Copy-2" fill="#78D3C6"></path>
                            <path d="M69.5399202,3.32010817 L54.1073009,4.21574286 C54.1073009,4.21574286 44.1033422,4.73338119 44.1033422,21.4518954 L44.1033422,126.596551 C44.1033422,126.596551 53.1936231,131.702187 42.4545243,134.731606 C31.7154255,137.761024 25.6300287,138.922356 25.6300287,138.922356 L25.6300287,16.1482914 C25.6300287,16.1482914 23.9087082,8.43471553e-16 34.0697825,0 L68.393026,0 L69.5399202,3.32010817 Z" id="Path-7-Copy-3" fill="#6BC3B7"></path>
                            <path d="M69.0676599,3.32010817 L67.9207657,4.21574286 C67.9207657,4.21574286 57.9168071,4.73338119 57.9168071,21.4518954 L57.9168071,126.596551 C57.9168071,126.596551 67.0070879,131.702187 56.2679891,134.731606 C45.5288903,137.761024 39.4434935,138.922356 39.4434935,138.922356 L39.4434935,16.1482914 C39.4434935,16.1482914 37.722173,8.43471553e-16 47.8832474,0 L67.9207657,0 L69.0676599,3.32010817 Z" id="Path-7-Copy-7" fill="#4DB0A2"></path>
                            <path d="M70.9949868,3.32010817 L51.1348197,4.21574286 C51.1348197,4.21574286 41.429845,4.73338119 41.429845,21.4518954 L41.429845,126.596551 C41.429845,126.596551 50.6612201,131.702187 40.243076,134.731606 C29.8249319,137.761024 29.6068849,138.922356 29.6068849,138.922356 L29.6068849,16.1482914 C29.6068849,16.1482914 27.9370088,9.63967489e-16 37.7944036,1.20495936e-16 C47.6517984,1.20495936e-16 69.9697068,0 69.9697068,0 L70.9949868,3.32010817 Z" id="Path-7-Copy-4" fill="#9FEADF"></path>
                            <path d="M62.4586149,3.32010817 L53.1427697,4.21574286 C53.1427697,4.21574286 43.9933041,4.73338119 43.9933041,21.4518954 L43.9933041,126.596551 C43.9933041,126.596551 50.8847278,131.702187 41.0629145,134.731606 C31.2411012,137.761024 34.7515471,135.282782 34.7515471,135.282782 L34.7515471,16.1482914 C34.7515471,16.1482914 33.177254,9.63967489e-16 42.4704151,1.20495936e-16 C51.7635762,1.20495936e-16 75.3792025,0 75.3792025,0 L62.4586149,3.32010817 Z" id="Path-7-Copy-5" fill="#78D1C4"></path>
                            <path d="M68.6666506,3.32010817 L61.8313516,4.21574286 C61.8313516,4.21574286 53.1609201,4.73338119 53.1609201,21.4518954 C53.1609201,38.1704096 53.1609201,126.596551 53.1609201,126.596551 C53.1609201,126.596551 43.4511245,134.731606 43.4300371,134.731606 C43.4089497,134.731606 43.4089497,16.1482914 43.4089497,16.1482914 C43.4089497,16.1482914 41.9170812,9.63967489e-16 50.7236849,1.20495936e-16 C59.5302885,1.20495936e-16 67.4478887,0 67.4478887,0 L68.6666506,3.32010817 Z" id="Path-7-Copy-6" fill="#4FBEAE"></path>
                        </g>
                    </g>
                </g>
            </g>
        </g>
    </g>
</svg>