<?xml version="1.0" encoding="utf-8"?>
<!-- Generator: Adobe Illustrator 23.0.0, SVG Export Plug-In . SVG Version: 6.00 Build 0)  -->
<svg version="1.1" id="Layer_1" xmlns="http://www.w3.org/2000/svg" xmlns:xlink="http://www.w3.org/1999/xlink" x="0px" y="0px"
	 viewBox="0 0 28.3 28.3" style="enable-background:new 0 0 28.3 28.3;" xml:space="preserve">
<style type="text/css">
	<!-- .st0{fill:url(#SVGID_1_);}
	.st1{fill:url(#SVGID_2_);}
	.st2{fill:url(#SVGID_3_);}
	.st3{fill:url(#SVGID_4_);}
	.st4{fill:url(#SVGID_5_);} -->
	.st0{fill:white;}
	.st1{fill:white;}
	.st2{fill:white;}
	.st3{fill:white;}
	.st4{fill:white;}
</style>
<title>Send to Front</title>
<g>
	<g>
		<g id="Icons">
			
				<image style="overflow:visible;opacity:0.25;enable-background:new    ;" width="38" height="41" xlink:href="FA3BA1F5E0F3BE73.png"  transform="matrix(1 0 0 1 -1.3867 -4.4178)">
			</image>
			
				<linearGradient id="SVGID_1_" gradientUnits="userSpaceOnUse" x1="1.2721" y1="24.1605" x2="28.1621" y2="4.4005" gradientTransform="matrix(1 0 0 -1 0 33.0542)">
				<stop  offset="0" style="stop-color:#F0F0F0"/>
				<stop  offset="0.71" style="stop-color:#CCCCCC"/>
			</linearGradient>
			<path class="st0" d="M25.5,21.6h-8v-2.4l0,0V15l0,0v-2.3l0,0V8.4l0,0V6.5h1.2c0.5,0,0.9-0.4,0.9-0.9c0-0.2-0.1-0.5-0.3-0.6
				l-4.6-4.6c-0.4-0.4-0.9-0.4-1.3,0c0,0,0,0,0,0L9,4.9C8.6,5.3,8.7,5.9,9,6.2c0.2,0.2,0.4,0.2,0.6,0.3h1.2v1.9l0,0v4.2l0,0V15l0,0
				v4.2l0,0v2.4h-8c-0.7,0-1.2,0.5-1.2,1.1c0,0,0,0,0,0v4.3c0,0.7,0.5,1.2,1.2,1.2c0,0,0,0,0,0h22.7c0.7,0,1.2-0.5,1.2-1.2
				c0,0,0,0,0,0v-4.3C26.7,22.1,26.2,21.6,25.5,21.6C25.6,21.6,25.5,21.6,25.5,21.6z"/>
			
				<linearGradient id="SVGID_2_" gradientUnits="userSpaceOnUse" x1="2.0623" y1="24.997" x2="27.5423" y2="6.267" gradientTransform="matrix(1 0 0 -1 0 33.0542)">
				<stop  offset="0" style="stop-color:#F0F0F0"/>
				<stop  offset="0.71" style="stop-color:#CCCCCC"/>
			</linearGradient>
			<path class="st1" d="M9.1,8.6H2.6c-0.5,0-1,0.4-1,0.9c0,0,0,0,0,0.1v2.3c0,0.5,0.4,0.9,0.9,0.9c0,0,0,0,0.1,0h6.5L9.1,8.6z"/>
			
				<linearGradient id="SVGID_3_" gradientUnits="userSpaceOnUse" x1="-0.9013" y1="20.7558" x2="24.5887" y2="2.0258" gradientTransform="matrix(1 0 0 -1 0 33.0542)">
				<stop  offset="0" style="stop-color:#F0F0F0"/>
				<stop  offset="0.71" style="stop-color:#CCCCCC"/>
			</linearGradient>
			<path class="st2" d="M9.1,15.1H2.6c-0.5,0-1,0.3-1,0.9c0,0,0,0,0,0.1v2.3c0,0.5,0.4,0.9,0.9,0.9c0,0,0,0,0.1,0h6.5L9.1,15.1z"/>
			
				<linearGradient id="SVGID_4_" gradientUnits="userSpaceOnUse" x1="8.8867" y1="32.4531" x2="34.4067" y2="13.7031" gradientTransform="matrix(1 0 0 -1 0 33.0542)">
				<stop  offset="0" style="stop-color:#F0F0F0"/>
				<stop  offset="0.71" style="stop-color:#CCCCCC"/>
			</linearGradient>
			<path class="st3" d="M25.8,8.6h-6.5v4.2h6.6c0.5,0,0.9-0.4,1-0.9V9.6C26.7,9.1,26.3,8.7,25.8,8.6z"/>
			
				<linearGradient id="SVGID_5_" gradientUnits="userSpaceOnUse" x1="5.9251" y1="28.2246" x2="31.4451" y2="9.4646" gradientTransform="matrix(1 0 0 -1 0 33.0542)">
				<stop  offset="0" style="stop-color:#F0F0F0"/>
				<stop  offset="0.71" style="stop-color:#CCCCCC"/>
			</linearGradient>
			<path class="st4" d="M25.8,15.1h-6.5v4.1h6.6c0.5,0,0.9-0.4,1-0.9V16C26.7,15.5,26.3,15.1,25.8,15.1z"/>
		</g>
	</g>
</g>
</svg>
