<?xml version="1.0" encoding="utf-8"?>
<!-- Generator: Adobe Illustrator 23.0.0, SVG Export Plug-In . SVG Version: 6.00 Build 0)  -->
<svg version="1.1" id="Layer_1" xmlns="http://www.w3.org/2000/svg" xmlns:xlink="http://www.w3.org/1999/xlink" x="0px" y="0px"
	 viewBox="0 0 92 92" style="enable-background:new 0 0 92 92;" xml:space="preserve">
<style type="text/css">
	.st0{fill:#BFBFBF;}
</style>
<path class="st0" d="M83,1.5C82.6,1.2,82.2,1,81.7,1c-0.9,0-1.6,0.6-2.2,1.3l-1.1,0.8c-0.1,0-0.1,0.1-0.1,0.1L36.6,53.5
	c-0.1,0.1-0.1,0.2-0.1,0.3l-1.4,7.1c-0.4-0.3-1.1-0.3-1.6,0.3c-2,2.7-7.3-1.5-10.1,0.5c-2,1.4-2.3,3.5-1.6,5.8c1,3,3.1,5.7,4.9,8.2
	c0.1,0.1,0.1,0.2,0.2,0.3c-5.1-1.9-11.4-5.3-15.7-2.8c-3,1.7-3.6,4.9-2.8,8.1c0.4,1.4,1,2.7,1.5,4c0,0.1,0.1,0.2,0.1,0.3
	c-0.1,0-0.1,0.1-0.2,0.2c-1.2,0.8-1.4,2.3-0.4,3.4c2,2.3,5.3,2.2,7.6,0.3c2.1-1.9,1.7-4.8,0.9-7.3c0.9,0.3,1.7,0.6,2.6,0.9
	c3.7,1.3,7.7,2.8,11.7,2.7c3.2-0.1,7-3,5.7-6.6c-1.1-3.1-3.7-5.2-6-7.4c-1.4-1.3-2.7-2.7-4-4.1c-1.4-1.5-3.7-3.7,0-3.1
	c3,0.5,6.8,1.2,7.6-2.6c0-0.1,0-0.2,0-0.3c0.1,0,0.2,0.1,0.2,0.1c0.1,0,0.2,0,0.3-0.1l6.6-3c0.1,0,0.2-0.1,0.3-0.2l39.5-52
	c0,0,0.1-0.1,0.1-0.2L83,5C83.5,4.4,84.6,2.8,83,1.5z M36.6,60l1.1-5.5l0,0c0.5,0,1.3,0.4,2.4,1.2c1.1,0.9,1.6,1.8,1.7,2.1L36.6,60z
	 M62,31.2L42.8,56.5c-0.4-0.7-1.2-1.5-1.9-2.1l0,0l0,0l0,0l0,0c-0.7-0.6-1.5-1-2.2-1.2l20.2-24.4l0.1-0.1c0,0,0.1,0,0.1-0.1
	c0,0,0,0,0.2,0l0,0c0.3,0,1,0.2,1.7,0.8l0,0l0,0c0.8,0.6,1.1,1.3,1.1,1.6l0,0l0,0C62.1,31.1,62,31.1,62,31.2z M63.1,29.8
	c-0.3-0.5-0.8-1-1.4-1.5c-0.6-0.4-1.1-0.7-1.7-0.9L79.2,4.3c0.1,0.4,0.4,0.8,0.8,1.1s0.8,0.5,1.3,0.5L63.1,29.8z M82,4.2
	c-0.1,0-0.1,0.1-0.2,0.1c-0.1,0.1-0.3,0.2-0.4,0.2c-0.2,0-0.4-0.1-0.6-0.2c-0.2-0.2-0.4-0.5-0.4-0.7c0-0.1,0-0.2,0.1-0.3l0,0
	c0.3-0.4,0.8-0.9,1.2-0.9c0.1,0,0.3,0.1,0.5,0.2C82.6,2.9,82.7,3.1,82,4.2z"/>
</svg>
