<?xml version="1.0" encoding="iso-8859-1"?>
<!-- Generator: Adobe Illustrator 16.0.0, SVG Export Plug-In . SVG Version: 6.00 Build 0)  -->
<!DOCTYPE svg PUBLIC "-//W3C//DTD SVG 1.1//EN" "http://www.w3.org/Graphics/SVG/1.1/DTD/svg11.dtd">
<svg xmlns="http://www.w3.org/2000/svg" xmlns:xlink="http://www.w3.org/1999/xlink" version="1.1" id="Capa_1" x="0px" y="0px" width="512px" height="512px" viewBox="0 0 365.28 365.28" style="enable-background:new 0 0 365.28 365.28;" xml:space="preserve">
<g>
	<path d="M364.091,335.48c-19.584-32.436-40.392-64.26-59.976-96.695c-3.672-6.12-14.076-3.673-13.465,3.672   c0,14.076,0.612,27.54,0.612,41.616c-9.792-10.404-12.24-22.645-14.076-37.332c-1.224-6.12-3.672-12.853-10.403-14.688   c-10.404-3.06-22.032,7.344-29.988,12.852c-20.196,14.076-38.556,30.601-60.588,42.229c-25.704,12.852-26.316-5.508-20.808-25.704   c5.508-21.42,15.3-42.84,26.316-61.812c19.584-33.048,42.229-67.32,47.736-105.876c3.06-21.42-7.956-53.856-34.885-52.632   c-33.047,1.224-70.992,25.704-92.412,50.184c-12.24,12.24-82.008,104.04-88.74,51.408c-4.896-38.556,26.928-85.68,45.9-117.504   c2.448-4.284-3.672-8.568-6.732-4.896C28.715,49.677,9.743,87.009,1.175,124.341c-4.284,20.196,2.448,57.528,31.824,49.572   c34.272-9.18,56.916-47.736,78.948-73.44c13.464-16.524,34.884-28.764,53.244-38.556c39.168-20.808,56.916,9.792,47.124,45.288   c-12.239,43.452-43.452,78.947-61.2,119.952c-6.12,14.688-28.152,63.647-4.284,75.888c27.54,14.076,64.26-20.809,83.844-36.108   c-1.224,0.612,31.212-25.704,33.048-20.195c1.836,5.508,1.836,12.239,3.061,18.359c2.447,11.628,7.344,20.809,15.3,28.152   c-11.628-0.612-23.256,0-34.884,1.836c-6.12,1.224-6.732,10.404-1.836,13.464c34.884,19.584,74.052,24.48,111.384,37.332   C362.255,348.333,367.763,340.989,364.091,335.48z M297.995,304.269c3.672,0,4.896-3.06,4.284-5.508   c1.836-1.224,3.06-3.06,3.06-5.508c0-7.956,0-16.524,0-24.48c12.24,19.584,24.48,38.557,36.72,58.141   c-23.256-6.732-47.124-11.628-69.155-20.809C280.859,305.493,289.427,304.881,297.995,304.269z" fill="#FFFFFF"/>
</g>
<g>
</g>
<g>
</g>
<g>
</g>
<g>
</g>
<g>
</g>
<g>
</g>
<g>
</g>
<g>
</g>
<g>
</g>
<g>
</g>
<g>
</g>
<g>
</g>
<g>
</g>
<g>
</g>
<g>
</g>
</svg>
