<?xml version="1.0" encoding="utf-8"?>
<!-- Generator: Adobe Illustrator 23.0.3, SVG Export Plug-In . SVG Version: 6.00 Build 0)  -->
<svg version="1.1" id="Layer_1" xmlns="http://www.w3.org/2000/svg" xmlns:xlink="http://www.w3.org/1999/xlink" x="0px" y="0px"
	 viewBox="0 0 61 61" style="enable-background:new 0 0 61 61;" xml:space="preserve">
<style type="text/css">
	.st0{fill-rule:evenodd;clip-rule:evenodd;fill:#FFFFFF;}
</style>
<title>Group 2</title>
<desc>Created with Sketch.</desc>
<path class="st0" d="M43.3,48.8L12.2,17.7c-1.5-1.5-1.5-4,0-5.6l0,0c1.5-1.5,4-1.5,5.6,0l31,31.2c1.5,1.5,1.5,4,0,5.6l0,0
	C47.3,50.4,44.8,50.4,43.3,48.8z"/>
<path class="st0" d="M48.8,17.7L17.7,48.8c-1.5,1.5-4,1.5-5.6,0l0,0c-1.5-1.5-1.5-4,0-5.6l31.2-31c1.5-1.5,4-1.5,5.6,0l0,0
	C50.4,13.7,50.4,16.2,48.8,17.7z"/>
</svg>
