<svg width="27" height="27" viewBox="0 0 27 27" fill="none" xmlns="http://www.w3.org/2000/svg">
<path d="M13.5 0C6.05368 0 0 6.05368 0 13.5C0 20.9463 6.05368 27 13.5 27C20.9463 27 27 20.9463 27 13.5C27 6.05368 20.9463 0 13.5 0ZM13.5 24.2716C7.56 24.2716 2.72842 19.44 2.72842 13.5C2.72842 7.56 7.56 2.72842 13.5 2.72842C19.44 2.72842 24.2716 7.56 24.2716 13.5C24.2716 19.44 19.44 24.2716 13.5 24.2716Z" fill="white"/>
<path d="M18.0756 8.92423C17.5356 8.38423 16.683 8.38423 16.143 8.92423L13.4998 11.5674L10.8567 8.92423C10.3167 8.38423 9.46404 8.38423 8.92404 8.92423C8.38404 9.46423 8.38404 10.3169 8.92404 10.8569L11.5672 13.5L8.92404 16.1432C8.38404 16.6832 8.38404 17.5358 8.92404 18.0758C9.17983 18.3316 9.54931 18.4737 9.89036 18.4737C10.2314 18.4737 10.6009 18.3316 10.8567 18.0758L13.4998 15.4326L16.143 18.0758C16.3988 18.3316 16.7683 18.4737 17.1093 18.4737C17.4504 18.4737 17.8198 18.3316 18.0756 18.0758C18.6156 17.5358 18.6156 16.6832 18.0756 16.1432L15.4325 13.5L18.0756 10.8569C18.5872 10.3453 18.5872 9.46423 18.0756 8.92423Z" fill="white"/>
</svg>
