<?xml version="1.0" encoding="utf-8"?>
<!-- Generator: Adobe Illustrator 23.0.0, SVG Export Plug-In . SVG Version: 6.00 Build 0)  -->
<svg version="1.1" id="Layer_1" xmlns="http://www.w3.org/2000/svg" xmlns:xlink="http://www.w3.org/1999/xlink" x="0px" y="0px"
	 viewBox="0 0 66.5 67" style="enable-background:new 0 0 66.5 67;" xml:space="preserve">
<style type="text/css">
	.st0{fill:#BFBFBF;}
	.st1{fill:#FFFFFF;}
</style>
<g>
	<path class="st0" d="M2.3,64.7C3.9,66.3,5.9,67,8,67s4.1-0.8,5.7-2.3l18.8-18.9l18.8,18.8c1.6,1.6,3.6,2.3,5.7,2.3s4.1-0.8,5.7-2.3
		c3.1-3.1,3.1-8.2,0-11.3L43.8,34.5l18.8-18.8c3.1-3.1,3.1-8.2,0-11.3s-8.2-3.1-11.3,0L32.5,23.2L13.7,4.3c-3.1-3.1-8.2-3.1-11.3,0
		s-3.1,8.2,0,11.3l18.8,18.9L2.3,53.3C-0.8,56.5-0.8,61.5,2.3,64.7z"/>
	<g>
		<path class="st1" d="M3.8,63.2c1.6,1.6,3.6,2.3,5.7,2.3s4.1-0.8,5.7-2.3L34,44.3l18.8,18.8c1.6,1.6,3.6,2.3,5.7,2.3
			s4.1-0.8,5.7-2.3c3.1-3.1,3.1-8.2,0-11.3L45.3,33l18.8-18.8c3.1-3.1,3.1-8.2,0-11.3s-8.2-3.1-11.3,0L34,21.7L15.2,2.8
			C12.1-0.3,7-0.3,3.9,2.8s-3.1,8.2,0,11.3L22.7,33L3.8,51.8C0.7,55,0.7,60,3.8,63.2z"/>
	</g>
</g>
</svg>
