<?xml version="1.0" encoding="utf-8"?>
<!-- Generator: Adobe Illustrator 23.0.0, SVG Export Plug-In . SVG Version: 6.00 Build 0)  -->
<svg version="1.1" id="Layer_1" xmlns="http://www.w3.org/2000/svg" xmlns:xlink="http://www.w3.org/1999/xlink" x="0px" y="0px"
	 viewBox="0 0 102 102" style="enable-background:new 0 0 102 102;" xml:space="preserve">
<style type="text/css">
	.st0{fill:none;stroke:#BFBFBF;stroke-width:6;stroke-miterlimit:10;}
	.st1{fill:#BFBFBF;}
</style>
<path class="st0" d="M85.1,97.8H16.9c-7,0-12.7-5.7-12.7-12.7V16.9c0-7,5.7-12.7,12.7-12.7H85c7,0,12.7,5.7,12.7,12.7V85
	C97.8,92.1,92.1,97.8,85.1,97.8z"/>
<g>
	<path class="st1" d="M73.2,48c0.8,0.8,1.2,1.8,1.2,3c0,1.2-0.4,2.2-1.2,3c-0.8,0.8-1.8,1.2-3,1.2h-15v14.9c0,1.2-0.4,2.2-1.2,3.1
		c-0.8,0.8-1.8,1.2-3,1.2c-1.2,0-2.2-0.4-3-1.2c-0.8-0.8-1.2-1.9-1.2-3.1V55.2h-15c-1.2,0-2.2-0.4-3-1.2c-0.8-0.8-1.2-1.8-1.2-3
		c0-1.2,0.4-2.2,1.2-3c0.8-0.8,1.8-1.2,3-1.2h15v-15c0-1.2,0.4-2.2,1.2-3c0.8-0.8,1.8-1.2,3-1.2c1.2,0,2.2,0.4,3,1.2
		c0.8,0.8,1.2,1.8,1.2,3v15h15C71.4,46.8,72.4,47.2,73.2,48z"/>
</g>
</svg>
