<?xml version="1.0" encoding="utf-8"?>
<!-- Generator: Adobe Illustrator 23.0.3, SVG Export Plug-In . SVG Version: 6.00 Build 0)  -->
<svg version="1.1" id="Layer_1" xmlns="http://www.w3.org/2000/svg" xmlns:xlink="http://www.w3.org/1999/xlink" x="0px" y="0px"
	 viewBox="0 0 36 36" style="enable-background:new 0 0 36 36;" xml:space="preserve">
<style type="text/css">
	.st0{stroke:#000000;stroke-width:0.75;}
	.st1{stroke:#000000;stroke-width:2;}
</style>
<path class="st0" d="M28.1,4.2C28,4,27.8,3.9,27.6,3.9c-0.2,0-0.4,0.1-0.5,0.2L16.6,14.6l0,0l0,0c0,0,0,0-0.1,0.1c0,0,0,0,0,0
	c0,0,0,0,0,0.1c0,0,0,0,0,0c0,0,0,0,0,0.1c0,0,0,0,0,0l-1.9,5.6c-0.1,0.3,0,0.6,0.2,0.7c0.1,0.1,0.3,0.2,0.5,0.2c0.1,0,0.2,0,0.2,0
	l5.6-1.9c0,0,0,0,0,0c0,0,0,0,0.1,0c0,0,0,0,0,0c0,0,0.1,0,0.1,0c0,0,0,0,0.1-0.1c0,0,0,0,0,0c0,0,0,0,0,0L31.8,8.9
	c0.1-0.1,0.2-0.3,0.2-0.5c0-0.2-0.1-0.4-0.2-0.5L28.1,4.2z M17.4,16.5l2.1,2.1l-3.1,1L17.4,16.5z M20.9,17.9l-2.7-2.7l9.4-9.4
	l2.7,2.7L20.9,17.9z"/>
<path class="st1" d="M27,18.1c-0.4,0-0.6,0.3-0.6,0.6v10.1c0,1.1-0.9,1.9-1.9,1.9H7.2c-1.1,0-1.9-0.9-1.9-1.9V11.6
	c0-1.1,0.9-1.9,1.9-1.9h10.1c0.4,0,0.6-0.3,0.6-0.6s-0.3-0.6-0.6-0.6H7.2c-1.8,0-3.2,1.5-3.2,3.2v17.3c0,1.8,1.5,3.2,3.2,3.2h17.3
	c1.8,0,3.2-1.5,3.2-3.2V18.7C27.7,18.4,27.4,18.1,27,18.1z"/>
</svg>
