<?xml version="1.0" encoding="utf-8"?>
<!-- Generator: Adobe Illustrator 23.0.3, SVG Export Plug-In . SVG Version: 6.00 Build 0)  -->
<svg version="1.1" id="Layer_1" xmlns="http://www.w3.org/2000/svg" xmlns:xlink="http://www.w3.org/1999/xlink" x="0px" y="0px"
	 viewBox="0 0 27.6 31.5" style="enable-background:new 0 0 27.6 31.5;" xml:space="preserve">
<title>Delete</title>
<path d="M23.5,10.3H4.1c-0.9,0-1.6,0.7-1.6,1.6c0,0.1,0,0.2,0,0.3c1,5.9,1.9,11.9,2.9,17.8c0.1,0.8,0.8,1.4,1.6,1.4h13.6
	c0.8,0,1.5-0.6,1.6-1.4c1-5.9,2-11.9,2.9-17.8c0.1-0.9-0.4-1.7-1.3-1.9C23.7,10.4,23.6,10.3,23.5,10.3z M10.8,27.8h-0.1
	c-0.5,0-1-0.4-1-0.9l-1-11.8c0-0.6,0.4-1,0.9-1.1c0.6,0,1,0.4,1.1,0.9l1,11.8C11.7,27.2,11.4,27.7,10.8,27.8z M17.8,26.9
	c0,0.5-0.5,0.9-1,0.9h-0.1c-0.5,0-1-0.5-0.9-1.1l1-11.8c0-0.6,0.5-1,1.1-0.9s1,0.5,0.9,1.1L17.8,26.9z"/>
<path d="M26.1,5h-5.6V3l0,0V1.7c0-1-0.8-1.7-1.7-1.7h-10C7.8,0,7,0.8,7,1.7V5H1.5C0.7,5.1,0,5.7,0,6.5S0.7,8,1.5,8h24.7
	c0.8,0,1.5-0.7,1.5-1.5C27.6,5.7,26.9,5.1,26.1,5z M9.8,4.6V3.1c0-0.3,0.2-0.5,0.4-0.5l0,0h7c0.3,0,0.5,0.2,0.5,0.5v1.5l0,0
	c0,0.2-0.1,0.4-0.3,0.4h-7.3C10,5,9.8,4.8,9.8,4.6z"/>
</svg>
