<?xml version="1.0" encoding="utf-8"?>
<!-- Generator: Adobe Illustrator 23.0.0, SVG Export Plug-In . SVG Version: 6.00 Build 0)  -->
<svg version="1.1" id="Layer_1" xmlns="http://www.w3.org/2000/svg" xmlns:xlink="http://www.w3.org/1999/xlink" x="0px" y="0px"
	 viewBox="0 0 470.6 470.6" style="enable-background:new 0 0 470.6 470.6;" xml:space="preserve">
<style type="text/css">
	.st0{fill:#BFBFBF;}
	.st1{fill:#FFFFFF;}
</style>
<title>delete</title>
<path class="st0" d="M226.5,370.9c6.6,0,12-5.4,12-12V229.6c0-6.6-5.4-12-12-12s-12,5.4-12,12v129.3
	C214.5,365.6,219.8,370.9,226.5,370.9z"/>
<path class="st0" d="M263,1h-73.1c-23.1,0-42.4,18.6-42.4,41.8V46H68.5c-17.6,0-32.1,14.8-32.1,32.4v54c0,17.6,14.5,31.6,32.1,31.6
	h3.6l0.5,253c0.1,28.7,23.3,51.9,52,52h203.5c28.7-0.1,51.9-23.3,52-52l0.5-253h3.6c17.6,0.2,31.9-13.9,32.1-31.5c0,0,0-0.1,0-0.1
	v-54c0-17.6-14.5-32.4-32.1-32.4h-78.8v-3.2C305.5,19.6,286.2,1,263,1z M171.5,42.8c0-9.9,8.5-17.8,18.5-17.8h73.1
	c9.9,0,18.5,7.9,18.5,17.8V46H171.5V42.8z M356.2,416.9c0,15.5-12.5,28-28,28.1H124.8c-15.5-0.1-28-12.6-28-28.1L96.3,164h260.5
	L356.2,416.9z M392.5,132c0,4.4-3.6,8-8,8h-316c-4.4,0-8-3.6-8-8V78c0-4.4,3.6-8,8-8h316c4.4,0,8,3.6,8,8V132z"/>
<path class="st0" d="M157.5,370.9c6.6,0,12-5.4,12-12V229.6c0-6.6-5.4-12-12-12s-12,5.4-12,12v129.3
	C145.5,365.6,150.8,370.9,157.5,370.9z"/>
<path class="st0" d="M295.5,370.9c6.6,0,12-5.4,12-12V229.6c0-6.6-5.4-12-12-12s-12,5.4-12,12v129.3
	C283.5,365.6,288.8,370.9,295.5,370.9z"/>
<path class="st1" d="M231.5,370.3c6.6,0,12-5.4,12-12V229c0-6.6-5.4-12-12-12s-12,5.4-12,12v129.3
	C219.5,365,224.9,370.3,231.5,370.3z"/>
<path class="st1" d="M268,0.4h-73.1c-23.1,0-42.4,18.6-42.4,41.8v3.2H73.6c-17.6,0-32.1,14.8-32.1,32.4v54
	c0,17.6,14.5,31.6,32.1,31.6h3.6l0.5,253c0.1,28.7,23.3,51.9,52,52h203.5c28.7-0.1,51.9-23.3,52-52l0.5-253h3.6
	c17.6,0.2,31.9-13.9,32.1-31.5c0,0,0-0.1,0-0.1v-54c0-17.6-14.5-32.4-32.1-32.4h-78.8v-3.2C310.5,19,291.2,0.4,268,0.4z M176.5,42.2
	c0-9.9,8.5-17.8,18.5-17.8h73.1c9.9,0,18.5,7.9,18.5,17.8v3.2H176.5V42.2z M361.2,416.3c0,15.5-12.5,28-28,28.1H129.8
	c-15.5-0.1-28-12.6-28-28.1l-0.5-252.9h260.5L361.2,416.3z M397.5,131.4c0,4.4-3.6,8-8,8h-316c-4.4,0-8-3.6-8-8v-54c0-4.4,3.6-8,8-8
	h316c4.4,0,8,3.6,8,8V131.4z"/>
<path class="st1" d="M162.5,370.3c6.6,0,12-5.4,12-12V229c0-6.6-5.4-12-12-12s-12,5.4-12,12v129.3
	C150.5,365,155.9,370.3,162.5,370.3z"/>
<path class="st1" d="M300.5,370.3c6.6,0,12-5.4,12-12V229c0-6.6-5.4-12-12-12s-12,5.4-12,12v129.3
	C288.5,365,293.9,370.3,300.5,370.3z"/>
</svg>
