<?xml version="1.0" encoding="utf-8"?>
<!-- Generator: Adobe Illustrator 23.0.0, SVG Export Plug-In . SVG Version: 6.00 Build 0)  -->
<svg version="1.1" xmlns="http://www.w3.org/2000/svg" xmlns:xlink="http://www.w3.org/1999/xlink" x="0px" y="0px"
	 viewBox="0 0 102 102" style="enable-background:new 0 0 102 102;" xml:space="preserve">
<style type="text/css">
	.st0{fill:#BFBFBF;}
	.st1{fill:#FFFFFF;}
</style>
<g id="Layer_2">
</g>
<g id="Layer_1">
	<g>
		<path class="st0" d="M86.5,5H34.1c-6,0-10.9,4.9-10.9,10.9v10h-10c-6,0-10.9,4.9-10.9,10.9v52.4c0,6,4.9,10.9,10.9,10.9h52.4
			c6,0,10.9-4.9,10.9-10.9v-10h10c6,0,10.9-4.9,10.9-10.9V15.9C97.4,9.9,92.5,5,86.5,5z M70.3,89.1c0,2.6-2.1,4.7-4.7,4.7H13.3
			c-2.6,0-4.7-2.1-4.7-4.7V36.7c0-2.6,2.1-4.7,4.7-4.7h52.4c2.6,0,4.7,2.1,4.7,4.7L70.3,89.1L70.3,89.1z M91.2,68.3
			c0,2.6-2.1,4.7-4.7,4.7h-10V36.7c0-6-4.9-10.9-10.9-10.9H29.4v-10c0-2.6,2.1-4.7,4.7-4.7h52.4c2.6,0,4.7,2.1,4.7,4.7V68.3z"/>
		<path class="st0" d="M55.9,59.8H42.6V46.5c0-1.7-1.4-3.1-3.1-3.1s-3.1,1.4-3.1,3.1v13.3H23c-1.7,0-3.1,1.4-3.1,3.1
			c0,1.7,1.4,3.1,3.1,3.1h13.3v13.3c0,1.7,1.4,3.1,3.1,3.1s3.1-1.4,3.1-3.1V66h13.4c1.7,0,3.1-1.4,3.1-3.1S57.6,59.8,55.9,59.8z"/>
	</g>
	<g>
		<path class="st1" d="M87.7,4.2H35.3c-6,0-10.9,4.9-10.9,10.9v10h-10C8.4,25.1,3.5,30,3.5,36v52.4c0,6,4.9,10.9,10.9,10.9h52.4
			c6,0,10.9-4.9,10.9-10.9v-10h10c6,0,10.9-4.9,10.9-10.9V15.1C98.6,9.1,93.7,4.2,87.7,4.2z M71.5,88.3c0,2.6-2.1,4.7-4.7,4.7H14.5
			c-2.6,0-4.7-2.1-4.7-4.7V35.9c0-2.6,2.1-4.7,4.7-4.7h52.4c2.6,0,4.7,2.1,4.7,4.7L71.5,88.3L71.5,88.3z M92.4,67.5
			c0,2.6-2.1,4.7-4.7,4.7h-10V35.9c0-6-4.9-10.9-10.9-10.9H30.6V15c0-2.6,2.1-4.7,4.7-4.7h52.4c2.6,0,4.7,2.1,4.7,4.7V67.5z"/>
		<path class="st1" d="M57.1,59H43.8V45.7c0-1.7-1.4-3.1-3.1-3.1s-3.1,1.4-3.1,3.1V59H24.2c-1.7,0-3.1,1.4-3.1,3.1s1.4,3.1,3.1,3.1
			h13.3v13.3c0,1.7,1.4,3.1,3.1,3.1s3.1-1.4,3.1-3.1V65.2h13.4c1.7,0,3.1-1.4,3.1-3.1S58.8,59,57.1,59z"/>
	</g>
</g>
</svg>
