<?xml version="1.0" encoding="utf-8"?>
<!-- Generator: Adobe Illustrator 23.0.0, SVG Export Plug-In . SVG Version: 6.00 Build 0)  -->
<svg version="1.1" id="Layer_1" xmlns="http://www.w3.org/2000/svg" xmlns:xlink="http://www.w3.org/1999/xlink" x="0px" y="0px"
	 viewBox="0 0 28 28" style="enable-background:new 0 0 28 28;" xml:space="preserve">
<style type="text/css">
	<!-- .st0{fill:url(#SVGID_1_);} -->
	.st0{fill:white;}
</style>
<title>Ellipse_1</title>
<g>
	<g>
		<g id="Icons">
			
				<image style="overflow:visible;opacity:0.25;enable-background:new    ;" width="41" height="41" xlink:href="883B710904F434FE.png"  transform="matrix(1 0 0 1 -4.0001 -4.8296)">
			</image>
			
				<linearGradient id="SVGID_1_" gradientUnits="userSpaceOnUse" x1="4.3051" y1="28.2826" x2="22.2151" y2="9.7126" gradientTransform="matrix(1 0 0 -1 0 32.2305)">
				<stop  offset="0" style="stop-color:#F0F0F0"/>
				<stop  offset="0.71" style="stop-color:#CCCCCC"/>
			</linearGradient>
			<path class="st0" d="M13.9,0C6.2,0.1-0.1,6.4,0,14.1c0.1,7.7,6.4,14,14.1,13.9C21.8,27.9,28,21.7,28,14c0-7.7-6.2-14-14-14
				C14,0,13.9,0,13.9,0z M3.4,14c0-5.8,4.8-10.5,10.6-10.5c5.8,0,10.5,4.8,10.5,10.6c0,5.8-4.7,10.5-10.5,10.5
				C8.1,24.6,3.4,19.9,3.4,14L3.4,14z M13.9,25.6L13.9,25.6z"/>
		</g>
	</g>
</g>
</svg>
