<svg xmlns="http://www.w3.org/2000/svg" viewBox="0 0 20 20" width="20" height="20">
	<style>
		tspan { white-space:pre }
		.shp0 { fill: #000000 } 
	</style>
	<path id="Layer" fill-rule="evenodd" class="shp0" d="M20 4.05L20 16.64C20 17.98 18.91 19.07 17.57 19.07L2.43 19.07C1.09 19.07 0 17.98 0 16.64L0 4.05C0 2.71 1.09 1.62 2.43 1.62L4.29 1.62L4.29 0.75C4.29 0.34 4.62 0 5.04 0C5.46 0 5.79 0.34 5.79 0.75L5.79 1.62L14.21 1.62L14.21 0.75C14.21 0.34 14.54 0 14.96 0C15.38 0 15.71 0.34 15.71 0.75L15.71 1.62L17.57 1.62C18.91 1.62 20 2.71 20 4.05ZM1.51 4.05L1.51 7.27L18.49 7.27L18.49 4.05C18.49 3.54 18.08 3.13 17.57 3.13L15.71 3.13L15.71 4.97C15.71 5.39 15.38 5.72 14.96 5.72C14.54 5.72 14.21 5.39 14.21 4.97L14.21 3.13L5.79 3.13L5.79 4.97C5.79 5.39 5.46 5.72 5.04 5.72C4.62 5.72 4.29 5.39 4.29 4.97L4.29 3.13L2.43 3.13C1.92 3.13 1.51 3.54 1.51 4.05ZM18.49 16.64L18.49 8.78L1.51 8.78L1.51 16.64C1.51 17.15 1.92 17.56 2.43 17.56L17.57 17.56C18.08 17.56 18.49 17.15 18.49 16.64Z" />
	<path id="Layer" class="shp0" d="M12.48 10.41L9.21 13.54L7.66 11.99C7.37 11.7 6.89 11.7 6.6 11.99C6.3 12.29 6.3 12.76 6.6 13.06L8.67 15.13C8.81 15.27 9.01 15.35 9.2 15.35C9.39 15.35 9.57 15.28 9.72 15.14L13.52 11.5C13.82 11.21 13.83 10.74 13.55 10.44C13.26 10.14 12.78 10.13 12.48 10.41Z" />
</svg>