<svg width="17" height="17" viewBox="0 0 17 17" fill="none" xmlns="http://www.w3.org/2000/svg">
<path d="M8.5 7.52786C7.94766 7.52786 7.5 7.9742 7.5 8.52493C7.5 9.07565 7.94766 9.52199 8.5 9.52199C9.05234 9.52199 9.5 9.07565 9.5 8.52493C9.5 7.9742 9.05234 7.52786 8.5 7.52786ZM6 10.0205C5.44766 10.0205 5 10.4669 5 11.0176C5 11.5683 5.44766 12.0147 6 12.0147C6.55234 12.0147 7 11.5683 7 11.0176C7 10.4669 6.55234 10.0205 6 10.0205ZM11 5.03519C10.4477 5.03519 10 5.48153 10 6.03226C10 6.58298 10.4477 7.02933 11 7.02933C11.5523 7.02933 12 6.58298 12 6.03226C12 5.48153 11.5523 5.03519 11 5.03519ZM11 10.0205C10.4477 10.0205 10 10.4669 10 11.0176C10 11.5683 10.4477 12.0147 11 12.0147C11.5523 12.0147 12 11.5683 12 11.0176C12 10.4669 11.5523 10.0205 11 10.0205ZM3.5 7.52786C2.94766 7.52786 2.5 7.9742 2.5 8.52493C2.5 9.07565 2.94766 9.52199 3.5 9.52199C4.05234 9.52199 4.5 9.07565 4.5 8.52493C4.5 7.9742 4.05234 7.52786 3.5 7.52786ZM1 5.03519C0.447656 5.03519 0 5.48153 0 6.03226C0 6.58298 0.447656 7.02933 1 7.02933C1.55234 7.02933 2 6.58298 2 6.03226C2 5.48153 1.55234 5.03519 1 5.03519ZM8.5 2.54252C7.94766 2.54252 7.5 2.98887 7.5 3.53959C7.5 4.09031 7.94766 4.53666 8.5 4.53666C9.05234 4.53666 9.5 4.09031 9.5 3.53959C9.5 2.98887 9.05234 2.54252 8.5 2.54252ZM3.5 2.54252C2.94766 2.54252 2.5 2.98887 2.5 3.53959C2.5 4.09031 2.94766 4.53666 3.5 4.53666C4.05234 4.53666 4.5 4.09031 4.5 3.53959C4.5 2.98887 4.05234 2.54252 3.5 2.54252ZM8.5 12.5132C7.94766 12.5132 7.5 12.9595 7.5 13.5103C7.5 14.061 7.94766 14.5073 8.5 14.5073C9.05234 14.5073 9.5 14.061 9.5 13.5103C9.5 12.9595 9.05234 12.5132 8.5 12.5132ZM13.5 7.52786C12.9477 7.52786 12.5 7.9742 12.5 8.52493C12.5 9.07565 12.9477 9.52199 13.5 9.52199C14.0523 9.52199 14.5 9.07565 14.5 8.52493C14.5 7.9742 14.0523 7.52786 13.5 7.52786ZM13.5 2.54252C12.9477 2.54252 12.5 2.98887 12.5 3.53959C12.5 4.09031 12.9477 4.53666 13.5 4.53666C14.0523 4.53666 14.5 4.09031 14.5 3.53959C14.5 2.98887 14.0523 2.54252 13.5 2.54252ZM13.5 12.5132C12.9477 12.5132 12.5 12.9595 12.5 13.5103C12.5 14.061 12.9477 14.5073 13.5 14.5073C14.0523 14.5073 14.5 14.061 14.5 13.5103C14.5 12.9595 14.0523 12.5132 13.5 12.5132ZM3.5 12.5132C2.94766 12.5132 2.5 12.9595 2.5 13.5103C2.5 14.061 2.94766 14.5073 3.5 14.5073C4.05234 14.5073 4.5 14.061 4.5 13.5103C4.5 12.9595 4.05234 12.5132 3.5 12.5132ZM6 15.0059C5.44766 15.0059 5 15.4522 5 16.0029C5 16.5537 5.44766 17 6 17C6.55234 17 7 16.5537 7 16.0029C7 15.4522 6.55234 15.0059 6 15.0059ZM1 15.0059C0.447656 15.0059 0 15.4522 0 16.0029C0 16.5537 0.447656 17 1 17C1.55234 17 2 16.5537 2 16.0029C2 15.4522 1.55234 15.0059 1 15.0059ZM1 10.0205C0.447656 10.0205 0 10.4669 0 11.0176C0 11.5683 0.447656 12.0147 1 12.0147C1.55234 12.0147 2 11.5683 2 11.0176C2 10.4669 1.55234 10.0205 1 10.0205ZM6 5.03519C5.44766 5.03519 5 5.48153 5 6.03226C5 6.58298 5.44766 7.02933 6 7.02933C6.55234 7.02933 7 6.58298 7 6.03226C7 5.48153 6.55234 5.03519 6 5.03519ZM1 0C0.447656 0 0 0.446343 0 0.997067C0 1.54779 0.447656 1.99413 1 1.99413C1.55234 1.99413 2 1.54779 2 0.997067C2 0.446343 1.55234 0 1 0ZM6 0C5.44766 0 5 0.446343 5 0.997067C5 1.54779 5.44766 1.99413 6 1.99413C6.55234 1.99413 7 1.54779 7 0.997067C7 0.446343 6.55234 0 6 0ZM11 15.0059C10.4477 15.0059 10 15.4522 10 16.0029C10 16.5537 10.4477 17 11 17C11.5523 17 12 16.5537 12 16.0029C12 15.4522 11.5523 15.0059 11 15.0059ZM11 0C10.4477 0 10 0.446343 10 0.997067C10 1.54779 10.4477 1.99413 11 1.99413C11.5523 1.99413 12 1.54779 12 0.997067C12 0.446343 11.5523 0 11 0ZM16 5.03519C15.4477 5.03519 15 5.48153 15 6.03226C15 6.58298 15.4477 7.02933 16 7.02933C16.5523 7.02933 17 6.58298 17 6.03226C17 5.48153 16.5523 5.03519 16 5.03519ZM16 10.0205C15.4477 10.0205 15 10.4669 15 11.0176C15 11.5683 15.4477 12.0147 16 12.0147C16.5523 12.0147 17 11.5683 17 11.0176C17 10.4669 16.5523 10.0205 16 10.0205ZM16 15.0059C15.4477 15.0059 15 15.4522 15 16.0029C15 16.5537 15.4477 17 16 17C16.5523 17 17 16.5537 17 16.0029C17 15.4522 16.5523 15.0059 16 15.0059ZM16 0C15.4477 0 15 0.446343 15 0.997067C15 1.54779 15.4477 1.99413 16 1.99413C16.5523 1.99413 17 1.54779 17 0.997067C17 0.446343 16.5523 0 16 0Z" fill="white"/>
</svg>
