<?xml version="1.0" encoding="utf-8"?>
<!-- Generator: Adobe Illustrator 23.0.0, SVG Export Plug-In . SVG Version: 6.00 Build 0)  -->
<svg version="1.1" id="Layer_1" xmlns="http://www.w3.org/2000/svg" xmlns:xlink="http://www.w3.org/1999/xlink" x="0px" y="0px"
	 viewBox="0 0 30.5 30.6" style="enable-background:new 0 0 30.5 30.6;" xml:space="preserve">
<style type="text/css">
	.st0{fill:#FFFFFF;}
</style>
<path class="st0" d="M27.3,24.3h-2.5v-8.1h1.1c0.4,0,0.7-0.5,0.7-1.2c0-0.6-0.3-1.2-0.7-1.2h-1.1V5.9h2.5c0.5,0,1-0.7,1-1.5
	s-0.4-0.5-1-0.5h-6.9c-0.5,0-1-0.3-1,0.5s0.4,1.5,1,1.5h2.5v8.1h-1.1c-0.4,0-0.7,0.5-0.7,1.2c0,0.6,0.3,1.2,0.7,1.2h1.1v8.1h-2.5
	c-0.5,0-1,0.7-1,1.5s0.4,0.5,1,0.5h6.9c0.5,0,1,0.3,1-0.5S27.8,24.3,27.3,24.3z"/>
<g>
	<path class="st0" d="M4.4,26.3C4.2,26,4,25.6,4,25.2V6.7c0-0.5,0.1-0.8,0.4-1.1c0.3-0.3,0.7-0.4,1.1-0.4h10.9c1,0,1.5,0.4,1.5,1.3
		s-0.5,1.3-1.5,1.3H7.1v6.7h8.7c1,0,1.5,0.4,1.5,1.3c0,0.8-0.5,1.3-1.5,1.3H7.1v8.2c0,0.5-0.1,0.9-0.4,1.2c-0.3,0.3-0.7,0.4-1.1,0.4
		C5.1,26.8,4.7,26.6,4.4,26.3z"/>
</g>
</svg>
