<?xml version="1.0" encoding="iso-8859-1"?>
<!-- Generator: Adobe Illustrator 16.0.0, SVG Export Plug-In . SVG Version: 6.00 Build 0)  -->
<!DOCTYPE svg PUBLIC "-//W3C//DTD SVG 1.1//EN" "http://www.w3.org/Graphics/SVG/1.1/DTD/svg11.dtd">
<svg xmlns="http://www.w3.org/2000/svg" xmlns:xlink="http://www.w3.org/1999/xlink" version="1.1" id="Capa_1" x="0px" y="0px" width="512px" height="512px" viewBox="0 0 30.665 30.664" style="enable-background:new 0 0 30.665 30.664;" xml:space="preserve">
<g>
	<path d="M3.837,7.389H3.072V0h24.52v7.389h-0.725c-0.431-1.705-0.906-2.93-1.431-3.676c-0.522-0.744-1.241-1.338-2.153-1.781   c-0.511-0.239-1.402-0.36-2.678-0.36h-2.033v16.54c0,1.396,0.077,2.268,0.23,2.616c0.154,0.349,0.456,0.653,0.904,0.916   c0.451,0.263,1.063,0.394,1.842,0.394h0.906v0.744H8.164v-0.744H9.07c0.792,0,1.429-0.142,1.912-0.424   c0.349-0.188,0.624-0.511,0.825-0.966c0.146-0.321,0.222-1.168,0.222-2.536V1.571h-1.973c-1.84,0-3.175,0.389-4.007,1.168   C4.883,3.824,4.145,5.375,3.837,7.389z M29.113,27.012l-3.651-3.652v2.738H5.203v-2.738l-3.652,3.652l3.652,3.652v-2.738h20.258   v2.738L29.113,27.012z" fill="#FFFFFF"/>
</g>
<g>
</g>
<g>
</g>
<g>
</g>
<g>
</g>
<g>
</g>
<g>
</g>
<g>
</g>
<g>
</g>
<g>
</g>
<g>
</g>
<g>
</g>
<g>
</g>
<g>
</g>
<g>
</g>
<g>
</g>
</svg>
