<?xml version="1.0" encoding="iso-8859-1"?>
<!-- Generator: Adobe Illustrator 16.0.0, SVG Export Plug-In . SVG Version: 6.00 Build 0)  -->
<!DOCTYPE svg PUBLIC "-//W3C//DTD SVG 1.1//EN" "http://www.w3.org/Graphics/SVG/1.1/DTD/svg11.dtd">
<svg xmlns="http://www.w3.org/2000/svg" xmlns:xlink="http://www.w3.org/1999/xlink" version="1.1" id="Capa_1" x="0px" y="0px" width="512px" height="512px" viewBox="0 0 612 612" style="enable-background:new 0 0 612 612;" xml:space="preserve">
<g>
	<path d="M583.728,375.793c-12.316,124.001-112.79,223.666-236.88,235.068C200.16,624.34,75.077,516.49,60.568,376.312H34.716   c-15.717,0-25.54-17.016-17.68-30.626l57.818-100.122c7.859-13.609,27.503-13.608,35.361,0.001l57.807,100.122   c7.858,13.611-1.965,30.625-17.681,30.625h-22.506c14.621,104.659,112.057,183.152,223.772,166.778   c82.667-12.115,149.722-77.336,163.773-159.697c21.031-123.271-73.829-230.558-193.271-230.558   c-38.734,0-76.119,11.238-108.233,32.519c-14.904,9.876-35.564,7.922-46.498-6.223c-11.905-15.402-8.188-37.389,7.687-48.109   c34.455-23.276,73.515-37.822,114.438-42.887V50.184h-26.784c-9.215,0-16.686-7.47-16.686-16.686V16.686   C246.033,7.47,253.503,0,262.719,0H386.93c9.215,0,16.686,7.47,16.686,16.686v16.812c0,9.215-7.47,16.686-16.686,16.686h-29.502   v38.347C494.28,106.996,598.102,231.062,583.728,375.793z M592.37,123.265L542.058,76.76c-6.768-6.255-17.324-5.84-23.58,0.927   l-13.309,14.399c-6.256,6.767-5.841,17.324,0.927,23.58l50.312,46.504c6.768,6.254,17.324,5.84,23.58-0.927l13.309-14.399   C599.553,140.077,599.138,129.52,592.37,123.265z M321.318,187.139v163.194h161.565   C482.885,250.949,407.481,187.139,321.318,187.139z" fill="#FFFFFF"/>
</g>
<g>
</g>
<g>
</g>
<g>
</g>
<g>
</g>
<g>
</g>
<g>
</g>
<g>
</g>
<g>
</g>
<g>
</g>
<g>
</g>
<g>
</g>
<g>
</g>
<g>
</g>
<g>
</g>
<g>
</g>
</svg>
