<?xml version="1.0" encoding="utf-8"?>
<!-- Generator: Adobe Illustrator 23.0.0, SVG Export Plug-In . SVG Version: 6.00 Build 0)  -->
<svg version="1.1" id="Layer_1" xmlns="http://www.w3.org/2000/svg" xmlns:xlink="http://www.w3.org/1999/xlink" x="0px" y="0px"
	 viewBox="0 0 19.8 19.8" style="enable-background:new 0 0 19.8 19.8;" xml:space="preserve">
<style type="text/css">
	.st0{fill-rule:evenodd;clip-rule:evenodd;fill:#BFBFBF;}
	.st1{fill-rule:evenodd;clip-rule:evenodd;fill:#FFFFFF;}
</style>
<title>Layers</title>
<desc>Created with Sketch.</desc>
<g>
	<g transform="translate(-200.000000, -230.000000)">
		<g transform="translate(22.000000, 232.000000)">
			<path class="st0" d="M187,16.6c0.3,0.1,0.6,0.1,0.9,0l7-3.5c0.5-0.2,0.7-0.8,0.4-1.3c-0.2-0.5-0.8-0.7-1.3-0.4l-6.6,3.3l-6.6-3.3
				c-0.5-0.2-1.1,0-1.3,0.4s0,1.1,0.4,1.3L187,16.6z M187,12.6c0.3,0.1,0.6,0.1,0.9,0l7-3.5c0.5-0.2,0.7-0.8,0.4-1.3
				c-0.2-0.5-0.8-0.7-1.3-0.4l-6.6,3.3l-6.6-3.3c-0.5-0.2-1.1,0-1.3,0.4s0,1.1,0.4,1.3L187,12.6z M187.9,8.6c-0.4,0.1-0.4,0.1-0.9,0
				c-0.4-0.1-7-3.5-7-3.5c-0.7-0.4-0.7-1.4,0-1.8l7-3.5c0.3-0.1,0.6-0.1,0.9,0l7,3.5c0.7,0.4,0.7,1.4,0,1.8
				C194.9,5.1,188.4,8.5,187.9,8.6z M192.2,4.2l-4.8,2.4l-4.7-2.4l4.8-2.4L192.2,4.2z"/>
		</g>
	</g>
</g>
<g>
	<g transform="translate(-200.000000, -230.000000)">
		<g transform="translate(22.000000, 232.000000)">
			<path class="st1" d="M187.5,16.4c0.3,0.1,0.6,0.1,0.9,0l7-3.5c0.5-0.2,0.7-0.8,0.4-1.3c-0.2-0.5-0.8-0.7-1.3-0.4l-6.6,3.3
				l-6.6-3.3c-0.5-0.2-1.1,0-1.3,0.4s0,1.1,0.4,1.3L187.5,16.4z M187.5,12.4c0.3,0.1,0.6,0.1,0.9,0l7-3.5c0.5-0.2,0.7-0.8,0.4-1.3
				c-0.2-0.5-0.8-0.7-1.3-0.4l-6.6,3.3l-6.6-3.3c-0.5-0.2-1.1,0-1.3,0.4s0,1.1,0.4,1.3L187.5,12.4z M188.4,8.4
				c-0.4,0.1-0.4,0.1-0.9,0c-0.4-0.1-7-3.5-7-3.5c-0.7-0.4-0.7-1.4,0-1.8l7-3.5c0.3-0.1,0.6-0.1,0.9,0l7,3.5c0.7,0.4,0.7,1.4,0,1.8
				C195.4,4.9,188.8,8.3,188.4,8.4z M192.7,4l-4.8,2.4L183.2,4l4.8-2.4L192.7,4z"/>
		</g>
	</g>
</g>
<text transform="matrix(1 0 0 1 -7.874016e-02 32.4212)" style="font-family:'HelveticaNeue-Bold'; font-size:5px;">Created by K Ξ L L Ξ R</text>
<text transform="matrix(1 0 0 1 -7.874016e-02 37.4212)" style="font-family:'HelveticaNeue-Bold'; font-size:5px;">from the Noun Project</text>
</svg>
