<?xml version="1.0" encoding="utf-8"?>
<!-- Generator: Adobe Illustrator 23.0.0, SVG Export Plug-In . SVG Version: 6.00 Build 0)  -->
<svg version="1.1" id="Layer_1" xmlns="http://www.w3.org/2000/svg" xmlns:xlink="http://www.w3.org/1999/xlink" x="0px" y="0px"
	 viewBox="0 0 15.6 12.3" style="enable-background:new 0 0 15.6 12.3;" xml:space="preserve">
<style type="text/css">
	.st0{fill:none;stroke:#000000;stroke-width:1.813;}
	.st1{fill-rule:evenodd;clip-rule:evenodd;}
</style>
<path class="st0" d="M1.1,5.4c-0.2-0.2-0.3-0.6,0-0.8c0.8-1.1,3.3-3.7,6.7-3.7s5.8,2.6,6.7,3.7c0.2,0.3,0.2,0.6,0,0.8
	c-1.1,0.9-3.6,3.2-6.8,3.2S2,6.3,1.1,5.4z"/>
<path d="M7.6,8.2c0.6,0,1,0.4,1,0.8v2.5c0,0.5-0.4,0.8-1,0.8s-1-0.4-1-0.8V9.1C6.6,8.6,7,8.2,7.6,8.2z"/>
<path class="st1" d="M10.3,7.7c0.5-0.2,1.1-0.1,1.4,0.3l1.5,2.1c0.3,0.4,0.1,0.9-0.4,1.1s-1.1,0.1-1.4-0.3L9.9,8.8
	C9.7,8.4,9.9,7.9,10.3,7.7z"/>
<path d="M4.9,7.7c0.5,0.2,0.6,0.7,0.4,1.1l-1.5,2.1c-0.3,0.4-0.9,0.5-1.4,0.3S1.8,10.5,2,10.1L3.5,8C3.8,7.6,4.4,7.5,4.9,7.7z"/>
</svg>
