<?xml version="1.0" encoding="utf-8"?>
<!-- Generator: Adobe Illustrator 23.0.0, SVG Export Plug-In . SVG Version: 6.00 Build 0)  -->
<svg version="1.1" id="Layer_1" xmlns="http://www.w3.org/2000/svg" xmlns:xlink="http://www.w3.org/1999/xlink" x="0px" y="0px"
	 viewBox="0 0 96.4 96.4" style="enable-background:new 0 0 96.4 96.4;" xml:space="preserve">
<style type="text/css">
	.st0{fill-rule:evenodd;clip-rule:evenodd;fill:#BFBFBF;}
	.st1{fill-rule:evenodd;clip-rule:evenodd;fill:#FFFFFF;}
</style>
<title>tool-8 copy 4</title>
<g>
	<path class="st0" d="M27.9,41.6c5.4,0,9.8-4.4,9.8-9.8s-4.4-9.8-9.8-9.8s-9.8,4.4-9.8,9.8S22.5,41.6,27.9,41.6L27.9,41.6z
		 M78.1,49.7c-1.4-1-3.4-1.1-4.9,0.3l-9.6,8.6c-3.7,3.3-9.4,2.8-12.4-1.2L49,54.7c-2.6-3.4-7.3-4.3-11-2.2c-0.4,0.2-0.8,0.5-1.1,0.8
		L15.5,70.7c-1.8,1.5-2.9,3.7-2.9,6.1V80c0,1.5,1.2,2.6,2.6,2.6h62.2c1.3,0,2.3-1,2.3-2.3V52.9C79.8,51.5,79.1,50.4,78.1,49.7
		L78.1,49.7z M85.2,84.3c0,2.1-1.7,3.8-3.8,3.8H11c-2.1,0-3.8-1.7-3.8-3.8V13.9c0-2.1,1.7-3.8,3.8-3.8h70.4c2.1,0,3.8,1.7,3.8,3.8
		V84.3z M81.4,4.1H11c-5.4,0-9.8,4.4-9.8,9.8v70.4c0,5.4,4.4,9.8,9.8,9.8h70.4c5.4,0,9.8-4.4,9.8-9.8V13.9
		C91.2,8.5,86.8,4.1,81.4,4.1L81.4,4.1z"/>
</g>
<desc>Created with Sketch.</desc>
<g>
	<path class="st1" d="M30.9,40.9c5.4,0,9.8-4.4,9.8-9.8s-4.4-9.8-9.8-9.8s-9.8,4.4-9.8,9.8S25.5,40.9,30.9,40.9L30.9,40.9z
		 M81.1,49.1c-1.4-1-3.4-1.1-4.9,0.3L66.6,58c-3.7,3.3-9.4,2.8-12.4-1.2L52,54.1c-2.6-3.4-7.3-4.3-11-2.2c-0.4,0.2-0.8,0.5-1.1,0.8
		L18.5,70.1c-1.8,1.5-2.9,3.7-2.9,6.1v3.1c0,1.5,1.2,2.6,2.6,2.6h62.2c1.3,0,2.3-1,2.3-2.3V52.2C82.8,50.9,82.1,49.8,81.1,49.1
		L81.1,49.1z M88.2,83.6c0,2.1-1.7,3.8-3.8,3.8H14c-2.1,0-3.8-1.7-3.8-3.8V13.3c0-2.1,1.7-3.8,3.8-3.8h70.4c2.1,0,3.8,1.7,3.8,3.8
		V83.6z M84.4,3.5H14c-5.4,0-9.8,4.4-9.8,9.8v70.4c0,5.4,4.4,9.8,9.8,9.8h70.4c5.4,0,9.8-4.4,9.8-9.8V13.3
		C94.2,7.8,89.8,3.5,84.4,3.5L84.4,3.5z"/>
</g>
<text transform="matrix(1 0 0 1 -1.811 114.4559)" style="font-family:'HelveticaNeue-Bold'; font-size:5px;">Created by Ben Iconator</text>
<text transform="matrix(1 0 0 1 -1.811 119.4559)" style="font-family:'HelveticaNeue-Bold'; font-size:5px;">from the Noun Project</text>
</svg>
