<?xml version="1.0" encoding="utf-8"?>
<!-- Generator: Adobe Illustrator 23.0.0, SVG Export Plug-In . SVG Version: 6.00 Build 0)  -->
<svg version="1.1" id="Layer_1" xmlns="http://www.w3.org/2000/svg" xmlns:xlink="http://www.w3.org/1999/xlink" x="0px" y="0px"
	 viewBox="0 0 40 40" style="enable-background:new 0 0 40 40;" xml:space="preserve">
<style type="text/css">
	.st0{fill:#BFBFBF;}
	.st1{fill:#FFFFFF;}
</style>
<title>Asset 7</title>
<g>
	<g>
		<path class="st0" d="M26,16.4c0,0.8,0.7,1.5,1.5,1.5h6.9v19H5v-19h6.9c0.8,0,1.5-0.7,1.5-1.5s-0.7-1.5-1.5-1.5H3.5
			c-0.8,0-1.5,0.7-1.5,1.5l0,0v22c0,0.8,0.7,1.5,1.5,1.5h32.4c0.8,0,1.5-0.7,1.5-1.5v-22c0-0.8-0.7-1.5-1.5-1.5h-8.4
			C26.6,14.9,26,15.6,26,16.4L26,16.4z"/>
		<path class="st0" d="M20.5,1.1c-0.1,0-0.2,0-0.3,0c-0.1,0-0.1,0-0.2,0c0,0-0.1,0-0.2,0l0,0c-0.1,0-0.1,0.1-0.2,0.1l-0.1,0.1h-0.1
			l-8.2,8.1c-0.6,0.6-0.6,1.5,0,2.1s1.5,0.6,2.1,0l0,0l5.6-5.4v21.2c0,0.8,0.7,1.5,1.5,1.5s1.5-0.7,1.5-1.5V6.3l5.6,5.4
			c0.6,0.6,1.5,0.6,2.1,0c0.3-0.3,0.4-0.7,0.4-1c0-0.4-0.2-0.8-0.5-1.1l-8.1-7.9c0,0-0.1,0-0.1-0.1h-0.1c-0.1-0.1-0.2-0.1-0.3-0.2
			l0,0c0,0,0,0-0.1,0s-0.2-0.1-0.3-0.1L20.5,1.1z"/>
	</g>
</g>
<g>
	<g>
		<path class="st1" d="M26.6,15.4c0,0.8,0.7,1.5,1.5,1.5H35v19H5.6v-19h6.9c0.8,0,1.5-0.7,1.5-1.5s-0.7-1.5-1.5-1.5H4.1
			c-0.8,0-1.5,0.7-1.5,1.5l0,0v22c0,0.8,0.7,1.5,1.5,1.5h32.4c0.8,0,1.5-0.7,1.5-1.5v-22c0-0.8-0.7-1.5-1.5-1.5h-8.4
			C27.2,13.9,26.6,14.6,26.6,15.4L26.6,15.4z"/>
		<path class="st1" d="M21.1,0.1c-0.1,0-0.2,0-0.3,0c-0.1,0-0.1,0-0.2,0c0,0-0.1,0-0.2,0l0,0c-0.1,0-0.1,0.1-0.2,0.1l-0.1,0.1H20
			l-8.2,8.1c-0.6,0.6-0.6,1.5,0,2.1s1.5,0.6,2.1,0l0,0l5.6-5.4v21.2c0,0.8,0.7,1.5,1.5,1.5s1.5-0.7,1.5-1.5V5.3l5.6,5.4
			c0.6,0.6,1.5,0.6,2.1,0c0.3-0.3,0.4-0.7,0.4-1c0-0.4-0.2-0.8-0.5-1.1L22,0.6c0,0-0.1,0-0.1-0.1h-0.1c-0.1-0.1-0.2-0.1-0.3-0.2l0,0
			c0,0,0,0-0.1,0s-0.2-0.1-0.3-0.1L21.1,0.1z"/>
	</g>
</g>
</svg>
