<?xml version="1.0" encoding="utf-8"?>
<!-- Generator: Adobe Illustrator 23.0.3, SVG Export Plug-In . SVG Version: 6.00 Build 0)  -->
<svg version="1.1" id="Layer_1" xmlns="http://www.w3.org/2000/svg" xmlns:xlink="http://www.w3.org/1999/xlink" x="0px" y="0px"
	 viewBox="0 0 36 36" style="enable-background:new 0 0 36 36;" xml:space="preserve">
<style type="text/css">
	.st0{stroke:#E0E0E0;stroke-miterlimit:10;fill:#E0E0E0;}
</style>
<g>
	<defs>
		<rect id="SVGID_1_" x="3" y="3" width="30" height="30"/>
	</defs>
	<clipPath id="SVGID_2_">
		<use xlink:href="#SVGID_1_"  style="overflow:visible;"/>
	</clipPath>
</g>
<path class="st0" d="M24.1,21.9c-0.4-0.3-1.1-0.3-1.5,0l-3.5,2.7V8.8C19.1,8.4,18.6,8,18,8c-0.6,0-1.1,0.4-1.1,0.8v15.8l-3.5-2.7
	c-0.4-0.3-1.1-0.3-1.5,0c-0.4,0.3-0.4,0.8,0,1.1l5.4,4c0.4,0.3,1.1,0.3,1.5,0c0,0,0,0,0,0l5.4-4C24.5,22.7,24.5,22.2,24.1,21.9z"/>
<path class="st0" d="M30.9,22.3c-0.6,0-1.1,0.5-1.1,1.1v6.4c0,0.6-0.5,1.1-1.1,1.1H7.3c-0.6,0-1.1-0.5-1.1-1.1v-6.4
	c0-0.6-0.5-1.1-1.1-1.1c-0.6,0-1.1,0.5-1.1,1.1v6.4c0,1.8,1.4,3.2,3.2,3.2h21.4c1.8,0,3.2-1.4,3.2-3.2v-6.4
	C31.9,22.8,31.4,22.3,30.9,22.3z"/>
</svg>
