<svg id="Layer_1" data-name="Layer 1" xmlns="http://www.w3.org/2000/svg" viewBox="0 0 199.65 202.27"><defs><style>.cls-1{fill:#fff;stroke:#231f20;stroke-width:11px;}.cls-2{fill:#ffd1f7;opacity:0.75;isolation:isolate;}.cls-2,.cls-3{fill-rule:evenodd;}.cls-3{fill:#231f20;}</style></defs><title>mascot</title><g id="Style-Guide"><g id="Artboard-Copy-4"><g id="Page-1-Copy-9"><path id="Stroke-3" class="cls-1" d="M155.75,195.65a1.46,1.46,0,0,0,2.25-.18c5.28-7.72,31-48.06,35.3-83C200.42,54.3,162.05,5.5,102,5.5S-1,52.57,6.32,112.47C11.68,156,37.7,190.05,42.53,196a1.45,1.45,0,0,0,2.23.05L62,173.14a1.47,1.47,0,0,1,2.3.14l15.58,22.85a1.46,1.46,0,0,0,2.34.1L99.7,174.62a1.45,1.45,0,0,1,2.32.07l15.25,21.37a1.45,1.45,0,0,0,2.38,0l16.18-23.33a1.45,1.45,0,0,1,2.24-.19Z"/><path id="Fill-5" class="cls-2" d="M127.06,83.51c-19.26,1.06-34.55,7.77-34.16,15s16.33,12.2,35.59,11.14,34.55-7.77,34.15-15S146.32,82.45,127.06,83.51Z"/><path id="Fill-7" class="cls-3" d="M115,84.72c0,3.84-2.63,7-5.87,7s-5.87-3.12-5.87-7,2.62-7,5.87-7,5.87,3.11,5.87,7"/><path id="Fill-9" class="cls-3" d="M153.33,81.81c0,5-3.18,9-7.1,9s-7.11-4-7.11-9,3.18-9,7.11-9,7.1,4,7.1,9"/></g></g></g></svg>