<?xml version="1.0" encoding="utf-8"?>
<!-- Generator: Adobe Illustrator 23.0.0, SVG Export Plug-In . SVG Version: 6.00 Build 0)  -->
<svg version="1.1" id="Layer_1" xmlns="http://www.w3.org/2000/svg" xmlns:xlink="http://www.w3.org/1999/xlink" x="0px" y="0px"
	 viewBox="0 0 31.1 31.1" style="enable-background:new 0 0 31.1 31.1;" xml:space="preserve">
<style type="text/css">
	.st0{fill:url(#SVGID_1_);}
</style>
<title>Pan_4</title>
<g>
	<g>
		<g id="Icons">
			
				<image style="overflow:visible;opacity:0.5;enable-background:new    ;" width="44" height="44" xlink:href="A056927BAE99E646.png"  transform="matrix(1 0 0 1 -3.2112 -4.7921)">
			</image>
			
				<linearGradient id="SVGID_1_" gradientUnits="userSpaceOnUse" x1="0" y1="18.7408" x2="31.0645" y2="18.7408" gradientTransform="matrix(1 0 0 -1 0 34.3056)">
				<stop  offset="0" style="stop-color:#F0F0F0"/>
				<stop  offset="0.71" style="stop-color:#CCCCCC"/>
			</linearGradient>
			<path class="st0" d="M30.6,14.4l-4.3-3.7c-0.6-0.5-1.6-0.5-2.1,0.1c-0.2,0.3-0.4,0.6-0.4,1v1.1h-5.6V7.3h1c0.8,0,1.5-0.6,1.5-1.5
				c0-0.4-0.1-0.7-0.4-1l-3.7-4.3c-0.5-0.6-1.5-0.7-2.1-0.2c-0.1,0.1-0.1,0.1-0.2,0.2l-3.7,4.3c-0.5,0.6-0.4,1.6,0.2,2.1
				c0.3,0.2,0.6,0.3,0.9,0.4h1.1v5.7H7.2v-1c0-0.8-0.6-1.5-1.5-1.5c-0.4,0-0.7,0.1-1,0.4l-4.3,3.7c-0.6,0.5-0.7,1.5-0.2,2.1
				c0,0.1,0.1,0.1,0.2,0.2l4.3,3.7c0.6,0.5,1.6,0.5,2.1-0.2c0.2-0.3,0.4-0.6,0.4-1v-1h5.7v5.7h-1.1c-0.8,0-1.5,0.6-1.5,1.4
				c0,0.4,0.1,0.7,0.4,1l3.7,4.3c0.5,0.6,1.4,0.7,2.1,0.2c0.1,0,0.1-0.1,0.2-0.2l3.7-4.3c0.5-0.6,0.4-1.5-0.2-2.1
				c-0.3-0.2-0.6-0.3-0.9-0.3h-1v-5.7h5.6v1c0,0.8,0.7,1.5,1.5,1.5c0.4,0,0.7-0.1,1-0.4l4.3-3.7C31.2,16.1,31.2,15.1,30.6,14.4
				C30.6,14.5,30.6,14.5,30.6,14.4z"/>
		</g>
	</g>
</g>
</svg>
