<?xml version="1.0" encoding="UTF-8" standalone="no"?>
<!-- Generator: Adobe Illustrator 19.0.0, SVG Export Plug-In . SVG Version: 6.00 Build 0)  -->

<svg
   xmlns:dc="http://purl.org/dc/elements/1.1/"
   xmlns:cc="http://creativecommons.org/ns#"
   xmlns:rdf="http://www.w3.org/1999/02/22-rdf-syntax-ns#"
   xmlns:svg="http://www.w3.org/2000/svg"
   xmlns="http://www.w3.org/2000/svg"
   xmlns:sodipodi="http://sodipodi.sourceforge.net/DTD/sodipodi-0.dtd"
   xmlns:inkscape="http://www.inkscape.org/namespaces/inkscape"
   version="1.1"
   id="Layer_1"
   x="0px"
   y="0px"
   viewBox="0 0 268.012 268.012"
   style="enable-background:new 0 0 268.012 268.012;"
   xml:space="preserve"
   inkscape:version="0.91 r13725"
   sodipodi:docname="Pan.svg"><metadata
     id="metadata41"><rdf:RDF><cc:Work
         rdf:about=""><dc:format>image/svg+xml</dc:format><dc:type
           rdf:resource="http://purl.org/dc/dcmitype/StillImage" /></cc:Work></rdf:RDF></metadata><defs
     id="defs39" /><sodipodi:namedview
     pagecolor="#ffffff"
     bordercolor="#666666"
     borderopacity="1"
     objecttolerance="10"
     gridtolerance="10"
     guidetolerance="10"
     inkscape:pageopacity="0"
     inkscape:pageshadow="2"
     inkscape:window-width="640"
     inkscape:window-height="480"
     id="namedview37"
     showgrid="false"
     inkscape:zoom="0.88055761"
     inkscape:cx="134.006"
     inkscape:cy="77.9643"
     inkscape:window-x="92"
     inkscape:window-y="93"
     inkscape:window-maximized="0"
     inkscape:current-layer="Layer_1" /><g
     id="g3"
     transform="matrix(0.73280117,0,0,0.76616944,34.0693,34.274661)"
     style="fill:#cccccc"><path
       style="fill:#cccccc"
       d="M 262.833,123.5 231.072,91.9 c -9.252,-5.399 -16.743,-1.135 -16.609,9.493 l 0.107,15.286 -62.422,0.036 -0.036,-63.504 16.126,-0.116 c 9.869,0.805 13.409,-5.855 7.849,-14.821 L 142.065,5.289 C 134.824,-2.783 129.353,-0.593 123.516,5.191 L 91.907,36.933 c -5.399,9.252 -1.126,16.734 9.493,16.609 l 15.286,-0.116 0.036,63.307 -63.272,0.045 0.107,-15.393 C 53.673,90.765 46.191,86.492 36.939,91.892 l -31.752,31.6 c -5.784,5.828 -8.001,11.308 0.098,18.549 l 32.986,34.031 c 8.957,5.551 15.635,2.029 14.812,-7.858 l 0.116,-16.028 63.531,-0.036 0.036,62.387 -15.366,-0.089 c -10.62,-0.143 -14.902,7.366 -9.493,16.6 l 31.609,31.779 c 5.837,5.766 11.317,7.983 18.549,-0.125 l 34.023,-32.977 c 5.56,-8.957 2.038,-15.626 -7.849,-14.803 l -16.028,-0.125 -0.036,-62.682 62.637,-0.036 0.116,16.135 c -0.805,9.869 5.864,13.409 14.821,7.858 l 32.977,-34.031 c 8.09,-7.241 5.891,-12.712 0.107,-18.541 z"
       id="path5"
       inkscape:connector-curvature="0" /></g><g
     id="g7"
     transform="translate(-1.135644,3.4069321)" /><g
     id="g9"
     transform="translate(-1.135644,3.4069321)" /><g
     id="g11"
     transform="translate(-1.135644,3.4069321)" /><g
     id="g13"
     transform="translate(-1.135644,3.4069321)" /><g
     id="g15"
     transform="translate(-1.135644,3.4069321)" /><g
     id="g17"
     transform="translate(-1.135644,3.4069321)" /><g
     id="g19"
     transform="translate(-1.135644,3.4069321)" /><g
     id="g21"
     transform="translate(-1.135644,3.4069321)" /><g
     id="g23"
     transform="translate(-1.135644,3.4069321)" /><g
     id="g25"
     transform="translate(-1.135644,3.4069321)" /><g
     id="g27"
     transform="translate(-1.135644,3.4069321)" /><g
     id="g29"
     transform="translate(-1.135644,3.4069321)" /><g
     id="g31"
     transform="translate(-1.135644,3.4069321)" /><g
     id="g33"
     transform="translate(-1.135644,3.4069321)" /><g
     id="g35"
     transform="translate(-1.135644,3.4069321)" /><g
     style="fill:#ffffff"
     transform="matrix(0.73280117,0,0,0.76616944,42.085609,24.987615)"
     id="g3391"><path
       inkscape:connector-curvature="0"
       id="path3393"
       d="M 262.833,123.5 231.072,91.9 c -9.252,-5.399 -16.743,-1.135 -16.609,9.493 l 0.107,15.286 -62.422,0.036 -0.036,-63.504 16.126,-0.116 c 9.869,0.805 13.409,-5.855 7.849,-14.821 L 142.065,5.289 C 134.824,-2.783 129.353,-0.593 123.516,5.191 L 91.907,36.933 c -5.399,9.252 -1.126,16.734 9.493,16.609 l 15.286,-0.116 0.036,63.307 -63.272,0.045 0.107,-15.393 C 53.673,90.765 46.191,86.492 36.939,91.892 l -31.752,31.6 c -5.784,5.828 -8.001,11.308 0.098,18.549 l 32.986,34.031 c 8.957,5.551 15.635,2.029 14.812,-7.858 l 0.116,-16.028 63.531,-0.036 0.036,62.387 -15.366,-0.089 c -10.62,-0.143 -14.902,7.366 -9.493,16.6 l 31.609,31.779 c 5.837,5.766 11.317,7.983 18.549,-0.125 l 34.023,-32.977 c 5.56,-8.957 2.038,-15.626 -7.849,-14.803 l -16.028,-0.125 -0.036,-62.682 62.637,-0.036 0.116,16.135 c -0.805,9.869 5.864,13.409 14.821,7.858 l 32.977,-34.031 c 8.09,-7.241 5.891,-12.712 0.107,-18.541 z"
       style="fill:#ffffff" /></g></svg>