<?xml version="1.0" encoding="utf-8"?>
<!-- Generator: Adobe Illustrator 23.0.1, SVG Export Plug-In . SVG Version: 6.00 Build 0)  -->
<svg version="1.1" id="Layer_1" xmlns="http://www.w3.org/2000/svg" xmlns:xlink="http://www.w3.org/1999/xlink" x="0px" y="0px"
	 viewBox="0 0 44 44" style="enable-background:new 0 0 44 44;" xml:space="preserve">
<style type="text/css">
	<!-- .st0{fill-rule:evenodd;clip-rule:evenodd;fill:url(#SVGID_1_);}
	.st1{fill-rule:evenodd;clip-rule:evenodd;fill:url(#SVGID_2_);}
	.st2{fill-rule:evenodd;clip-rule:evenodd;fill:url(#SVGID_3_);}
	.st3{fill-rule:evenodd;clip-rule:evenodd;fill:url(#SVGID_4_);}
	.st4{fill-rule:evenodd;clip-rule:evenodd;fill:url(#SVGID_5_);} -->
	.st0{fill-rule:evenodd;clip-rule:evenodd;fill:white;}
	.st1{fill-rule:evenodd;clip-rule:evenodd;fill:white;}
	.st2{fill-rule:evenodd;clip-rule:evenodd;fill:white;}
	.st3{fill-rule:evenodd;clip-rule:evenodd;fill:white;}
	.st4{fill-rule:evenodd;clip-rule:evenodd;fill:white;}
</style>
<title>Group 18</title>
<desc>Created with Sketch.</desc>
<g id="Artboard-2-Copy-4" transform="translate(-1489.000000, -2842.000000)">
	
		<linearGradient id="SVGID_1_" gradientUnits="userSpaceOnUse" x1="2992.1797" y1="24.0049" x2="3007.8203" y2="24.0049" gradientTransform="matrix(1 0 0 -1 -1489 2888)">
		<stop  offset="0" style="stop-color:#F0F0F0"/>
		<stop  offset="0.71" style="stop-color:#CCCCCC"/>
	</linearGradient>
	<circle class="st0" cx="1511" cy="2864" r="7.8"/>
	
		<linearGradient id="SVGID_2_" gradientUnits="userSpaceOnUse" x1="2991.7378" y1="7.7287" x2="3008.2874" y2="7.7287" gradientTransform="matrix(1 0 0 -1 -1489 2888)">
		<stop  offset="0" style="stop-color:#F0F0F0"/>
		<stop  offset="0.71" style="stop-color:#CCCCCC"/>
	</linearGradient>
	<path class="st1" d="M1503.1,2877.3l7.3,7.3c0.4,0.4,1,0.4,1.4,0l7.3-7.3c0.6-0.6,0.2-1.7-0.7-1.7h-14.5
		C1502.9,2875.7,1502.4,2876.7,1503.1,2877.3z"/>
	
		<linearGradient id="SVGID_3_" gradientUnits="userSpaceOnUse" x1="3011.6421" y1="23.977" x2="3020.9133" y2="23.977" gradientTransform="matrix(1 0 0 -1 -1489 2888)">
		<stop  offset="0" style="stop-color:#F0F0F0"/>
		<stop  offset="0.71" style="stop-color:#CCCCCC"/>
	</linearGradient>
	<path class="st2" d="M1524.3,2871.9l7.3-7.3c0.4-0.4,0.4-1,0-1.4l-7.3-7.3c-0.6-0.6-1.7-0.2-1.7,0.7v14.5
		C1522.7,2872.1,1523.7,2872.6,1524.3,2871.9z"/>
	
		<linearGradient id="SVGID_4_" gradientUnits="userSpaceOnUse" x1="2991.7251" y1="40.1712" x2="3008.2749" y2="40.1712" gradientTransform="matrix(1 0 0 -1 -1489 2888)">
		<stop  offset="0" style="stop-color:#F0F0F0"/>
		<stop  offset="0.71" style="stop-color:#CCCCCC"/>
	</linearGradient>
	<path class="st3" d="M1518.9,2850.8l-7.3-7.3c-0.4-0.4-1-0.4-1.4,0l-7.3,7.3c-0.6,0.6-0.2,1.7,0.7,1.7h14.5
		C1519.1,2852.4,1519.6,2851.5,1518.9,2850.8z"/>
	
		<linearGradient id="SVGID_5_" gradientUnits="userSpaceOnUse" x1="2979.0867" y1="24.1952" x2="2988.3579" y2="24.1952" gradientTransform="matrix(1 0 0 -1 -1489 2888)">
		<stop  offset="0" style="stop-color:#F0F0F0"/>
		<stop  offset="0.71" style="stop-color:#CCCCCC"/>
	</linearGradient>
	<path class="st4" d="M1497.7,2855.9l-7.3,7.3c-0.4,0.4-0.4,1,0,1.4l7.3,7.3c0.6,0.6,1.7,0.2,1.7-0.7v-14.5
		C1499.3,2855.7,1498.3,2855.3,1497.7,2855.9z"/>
</g>
</svg>
