<?xml version="1.0" encoding="utf-8"?>
<!-- Generator: Adobe Illustrator 23.0.0, SVG Export Plug-In . SVG Version: 6.00 Build 0)  -->
<svg version="1.1" id="Layer_1" xmlns="http://www.w3.org/2000/svg" xmlns:xlink="http://www.w3.org/1999/xlink" x="0px" y="0px"
	 viewBox="0 0 102 102" style="enable-background:new 0 0 102 102;" xml:space="preserve">
<style type="text/css">
	.st0{fill:none;stroke:#BFBFBF;stroke-width:6;stroke-miterlimit:10;}
	.st1{fill:#BFBFBF;}
</style>
<path class="st0" d="M85.1,97.8H16.9c-7,0-12.7-5.7-12.7-12.7V16.9c0-7,5.7-12.7,12.7-12.7h68.1c7,0,12.7,5.7,12.7,12.7v68.1
	C97.8,92.1,92.1,97.8,85.1,97.8z"/>
<g>
	<path class="st1" d="M28,81.4c-1.1-1-1.6-2.5-1.6-4.3V24.5c0-1.7,0.5-3.1,1.5-4c1-1,2.4-1.4,4.1-1.4h22.1c6.8,0,12.1,1.7,15.8,5.1
		c3.8,3.4,5.7,8.1,5.7,14.3s-1.9,10.9-5.7,14.3c-3.8,3.4-9.1,5.1-15.8,5.1H38v19.3c0,1.8-0.5,3.2-1.6,4.3c-1.1,1-2.5,1.6-4.3,1.6
		C30.4,83,29,82.5,28,81.4z M52.7,48.9c8,0,12-3.5,12-10.4c0-7-4-10.4-12-10.4H38v20.9H52.7z"/>
</g>
</svg>
