<?xml version="1.0" encoding="utf-8"?>
<!-- Generator: Adobe Illustrator 23.0.0, SVG Export Plug-In . SVG Version: 6.00 Build 0)  -->
<svg version="1.1" id="Layer_1" xmlns="http://www.w3.org/2000/svg" xmlns:xlink="http://www.w3.org/1999/xlink" x="0px" y="0px"
	 viewBox="0 0 35.1 31.1" style="enable-background:new 0 0 35.1 31.1;" xml:space="preserve">
<style type="text/css">
	<!-- .st0{fill:url(#SVGID_1_);}
	.st1{fill:url(#SVGID_2_);}
	.st2{fill:url(#SVGID_3_);}
	.st3{fill:url(#SVGID_4_);}
	.st4{fill:url(#SVGID_5_);} -->
	.st0{fill:white;}
	.st1{fill:white;}
	.st2{fill:white;}
	.st3{fill:white;}
	.st4{fill:white;}
</style>
<title>Center_4</title>
<g>
	<g>
		<g id="Icons">
			
				<image style="overflow:visible;opacity:0.5;enable-background:new    ;" width="48" height="44" xlink:href="48E0569823738273.png"  transform="matrix(1 0 0 1 -3.5 -4.2)">
			</image>
			
				<linearGradient id="SVGID_1_" gradientUnits="userSpaceOnUse" x1="12.3" y1="20.1097" x2="22.83" y2="20.1097" gradientTransform="matrix(1 0 0 -1 0 35.4898)">
				<stop  offset="0" style="stop-color:#F0F0F0"/>
				<stop  offset="0.71" style="stop-color:#CCCCCC"/>
			</linearGradient>
			<path class="st0" d="M21.1,13.8h-1.9v-1.9c0.1-0.9-0.6-1.7-1.6-1.8s-1.7,0.6-1.8,1.6c0,0.1,0,0.2,0,0.3v1.9H14
				c-0.9,0.1-1.6,0.9-1.6,1.8c0.1,0.8,0.7,1.5,1.6,1.6h1.9v1.9c0.1,0.9,0.9,1.6,1.8,1.6c0.8-0.1,1.5-0.7,1.6-1.6v-1.9h1.9
				c0.9-0.1,1.6-0.9,1.6-1.8C22.6,14.5,22,13.9,21.1,13.8z"/>
			
				<linearGradient id="SVGID_2_" gradientUnits="userSpaceOnUse" x1="0" y1="30.3598" x2="10.25" y2="30.3598" gradientTransform="matrix(1 0 0 -1 0 35.4898)">
				<stop  offset="0" style="stop-color:#F0F0F0"/>
				<stop  offset="0.71" style="stop-color:#CCCCCC"/>
			</linearGradient>
			<path class="st1" d="M8.5,0H1.8C0.8,0,0,0.8,0,1.8c0,0,0,0,0,0V2l0,0v6.3c0,1.1,0.9,1.9,1.9,1.9s1.9-0.9,1.9-1.9V3.8h4.7
				c1,0,1.8-0.8,1.8-1.8c0,0,0,0,0,0V1.8C10.3,0.8,9.5,0,8.5,0C8.5,0,8.5,0,8.5,0z"/>
			
				<linearGradient id="SVGID_3_" gradientUnits="userSpaceOnUse" x1="2.384186e-07" y1="9.5098" x2="10.25" y2="9.5098" gradientTransform="matrix(1 0 0 -1 0 35.4898)">
				<stop  offset="0" style="stop-color:#F0F0F0"/>
				<stop  offset="0.71" style="stop-color:#CCCCCC"/>
			</linearGradient>
			<path class="st2" d="M8.3,27.3H3.8v-4.6c0-1-0.8-1.8-1.8-1.8H1.8c-1,0-1.8,0.8-1.8,1.8v6.7c0,1,0.8,1.8,1.8,1.8h6.5
				c1.1,0,1.9-0.9,1.9-1.9C10.2,28.1,9.4,27.3,8.3,27.3z"/>
			
				<linearGradient id="SVGID_4_" gradientUnits="userSpaceOnUse" x1="24.87" y1="9.4798" x2="35.13" y2="9.4798" gradientTransform="matrix(1 0 0 -1 0 35.4898)">
				<stop  offset="0" style="stop-color:#F0F0F0"/>
				<stop  offset="0.71" style="stop-color:#CCCCCC"/>
			</linearGradient>
			<path class="st3" d="M35.1,29.1v-6.3c0-1.1-0.9-1.9-1.9-1.9c-1.1,0-1.9,0.9-1.9,1.9v4.5h-4.6c-1,0-1.8,0.8-1.8,1.8c0,0,0,0,0,0
				v0.2c0,1,0.8,1.8,1.8,1.8h6.7c1,0,1.8-0.8,1.8-1.8V29.1L35.1,29.1z"/>
			
				<linearGradient id="SVGID_5_" gradientUnits="userSpaceOnUse" x1="24.87" y1="30.3623" x2="35.13" y2="30.3623" gradientTransform="matrix(1 0 0 -1 0 35.4898)">
				<stop  offset="0" style="stop-color:#F0F0F0"/>
				<stop  offset="0.71" style="stop-color:#CCCCCC"/>
			</linearGradient>
			<path class="st4" d="M33.3,0h-6.5c-1.1-0.1-2,0.7-2.1,1.8s0.7,2,1.8,2.1c0.1,0,0.2,0,0.3,0h4.5v4.6c0,1,0.8,1.8,1.8,1.8h0.2
				c1,0,1.8-0.8,1.8-1.8V1.8C35.1,0.8,34.3,0,33.3,0z"/>
		</g>
	</g>
</g>
</svg>
