<?xml version="1.0" encoding="utf-8"?>
<!-- Generator: Adobe Illustrator 23.0.0, SVG Export Plug-In . SVG Version: 6.00 Build 0)  -->
<svg version="1.1" id="Layer_1" xmlns="http://www.w3.org/2000/svg" xmlns:xlink="http://www.w3.org/1999/xlink" x="0px" y="0px"
	 viewBox="0 0 25 33.4" style="enable-background:new 0 0 25 33.4;" xml:space="preserve">
<style type="text/css">
	<!-- .st0{fill:url(#SVGID_1_);} -->
	.st0{fill:white;}
</style>
<title>Redo</title>
<g>
	<g>
		<g id="Icons">
			
				<image style="overflow:visible;opacity:0.25;enable-background:new    ;" width="38" height="46" xlink:href="9FD1F1262861DD94.png"  transform="matrix(1 0 0 1 -3.6644 -4.0915)">
			</image>
			
				<linearGradient id="SVGID_1_" gradientUnits="userSpaceOnUse" x1="3.1535" y1="30.2061" x2="18.8435" y2="16.7161" gradientTransform="matrix(1 0 0 -1 0 37.7068)">
				<stop  offset="0" style="stop-color:#F0F0F0"/>
				<stop  offset="0.71" style="stop-color:#CCCCCC"/>
			</linearGradient>
			<path class="st0" d="M24.3,5l-6.8-4.8c-0.7-0.5-1.6-0.3-2.1,0.4c-0.2,0.3-0.3,0.6-0.3,0.9v2.1C6.8,3.5,0.1,10.2,0,18.5
				c-0.1,7.4,5.3,13.8,12.7,14.9c0.1,0,0.3,0,0.4,0c1.2,0,2.3-1,2.3-2.2c0-1.1-0.8-2.1-1.9-2.3C7.8,27.9,4,22.4,5,16.7
				c0.9-4.9,5.1-8.5,10.1-8.7v2.9c0,0.9,0.7,1.5,1.5,1.5c0.3,0,0.6-0.1,0.9-0.3l6.9-4.6c0.7-0.5,0.9-1.4,0.4-2.1
				C24.6,5.3,24.5,5.1,24.3,5z"/>
		</g>
	</g>
</g>
</svg>
