<?xml version="1.0" encoding="utf-8"?>
<!-- Generator: Adobe Illustrator 23.0.0, SVG Export Plug-In . SVG Version: 6.00 Build 0)  -->
<svg version="1.1" id="Layer_1" xmlns="http://www.w3.org/2000/svg" xmlns:xlink="http://www.w3.org/1999/xlink" x="0px" y="0px"
	 viewBox="0 0 32 32" style="enable-background:new 0 0 32 32;" xml:space="preserve">
<style type="text/css">
	.st0{fill:#BFBFBF;}
	.st1{fill:#FFFFFF;}
</style>
<path class="st0" d="M23.5,22.5c2.2,0,3,2,3,3c0,0.5-0.2,1.4-1,2.2c-2.8,2.5-6.3,3.8-10,3.8c-8.3,0-15-6.7-15-15s6.7-15,15-15
	c3.3,0,6.5,1.1,9.1,3.1l1.9-1.9c0.7-0.8,1.2-1.2,2-1.2c0.8,0,2,0.6,2,2v10c0,1.2-0.9,2-2,2h-10c-1.4,0-2-1.2-2-2
	c0-0.8,0.4-1.3,1.2-2l2.6-2.6c-1.4-0.9-3.1-1.4-4.8-1.4c-5,0-9,4-9,9c0,5,4,9,9,9c2.2,0,4.3-0.8,6-2.3
	C22.3,22.5,22.8,22.5,23.5,22.5z"/>
<path class="st1" d="M24.5,21.5c2.2,0,3,2,3,3c0,0.5-0.2,1.4-1,2.2c-2.8,2.5-6.3,3.8-10,3.8c-8.3,0-15-6.7-15-15s6.7-15,15-15
	c3.3,0,6.5,1.1,9.1,3.1l1.9-1.9c0.7-0.8,1.2-1.2,2-1.2c0.8,0,2,0.6,2,2v10c0,1.2-0.9,2-2,2h-10c-1.4,0-2-1.2-2-2
	c0-0.8,0.4-1.3,1.2-2l2.6-2.6c-1.4-0.9-3.1-1.4-4.8-1.4c-5,0-9,4-9,9c0,5,4,9,9,9c2.2,0,4.3-0.8,6-2.3
	C23.3,21.5,23.8,21.5,24.5,21.5z"/>
</svg>
