<?xml version="1.0" encoding="utf-8"?>
<!-- Generator: Adobe Illustrator 23.0.0, SVG Export Plug-In . SVG Version: 6.00 Build 0)  -->
<svg version="1.1" id="Layer_1" xmlns="http://www.w3.org/2000/svg" xmlns:xlink="http://www.w3.org/1999/xlink" x="0px" y="0px"
	 viewBox="0 0 100 100" style="enable-background:new 0 0 100 100;" xml:space="preserve">
<style type="text/css">
	.st0{fill:#BFBFBF;}
	.st1{fill:#FFFFFF;}
</style>
<g>
	<path class="st0" d="M37.4,85.5c0.8,0.6,1.1,1.5,1.1,2.8c0,1.2-0.4,2.1-1.1,2.8c-0.8,0.6-1.7,0.9-2.8,0.9h-6.8
		c-3.3,0-5.8-0.9-7.6-2.8c-1.8-1.8-2.7-4.4-2.7-7.8V61.4c0-2.5-0.5-4.4-1.4-5.5c-0.9-1.2-2.6-1.8-5-1.9c-1.3-0.1-2.2-0.4-2.9-1.1
		C7.3,52,7,51.1,7,50c0-1.1,0.3-2,1-2.7c0.7-0.7,1.6-1.1,2.9-1.1c2.4-0.1,4.1-0.8,5-1.9c0.9-1.2,1.4-3,1.4-5.5V18.6
		c0-3.4,0.9-5.9,2.7-7.8c1.8-1.8,4.3-2.8,7.6-2.8h6.8c1.1,0,2.1,0.3,2.8,0.9c0.8,0.6,1.1,1.5,1.1,2.8c0,1.2-0.4,2.1-1.1,2.8
		c-0.8,0.6-1.7,0.9-2.8,0.9h-3.7c-1.4,0-2.4,0.3-3.1,1c-0.7,0.7-1,1.7-1,3.2v20.1c0,2.8-0.7,5.1-2.1,6.9s-3.1,2.9-5.1,3.4
		c2,0.4,3.7,1.6,5.1,3.4c1.4,1.8,2.1,4.1,2.1,6.9v20.1c0,1.5,0.3,2.5,1,3.2c0.7,0.7,1.7,1,3.1,1h3.7C35.6,84.6,36.6,84.9,37.4,85.5z
		"/>
	<path class="st0" d="M93.9,47.3c0.7,0.7,1,1.6,1,2.7c0,1.1-0.3,2.1-1,2.8c-0.7,0.7-1.6,1.1-2.9,1.1c-2.3,0.1-4,0.8-4.9,1.9
		c-0.9,1.1-1.4,3-1.4,5.6l-0.1,20.1c0,3.4-0.9,5.9-2.7,7.8c-1.8,1.8-4.4,2.8-7.7,2.8h-6.8c-1.1,0-2.1-0.3-2.8-0.9
		c-0.7-0.6-1.1-1.5-1.1-2.8c0-1.2,0.4-2.1,1.1-2.8c0.8-0.6,1.7-0.9,2.8-0.9h3.8c2.7,0,4.1-1.4,4.1-4.2V60.3c0-2.8,0.7-5.1,2.1-6.9
		c1.4-1.8,3.1-3,5.1-3.4c-2-0.4-3.7-1.6-5.1-3.4s-2.1-4.1-2.1-6.9V19.6c0-2.8-1.4-4.2-4.1-4.2h-3.8c-1.1,0-2-0.3-2.8-0.9
		c-0.8-0.6-1.1-1.5-1.1-2.8c0-1.2,0.4-2.1,1.1-2.8c0.7-0.6,1.7-0.9,2.8-0.9h6.8c3.4,0,5.9,0.9,7.7,2.8c1.8,1.8,2.7,4.4,2.7,7.8v20.1
		c0,2.6,0.5,4.5,1.4,5.6c0.9,1.1,2.6,1.8,5,1.9C92.3,46.3,93.3,46.6,93.9,47.3z"/>
</g>
<g>
	<path class="st1" d="M39.4,84.5c0.8,0.6,1.1,1.5,1.1,2.8c0,1.2-0.4,2.1-1.1,2.8c-0.8,0.6-1.7,0.9-2.8,0.9h-6.8
		c-3.3,0-5.8-0.9-7.6-2.8c-1.8-1.8-2.7-4.4-2.7-7.8V60.4c0-2.5-0.5-4.4-1.4-5.5c-0.9-1.2-2.6-1.8-5-1.9c-1.3-0.1-2.2-0.4-2.9-1.1
		C9.3,51,9,50.1,9,49c0-1.1,0.3-2,1-2.7c0.7-0.7,1.6-1.1,2.9-1.1c2.4-0.1,4.1-0.8,5-1.9c0.9-1.2,1.4-3,1.4-5.5V17.6
		c0-3.4,0.9-5.9,2.7-7.8c1.8-1.8,4.3-2.8,7.6-2.8h6.8c1.1,0,2.1,0.3,2.8,0.9c0.8,0.6,1.1,1.5,1.1,2.8c0,1.2-0.4,2.1-1.1,2.8
		c-0.8,0.6-1.7,0.9-2.8,0.9h-3.7c-1.4,0-2.4,0.3-3.1,1c-0.7,0.7-1,1.7-1,3.2v20.1c0,2.8-0.7,5.1-2.1,6.9s-3.1,2.9-5.1,3.4
		c2,0.4,3.7,1.6,5.1,3.4c1.4,1.8,2.1,4.1,2.1,6.9v20.1c0,1.5,0.3,2.5,1,3.2c0.7,0.7,1.7,1,3.1,1h3.7C37.6,83.6,38.6,83.9,39.4,84.5z
		"/>
	<path class="st1" d="M95.9,46.3c0.7,0.7,1,1.6,1,2.7c0,1.1-0.3,2.1-1,2.8c-0.7,0.7-1.6,1.1-2.9,1.1c-2.3,0.1-4,0.8-4.9,1.9
		c-0.9,1.1-1.4,3-1.4,5.6l-0.1,20.1c0,3.4-0.9,5.9-2.7,7.8c-1.8,1.8-4.4,2.8-7.7,2.8h-6.8c-1.1,0-2.1-0.3-2.8-0.9
		c-0.7-0.6-1.1-1.5-1.1-2.8c0-1.2,0.4-2.1,1.1-2.8c0.8-0.6,1.7-0.9,2.8-0.9h3.8c2.7,0,4.1-1.4,4.1-4.2V59.3c0-2.8,0.7-5.1,2.1-6.9
		c1.4-1.8,3.1-3,5.1-3.4c-2-0.4-3.7-1.6-5.1-3.4s-2.1-4.1-2.1-6.9V18.6c0-2.8-1.4-4.2-4.1-4.2h-3.8c-1.1,0-2-0.3-2.8-0.9
		c-0.8-0.6-1.1-1.5-1.1-2.8c0-1.2,0.4-2.1,1.1-2.8c0.7-0.6,1.7-0.9,2.8-0.9h6.8c3.4,0,5.9,0.9,7.7,2.8c1.8,1.8,2.7,4.4,2.7,7.8v20.1
		c0,2.6,0.5,4.5,1.4,5.6c0.9,1.1,2.6,1.8,5,1.9C94.3,45.3,95.3,45.6,95.9,46.3z"/>
</g>
</svg>
