<?xml version="1.0" encoding="utf-8"?>
<!-- Generator: Adobe Illustrator 23.0.0, SVG Export Plug-In . SVG Version: 6.00 Build 0)  -->
<svg version="1.1" id="Layer_1" xmlns="http://www.w3.org/2000/svg" xmlns:xlink="http://www.w3.org/1999/xlink" x="0px" y="0px"
	 viewBox="0 0 28.3 28.3" style="enable-background:new 0 0 28.3 28.3;" xml:space="preserve">
<style type="text/css">
	<!-- .st0{fill:url(#SVGID_1_);}
	.st1{fill:url(#SVGID_2_);}
	.st2{fill:url(#SVGID_3_);} -->
	.st0{fill:white;}
	.st1{fill:white;}
	.st2{fill:white;}
</style>
<title>Send Backward</title>
<g>
	<g>
		<g id="Icons">
			
				<image style="overflow:visible;opacity:0.25;enable-background:new    ;" width="38" height="35" xlink:href="FD0351D412526E8.png"  transform="matrix(1 0 0 1 -1.8947 -4.3856)">
			</image>
			
				<linearGradient id="SVGID_1_" gradientUnits="userSpaceOnUse" x1="6.9526" y1="29.0784" x2="31.5826" y2="8.9884" gradientTransform="matrix(1 0 0 -1 0 29.2362)">
				<stop  offset="0" style="stop-color:#F0F0F0"/>
				<stop  offset="0.71" style="stop-color:#CCCCCC"/>
			</linearGradient>
			<path class="st0" d="M25.7,0H2.9C2.3,0,1.8,0.5,1.8,1.2v4.3c0,0.7,0.5,1.2,1.2,1.2l0,0h8v8.5H9.7c-0.5,0-0.9,0.4-0.9,0.9
				c0,0.2,0.1,0.5,0.3,0.6l4.6,4.6c0.4,0.4,0.9,0.4,1.3,0l4.6-4.6c0.4-0.4,0.4-0.9,0-1.3c-0.2-0.2-0.4-0.3-0.6-0.3h-1.2V6.7h8
				c0.7,0,1.2-0.5,1.2-1.2c0,0,0,0,0,0V1.2C26.8,0.5,26.3,0,25.7,0z"/>
			
				<linearGradient id="SVGID_2_" gradientUnits="userSpaceOnUse" x1="1.244" y1="21.9002" x2="24.334" y2="3.0502" gradientTransform="matrix(1 0 0 -1 0 29.2362)">
				<stop  offset="0" style="stop-color:#F0F0F0"/>
				<stop  offset="0.71" style="stop-color:#CCCCCC"/>
			</linearGradient>
			<path class="st1" d="M9.2,9.1H2.7C2.2,9,1.8,9.4,1.8,9.9v2.2c0,0.5,0.4,0.9,0.9,0.9c0,0,0,0,0,0h6.6V9.1z"/>
			
				<linearGradient id="SVGID_3_" gradientUnits="userSpaceOnUse" x1="8.9747" y1="29.461" x2="32.0547" y2="10.631" gradientTransform="matrix(1 0 0 -1 0 29.2362)">
				<stop  offset="0" style="stop-color:#F0F0F0"/>
				<stop  offset="0.71" style="stop-color:#CCCCCC"/>
			</linearGradient>
			<path class="st2" d="M25.9,9.1h-6.5v4h6.5c0.5,0,0.9-0.4,0.9-0.9c0,0,0,0,0,0V9.9C26.8,9.4,26.4,9,25.9,9.1z"/>
		</g>
	</g>
</g>
</svg>
