<?xml version="1.0" encoding="utf-8"?>
<!-- Generator: Adobe Illustrator 23.0.0, SVG Export Plug-In . SVG Version: 6.00 Build 0)  -->
<svg version="1.1" id="Layer_1" xmlns="http://www.w3.org/2000/svg" xmlns:xlink="http://www.w3.org/1999/xlink" x="0px" y="0px"
	 viewBox="0 0 28.3 28.3" style="enable-background:new 0 0 28.3 28.3;" xml:space="preserve">
<style type="text/css">
	<!-- .st0{fill:url(#SVGID_1_);}
	.st1{fill:url(#SVGID_2_);}
	.st2{fill:url(#SVGID_3_);}
	.st3{fill:url(#SVGID_4_);}
	.st4{fill:url(#SVGID_5_);} -->
	.st0{fill:white;}
	.st1{fill:white;}
	.st2{fill:white;}
	.st3{fill:white;}
	.st4{fill:white;}
</style>
<title>Send to Back</title>
<g>
	<g>
		<g id="Icons">
			
				<image style="overflow:visible;opacity:0.25;enable-background:new    ;" width="38" height="42" xlink:href="38B0DC973E48B5CB.png"  transform="matrix(1 0 0 1 -1.6968 -4.7362)">
			</image>
			
				<linearGradient id="SVGID_1_" gradientUnits="userSpaceOnUse" x1="3.1395" y1="33.6104" x2="30.3595" y2="8.6604" gradientTransform="matrix(1 0 0 -1 0 32.4173)">
				<stop  offset="0" style="stop-color:#F0F0F0"/>
				<stop  offset="0.71" style="stop-color:#CCCCCC"/>
			</linearGradient>
			<path class="st0" d="M18.7,21.9h-1.2V20l0,0v-4.2l0,0v-2.3l0,0V9.2l0,0V6.8h8c0.7,0,1.2-0.5,1.2-1.2c0,0,0,0,0,0V1.3
				c0-0.7-0.5-1.2-1.2-1.2c0,0,0,0,0,0H2.8c-0.7,0-1.2,0.5-1.2,1.2c0,0,0,0,0,0v4.3c0,0.7,0.5,1.2,1.2,1.2h0h8v15.1H9.6
				c-0.5,0-0.9,0.4-0.9,0.9c0,0.2,0.1,0.5,0.3,0.6l4.6,4.6c0.4,0.4,0.9,0.4,1.3,0l4.6-4.6c0.3-0.4,0.3-0.9,0-1.3
				C19.2,22,19,21.9,18.7,21.9z"/>
			
				<linearGradient id="SVGID_2_" gradientUnits="userSpaceOnUse" x1="-1.6548" y1="27.9057" x2="24.1752" y2="4.2257" gradientTransform="matrix(1 0 0 -1 0 32.4173)">
				<stop  offset="0" style="stop-color:#F0F0F0"/>
				<stop  offset="0.71" style="stop-color:#CCCCCC"/>
			</linearGradient>
			<path class="st1" d="M9.1,9.2H2.6c-0.5,0-0.9,0.4-0.9,0.9c0,0,0,0,0,0v2.3c0,0.5,0.4,0.9,0.9,0.9c0,0,0,0,0,0h6.6V9.2z"/>
			
				<linearGradient id="SVGID_3_" gradientUnits="userSpaceOnUse" x1="-4.7588" y1="24.3314" x2="21.0712" y2="0.6513" gradientTransform="matrix(1 0 0 -1 0 32.4173)">
				<stop  offset="0" style="stop-color:#F0F0F0"/>
				<stop  offset="0.71" style="stop-color:#CCCCCC"/>
			</linearGradient>
			<path class="st2" d="M9.1,15.6H2.6c-0.5,0-0.9,0.4-0.9,0.9c0,0,0,0,0,0v2.3c0,0.5,0.4,0.9,0.9,0.9c0,0,0,0,0,0h6.6V15.6z"/>
			
				<linearGradient id="SVGID_4_" gradientUnits="userSpaceOnUse" x1="6.9126" y1="35.7255" x2="32.7026" y2="12.0855" gradientTransform="matrix(1 0 0 -1 0 32.4173)">
				<stop  offset="0" style="stop-color:#F0F0F0"/>
				<stop  offset="0.71" style="stop-color:#CCCCCC"/>
			</linearGradient>
			<path class="st3" d="M25.8,9.2h-6.5v4.1h6.5c0.5,0,0.9-0.4,0.9-0.9c0,0,0,0,0,0v-2.3C26.8,9.6,26.3,9.1,25.8,9.2
				C25.8,9.2,25.8,9.2,25.8,9.2z"/>
			
				<linearGradient id="SVGID_5_" gradientUnits="userSpaceOnUse" x1="3.8122" y1="32.1342" x2="29.5922" y2="8.4942" gradientTransform="matrix(1 0 0 -1 0 32.4173)">
				<stop  offset="0" style="stop-color:#F0F0F0"/>
				<stop  offset="0.71" style="stop-color:#CCCCCC"/>
			</linearGradient>
			<path class="st4" d="M25.8,15.6h-6.5v4.1h6.5c0.5,0,0.9-0.4,0.9-0.9c0,0,0,0,0,0v-2.3C26.8,16,26.3,15.6,25.8,15.6
				C25.8,15.6,25.8,15.6,25.8,15.6z"/>
		</g>
	</g>
</g>
</svg>
