<?xml version="1.0" encoding="utf-8"?>
<!-- Generator: Adobe Illustrator 16.0.0, SVG Export Plug-In . SVG Version: 6.00 Build 0)  -->
<!DOCTYPE svg PUBLIC "-//W3C//DTD SVG 1.1//EN" "http://www.w3.org/Graphics/SVG/1.1/DTD/svg11.dtd">
<svg version="1.1" id="Layer_1" xmlns="http://www.w3.org/2000/svg" xmlns:xlink="http://www.w3.org/1999/xlink" x="0px" y="0px"
	 width="25px" height="25px" viewBox="0 0 25 25" enable-background="new 0 0 25 25" xml:space="preserve">
<title>1_43bjDRA6O2BvOryiUCwpNw</title>
<desc>Created with Sketch.</desc>
<path fill="none" d="M5.662,5.602C5.487,5.612,5.336,5.626,5.185,5.63c-1.077,0.028-2.154,0.05-3.23,0.085
	C1.862,5.718,1.732,5.773,1.687,5.846C0.989,6.975,0.478,8.183,0.166,9.475C0.132,9.615,0.163,9.706,0.259,9.806
	c0.518,0.537,1.029,1.081,1.542,1.622c0.332,0.35,0.661,0.701,0.997,1.058c-0.091,0.117-0.164,0.227-0.252,0.321
	c-0.765,0.807-1.532,1.612-2.303,2.414c-0.091,0.095-0.122,0.177-0.09,0.311c0.308,1.3,0.82,2.514,1.506,3.658
	c0.065,0.109,0.146,0.139,0.269,0.141c1.167,0.025,2.334,0.061,3.501,0.084c0.154,0.003,0.216,0.039,0.22,0.207
	c0.025,1.168,0.063,2.334,0.089,3.501c0.004,0.146,0.044,0.238,0.174,0.317c1.134,0.69,2.347,1.188,3.638,1.498
	c0.074,0.018,0.191-0.017,0.248-0.07c0.722-0.675,1.435-1.356,2.152-2.036c0.188-0.179,0.381-0.352,0.573-0.529
	c0.054,0.046,0.086,0.071,0.115,0.099c0.866,0.824,1.729,1.651,2.6,2.469c0.061,0.059,0.185,0.097,0.265,0.078
	c1.284-0.305,2.492-0.798,3.625-1.478c0.151-0.09,0.195-0.195,0.199-0.366c0.021-1.153,0.06-2.306,0.084-3.459
	c0.003-0.153,0.052-0.199,0.203-0.202c1.167-0.021,2.334-0.05,3.501-0.07c0.139-0.003,0.227-0.036,0.302-0.16
	c0.687-1.128,1.184-2.334,1.51-3.612c0.033-0.135,0.006-0.23-0.093-0.334c-0.489-0.507-0.971-1.021-1.453-1.533
	c-0.368-0.392-0.732-0.785-1.102-1.181c0.06-0.071,0.092-0.114,0.129-0.153c0.806-0.845,1.609-1.692,2.421-2.53
	c0.12-0.123,0.139-0.231,0.1-0.387c-0.314-1.26-0.804-2.447-1.472-3.562c-0.072-0.12-0.154-0.168-0.297-0.171
	c-1.09-0.024-2.181-0.058-3.271-0.09c-0.143-0.004-0.284-0.022-0.433-0.033c-0.006-0.077-0.013-0.131-0.015-0.185
	c-0.026-1.167-0.054-2.334-0.076-3.501c-0.002-0.127-0.024-0.218-0.145-0.291c-1.144-0.686-2.353-1.209-3.653-1.518
	c-0.138-0.032-0.215,0.002-0.309,0.091c-0.689,0.658-1.382,1.312-2.075,1.967C12.98,2.38,12.774,2.57,12.568,2.763
	c-0.075-0.064-0.129-0.106-0.179-0.154c-0.83-0.791-1.661-1.581-2.487-2.375C9.794,0.128,9.702,0.084,9.54,0.123
	C8.275,0.429,7.091,0.922,5.974,1.586C5.838,1.667,5.782,1.751,5.779,1.91c-0.02,1.029-0.05,2.058-0.08,3.086
	C5.693,5.189,5.675,5.381,5.662,5.602z"/>
<path fill-rule="evenodd" clip-rule="evenodd" fill="#E0E0E0" d="M5.662,5.602c0.013-0.221,0.031-0.413,0.037-0.605
	c0.029-1.029,0.06-2.058,0.08-3.086c0.003-0.159,0.059-0.243,0.195-0.324C7.091,0.922,8.275,0.429,9.54,0.123
	c0.162-0.039,0.254,0.005,0.363,0.11c0.826,0.794,1.657,1.584,2.487,2.375c0.05,0.048,0.104,0.09,0.179,0.154
	c0.207-0.193,0.413-0.382,0.616-0.575c0.693-0.655,1.386-1.309,2.075-1.967c0.094-0.088,0.171-0.123,0.309-0.091
	c1.301,0.308,2.51,0.832,3.653,1.518c0.12,0.073,0.143,0.163,0.145,0.291c0.022,1.167,0.05,2.334,0.076,3.501
	c0.002,0.054,0.009,0.108,0.015,0.185c0.148,0.011,0.29,0.029,0.433,0.033c1.091,0.032,2.182,0.065,3.271,0.09
	c0.143,0.003,0.225,0.051,0.297,0.171c0.668,1.115,1.157,2.302,1.472,3.562c0.039,0.156,0.021,0.264-0.1,0.387
	c-0.812,0.838-1.615,1.686-2.421,2.53c-0.037,0.039-0.069,0.083-0.129,0.153c0.369,0.396,0.733,0.79,1.102,1.181
	c0.482,0.512,0.964,1.026,1.453,1.533c0.099,0.104,0.126,0.199,0.093,0.334c-0.326,1.278-0.823,2.484-1.51,3.612
	c-0.075,0.124-0.163,0.157-0.302,0.16c-1.167,0.021-2.334,0.05-3.501,0.07c-0.151,0.003-0.2,0.049-0.203,0.202
	c-0.024,1.153-0.062,2.306-0.084,3.459c-0.004,0.171-0.048,0.276-0.199,0.366c-1.133,0.68-2.341,1.173-3.625,1.478
	c-0.08,0.019-0.204-0.02-0.265-0.078c-0.871-0.817-1.734-1.645-2.6-2.469c-0.029-0.027-0.062-0.053-0.115-0.099
	c-0.192,0.178-0.385,0.351-0.573,0.529c-0.717,0.68-1.43,1.361-2.152,2.036c-0.057,0.054-0.174,0.088-0.248,0.07
	c-1.291-0.31-2.503-0.808-3.638-1.498c-0.13-0.079-0.17-0.171-0.174-0.317c-0.026-1.167-0.064-2.333-0.089-3.501
	c-0.004-0.168-0.066-0.204-0.22-0.207c-1.167-0.023-2.334-0.059-3.501-0.084c-0.123-0.002-0.204-0.031-0.269-0.141
	c-0.686-1.145-1.199-2.358-1.506-3.658c-0.031-0.134,0-0.216,0.09-0.311c0.771-0.802,1.538-1.607,2.303-2.414
	c0.088-0.094,0.161-0.204,0.252-0.321c-0.335-0.357-0.665-0.708-0.997-1.058c-0.513-0.542-1.024-1.085-1.542-1.622
	c-0.096-0.1-0.127-0.19-0.093-0.331c0.312-1.292,0.823-2.5,1.521-3.628c0.045-0.073,0.175-0.128,0.268-0.131
	C3.031,5.68,4.108,5.658,5.185,5.63C5.336,5.626,5.487,5.612,5.662,5.602z M12.533,17.469c2.737,0.006,4.927-2.179,4.937-4.927
	c0.009-2.731-2.196-4.959-4.914-4.964c-2.705-0.005-4.934,2.214-4.942,4.92C7.606,15.254,9.792,17.464,12.533,17.469z"/>
</svg>
