<svg width="20" height="19" viewBox="0 0 20 19" fill="none" xmlns="http://www.w3.org/2000/svg">
<path d="M7.63095 18.8725C4.56414 18.8725 0 13.2221 0 9.42594C0 3.87475 3.86186 0 9.38986 0C15.24 0 20 4.16983 20 9.29708C20 12.0817 17.5594 12.4489 15.4088 12.7724C12.9399 13.1448 10.6076 13.4953 10.0226 16.4835C9.61536 18.5619 8.34998 18.8725 7.63095 18.8725ZM9.38986 1.28858C4.61955 1.28858 1.28858 4.63501 1.28858 9.42594C1.28858 12.7067 5.44681 17.5839 7.63095 17.5839C7.86676 17.5839 8.49301 17.5839 8.75846 16.2361C9.51872 12.3549 12.6783 11.8794 15.2168 11.498C17.7012 11.1243 18.7127 10.8202 18.7127 9.29579C18.7127 4.88113 14.5313 1.28858 9.38986 1.28858Z" fill="#CFCFCF"/>
<path d="M4.6582 5.03825C4.6582 6.62191 5.94678 7.91049 7.53044 7.91049C9.1141 7.91049 10.4027 6.62191 10.4027 5.03825C10.4027 3.45459 9.1141 2.16602 7.53044 2.16602C5.94678 2.16602 4.6582 3.45459 4.6582 5.03825Z" fill="#CFCFCF"/>
<path d="M5.67963 14.2694C4.17071 14.2694 2.94141 13.0414 2.94141 11.5312C2.94141 10.021 4.17071 8.79297 5.67963 8.79297C7.18984 8.79297 8.41786 10.021 8.41786 11.5312C8.41786 13.0414 7.18984 14.2694 5.67963 14.2694Z" fill="#CFCFCF"/>
<path d="M14.2722 9.60101C12.8367 9.60101 11.668 8.43356 11.668 6.99679C11.668 5.56003 12.8354 4.39258 14.2722 4.39258C15.7089 4.39258 16.8764 5.56132 16.8764 6.99679C16.8764 8.43227 15.7077 9.60101 14.2722 9.60101Z" fill="#CFCFCF"/>
</svg>
