<?xml version="1.0" encoding="utf-8"?>
<!-- Generator: Adobe Illustrator 23.0.0, SVG Export Plug-In . SVG Version: 6.00 Build 0)  -->
<svg version="1.1" id="Layer_1" xmlns="http://www.w3.org/2000/svg" xmlns:xlink="http://www.w3.org/1999/xlink" x="0px" y="0px"
	 viewBox="0 0 100 100" style="enable-background:new 0 0 100 100;" xml:space="preserve">
<style type="text/css">
	.st0{fill:#BFBFBF;}
	.st1{fill:#FFFFFF;}
	.st2{clip-path:url(#SVGID_2_);}
	.st3{clip-path:url(#SVGID_4_);}
</style>
<path class="st0" d="M4.1,88.3v0.4c0,1.6,1.8,2.6,3.2,1.6l89.3-65.5c1-0.7,1.1-2.2,0.2-3l-0.4-0.4c-0.7-0.7-1.8-0.8-2.6-0.2
	L4.9,86.7C4.4,87,4.1,87.6,4.1,88.3z"/>
<path class="st1" d="M5,86.3v0.4c0,1.6,1.8,2.6,3.2,1.6l89.3-65.5c1-0.7,1.1-2.2,0.2-3l-0.4-0.4c-0.7-0.7-1.8-0.8-2.6-0.2L5.8,84.7
	C5.3,85,5,85.6,5,86.3z"/>
<g>
	<defs>
		<polygon id="SVGID_1_" points="11.3,87.4 81,36.3 90.2,69.3 90.2,107.2 17,107.2 		"/>
	</defs>
	<clipPath id="SVGID_2_">
		<use xlink:href="#SVGID_1_"  style="overflow:visible;"/>
	</clipPath>
	<g class="st2">
		<path class="st0" d="M43.3,90.7c0.6,0.5,0.8,1.2,0.8,2c0,0.9-0.3,1.6-0.8,2c-0.6,0.5-1.3,0.7-2.1,0.7h-5.1c-2.4,0-4.3-0.7-5.7-2
			c-1.3-1.4-2-3.3-2-5.8v-15c0-1.9-0.4-3.3-1.1-4.1c-0.7-0.9-2-1.4-3.7-1.4c-0.9,0-1.7-0.3-2.2-0.8c-0.5-0.5-0.7-1.2-0.7-2
			c0-0.8,0.2-1.5,0.7-2c0.5-0.5,1.2-0.8,2.2-0.8c1.8-0.1,3-0.6,3.7-1.4c0.7-0.9,1.1-2.2,1.1-4.1v-15c0-2.5,0.7-4.4,2-5.8
			c1.3-1.4,3.2-2,5.7-2h5.1c0.8,0,1.6,0.2,2.1,0.7c0.6,0.5,0.8,1.2,0.8,2c0,0.9-0.3,1.6-0.8,2c-0.6,0.5-1.3,0.7-2.1,0.7h-2.8
			c-1,0-1.8,0.2-2.3,0.7c-0.5,0.5-0.7,1.3-0.7,2.4v15c0,2.1-0.5,3.8-1.6,5.1s-2.3,2.2-3.8,2.5c1.5,0.3,2.7,1.2,3.8,2.5
			c1.1,1.4,1.6,3.1,1.6,5.1v15c0,1.1,0.2,1.9,0.7,2.4c0.5,0.5,1.3,0.7,2.3,0.7h2.8C42,90,42.7,90.3,43.3,90.7z"/>
		<path class="st0" d="M85.4,62.3c0.5,0.5,0.7,1.2,0.7,2c0,0.8-0.2,1.5-0.7,2c-0.5,0.5-1.2,0.8-2.2,0.8c-1.7,0.1-3,0.6-3.6,1.4
			c-0.7,0.8-1,2.2-1,4.2l-0.1,15c0,2.5-0.7,4.4-2,5.8c-1.3,1.4-3.3,2-5.7,2h-5.1c-0.8,0-1.5-0.2-2.1-0.7c-0.5-0.5-0.8-1.2-0.8-2
			c0-0.9,0.3-1.6,0.8-2c0.6-0.5,1.2-0.7,2-0.7h2.8c2,0,3-1,3-3.1V72c0-2.1,0.5-3.8,1.6-5.1c1.1-1.4,2.3-2.2,3.8-2.5
			c-1.5-0.3-2.7-1.2-3.8-2.5s-1.6-3-1.6-5.1v-15c0-2.1-1-3.1-3-3.1h-2.8c-0.8,0-1.5-0.2-2-0.7c-0.6-0.5-0.8-1.2-0.8-2
			c0-0.9,0.3-1.6,0.8-2c0.5-0.5,1.2-0.7,2.1-0.7h5.1c2.5,0,4.4,0.7,5.7,2c1.3,1.4,2,3.3,2,5.8v15c0,1.9,0.3,3.3,1,4.2
			c0.7,0.8,1.9,1.3,3.7,1.4C84.2,61.5,84.9,61.8,85.4,62.3z"/>
	</g>
	<g class="st2">
		<path class="st1" d="M43.6,89.4c0.6,0.5,0.8,1.2,0.8,2c0,0.9-0.3,1.6-0.8,2c-0.6,0.5-1.3,0.7-2.1,0.7h-5.1c-2.4,0-4.3-0.7-5.7-2
			c-1.3-1.4-2-3.3-2-5.8v-15c0-1.9-0.4-3.3-1.1-4.1c-0.7-0.9-2-1.4-3.7-1.4c-0.9,0-1.7-0.3-2.2-0.8c-0.5-0.5-0.7-1.2-0.7-2
			c0-0.8,0.2-1.5,0.7-2c0.5-0.5,1.2-0.8,2.2-0.8c1.8-0.1,3-0.6,3.7-1.4c0.7-0.9,1.1-2.2,1.1-4.1v-15c0-2.5,0.7-4.4,2-5.8
			c1.3-1.4,3.2-2,5.7-2h5.1c0.8,0,1.6,0.2,2.1,0.7c0.6,0.5,0.8,1.2,0.8,2c0,0.9-0.3,1.6-0.8,2c-0.6,0.5-1.3,0.7-2.1,0.7h-2.8
			c-1,0-1.8,0.2-2.3,0.7c-0.5,0.5-0.7,1.3-0.7,2.4v15c0,2.1-0.5,3.8-1.6,5.1c-1.1,1.3-2.3,2.2-3.8,2.5c1.5,0.3,2.7,1.2,3.8,2.5
			c1.1,1.4,1.6,3.1,1.6,5.1v15c0,1.1,0.2,1.9,0.7,2.4c0.5,0.5,1.3,0.7,2.3,0.7h2.8C42.3,88.6,43,88.9,43.6,89.4z"/>
		<path class="st1" d="M85.7,60.9c0.5,0.5,0.7,1.2,0.7,2c0,0.8-0.2,1.5-0.7,2c-0.5,0.5-1.2,0.8-2.2,0.8c-1.7,0.1-3,0.6-3.6,1.4
			c-0.7,0.8-1,2.2-1,4.2l-0.1,15c0,2.5-0.7,4.4-2,5.8c-1.3,1.4-3.3,2-5.7,2h-5.1c-0.8,0-1.5-0.2-2.1-0.7c-0.5-0.5-0.8-1.2-0.8-2
			c0-0.9,0.3-1.6,0.8-2c0.6-0.5,1.2-0.7,2-0.7h2.8c2,0,3-1,3-3.1v-15c0-2.1,0.5-3.8,1.6-5.1c1.1-1.4,2.3-2.2,3.8-2.5
			c-1.5-0.3-2.7-1.2-3.8-2.5c-1.1-1.3-1.6-3-1.6-5.1v-15c0-2.1-1-3.1-3-3.1h-2.8c-0.8,0-1.5-0.2-2-0.7c-0.6-0.5-0.8-1.2-0.8-2
			c0-0.9,0.3-1.6,0.8-2c0.5-0.5,1.2-0.7,2.1-0.7H71c2.5,0,4.4,0.7,5.7,2c1.3,1.4,2,3.3,2,5.8v15c0,1.9,0.3,3.3,1,4.2
			c0.7,0.8,1.9,1.3,3.7,1.4C84.4,60.1,85.2,60.4,85.7,60.9z"/>
	</g>
</g>
<g>
	<defs>
		<polygon id="SVGID_3_" points="13.5,79 83.2,27.6 58.2,3.3 8.8,5.3 3.3,29.9 4.1,76.8 		"/>
	</defs>
	<clipPath id="SVGID_4_">
		<use xlink:href="#SVGID_3_"  style="overflow:visible;"/>
	</clipPath>
	<g class="st3">
		<g>
			<path class="st0" d="M19.1,70.2h10.3H31c0.9,0,1.6-0.7,1.6-1.6V67v-4.8v-1.6c0-0.9-0.7-1.6-1.6-1.6h-1.6H19.1
				c-0.9,0-1.6,0.7-1.6,1.6v8.1C17.5,69.5,18.2,70.2,19.1,70.2z M20.7,62.1h8.7V67h-8.7V62.1z"/>
			<path class="st0" d="M82,23.4H50.1c0.1,0,0.2,0,0.2-0.1c0,0,0.1,0,0.1-0.1c0.1,0,0.1-0.1,0.2-0.1l0.1-0.1c0,0,0.1,0,0.1-0.1
				l5.6-4.8c0,0,0,0,0.1-0.1c0.1,0,0.1-0.1,0.1-0.1l0.1-0.1c0-0.1,0.1-0.1,0.1-0.2s0.1-0.1,0.1-0.2c0-0.1,0-0.1,0.1-0.2
				c0-0.1,0-0.1,0.1-0.2c0-0.1,0-0.1,0-0.2c0-0.1,0-0.1,0-0.2c0,0,0,0,0-0.1V5.7c0-0.9-0.7-1.6-1.6-1.6h-16c-0.9,0-1.6,0.7-1.6,1.6
				V17c0,0,0,0,0,0.1c0,0.1,0,0.1,0,0.2c0,0.1,0,0.1,0,0.2c0,0.1,0,0.1,0.1,0.2c0,0.1,0,0.1,0.1,0.2c0,0.1,0.1,0.1,0.1,0.2
				c0,0.1,0.1,0.1,0.1,0.2c0,0.1,0.1,0.1,0.1,0.1c0,0.1,0.1,0.1,0.1,0.2c0,0,0,0,0.1,0.1l5.6,4.8c0,0,0.1,0,0.1,0.1l0.1,0.1
				c0.1,0,0.1,0.1,0.2,0.1c0,0,0.1,0,0.1,0.1c0.1,0,0.2,0.1,0.2,0.1H12.6c-0.9,0-1.6,0.7-1.6,1.6v50c0,0.9,0.7,1.6,1.6,1.6H82
				c0.9,0,1.6-0.7,1.6-1.6V25C83.6,24.2,82.8,23.4,82,23.4z M40.8,16.3V7.3h12.9v8.9l-4.6,4h-3.6L40.8,16.3z M48.9,33.1h4.8v4.8
				h-4.8V33.1z M48.9,47.6h15.3v4.8H48.9V47.6z M48.9,62.1h25V67h-25V62.1z M45.7,67h-7.6v-4.8h7.6V67z M45.7,52.5h-7.6v-4.8h7.6
				V52.5z M45.7,37.9h-7.6v-4.8h7.6V37.9z M45.7,29.9h-9.3c-0.9,0-1.6,0.7-1.6,1.6v1.6v4.8v1.6c0,0.9,0.7,1.6,1.6,1.6h9.3v3.2h-9.3
				c-0.9,0-1.6,0.7-1.6,1.6v1.6v4.8v1.6c0,0.9,0.7,1.6,1.6,1.6h9.3v3.2h-9.3c-0.9,0-1.6,0.7-1.6,1.6v1.6V67v1.6
				c0,0.9,0.7,1.6,1.6,1.6h9.3v3.2H14.2V26.7h31.4V29.9z M80.3,73.4H48.9v-3.2h26.6c0.9,0,1.6-0.7,1.6-1.6v-8.1
				c0-0.9-0.7-1.6-1.6-1.6H48.9v-3.2h16.9c0.9,0,1.6-0.7,1.6-1.6V46c0-0.9-0.7-1.6-1.6-1.6H48.9v-3.2h6.4c0.9,0,1.6-0.7,1.6-1.6
				v-8.1c0-0.9-0.7-1.6-1.6-1.6h-6.4v-3.2h31.4V73.4z"/>
			<path class="st0" d="M19.1,55.7h10.3H31c0.9,0,1.6-0.7,1.6-1.6v-1.6v-4.8V46c0-0.9-0.7-1.6-1.6-1.6h-1.6H19.1
				c-0.9,0-1.6,0.7-1.6,1.6v8.1C17.5,55,18.2,55.7,19.1,55.7z M20.7,47.6h8.7v4.8h-8.7V47.6z"/>
			<path class="st0" d="M19.1,41.2h10.3H31c0.9,0,1.6-0.7,1.6-1.6v-1.6v-4.8v-1.6c0-0.9-0.7-1.6-1.6-1.6h-1.6H19.1
				c-0.9,0-1.6,0.7-1.6,1.6v8.1C17.5,40.4,18.2,41.2,19.1,41.2z M20.7,33.1h8.7v4.8h-8.7V33.1z"/>
		</g>
		<g>
			<path class="st1" d="M19.9,69.4h10.3h1.6c0.9,0,1.6-0.7,1.6-1.6v-1.6v-4.8v-1.6c0-0.9-0.7-1.6-1.6-1.6h-1.6H19.9
				c-0.9,0-1.6,0.7-1.6,1.6v8.1C18.3,68.7,19,69.4,19.9,69.4z M21.5,61.3h8.7v4.8h-8.7V61.3z"/>
			<path class="st1" d="M82.8,22.6H50.9c0.1,0,0.2,0,0.2-0.1c0,0,0.1,0,0.1-0.1c0.1,0,0.1-0.1,0.2-0.1l0.1-0.1c0,0,0.1,0,0.1-0.1
				l5.6-4.8c0,0,0,0,0.1-0.1c0.1,0,0.1-0.1,0.1-0.1l0.1-0.1c0-0.1,0.1-0.1,0.1-0.2c0-0.1,0.1-0.1,0.1-0.2c0-0.1,0-0.1,0.1-0.2
				c0-0.1,0-0.1,0.1-0.2c0-0.1,0-0.1,0-0.2c0-0.1,0-0.1,0-0.2c0,0,0,0,0-0.1V4.9c0-0.9-0.7-1.6-1.6-1.6H40c-0.9,0-1.6,0.7-1.6,1.6
				v11.3c0,0,0,0,0,0.1c0,0.1,0,0.1,0,0.2c0,0.1,0,0.1,0,0.2c0,0.1,0,0.1,0.1,0.2c0,0.1,0,0.1,0.1,0.2c0,0.1,0.1,0.1,0.1,0.2
				c0,0.1,0.1,0.1,0.1,0.2c0,0.1,0.1,0.1,0.1,0.1c0,0.1,0.1,0.1,0.1,0.2c0,0,0,0,0.1,0.1l5.6,4.8c0,0,0.1,0,0.1,0.1l0.1,0.1
				c0.1,0,0.1,0.1,0.2,0.1c0,0,0.1,0,0.1,0.1c0.1,0,0.2,0.1,0.2,0.1H13.4c-0.9,0-1.6,0.7-1.6,1.6v50c0,0.9,0.7,1.6,1.6,1.6h69.3
				c0.9,0,1.6-0.7,1.6-1.6V24.2C84.4,23.4,83.7,22.6,82.8,22.6z M41.7,15.5V6.5h12.9v8.9l-4.6,4h-3.6L41.7,15.5z M49.7,32.3h4.8v4.8
				h-4.8V32.3z M49.7,46.8H65v4.8H49.7V46.8z M49.7,61.3h25v4.8h-25V61.3z M46.5,66.2h-7.6v-4.8h7.6V66.2z M46.5,51.6h-7.6v-4.8h7.6
				V51.6z M46.5,37.1h-7.6v-4.8h7.6V37.1z M46.5,29.1h-9.3c-0.9,0-1.6,0.7-1.6,1.6v1.6v4.8v1.6c0,0.9,0.7,1.6,1.6,1.6h9.3v3.2h-9.3
				c-0.9,0-1.6,0.7-1.6,1.6v1.6v4.8v1.6c0,0.9,0.7,1.6,1.6,1.6h9.3v3.2h-9.3c-0.9,0-1.6,0.7-1.6,1.6v1.6v4.8v1.6
				c0,0.9,0.7,1.6,1.6,1.6h9.3v3.2H15V25.9h31.4V29.1z M81.2,72.6H49.7v-3.2h26.6c0.9,0,1.6-0.7,1.6-1.6v-8.1c0-0.9-0.7-1.6-1.6-1.6
				H49.7v-3.2h16.9c0.9,0,1.6-0.7,1.6-1.6v-8.1c0-0.9-0.7-1.6-1.6-1.6H49.7v-3.2h6.4c0.9,0,1.6-0.7,1.6-1.6v-8.1
				c0-0.9-0.7-1.6-1.6-1.6h-6.4v-3.2h31.4V72.6z"/>
			<path class="st1" d="M19.9,54.9h10.3h1.6c0.9,0,1.6-0.7,1.6-1.6v-1.6v-4.8v-1.6c0-0.9-0.7-1.6-1.6-1.6h-1.6H19.9
				c-0.9,0-1.6,0.7-1.6,1.6v8.1C18.3,54.1,19,54.9,19.9,54.9z M21.5,46.8h8.7v4.8h-8.7V46.8z"/>
			<path class="st1" d="M19.9,40.4h10.3h1.6c0.9,0,1.6-0.7,1.6-1.6v-1.6v-4.8v-1.6c0-0.9-0.7-1.6-1.6-1.6h-1.6H19.9
				c-0.9,0-1.6,0.7-1.6,1.6v8.1C18.3,39.6,19,40.4,19.9,40.4z M21.5,32.3h8.7v4.8h-8.7V32.3z"/>
		</g>
	</g>
</g>
</svg>
