<svg width="20" height="20" viewBox="0 0 20 20" fill="none" xmlns="http://www.w3.org/2000/svg">
<path d="M17.8433 11.5272V8.47316C18.3245 8.35188 18.7659 8.10718 19.1237 7.76324C19.4815 7.41929 19.7435 6.98798 19.8837 6.51187C20.0239 6.03576 20.0376 5.53132 19.9233 5.04833C19.809 4.56533 19.5708 4.12048 19.2321 3.75769C18.8934 3.39489 18.4659 3.12669 17.9919 2.97955C17.5179 2.83241 17.0137 2.81142 16.5291 2.91865C16.0445 3.02589 15.5962 3.25764 15.2285 3.59103C14.8609 3.92442 14.5865 4.34793 14.4325 4.81975L5.6557 2.30803C5.55798 1.80677 5.32755 1.34092 4.98845 0.95905C4.64935 0.577181 4.21401 0.293288 3.72782 0.136979C3.24164 -0.0193307 2.72242 -0.0423308 2.22431 0.0703772C1.72621 0.183085 1.26747 0.427373 0.895935 0.777762C0.524401 1.12815 0.253684 1.57181 0.112016 2.06246C-0.0296512 2.55312 -0.0370791 3.07279 0.0905073 3.56729C0.218094 4.0618 0.476021 4.51301 0.837388 4.87387C1.19876 5.23474 1.65033 5.49204 2.14501 5.61894V14.3814C1.65033 14.5083 1.19876 14.7656 0.837388 15.1265C0.476021 15.4873 0.218094 15.9385 0.0905073 16.4331C-0.0370791 16.9276 -0.0296512 17.4472 0.112016 17.9379C0.253684 18.4285 0.524401 18.8722 0.895935 19.2226C1.26747 19.573 1.72621 19.8173 2.22431 19.93C2.72242 20.0427 3.24164 20.0197 3.72782 19.8634C4.21401 19.7071 4.64935 19.4232 4.98845 19.0413C5.32755 18.6594 5.55798 18.1936 5.6557 17.6923L14.4325 15.1877C14.5877 15.6587 14.8629 16.0811 15.2311 16.4133C15.5992 16.7455 16.0475 16.976 16.5319 17.0822C17.0163 17.1884 17.5199 17.1666 17.9933 17.0189C18.4667 16.8712 18.8934 16.6028 19.2314 16.24C19.5695 15.8772 19.8072 15.4326 19.9211 14.95C20.035 14.4674 20.0213 13.9634 19.8811 13.4878C19.741 13.0121 19.4794 12.5811 19.1221 12.2374C18.7647 11.8936 18.324 11.6488 17.8433 11.5272ZM14.3326 13.7249L5.55581 16.2367C5.4053 15.787 5.14512 15.3819 4.79878 15.058C4.45245 14.734 4.03086 14.5015 3.57212 14.3814V5.61894C4.03086 5.49882 4.45245 5.2663 4.79878 4.94239C5.14512 4.61848 5.4053 4.21338 5.55581 3.76369L14.3326 6.26827C14.4375 6.79448 14.6886 7.28046 15.0572 7.67045C15.4257 8.06044 15.8967 8.33865 16.4161 8.47316V11.5272C15.8976 11.6612 15.4273 11.9383 15.0588 12.3269C14.6904 12.7156 14.4387 13.2 14.3326 13.7249ZM17.1297 4.29172C17.412 4.29172 17.6879 4.37542 17.9226 4.53223C18.1572 4.68905 18.3402 4.91193 18.4482 5.1727C18.5562 5.43347 18.5845 5.72042 18.5294 5.99725C18.4743 6.27408 18.3384 6.52837 18.1388 6.72795C17.9392 6.92754 17.6849 7.06346 17.4081 7.11852C17.1313 7.17359 16.8443 7.14533 16.5836 7.03731C16.3228 6.9293 16.0999 6.74638 15.9431 6.51169C15.7863 6.27701 15.7026 6.00109 15.7026 5.71883C15.7026 5.34034 15.8529 4.97735 16.1206 4.70971C16.3882 4.44208 16.7512 4.29172 17.1297 4.29172ZM1.43145 2.86461C1.43145 2.58235 1.51515 2.30643 1.67196 2.07175C1.82877 1.83706 2.05166 1.65414 2.31243 1.54613C2.5732 1.43811 2.86015 1.40985 3.13698 1.46492C3.41381 1.51998 3.6681 1.6559 3.86768 1.85549C4.06727 2.05507 4.20319 2.30936 4.25825 2.58619C4.31332 2.86302 4.28506 3.14997 4.17704 3.41074C4.06903 3.67151 3.88611 3.89439 3.65142 4.05121C3.41674 4.20802 3.14082 4.29172 2.85856 4.29172C2.48007 4.29172 2.11708 4.14136 1.84944 3.87373C1.58181 3.60609 1.43145 3.2431 1.43145 2.86461ZM2.85856 18.5629C2.57631 18.5629 2.30039 18.4792 2.0657 18.3223C1.83101 18.1655 1.6481 17.9426 1.54008 17.6819C1.43207 17.4211 1.40381 17.1342 1.45887 16.8573C1.51394 16.5805 1.64986 16.3262 1.84944 16.1266C2.04903 15.927 2.30331 15.7911 2.58015 15.736C2.85698 15.681 3.14392 15.7092 3.4047 15.8173C3.66547 15.9253 3.88835 16.1082 4.04516 16.3429C4.20198 16.5776 4.28568 16.8535 4.28568 17.1357C4.28568 17.5142 4.13532 17.8772 3.86768 18.1449C3.60005 18.4125 3.23706 18.5629 2.85856 18.5629ZM17.1297 15.7086C16.8474 15.7086 16.5715 15.6249 16.3368 15.4681C16.1021 15.3113 15.9192 15.0884 15.8112 14.8276C15.7032 14.5669 15.6749 14.2799 15.73 14.0031C15.7851 13.7263 15.921 13.472 16.1206 13.2724C16.3202 13.0728 16.5744 12.9369 16.8513 12.8818C17.1281 12.8268 17.4151 12.855 17.6758 12.963C17.9366 13.071 18.1595 13.254 18.3163 13.4887C18.4731 13.7233 18.5568 13.9993 18.5568 14.2815C18.5568 14.66 18.4065 15.023 18.1388 15.2906C17.8712 15.5583 17.5082 15.7086 17.1297 15.7086Z" fill="white"/>
</svg>
