<?xml version="1.0" encoding="utf-8"?>
<!-- Generator: Adobe Illustrator 23.0.0, SVG Export Plug-In . SVG Version: 6.00 Build 0)  -->
<svg version="1.1" id="Layer_1" xmlns="http://www.w3.org/2000/svg" xmlns:xlink="http://www.w3.org/1999/xlink" x="0px" y="0px"
	 viewBox="0 0 24.7 33.4" style="enable-background:new 0 0 24.7 33.4;" xml:space="preserve">
<style type="text/css">
	<!-- .st0{fill:url(#SVGID_1_);} -->
	.st0{fill:white;}
</style>
<title>Undo</title>
<g>
	<g>
		<g id="Icons">
			
				<image style="overflow:visible;opacity:0.25;enable-background:new    ;" width="38" height="46" xlink:href="371F1C36B306852A.png"  transform="matrix(1 0 0 1 -3.5481 -4.0916)">
			</image>
			
				<linearGradient id="SVGID_1_" gradientUnits="userSpaceOnUse" x1="0.8784" y1="30.7352" x2="21.4784" y2="11.6052" gradientTransform="matrix(1 0 0 -1 0 37.7066)">
				<stop  offset="0" style="stop-color:#F0F0F0"/>
				<stop  offset="0.71" style="stop-color:#CCCCCC"/>
			</linearGradient>
			<path class="st0" d="M24.5,15.9c-1.3-7-7.4-12.2-14.5-12.3V1.5C9.9,0.7,9.2,0,8.4,0C8.1,0,7.8,0.1,7.5,0.3L0.7,5
				C0,5.5-0.2,6.5,0.3,7.2c0.1,0.2,0.2,0.3,0.4,0.4l6.9,4.7c0.7,0.5,1.7,0.3,2.1-0.4c0.2-0.3,0.3-0.6,0.3-0.9V8.1
				c5.8,0.1,10.4,5,10.3,10.8c-0.1,5-3.7,9.2-8.7,10.1c-1.2,0.2-2.1,1.4-1.9,2.6c0.2,1.1,1.1,1.9,2.3,1.9c0.1,0,0.3,0,0.4,0
				C20.5,32,25.9,24.2,24.5,15.9C24.5,16,24.5,15.9,24.5,15.9z"/>
		</g>
	</g>
</g>
</svg>
