<?xml version="1.0" encoding="utf-8"?>
<!-- Generator: Adobe Illustrator 23.0.0, SVG Export Plug-In . SVG Version: 6.00 Build 0)  -->
<svg version="1.1" id="Layer_1" xmlns="http://www.w3.org/2000/svg" xmlns:xlink="http://www.w3.org/1999/xlink" x="0px" y="0px"
	 viewBox="0 0 68 68" style="enable-background:new 0 0 68 68;" xml:space="preserve">
<style type="text/css">
	.st0{enable-background:new    ;}
	.st1{fill:#BFBFBF;}
	.st2{fill:#FFFFFF;}
</style>
<title>unknown</title>
<g class="st0">
	<path class="st1" d="M28.3,45.7c-0.8-0.9-1.1-2.1-1.1-3.6c0-3.1,0.6-5.6,1.7-7.6c1.1-2,2.7-4.3,4.9-6.7c1.6-1.9,2.8-3.4,3.6-4.6
		c0.8-1.2,1.1-2.6,1.1-4.2c0-1.7-0.6-3-1.8-4c-1.2-1-2.9-1.5-5-1.5c-1.9,0-3.7,0.4-5.4,1.2c-1.7,0.8-3.9,2-6.6,3.6
		c-1.7,1-3.2,1.4-4.3,1.4c-1.3,0-2.3-0.6-3.2-1.7c-0.9-1.1-1.3-2.4-1.3-4c0-1.1,0.2-2,0.6-2.7c0.4-0.7,1-1.5,1.8-2.1
		c2.6-2.1,5.7-3.7,9.1-4.9c3.4-1.2,6.9-1.8,10.4-1.8c3.7,0,7.1,0.7,10,2c3,1.3,5.3,3.1,6.9,5.4c1.6,2.3,2.5,4.9,2.5,7.8
		c0,2.2-0.4,4.2-1.3,6.1c-0.9,1.8-1.9,3.4-3.1,4.8c-1.2,1.3-2.8,3-4.9,5c-2.3,2.1-4,3.9-5.1,5.3c-1.1,1.4-1.9,3-2.2,4.7
		c-0.2,1.1-0.7,2-1.5,2.7c-0.8,0.6-1.7,0.9-2.7,0.9C30.1,47,29.1,46.6,28.3,45.7z M26.1,65c-1.4-1.5-2.2-3.3-2.2-5.5
		c0-2.2,0.7-4.1,2.2-5.5c1.4-1.5,3.3-2.2,5.5-2.2c2.2,0,4,0.7,5.4,2.2c1.4,1.5,2.2,3.3,2.2,5.5c0,2.2-0.7,4.1-2.2,5.5
		c-1.4,1.5-3.2,2.2-5.4,2.2C29.4,67.2,27.5,66.4,26.1,65z"/>
</g>
<g class="st0">
	<path class="st2" d="M29.7,44.2c-0.8-0.9-1.1-2.1-1.1-3.6c0-3.1,0.6-5.6,1.7-7.6c1.1-2,2.7-4.3,4.9-6.7c1.6-1.9,2.8-3.4,3.6-4.6
		c0.8-1.2,1.1-2.6,1.1-4.2c0-1.7-0.6-3-1.8-4c-1.2-1-2.9-1.5-5-1.5c-1.9,0-3.7,0.4-5.4,1.2c-1.7,0.8-3.9,2-6.6,3.6
		c-1.7,1-3.2,1.4-4.3,1.4c-1.3,0-2.3-0.6-3.2-1.7c-0.9-1.1-1.3-2.4-1.3-4c0-1.1,0.2-2,0.6-2.7c0.4-0.7,1-1.5,1.8-2.1
		c2.6-2.1,5.7-3.7,9.1-4.9C27.2,1.5,30.7,1,34.1,1c3.7,0,7.1,0.7,10,2c3,1.3,5.3,3.1,6.9,5.4c1.6,2.3,2.5,4.9,2.5,7.8
		c0,2.2-0.4,4.2-1.3,6.1c-0.9,1.8-1.9,3.4-3.1,4.8c-1.2,1.3-2.8,3-4.9,5c-2.3,2.1-4,3.9-5.1,5.3c-1.1,1.4-1.9,3-2.2,4.7
		c-0.2,1.1-0.7,2-1.5,2.7c-0.8,0.6-1.7,0.9-2.7,0.9C31.5,45.6,30.4,45.1,29.7,44.2z M27.5,63.5c-1.4-1.5-2.2-3.3-2.2-5.5
		c0-2.2,0.7-4.1,2.2-5.5c1.4-1.5,3.3-2.2,5.5-2.2c2.2,0,4,0.7,5.4,2.2c1.4,1.5,2.2,3.3,2.2,5.5c0,2.2-0.7,4.1-2.2,5.5
		c-1.4,1.5-3.2,2.2-5.4,2.2C30.7,65.8,28.9,65,27.5,63.5z"/>
</g>
</svg>
