<?xml version="1.0" encoding="UTF-8" standalone="no"?>
<!-- Generator: Adobe Illustrator 19.0.0, SVG Export Plug-In . SVG Version: 6.00 Build 0)  -->

<svg
   xmlns:dc="http://purl.org/dc/elements/1.1/"
   xmlns:cc="http://creativecommons.org/ns#"
   xmlns:rdf="http://www.w3.org/1999/02/22-rdf-syntax-ns#"
   xmlns:svg="http://www.w3.org/2000/svg"
   xmlns="http://www.w3.org/2000/svg"
   xmlns:sodipodi="http://sodipodi.sourceforge.net/DTD/sodipodi-0.dtd"
   xmlns:inkscape="http://www.inkscape.org/namespaces/inkscape"
   version="1.1"
   id="Capa_1"
   x="0px"
   y="0px"
   viewBox="0 0 512 512"
   style="enable-background:new 0 0 512 512;"
   xml:space="preserve"
   sodipodi:docname="upload.svg"
   inkscape:version="0.92.2 5c3e80d, 2017-08-06"><metadata
     id="metadata55"><rdf:RDF><cc:Work
         rdf:about=""><dc:format>image/svg+xml</dc:format><dc:type
           rdf:resource="http://purl.org/dc/dcmitype/StillImage" /></cc:Work></rdf:RDF></metadata><defs
     id="defs53" /><sodipodi:namedview
     pagecolor="#ffffff"
     bordercolor="#666666"
     borderopacity="1"
     objecttolerance="10"
     gridtolerance="10"
     guidetolerance="10"
     inkscape:pageopacity="0"
     inkscape:pageshadow="2"
     inkscape:window-width="740"
     inkscape:window-height="480"
     id="namedview51"
     showgrid="false"
     inkscape:zoom="0.4609375"
     inkscape:cx="256"
     inkscape:cy="256"
     inkscape:window-x="0"
     inkscape:window-y="0"
     inkscape:window-maximized="0"
     inkscape:current-layer="Capa_1" /><g
     id="g6"
     style="fill:#CCCCCC;fill-opacity:1"><g
       id="g4"
       style="fill:#CCCCCC;fill-opacity:1"><path
         d="M259.257,0c-10.794,0-19.542,8.748-19.542,19.542v310.066c0,10.794,8.748,19.542,19.542,19.542    s19.542-8.748,19.542-19.542V19.542C278.799,8.748,270.051,0,259.257,0z"
         id="path2"
         style="fill:#CCCCCC;fill-opacity:1" /></g></g><g
     id="g12"
     style="fill:#CCCCCC;fill-opacity:1"><g
       id="g10"
       style="fill:#CCCCCC;fill-opacity:1"><path
         d="M380.73,106.224L272.598,5.257c-7.511-7.009-19.164-7.009-26.675,0L137.79,106.224    c-7.888,7.367-8.318,19.731-0.951,27.619c3.843,4.123,9.061,6.208,14.285,6.208c4.781,0,9.569-1.739,13.334-5.257l94.798-88.519    l94.798,88.519c7.901,7.367,20.258,6.937,27.619-0.951C389.035,125.955,388.618,113.591,380.73,106.224z"
         id="path8"
         style="fill:#CCCCCC;fill-opacity:1" /></g></g><g
     id="g18"
     style="fill:#CCCCCC;fill-opacity:1"><g
       id="g16"
       style="fill:#CCCCCC;fill-opacity:1"><path
         d="M454.677,166.758H350.453c-10.794,0-19.542,8.748-19.542,19.542c0,10.794,8.748,19.542,19.542,19.542h84.682v267.074    H76.865V205.842h84.682c10.794,0,19.542-8.748,19.542-19.542c0-10.794-8.748-19.542-19.542-19.542H57.323    c-10.794,0-19.542,8.748-19.542,19.542v306.158c0,10.794,8.748,19.542,19.542,19.542h397.354c10.794,0,19.542-8.748,19.542-19.542    V186.3C474.219,175.507,465.471,166.758,454.677,166.758z"
         id="path14"
         style="fill:#CCCCCC;fill-opacity:1" /></g></g><g
     id="g20" /><g
     id="g22" /><g
     id="g24" /><g
     id="g26" /><g
     id="g28" /><g
     id="g30" /><g
     id="g32" /><g
     id="g34" /><g
     id="g36" /><g
     id="g38" /><g
     id="g40" /><g
     id="g42" /><g
     id="g44" /><g
     id="g46" /><g
     id="g48" /></svg>
