<?xml version="1.0" encoding="utf-8"?>
<!-- Generator: Adobe Illustrator 23.0.0, SVG Export Plug-In . SVG Version: 6.00 Build 0)  -->
<svg version="1.1" id="Layer_1" xmlns="http://www.w3.org/2000/svg" xmlns:xlink="http://www.w3.org/1999/xlink" x="0px" y="0px"
	 viewBox="0 0 680.3 680.3" style="enable-background:new 0 0 680.3 680.3;" xml:space="preserve">
<style type="text/css">
	.st0{fill:#BFBFBF;}
	.st1{fill:#FFFFFF;}
</style>
<g>
	<path class="st0" d="M60.2,656.9c-32.9,0-32.9-50,0-50h538c32.9,0,32.9,50,0,50H60.2L60.2,656.9z M385.8,572.1H272.6
		c-32.5,0-61.8-25.2-61.8-58.6V298.3h-73.1c-21.5,0-33.5-25.8-18.6-41.9C182.3,188.2,247,113.3,312.3,48.1
		c10.1-9.3,25.8-8.7,35.1,1.4l190.1,205.2c17,15.1,6.5,43.7-16.6,43.7h-73.4v215.2C447.5,546.9,418.3,572.1,385.8,572.1z"/>
</g>
<g>
	<path class="st1" d="M71.2,642.9c-32.9,0-32.9-50,0-50h538c32.9,0,32.9,50,0,50H71.2L71.2,642.9z M396.8,558.1H283.6
		c-32.5,0-61.8-25.2-61.8-58.6V284.3h-73.1c-21.5,0-33.5-25.8-18.6-41.9C193.3,174.2,258,99.3,323.3,34.1
		c10.1-9.3,25.8-8.7,35.1,1.4l190.1,205.2c17,15.1,6.5,43.7-16.6,43.7h-73.4v215.2C458.5,532.9,429.3,558.1,396.8,558.1z"/>
</g>
<text transform="matrix(1 0 0 1 17.5759 691.2433)" style="font-family:'HelveticaNeue-Bold'; font-size:5px;">Created by Fahmi</text>
<text transform="matrix(1 0 0 1 17.5759 700.0632)" style="font-family:'HelveticaNeue-Bold'; font-size:5px;">from the Noun Project</text>
</svg>
