<svg width="16" height="16" viewBox="0 0 16 16" fill="none" xmlns="http://www.w3.org/2000/svg">
<path d="M8.10092 0C7.76361 0 7.49023 0.273375 7.49023 0.610687V10.3003C7.49023 10.6376 7.76361 10.9109 8.10092 10.9109C8.43823 10.9109 8.71161 10.6376 8.71161 10.3003V0.610687C8.71161 0.273375 8.43823 0 8.10092 0Z" fill="black"/>
<path d="M11.8972 3.31949L8.51807 0.164273C8.28335 -0.0547578 7.91919 -0.0547578 7.68447 0.164273L4.30532 3.31949C4.05882 3.54971 4.04539 3.93609 4.2756 4.18259C4.3957 4.31143 4.55876 4.37659 4.72201 4.37659C4.87142 4.37659 5.02104 4.32224 5.1387 4.2123L8.10113 1.44609L11.0636 4.2123C11.3105 4.44252 11.6966 4.42909 11.9267 4.18259C12.1567 3.93609 12.1437 3.54971 11.8972 3.31949Z" fill="black"/>
<path d="M14.2096 5.21143H10.9526C10.6153 5.21143 10.342 5.4848 10.342 5.82211C10.342 6.15943 10.6153 6.4328 10.9526 6.4328H13.599V14.7789H2.40302V6.4328H5.04933C5.38664 6.4328 5.66002 6.15943 5.66002 5.82211C5.66002 5.4848 5.38664 5.21143 5.04933 5.21143H1.79233C1.45502 5.21143 1.18164 5.4848 1.18164 5.82211V15.3895C1.18164 15.7269 1.45502 16.0002 1.79233 16.0002H14.2096C14.547 16.0002 14.8203 15.7269 14.8203 15.3895V5.82211C14.8203 5.48483 14.547 5.21143 14.2096 5.21143Z" fill="black"/>
</svg>
