<?xml version="1.0" encoding="iso-8859-1"?>
<!-- Generator: Adobe Illustrator 16.0.0, SVG Export Plug-In . SVG Version: 6.00 Build 0)  -->
<!DOCTYPE svg PUBLIC "-//W3C//DTD SVG 1.1//EN" "http://www.w3.org/Graphics/SVG/1.1/DTD/svg11.dtd">
<svg xmlns="http://www.w3.org/2000/svg" xmlns:xlink="http://www.w3.org/1999/xlink" version="1.1" id="Capa_1" x="0px" y="0px" width="512px" height="512px" viewBox="0 0 47 47" style="enable-background:new 0 0 47 47;" xml:space="preserve">
<g>
	<g>
		<path d="M3.585,36.494c-0.602,0.35-0.94,0.989-0.94,1.642c0.012,0.313,0.087,0.639,0.263,0.928c0,0.014,0,0.014,0,0.014    c0.351,0.589,0.978,0.928,1.617,0.928c0.326,0,0.652-0.088,0.953-0.251c0.602-0.353,0.94-0.989,0.94-1.642    c-0.013-0.313-0.088-0.641-0.264-0.928C5.642,36.278,4.488,35.979,3.585,36.494z" fill="#FFFFFF"/>
		<path d="M43.463,36.417c-0.902-0.515-2.043-0.213-2.57,0.688c-0.175,0.302-0.25,0.615-0.25,0.94c0,0.652,0.34,1.279,0.94,1.631    c0.301,0.175,0.614,0.249,0.94,0.249c0.651,0,1.277-0.338,1.629-0.939c0.162-0.287,0.25-0.613,0.25-0.939    C44.402,37.408,44.064,36.77,43.463,36.417z" fill="#FFFFFF"/>
		<path d="M3.761,30.639c-0.189-1.016-1.167-1.692-2.182-1.518c-1.028,0.188-1.705,1.154-1.517,2.182    c0.163,0.915,0.953,1.555,1.843,1.555c0.113,0,0.225-0.012,0.338-0.037C3.259,32.645,3.936,31.667,3.761,30.639z" fill="#FFFFFF"/>
		<path d="M45.443,29.035c-1.027-0.177-2.006,0.514-2.182,1.528c-0.176,1.027,0.514,1.992,1.53,2.182    c0.112,0.013,0.226,0.023,0.326,0.023c0.903,0,1.692-0.639,1.854-1.553C47.148,30.188,46.459,29.209,45.443,29.035z" fill="#FFFFFF"/>
		<path d="M1.567,25.211c0.1,0.023,0.213,0.036,0.313,0.036c0.902,0,1.705-0.651,1.855-1.566c0.025-0.113,0.025-0.226,0.025-0.338    c0-0.89-0.652-1.68-1.555-1.83c-1.027-0.176-2.006,0.501-2.181,1.529C0.012,23.155,0,23.268,0,23.38    C0.012,24.271,0.652,25.059,1.567,25.211z" fill="#FFFFFF"/>
		<path d="M43.225,23.268c0,0.113,0.014,0.225,0.039,0.338c0.149,0.902,0.952,1.554,1.842,1.554c0.112,0,0.226-0.013,0.338-0.037    c0.902-0.149,1.543-0.94,1.555-1.843c0-0.113-0.012-0.213-0.038-0.326c-0.176-1.028-1.153-1.718-2.183-1.53    C43.877,21.587,43.236,22.377,43.225,23.268z" fill="#FFFFFF"/>
		<path d="M3.535,17.827c0.288,0.164,0.615,0.251,0.928,0.251c0.651,0,1.291-0.338,1.63-0.952v0.012    c0.526-0.903,0.213-2.056-0.689-2.57c-0.904-0.527-2.057-0.214-2.571,0.689C2.319,16.16,2.632,17.312,3.535,17.827z" fill="#FFFFFF"/>
		<path d="M42.498,18.001c0.326,0,0.652-0.087,0.939-0.25c0.902-0.527,1.215-1.681,0.689-2.57c-0.514-0.902-1.667-1.204-2.568-0.689    c-0.891,0.526-1.205,1.68-0.69,2.57C41.219,17.664,41.857,18.001,42.498,18.001z" fill="#FFFFFF"/>
		<path d="M9.339,12.224c0.439,0,0.865-0.138,1.216-0.439c0.451-0.376,0.677-0.915,0.664-1.467c0-0.414-0.151-0.84-0.439-1.191    c-0.676-0.79-1.855-0.89-2.645-0.213C7.684,9.29,7.458,9.829,7.458,10.368c0.013,0.426,0.15,0.852,0.452,1.19    C8.287,11.998,8.813,12.224,9.339,12.224z" fill="#FFFFFF"/>
		<path d="M37.596,12.172c0.541,0,1.078-0.226,1.441-0.677c0.301-0.339,0.439-0.765,0.439-1.191    c0.012-0.539-0.226-1.078-0.664-1.454c-0.803-0.665-1.981-0.564-2.646,0.238c-0.301,0.339-0.438,0.765-0.451,1.191    c0,0.539,0.227,1.079,0.678,1.454C36.744,12.022,37.17,12.172,37.596,12.172z" fill="#FFFFFF"/>
		<path d="M15.921,8.387c0.213,0,0.438-0.037,0.652-0.112c0.978-0.364,1.466-1.442,1.116-2.42c-0.364-0.965-1.441-1.466-2.419-1.103    c-0.978,0.351-1.467,1.429-1.116,2.407C14.442,7.922,15.156,8.387,15.921,8.387z" fill="#FFFFFF"/>
		<path d="M30.361,8.25c0.214,0.076,0.428,0.113,0.652,0.113c0.766,0,1.479-0.476,1.769-1.241c0.351-0.978-0.151-2.056-1.128-2.407    c-0.979-0.351-2.057,0.15-2.42,1.128C28.883,6.808,29.385,7.897,30.361,8.25z" fill="#FFFFFF"/>
		<path d="M23.417,7.045c0.013,0,0.025,0,0.038,0c0.012,0,0.038,0,0.05,0c1.04,0,1.88-0.84,1.88-1.88c0-1.041-0.84-1.88-1.88-1.88    c-0.013,0-0.025,0-0.038,0c-0.025,0-0.037,0-0.062,0c-1.028,0-1.868,0.852-1.868,1.893C21.537,6.206,22.39,7.045,23.417,7.045z" fill="#FFFFFF"/>
		<path d="M23.505,10.494c-9.159,0-16.61,7.451-16.61,16.61c0,9.158,7.451,16.61,16.61,16.61c9.159,0,16.61-7.452,16.61-16.61    C40.116,17.944,32.665,10.494,23.505,10.494z M34.582,17.726l-3.102,5.761c-0.188,0.349-0.529,0.588-0.922,0.646    c-0.062,0.009-0.121,0.014-0.183,0.014c-0.33,0-0.649-0.13-0.886-0.367l-2.66-2.66c-0.28-0.28-0.412-0.677-0.354-1.068    c0.058-0.392,0.297-0.734,0.646-0.922l5.761-3.102c0.487-0.263,1.09-0.174,1.48,0.217C34.756,16.635,34.844,17.239,34.582,17.726z    " fill="#FFFFFF"/>
	</g>
</g>
<g>
</g>
<g>
</g>
<g>
</g>
<g>
</g>
<g>
</g>
<g>
</g>
<g>
</g>
<g>
</g>
<g>
</g>
<g>
</g>
<g>
</g>
<g>
</g>
<g>
</g>
<g>
</g>
<g>
</g>
</svg>
