<?xml version="1.0" encoding="utf-8"?>
<!-- Generator: Adobe Illustrator 23.0.3, SVG Export Plug-In . SVG Version: 6.00 Build 0)  -->
<svg version="1.1" id="Layer_1" xmlns="http://www.w3.org/2000/svg" xmlns:xlink="http://www.w3.org/1999/xlink" x="0px" y="0px"
	 viewBox="0 0 75 75" style="enable-background:new 0 0 75 75;" xml:space="preserve">
<style type="text/css">
	.st0{clip-path:url(#SVGID_2_);}
	.st1{fill-rule:evenodd;clip-rule:evenodd;fill:#F15F5E;}
	.st2{fill:#F15F5E;}
</style>
<title>Group</title>
<desc>Created with Sketch.</desc>
<g>
	<defs>
		<rect id="SVGID_1_" x="0" width="75" height="75"/>
	</defs>
	<clipPath id="SVGID_2_">
		<use xlink:href="#SVGID_1_"  style="overflow:visible;"/>
	</clipPath>
	<g class="st0">
		<path class="st1" d="M35.9,5C17.9,5.9,3.7,21.4,5.1,39.9c1.2,16,14.1,28.9,30.1,30C54.2,71.2,70,56.2,70,37.5
			c0-1.6-0.1-3.2-0.3-4.7c-0.1-0.6,0.3-1.1,0.8-1.3l2.7-0.7c0.6-0.2,1.3,0.3,1.4,0.9c0.3,2.3,0.5,4.6,0.4,7
			C74.3,59,57.3,75.2,37.1,75C16.6,74.8,0,58.1,0,37.5C0,17.3,15.9,0.9,35.8,0C36.5,0,37,0.5,37,1.2v2.7C37,4.5,36.5,5,35.9,5z"/>
		<circle class="st2" cx="38" cy="56" r="5"/>
		<path class="st2" d="M38,18L38,18c2.2,0,4,1.8,4,4v20c0,2.2-1.8,4-4,4l0,0c-2.2,0-4-1.8-4-4V22C34,19.8,35.8,18,38,18z"/>
	</g>
</g>
</svg>
