<?xml version="1.0" encoding="utf-8"?>
<!-- Generator: Adobe Illustrator 23.0.0, SVG Export Plug-In . SVG Version: 6.00 Build 0)  -->
<svg version="1.1"
	 id="svg2" inkscape:version="0.91 r13725" sodipodi:docname="Zoom.svg" xmlns:cc="http://creativecommons.org/ns#" xmlns:dc="http://purl.org/dc/elements/1.1/" xmlns:inkscape="http://www.inkscape.org/namespaces/inkscape" xmlns:rdf="http://www.w3.org/1999/02/22-rdf-syntax-ns#" xmlns:sodipodi="http://sodipodi.sourceforge.net/DTD/sodipodi-0.dtd" xmlns:svg="http://www.w3.org/2000/svg"
	 xmlns="http://www.w3.org/2000/svg" xmlns:xlink="http://www.w3.org/1999/xlink" x="0px" y="0px" viewBox="0 0 400 400"
	 style="enable-background:new 0 0 400 400;" xml:space="preserve">
<style type="text/css">
	.st0{fill:none;stroke:#979797;stroke-width:2;stroke-opacity:0;}
	.st1{enable-background:new    ;}
	.st2{fill:#FFFFFF;}
</style>
<sodipodi:namedview  bordercolor="#666666" borderopacity="1" gridtolerance="10" guidetolerance="10" id="namedview44" inkscape:current-layer="svg2" inkscape:cx="200" inkscape:cy="151.22131" inkscape:pageopacity="0" inkscape:pageshadow="2" inkscape:window-height="480" inkscape:window-maximized="0" inkscape:window-width="640" inkscape:window-x="0" inkscape:window-y="0" inkscape:zoom="0.59" objecttolerance="10" pagecolor="#ffffff" showgrid="false">
	</sodipodi:namedview>
<title  id="title4">Zoom</title>
<desc  id="desc6">Created with Sketch.</desc>
<g id="Page-1" transform="matrix(1.1615029,0,0,1.165319,-31.20417,-38.268598)">
	<g id="Artboard-6-Copy" transform="translate(-390,-3259)">
		<g id="Rectangle-4-Copy-6">
			<rect x="390" y="3259" class="st0" width="400" height="400"/>
		</g>
		<g id="Zoom" transform="translate(465,3328)">
			<g>
				<g class="st1">
					<path class="st2" d="M194.1,128.9c1.9,1.8,2.8,4,2.8,6.5c0,2.6-0.9,4.8-2.7,6.7c-1.8,1.9-4.1,2.8-6.9,2.8h-54.1v53.6
						c0,2.8-0.9,5.1-2.7,6.8c-1.8,1.8-4,2.7-6.6,2.7c-2.6,0-4.8-0.9-6.6-2.8c-1.8-1.9-2.7-4.1-2.7-6.7V145H60.7
						c-2.6,0-4.8-0.9-6.7-2.8c-1.9-1.9-2.8-4.1-2.8-6.7c0-2.6,0.9-4.8,2.8-6.5c1.9-1.8,4.1-2.7,6.7-2.7h54.1V72.7
						c0-2.8,0.9-5.1,2.7-7c1.8-1.9,4-2.8,6.6-2.8c2.6,0,4.8,0.9,6.6,2.8c1.8,1.9,2.7,4.2,2.7,7v53.6h54.1
						C190,126.2,192.2,127.1,194.1,128.9z"/>
				</g>
			</g>
		</g>
	</g>
</g>
</svg>
