<?xml version="1.0" encoding="UTF-8" standalone="no"?>
<!-- Created with Inkscape (http://www.inkscape.org/) -->

<svg
   xmlns:dc="http://purl.org/dc/elements/1.1/"
   xmlns:cc="http://creativecommons.org/ns#"
   xmlns:rdf="http://www.w3.org/1999/02/22-rdf-syntax-ns#"
   xmlns:svg="http://www.w3.org/2000/svg"
   xmlns="http://www.w3.org/2000/svg"
   xmlns:sodipodi="http://sodipodi.sourceforge.net/DTD/sodipodi-0.dtd"
   xmlns:inkscape="http://www.inkscape.org/namespaces/inkscape"
   sodipodi:docname="drawing.svg"
   inkscape:version="0.92.4 (5da689c313, 2019-01-14)"
   id="svg8"
   version="1.1"
   viewBox="0 0 210 297"
   height="297mm"
   width="210mm">
  <script
     type="text/javascript"
     id="inkwebjs">
/* inkweb.js - InkWebEffect:AutoUpdate */
/*
**  InkWeb - Inkscape's Javscript features for the open vector web
**
**  Copyright (C) 2009 Aurelio A. Heckert, aurium (a) gmail dot com
**
**  ********* Bugs and New Fetures *************************************
**   If you found any bug on this script or if you want to propose a
**   new feature, please report it in the inkscape bug traker
**   https://bugs.launchpad.net/inkscape/+filebug
**   and assign that to Aurium.
**  ********************************************************************
**
**  This program is free software: you can redistribute it and/or modify
**  it under the terms of the GNU Lesser General Public License as published
**  by the Free Software Foundation, either version 3 of the License, or
**  (at your option) any later version.
**
**  This program is distributed in the hope that it will be useful,
**  but WITHOUT ANY WARRANTY; without even the implied warranty of
**  MERCHANTABILITY or FITNESS FOR A PARTICULAR PURPOSE.  See the
**  GNU Lesser General Public License for more details.
**
**  You should have received a copy of the GNU Lesser General Public License
**  along with this program.  If not, see &lt;http://www.gnu.org/licenses/&gt;.
*/

var InkWeb = {

  version: 0.04,

  NS: {
    svg:      &quot;http://www.w3.org/2000/svg&quot;,
    sodipodi: &quot;http://sodipodi.sourceforge.net/DTD/sodipodi-0.dtd&quot;,
    inkscape: &quot;http://www.inkscape.org/namespaces/inkscape&quot;,
    cc:       &quot;http://creativecommons.org/ns#&quot;,
    dc:       &quot;http://purl.org/dc/elements/1.1/&quot;,
    rdf:      &quot;http://www.w3.org/1999/02/22-rdf-syntax-ns#&quot;,
    xlink:    &quot;http://www.w3.org/1999/xlink&quot;,
    xml:      &quot;http://www.w3.org/XML/1998/namespace&quot;
  }

};

InkWeb.el = function (tag, attributes) {
  // A helper to create SVG elements
  var element = document.createElementNS( this.NS.svg, tag );
  for ( var att in attributes ) {
    switch ( att ) {
      case &quot;parent&quot;:
        attributes.parent.appendChild( element );
        break;
      case &quot;text&quot;:
        element.appendChild( document.createTextNode( attributes.text ) );
        break;
      default:
        element.setAttribute( att, attributes[att] );
    }
  }
  return element;
}

InkWeb.reGetStyleAttVal = function (att) {
  return new RegExp( &quot;(^|.*;)[ ]*&quot;+ att +&quot;:([^;]*)(;.*|$)&quot; )
}

InkWeb.getStyle = function (el, att) {
  // This method is needed because el.style is only working
  // to HTML style in the Firefox 3.0
  if ( typeof(el) == &quot;string&quot; )
    el = document.getElementById(el);
  var style = el.getAttribute(&quot;style&quot;);
  var match = this.reGetStyleAttVal(att).exec(style);
  if ( match ) {
    return match[2];
  } else {
    return false;
  }
}

InkWeb.setStyle = function (el, att, val) {
  if ( typeof(el) == &quot;string&quot; )
    el = document.getElementById(el);
  var style = el.getAttribute(&quot;style&quot;);
  re = this.reGetStyleAttVal(att);
  if ( re.test(style) ) {
    style = style.replace( re, &quot;$1&quot;+ att +&quot;:&quot;+ val +&quot;$3&quot; );
  } else {
    style += &quot;;&quot;+ att +&quot;:&quot;+ val;
  }
  el.setAttribute( &quot;style&quot;, style );
  return val
}

InkWeb.transmitAtt = function (conf) {
  conf.att = conf.att.split( /\s+/ );
  if ( typeof(conf.from) == &quot;string&quot; )
    conf.from = document.getElementById( conf.from );
  if ( ! conf.to.join )
    conf.to = [ conf.to ];
  for ( var toEl,elN=0; toEl=conf.to[elN]; elN++ ) {
    if ( typeof(toEl) == &quot;string&quot; )
      toEl = document.getElementById( toEl );
    for ( var i=0; i&lt;conf.att.length; i++ ) {
      var val = this.getStyle( conf.from, conf.att[i] );
      if ( val ) {
        this.setStyle( toEl, conf.att[i], val );
      } else {
        val = conf.from.getAttribute(conf.att[i]);
        toEl.setAttribute( conf.att[i], val );
      }
    }
  }
}

InkWeb.setAtt = function (conf) {
  if ( ! conf.el.join )
    conf.to = [ conf.el ];
  conf.att = conf.att.split( /\s+/ );
  conf.val = conf.val.split( /\s+/ );
  for ( var el,elN=0; el=conf.el[elN]; elN++ ) {
    if ( typeof(el) == &quot;string&quot; )
      el = document.getElementById( el );
    for ( var att,i=0; att=conf.att[i]; i++ ) {
      if (
           att == &quot;width&quot;  ||
           att == &quot;height&quot; ||
           att == &quot;x&quot;  ||
           att == &quot;y&quot;  ||
           att == &quot;cx&quot; ||
           att == &quot;cy&quot; ||
           att == &quot;r&quot;  ||
           att == &quot;rx&quot; ||
           att == &quot;ry&quot; ||
           att == &quot;transform&quot;
         ) {
        el.setAttribute( att, conf.val[i] );
      } else {
        this.setStyle( el, att, conf.val[i] );
      }
    }
  }
}

InkWeb.moveElTo = function (startConf) {
  if ( typeof(startConf) == &quot;string&quot; ) {
    // startConf may be only a element Id, to timeout recursive calls.
    var el = document.getElementById( startConf );
  } else {
    if ( typeof(startConf.el) == &quot;string&quot; )
      startConf.el = document.getElementById( startConf.el );
    var el = startConf.el;
  }
  if ( ! el.inkWebMoving ) {
    el.inkWebMoving = {
      step: 0
    };
  }
  var conf = el.inkWebMoving;
  if ( conf.step == 0 ) {
    conf.x = startConf.x;
    conf.y = startConf.y;
    // dur : duration of the animation in seconds
    if ( startConf.dur ) { conf.dur = startConf.dur }
    else { conf.dur = 1 }
    // steps : animation steps in a second
    if ( startConf.stepsBySec ) { conf.stepsBySec = startConf.stepsBySec }
    else { conf.stepsBySec = 16 }
    conf.sleep = Math.round( 1000 / conf.stepsBySec );
    conf.steps = conf.dur * conf.stepsBySec;
    var startPos = el.getBBox();
    conf.xInc = ( conf.x - startPos.x ) / conf.steps;
    conf.yInc = ( conf.y - startPos.y ) / conf.steps;
    conf.transform = el.transform.baseVal.consolidate();
    if ( ! conf.transform ) {
      conf.transform = el.ownerSVGElement.createSVGTransform();
    }
    el.transform.baseVal.clear();
    el.transform.baseVal.appendItem(conf.transform);
  }
  if ( conf.step &lt; conf.steps ) {
    conf.step++;
    conf.transform.matrix.e += conf.xInc;
    conf.transform.matrix.f += conf.yInc;
    try{ el.ownerSVGElement.forceRedraw() }
    catch(e){ this.log(e, &quot;this &quot;+el.ownerSVGElement+&quot; has no forceRedraw().&quot;) }
    conf.timeout = setTimeout( 'InkWeb.moveElTo(&quot;'+el.id+'&quot;)', conf.sleep );
  } else {
    delete el.inkWebMoving;
  }
}

InkWeb.log = function () { /* if you need that, use the inkweb-debug.js too */ }
</script>
  <title
     id="title1118">an scg drawiing to test with</title>
  <defs
     id="defs2">
    <inkscape:perspective
       sodipodi:type="inkscape:persp3d"
       inkscape:vp_x="0 : 148.5 : 1"
       inkscape:vp_y="0 : 1000 : 0"
       inkscape:vp_z="210 : 148.5 : 1"
       inkscape:persp3d-origin="105 : 99 : 1"
       id="perspective1094" />
  </defs>
  <sodipodi:namedview
     id="base"
     pagecolor="#ffffff"
     bordercolor="#666666"
     borderopacity="1.0"
     inkscape:pageopacity="0.0"
     inkscape:pageshadow="2"
     inkscape:zoom="2.8"
     inkscape:cx="431.97627"
     inkscape:cy="923.03003"
     inkscape:document-units="mm"
     inkscape:current-layer="layer1"
     showgrid="false"
     inkscape:window-width="2276"
     inkscape:window-height="1426"
     inkscape:window-x="3884"
     inkscape:window-y="512"
     inkscape:window-maximized="0"
     showguides="false" />
  <metadata
     id="metadata5">
    <rdf:RDF>
      <cc:Work
         rdf:about="">
        <dc:format>image/svg+xml</dc:format>
        <dc:type
           rdf:resource="http://purl.org/dc/dcmitype/StillImage" />
        <dc:title>an scg drawiing to test with</dc:title>
      </cc:Work>
    </rdf:RDF>
  </metadata>
  <g
     inkscape:label="Layer 1"
     inkscape:groupmode="layer"
     id="layer1">
    <path
       style="fill:#e90000;fill-opacity:1;stroke:#00fd00;stroke-width:0.26499999;stroke-linecap:butt;stroke-linejoin:miter;stroke-miterlimit:4;stroke-dasharray:none;stroke-opacity:1"
       d="M 139.574,45.089886 C 186.64831,74.079495 161.0393,173.21398 119.52878,209.72788 L 61.798583,260.5091 C 0.17042167,314.71909 2.1776857,142.45064 31.329875,117.25264 85.746567,70.217022 3.0366247,13.746608 51.642362,7.6721493 115.702,-0.33364839 63.076162,37.23518 113.91612,62.195127 140.04012,75.020765 130.82155,39.699913 139.574,45.089886 Z"
       id="path1088"
       inkscape:connector-curvature="0"
       sodipodi:nodetypes="asssssa" />
    <path
       style="opacity:1;fill:#e90000;fill-opacity:1;stroke:#00fd00;stroke-width:0.26499999;stroke-linecap:butt;stroke-miterlimit:4;stroke-dasharray:none;stroke-opacity:1;paint-order:normal"
       id="path1090"
       sodipodi:type="arc"
       sodipodi:cx="30.445139"
       sodipodi:cy="81.992393"
       sodipodi:rx="18.174328"
       sodipodi:ry="24.989702"
       sodipodi:start="0.15538069"
       sodipodi:end="5.8296882"
       d="M 48.400515,85.859705 A 18.174328,24.989702 0 0 1 30.387686,106.98197 18.174328,24.989702 0 0 1 12.472339,85.703535 18.174328,24.989702 0 0 1 25.052079,58.128274 18.174328,24.989702 0 0 1 46.782414,71.044109 L 30.445139,81.992393 Z" />
    <path
       style="fill:#e9f000;stroke:#000000;stroke-width:0.26458332px;stroke-linecap:butt;stroke-linejoin:miter;stroke-opacity:1;fill-opacity:1"
       d="m 140.58377,251.83145 c -2.94336,-11.59201 2.33856,-2.82838 2.67269,-4.27632 0.14166,-0.61382 0.12299,-1.25767 0.26728,-1.87088 0.21303,-0.9054 0.55707,-1.77535 0.8018,-2.6727 0.65206,-2.39086 1.0957,-4.19499 1.33635,-6.68174 0.15471,-1.59862 0.10746,-3.21273 0.26727,-4.81085 0.10784,-1.07844 0.37376,-2.1354 0.53454,-3.20723 0.10655,-0.71032 0.19075,-1.42398 0.26727,-2.13816 0.19077,-1.78049 0.20847,-3.58464 0.53454,-5.34539 0.12354,-0.66714 0.58725,-1.22721 0.80181,-1.87089 0.75113,-2.2534 -0.3131,-0.44289 0.80181,-2.67269 0.14365,-0.28731 0.39088,-0.5145 0.53453,-0.80181 0.21456,-0.42911 0.31999,-0.90723 0.53454,-1.33635 0.14366,-0.2873 0.36928,-0.52636 0.53454,-0.8018 0.1025,-0.17083 0.14774,-0.37518 0.26727,-0.53454 0.15119,-0.20159 0.38335,-0.33296 0.53454,-0.53454 0.23905,-0.31874 0.32955,-0.72744 0.53454,-1.06908 0.16526,-0.27544 0.3074,-0.57468 0.53454,-0.80181 0.12599,-0.12599 0.40855,0.12599 0.53454,0 0.063,-0.063 -0.063,-0.20427 0,-0.26727 0.55299,-0.55299 -0.0216,0.84504 0.53454,-0.26727 0.0398,-0.0797 -0.063,-0.20427 0,-0.26727 0.14086,-0.14086 0.36878,-0.15676 0.53454,-0.26727 0.10483,-0.0699 0.17818,-0.17818 0.26727,-0.26727 0.0891,-0.0891 0.21092,-0.15458 0.26726,-0.26727 0.126,-0.25198 0.0681,-0.60259 0.26727,-0.8018 0.19922,-0.19922 0.57643,-0.0982 0.80181,-0.26728 0.15937,-0.11952 0.12641,-0.39367 0.26727,-0.53453 0.14087,-0.14087 0.39368,-0.12641 0.53454,-0.26727 0.14087,-0.14087 0.15677,-0.36879 0.26727,-0.53454 0.0699,-0.10483 0.17818,-0.17818 0.26727,-0.26727 0.38802,-0.38802 0.28933,-0.26727 0.80181,-0.26727 h 0.26727 c 0.0891,0 0.18758,-0.0398 0.26727,0 0.11269,0.0563 0.17818,0.17818 0.26727,0.26727 0.0891,0.0891 0.21092,0.15458 0.26727,0.26727 0.0398,0.0797 -0.063,0.20427 0,0.26727 0.063,0.063 0.20427,-0.063 0.26727,0 0.063,0.063 -0.0282,0.18275 0,0.26727 0.063,0.18898 0.20427,0.34555 0.26727,0.53454 0.0282,0.0845 -0.0399,0.18758 0,0.26726 0.0563,0.1127 0.22742,0.14775 0.26727,0.26728 0.0563,0.16903 -0.0432,0.36167 0,0.53453 0.0966,0.38653 0.40854,0.69111 0.53453,1.06908 0.11616,0.34848 0.16636,0.71589 0.26728,1.06908 0.0774,0.27089 0.21201,0.52555 0.26726,0.80181 0.0349,0.17472 0,0.35636 0,0.53454 0.0891,0.17818 0.21896,0.34127 0.26727,0.53454 0.0432,0.17286 -0.0797,0.37517 0,0.53454 0.11269,0.22538 0.39477,0.32487 0.53454,0.53453 0.0494,0.0741 -0.0216,0.18084 0,0.26727 0.96893,2.90679 -0.14086,-0.70431 0.26727,1.33635 0.0553,0.27626 0.16264,0.54023 0.26727,0.80181 0.074,0.18496 0.2282,0.3392 0.26727,0.53454 0.28741,1.43703 -0.45982,0.17434 0.26727,1.87089 0.17245,0.40238 0.68398,0.86501 0.80181,1.33634 0.0432,0.17286 -0.0432,0.36168 0,0.53454 0.0483,0.19327 0.23452,0.33804 0.26727,0.53454 0.0586,0.35151 -0.0586,0.71757 0,1.06908 0.0327,0.1965 0.23452,0.33804 0.26727,0.53454 0.0586,0.35151 -0.0586,0.71757 0,1.06908 0.0327,0.1965 0.17818,0.35636 0.26727,0.53454 0.0891,0.53454 0.21334,1.06439 0.26727,1.60361 0.13076,1.30761 -0.23658,0.99466 0.26727,2.40543 0.29511,0.82631 0.70138,1.60875 1.06908,2.40542 0.16696,0.36176 0.4564,0.6784 0.53453,1.06908 0.19299,0.96492 0.0538,1.97937 0.26727,2.93997 0.14719,0.66233 0.53454,1.24725 0.80181,1.87088 0.26727,1.24726 0.53903,2.49357 0.80181,3.74178 0.19128,0.90858 0.51299,2.75245 0.80181,3.4745 0.26676,0.66689 0.81124,1.2005 1.06908,1.87089 0.72053,1.87339 0.008,1.11545 0.26727,2.67269 0.0328,0.1965 0.21895,0.34128 0.26727,0.53454 0.0432,0.17286 -0.0349,0.35982 0,0.53454 0.0553,0.27626 0.19894,0.52849 0.26727,0.80181 0.5591,0.66061 0.1264,1.43384 0.26727,2.13816 0.0391,0.19534 0.21895,0.34127 0.26726,0.53453 0.0432,0.17286 -0.0432,0.36168 0,0.53454 0.0483,0.19327 0.22821,0.3392 0.26727,0.53454 0.0524,0.26208 0,0.53454 0,0.80181 v 1.60362 1.06908 0.26727 c 0,0.0891 0.0399,0.18758 0,0.26727 -0.22813,0.45625 -0.62521,0.26726 -1.06907,0.26726 h -1.33635 -0.26727 c -0.0891,0 -0.18758,0.0399 -0.26727,0 -0.11269,-0.0563 -0.14774,-0.22742 -0.26727,-0.26726 -0.16904,-0.0564 -0.36168,0.0432 -0.53454,0 -2.19235,-0.54809 2.10977,-0.004 -1.60362,-0.53454 -0.26458,-0.0378 -0.54482,0.0734 -0.8018,0 -0.46773,-0.13364 -1.10249,-0.60136 -1.60362,-0.80181 -1.93786,-0.77515 0.0915,0.0183 -1.33635,-0.26727 -0.27626,-0.0553 -0.53092,-0.18988 -0.80181,-0.26727 -0.35319,-0.10091 -0.72514,-0.13829 -1.06908,-0.26727 -0.37305,-0.1399 -0.6911,-0.40855 -1.06907,-0.53454 -0.12235,-0.0408 -1.18717,0 -1.33635,0 -1.04408,0 -0.0282,0.0797 -1.06908,-0.26727 -0.23667,-0.0789 -1.07141,0.0662 -1.33635,0 -0.19326,-0.0483 -0.33919,-0.2282 -0.53454,-0.26727 -0.47401,-0.0948 -1.72433,0.11824 -2.13815,0 -0.3831,-0.10945 -0.6911,-0.40854 -1.06908,-0.53454 -0.14369,-0.0479 -0.8428,0 -1.06908,0 h -2.13815 -7.75082 -0.53454 c -0.0891,0 -0.20427,0.063 -0.26727,0 -0.14086,-0.14086 -0.12641,-0.39367 -0.26727,-0.53454 -0.063,-0.063 -0.20427,0.063 -0.26727,0 -0.0377,-0.0377 -0.0274,-0.74698 0,-0.80181 0.0564,-0.11269 0.21092,-0.15457 0.26727,-0.26726 0.0398,-0.0797 -0.063,-0.20428 0,-0.26727 0.063,-0.063 0.20427,0.063 0.26727,0 0.35636,-0.35636 -0.44545,-0.26727 0.26727,-0.26727"
       id="path1110"
       inkscape:connector-curvature="0"
       sodipodi:nodetypes="cccccccsccccccccccsscscscccsscssscscsscccccsccccccccccccccccccccccccscsccccccccsccscscsccccccccccscccccsccsscscccsc" />
    <path
       style="fill:none;stroke:#000000;stroke-width:0.26458332px;stroke-linecap:butt;stroke-linejoin:miter;stroke-opacity:1"
       d="m 125.67708,226.93266 c -11.43378,29.05692 3.73252,33.16741 3.73252,32.64769 0,-0.51971 10.48884,2.12612 10.48884,2.12612 l 2.88206,-33.63988 z"
       id="path1112"
       inkscape:connector-curvature="0" />
    <path
       style="opacity:1;fill:#e9f000;fill-opacity:1;stroke:#00fd00;stroke-width:0.26499999;stroke-linecap:butt;stroke-miterlimit:4;stroke-dasharray:none;stroke-opacity:1;paint-order:normal"
       id="path1114"
       d="m 107.62163,239.94849 c -0.27663,0.11477 -0.53316,0.27284 -0.80467,0.39778 -0.0643,0.0296 0.24471,-0.14211 0.18578,-0.10289 -1.64766,1.09632 0.90585,-0.65905 -0.88489,0.58038 -1.00942,0.71036 -1.92742,1.54251 -2.79877,2.41445 -0.22317,0.22333 -0.44145,0.45149 -0.66217,0.67722 -0.89174,0.95052 -1.75417,1.93295 -2.54506,2.96978 -0.448305,0.5877 -0.604031,0.83347 -1.01314,1.43492 -0.465775,0.71565 -0.876861,1.47186 -1.147815,2.28424 -0.134581,0.40351 -0.154517,0.54754 -0.242062,0.95395 -0.137676,0.68265 -0.17053,1.37837 -0.180973,2.07265 -0.01077,0.52956 0.04561,1.05789 0.11929,1.58148 0.06492,0.51435 0.177983,1.02969 0.475917,1.46484 0.213624,0.31201 0.31869,0.36934 0.603155,0.61259 0.131569,0.0741 0.257886,0.15848 0.394705,0.22242 0.652494,0.30491 1.374893,0.37349 2.084013,0.40158 0.55808,0.002 1.11528,-0.0251 1.67341,-0.0211 0.46811,0.006 0.93617,0.0136 1.4043,0.0169 0.0956,7.9e-4 0.19121,0.006 0.2867,0.002 0.0862,-0.003 0.17179,-0.0156 0.25768,-0.0234 0,0 -0.54179,0.40007 -0.54179,0.40007 v 0 c -0.0861,0.005 -0.17211,0.0147 -0.2584,0.0165 -0.0941,0.002 -0.18813,-0.003 -0.28219,-0.005 -0.46766,-0.008 -0.93535,-0.0144 -1.40308,-0.0167 -0.55742,0.004 -1.11465,0.037 -1.67209,0.0162 -0.712353,-0.0405 -1.437357,-0.12268 -2.090282,-0.43437 -0.140026,-0.0668 -0.269227,-0.15434 -0.403842,-0.2315 -0.295351,-0.25608 -0.391533,-0.30656 -0.615251,-0.63156 -0.302776,-0.43984 -0.430858,-0.9565 -0.50192,-1.47804 -0.08153,-0.52491 -0.147055,-1.05649 -0.129712,-1.58867 0.01786,-0.70234 0.05715,-1.40664 0.20006,-2.09638 0.0871,-0.39481 0.116625,-0.57682 0.248414,-0.9674 0.278191,-0.82449 0.697624,-1.59116 1.178039,-2.31377 0.424839,-0.61949 0.563618,-0.83797 1.027012,-1.44543 0.790712,-1.03653 1.651082,-2.01953 2.538772,-2.97343 0.21628,-0.22442 0.42981,-0.45151 0.64883,-0.67325 0.85838,-0.86905 1.76469,-1.69786 2.75923,-2.40946 0.1504,-0.10625 0.29805,-0.2165 0.4512,-0.31873 0.13612,-0.0909 0.27557,-0.17677 0.41627,-0.26036 0.57684,-0.34266 1.15571,-0.68282 1.7694,-0.95599 0,0 -0.54407,0.42784 -0.54407,0.42784 z"
       inkscape:connector-curvature="0" />
    <path
       style="opacity:1;fill:#e9f000;fill-opacity:1;stroke:#00fd00;stroke-width:0.26499999;stroke-linecap:butt;stroke-miterlimit:4;stroke-dasharray:none;stroke-opacity:1;paint-order:normal"
       id="path1116"
       d="m 112.99645,238.50006 c -0.0253,0.6135 -0.0125,1.22706 -5.2e-4,1.84066 0.0292,1.43285 0.0421,2.86564 0.002,4.29834 -0.0224,0.67811 -0.0727,1.35688 -0.15384,2.03063 -0.0715,0.59361 -0.179,1.18296 -0.2777,1.77243 -0.15694,0.809 -0.2753,1.63024 -0.50749,2.42265 -0.0412,0.14065 -0.09,0.27897 -0.13495,0.41845 -0.18055,0.52325 -0.40929,1.02637 -0.73117,1.47846 -0.21444,0.30117 -0.34355,0.43975 -0.58708,0.72621 -0.58595,0.64713 -1.19067,1.28906 -1.88631,1.82101 -0.11066,0.0846 -0.22715,0.16133 -0.34073,0.242 -0.38321,0.23664 -0.67482,0.42352 -1.11691,0.63437 -0.18185,0.0867 -0.46117,0.0644 -0.62368,-0.057 -0.0777,-0.058 -0.13389,-0.14029 -0.20083,-0.21043 -0.0634,-0.13519 -0.14294,-0.26394 -0.19028,-0.40557 -0.17115,-0.51202 -0.23182,-1.07597 -0.27294,-1.60737 -0.0421,-0.54343 -0.0767,-1.78983 -0.0543,-2.33361 0.0162,-0.39419 0.0665,-0.78624 0.0997,-1.17936 0.0728,-0.3929 0.0984,-0.79759 0.21853,-1.1787 0.14621,-0.46391 0.35336,-0.90822 0.57557,-1.3409 0.69219,-1.34778 1.63817,-2.55269 2.68834,-3.63688 0.29763,-0.30727 0.61841,-0.59125 0.92761,-0.88688 0.81837,-0.7323 1.74152,-1.32904 2.67639,-1.89874 0.53916,-0.32855 0.98379,-0.56964 1.51759,-0.89733 0.20269,-0.12443 0.40093,-0.25594 0.6014,-0.38391 0.42254,-0.2904 0.82316,-0.61881 1.13445,-1.03004 0.13606,-0.17975 0.2647,-0.41192 0.35737,-0.61784 0.0425,-0.0944 0.0751,-0.19289 0.11266,-0.28933 0.155,-0.49902 0.18531,-1.02186 0.19176,-1.54074 0.01,-0.28548 -0.01,-0.56725 -0.10433,-0.83787 -0.0852,-0.19933 -0.18888,-0.23665 -0.39514,-0.22888 -0.0319,0.008 -0.0651,0.0117 -0.0958,0.0235 -0.0372,0.0142 -0.14119,0.0739 -0.10671,0.0539 0.15167,-0.088 0.30172,-0.17923 0.45842,-0.25787 0.0534,-0.0268 -0.10057,0.0649 -0.14755,0.10186 -0.13968,0.10978 -0.22508,0.20587 -0.35253,0.33501 -0.0833,0.11683 -0.17263,0.22962 -0.24997,0.3505 -0.41225,0.64432 -0.73346,1.35526 -1.03394,2.05586 -0.42275,0.98571 -0.59887,1.48063 -0.99128,2.5081 -0.87504,2.30886 -1.64114,4.65775 -2.32236,7.03063 0,0 -0.55542,0.26256 -0.55542,0.26256 v 0 c 0.76765,-2.37117 1.57103,-4.7309 2.4127,-7.07682 0.32611,-0.89109 0.58107,-1.61288 0.93288,-2.48446 0.28014,-0.69403 0.57945,-1.3896 0.96088,-2.0354 0.071,-0.12028 0.15094,-0.23511 0.2264,-0.35267 0.10076,-0.10775 0.22135,-0.24418 0.33609,-0.34183 0.0451,-0.0384 0.0921,-0.0752 0.14275,-0.10578 0.23908,-0.14443 0.48073,-0.28479 0.72577,-0.41889 0.0369,-0.0202 0.0778,-0.0329 0.11857,-0.0432 0.034,-0.009 0.0697,-0.009 0.1045,-0.013 0.23391,0.0154 0.34522,0.0805 0.43861,0.30196 0.0936,0.27978 0.12449,0.56944 0.10634,0.86401 -0.0144,0.52797 -0.0508,1.05871 -0.19654,1.56923 -0.13079,0.34036 -0.25453,0.63792 -0.47631,0.93435 -0.31763,0.42453 -0.7288,0.76351 -1.16323,1.06178 -0.20501,0.13045 -0.40768,0.26465 -0.61504,0.39135 -0.56657,0.3462 -0.96727,0.55785 -1.54279,0.90554 -0.94619,0.57162 -1.88106,1.16994 -2.71382,1.90184 -0.31651,0.29727 -0.64508,0.58222 -0.94954,0.89182 -0.73099,0.74335 -1.32338,1.43242 -1.90662,2.30125 -0.53193,0.79239 -1.05281,1.71504 -1.33719,2.63527 -0.11744,0.38001 -0.14607,0.78196 -0.2191,1.17293 -0.0335,0.39144 -0.0841,0.78179 -0.10038,1.17432 -0.0264,0.63527 0.009,1.67974 0.0757,2.31403 0.0517,0.48999 0.14588,1.08069 0.32617,1.55551 0.0503,0.1324 0.13182,0.25069 0.19773,0.37603 0.16212,0.15203 0.17089,0.20828 0.38087,0.25005 0.0596,0.0119 0.12192,0.0134 0.18219,0.006 0.073,-0.009 0.25586,-0.11621 0.21343,-0.0561 -0.0727,0.10287 -0.25574,0.0946 -0.31795,0.20412 -0.0584,0.10284 0.20334,-0.12089 0.30501,-0.18133 0.11675,-0.0804 0.23658,-0.15641 0.35026,-0.24106 0.70167,-0.52256 1.30637,-1.16398 1.89157,-1.8101 0.28587,-0.33653 0.57828,-0.67232 0.80844,-1.05127 0.21533,-0.35452 0.36731,-0.74144 0.51382,-1.1278 0.12752,-0.38208 0.16321,-0.46435 0.26135,-0.8606 0.16167,-0.65272 0.26981,-1.31811 0.39705,-1.97788 0.0431,-0.23693 0.16558,-0.90494 0.20095,-1.12603 0.14196,-0.88726 0.2186,-1.78351 0.25819,-2.68087 0.008,-0.24373 0.0195,-0.48738 0.0248,-0.73119 0.0256,-1.18328 -0.0111,-2.36713 -0.0531,-3.54955 -0.0259,-0.60488 -0.0449,-1.20958 -0.0544,-1.81491 0,0 0.62461,-0.31826 0.62461,-0.31826 z"
       inkscape:connector-curvature="0" />
    <rect
       style="opacity:1;fill:#e9f000;fill-opacity:1;stroke:#00ff00;stroke-width:1.265;stroke-linecap:butt;stroke-miterlimit:4;stroke-dasharray:none;stroke-opacity:1;paint-order:normal"
       id="rect1120"
       width="49.136902"
       height="46.49107"
       x="134.9375"
       y="32.038689" />
    <path
       onmouseover="; InkWeb.setAtt({el:['path1088','rect1120'], att:'fill stroke stroke-width', val:'red black 5px'}); InkWeb.setAtt({el:['path1088','rect1120'], att:'fill stroke stroke-width', val:'red black 5px'})"
       inkscape:transform-center-y="-2.0413698"
       inkscape:transform-center-x="2.0413684"
       d="m 133.80357,176.80357 -26.55712,-9.00578 -22.474375,16.77161 0.358404,-28.04026 -22.895708,-16.19169 26.778621,-8.32406 8.324053,-26.77862 16.191695,22.89571 28.04025,-0.35841 -16.7716,22.47438 z"
       inkscape:randomized="0"
       inkscape:rounded="0"
       inkscape:flatsided="false"
       sodipodi:arg2="1.4137167"
       sodipodi:arg1="0.78539816"
       sodipodi:r2="21.114292"
       sodipodi:r1="42.228584"
       sodipodi:cy="146.94345"
       sodipodi:cx="103.94345"
       sodipodi:sides="5"
       id="path1122"
       style="opacity:1;fill:#e9f000;fill-opacity:1;stroke:#00ff00;stroke-width:1.26499999;stroke-linecap:butt;stroke-miterlimit:4;stroke-dasharray:none;stroke-opacity:1;paint-order:normal"
       sodipodi:type="star"
       onclick="; InkWeb.transmitAtt({from:this, to:['path1088','rect1120'], att:'fill'}); InkWeb.transmitAtt({from:this, to:['path1088','rect1120'], att:'fill'})" />
    <path
       sodipodi:type="spiral"
       style="fill:none;fill-rule:evenodd;stroke:#000000;stroke-width:0.26458332"
       id="path1124"
       sodipodi:cx="100.1637"
       sodipodi:cy="274.6994"
       sodipodi:expansion="1"
       sodipodi:revolution="3"
       sodipodi:radius="21.488203"
       sodipodi:argument="-21.30542"
       sodipodi:t0="0"
       d="m 100.1637,274.6994 c -0.833854,-0.68224 0.50825,-1.4606 1.13392,-1.38591 1.69554,0.20241 2.17465,2.30035 1.6379,3.65377 -0.96011,2.42095 -4.024122,2.99972 -6.173606,1.88988 -3.154454,-1.62873 -3.846379,-5.77025 -2.141872,-8.69345 2.271839,-3.89616 7.524168,-4.70205 11.213288,-2.39386 4.64239,2.90464 5.56237,9.28178 2.64585,13.73314 -3.5323,5.39119 -11.041446,6.42535 -16.252975,2.89783 -6.141607,-4.15707 -7.290018,-12.80241 -3.149818,-18.77282 4.780025,-6.89307 14.564223,-8.1558 21.292653,-3.4018 7.64528,5.40179 9.02237,16.32664 3.65379,23.8125 -6.02273,8.39799 -18.089504,9.8895 -26.332334,3.90577 -9.151105,-6.64308 -10.757072,-19.8527 -4.157763,-28.85218" />
    <text
       xml:space="preserve"
       style="font-style:normal;font-weight:normal;font-size:10.58333302px;line-height:1.25;font-family:sans-serif;letter-spacing:0px;word-spacing:0px;fill:#000000;fill-opacity:1;stroke:none;stroke-width:0.26458332"
       x="34.798695"
       y="-3.3273437"
       id="text1128"
       transform="rotate(39.544455)"><tspan
         sodipodi:role="line"
         id="tspan1126"
         x="34.798695"
         y="-3.3273437"
         style="stroke-width:0.26458332">This is some text.</tspan></text>
    <path
       style="fill:none;fill-rule:evenodd;stroke:#000000;stroke-width:0.26458332px;stroke-linecap:butt;stroke-linejoin:miter;stroke-opacity:1"
       d="m 198.81547,104.61012 -7.55952,23.05654"
       id="path1132"
       inkscape:connector-type="polyline"
       inkscape:connector-curvature="0" />
    <path
       style="fill:none;stroke:#000000;stroke-width:0.26458332px;stroke-linecap:butt;stroke-linejoin:miter;stroke-opacity:1"
       d="m 173.49107,158.28273 c -0.88195,0 -1.76389,0 -2.64583,0 -0.12599,0 -0.28889,-0.0891 -0.37798,0 -0.0891,0.0891 0.0891,0.28888 0,0.37797 -0.0891,0.0891 -0.26529,-0.0563 -0.37798,0 -0.15937,0.0797 -0.2186,0.2983 -0.37797,0.37798 -0.11269,0.0564 -0.26529,-0.0564 -0.37798,0 -0.31874,0.15937 -0.43721,0.59658 -0.75595,0.75595 -0.93094,0.46547 0.34121,-1.09716 -1.13393,0.37798 -0.19921,0.19921 -0.17877,0.55674 -0.37798,0.75595 -2.6e-4,2.7e-4 -1.13221,-5.3e-4 -1.13392,0 -0.16904,0.0564 -0.21861,0.29829 -0.37798,0.37798 -0.11269,0.0563 -0.25199,0 -0.37798,0 -0.25198,0.12599 -0.52154,0.2217 -0.75595,0.37797 -0.43613,0.29075 -0.6978,0.84318 -1.13393,1.13393 -0.6978,0.4652 -1.57005,0.66873 -2.26785,1.13393 -0.14826,0.0988 -0.21861,0.29829 -0.37798,0.37798 -0.11269,0.0563 -0.27315,-0.0699 -0.37798,0 -0.29651,0.19767 -0.50397,0.50396 -0.75595,0.75595 -0.12599,0.12599 -0.21861,0.29829 -0.37798,0.37798 -0.11269,0.0563 -0.26528,-0.0564 -0.37797,0 -1.72985,0.86492 1.60391,-0.15667 -1.13393,0.75595 -0.11953,0.0398 -0.25199,0 -0.37798,0 -0.12599,0.12599 -0.2186,0.29829 -0.37797,0.37797 -0.11269,0.0564 -0.26529,-0.0563 -0.37798,0 -0.69586,0.34793 -0.0601,0.786 -0.75595,1.13393 -0.22538,0.11269 -0.53057,-0.11269 -0.75595,0 -0.15937,0.0797 -0.21861,0.29829 -0.37798,0.37798 -0.11269,0.0564 -0.32163,-0.11269 -0.37798,0 -0.11269,0.22538 0.17818,0.57777 0,0.75595 -0.17818,0.17818 -0.53057,-0.11269 -0.75595,0 -0.11269,0.0564 0.0891,0.28889 0,0.37798 -0.0891,0.0891 -0.26528,-0.0564 -0.37797,0 -0.15937,0.0797 -0.21861,0.29829 -0.37798,0.37797 -0.11269,0.0564 -0.28889,-0.0891 -0.37798,0 -0.0891,0.0891 0.0891,0.28889 0,0.37798 -0.13577,0.13577 -1.26737,-0.12227 -1.5119,0 -0.11269,0.0563 0.0563,0.26529 0,0.37797 -0.0797,0.15937 -0.22972,0.27915 -0.37798,0.37798 -0.23441,0.15628 -0.53057,0.20894 -0.75595,0.37798 -0.28509,0.21381 -0.45944,0.55828 -0.75595,0.75595 -0.80292,0.53528 0.0601,-0.84609 -0.75596,0.37798 -0.15627,0.23441 -0.2217,0.52154 -0.37797,0.75595 -0.10681,0.16021 -0.97754,1.05573 -1.13393,1.13393 -0.11269,0.0563 -0.25198,0 -0.37798,0 -0.56258,0 -0.48244,-0.0563 -1.13392,0.37797 -0.14826,0.0988 -0.22973,0.27914 -0.37798,0.37798 -0.46882,0.31255 -1.04308,0.4434 -1.51191,0.75595 -0.2965,0.19767 -0.45944,0.55828 -0.75595,0.75596 -0.23441,0.15627 -0.51437,0.23302 -0.75595,0.37797 -0.38953,0.23372 -0.74439,0.52223 -1.13393,0.75595 -0.24158,0.14495 -0.52154,0.2217 -0.75595,0.37798 -0.29651,0.19767 -0.45944,0.55828 -0.75595,0.75595 -0.23442,0.15628 -0.52154,0.22171 -0.75596,0.37798 -0.14825,0.0988 -0.22972,0.27914 -0.37797,0.37797 -0.23441,0.15628 -0.50397,0.25199 -0.75595,0.37798 -0.37798,0 -0.79586,-0.16904 -1.13393,0 -0.25199,0.12599 -0.14357,0.59968 -0.37798,0.75595 -0.20966,0.13978 -0.5169,-0.0797 -0.75595,0 -0.16904,0.0564 -0.22972,0.27914 -0.37798,0.37798 -0.23441,0.15627 -0.55674,0.17876 -0.75595,0.37798 -0.19921,0.19921 -0.17876,0.55674 -0.37798,0.75595 -0.33026,0.33026 -1.59466,0.60834 -1.88988,0.75595 -0.15937,0.0797 -0.20894,0.32163 -0.37797,0.37798 -0.23906,0.0797 -0.51149,-0.0611 -0.75596,0 -0.27331,0.0683 -0.50396,0.25198 -0.75595,0.37797 -0.50397,0.25199 -1.00793,0.50397 -1.5119,0.75596 -0.25199,0.12599 -0.48264,0.30964 -0.75596,0.37797 -0.24445,0.0611 -0.53057,-0.11269 -0.75595,0 -0.31874,0.15937 -0.43721,0.59658 -0.75595,0.75595 -0.22538,0.11269 -0.5169,-0.0797 -0.75595,0 -0.16904,0.0564 -0.25199,0.25199 -0.37798,0.37798 -0.25198,0.25198 -0.45944,0.55828 -0.75595,0.75595 -0.10483,0.0699 -0.25845,-0.0398 -0.37798,0 -0.26727,0.0891 -0.48868,0.28889 -0.75595,0.37798 -0.23905,0.0797 -0.53057,-0.11269 -0.75595,0 -1.15266,0.57633 0.6913,0.29964 -1.13393,0.75595 -0.24446,0.0611 -0.5169,-0.0797 -0.75595,0 -0.16904,0.0564 -0.21861,0.29829 -0.37798,0.37798 -0.11269,0.0563 -0.25845,-0.0399 -0.37798,0 -0.26726,0.0891 -0.48868,0.28888 -0.75595,0.37797 -0.11953,0.0399 -0.26528,-0.0563 -0.37797,0 -1.25359,1.25359 0.35636,-0.17818 -0.75596,0.37798 -0.15936,0.0797 -0.2186,0.29829 -0.37797,0.37798 -0.11269,0.0563 -0.27315,-0.0699 -0.37798,0 -0.29651,0.19767 -0.45944,0.55827 -0.75595,0.75595 -0.10483,0.0699 -0.28889,-0.0891 -0.37798,0 -0.19921,0.19921 -0.14356,0.59968 -0.37797,0.75595 -0.0387,0.0258 -1.29676,0 -1.51191,0 -0.12599,0 -0.37797,-0.12599 -0.37797,0 0,0.28173 0.25198,0.50397 0.37797,0.75595 0.12599,0.25199 0.17877,0.55674 0.37798,0.75596 0.19921,0.19921 0.55674,0.17876 0.75595,0.37797 0.19921,0.19921 0.2217,0.52154 0.37798,0.75595 0.19767,0.29651 0.64326,0.41788 0.75595,0.75595 0,1.72066 -0.17818,0.0216 0.37798,1.13393 0.11269,0.22538 -0.1127,0.53058 0,0.75596 1.25358,1.25359 -0.17819,-0.35636 0.37797,0.75595 0.15937,0.31874 0.59659,0.43721 0.75595,0.75595 0.0563,0.11269 0,0.25199 0,0.37798 0.12599,0.37797 0.15697,0.80242 0.37798,1.13392 0.0699,0.10484 0.28889,-0.0891 0.37798,0 0.0891,0.0891 0,0.25199 0,0.37798 0.12599,0.126 0.22972,0.27914 0.37797,0.37798 0.23441,0.15627 0.55674,0.17876 0.75595,0.37797 0.0891,0.0891 -0.0398,0.25846 0,0.37798 0.0891,0.26727 0.28889,0.48868 0.37798,0.75595 0.0398,0.11953 -0.0398,0.25845 0,0.37798 0.0891,0.26727 0.28889,0.48868 0.37798,0.75595 0.0398,0.11953 -0.0564,0.26529 0,0.37798 0.0797,0.15937 0.32163,0.20894 0.37797,0.37797 0.5455,1.6365 -0.72257,-0.13892 0.37798,1.51191 0.60351,0.90527 0.44727,-0.34017 0.75595,1.5119 0.0621,0.37284 -0.0917,0.76724 0,1.13393 0.0432,0.17286 0.27914,0.22972 0.37798,0.37798 0.15627,0.23441 0.30964,0.48264 0.37797,0.75595 0,1.72065 -0.17817,0.0216 0.37798,1.13393 0.0563,0.11269 -0.11269,0.32163 0,0.37797 0.22538,0.1127 0.53057,-0.11268 0.75595,0 0.11269,0.0564 0,0.25199 0,0.37798 0,0.33781 -0.0602,1.76943 0,1.88988 0.0797,0.15937 0.25199,0.25199 0.37798,0.37798 0.38422,0.38422 0.6034,0.52371 0.75595,1.13393 0.0611,0.24446 -0.0797,0.5169 0,0.75595 0.0563,0.16904 0.29829,0.21861 0.37798,0.37797 0.17818,0.35636 0.19979,0.77758 0.37797,1.13393 0.57633,1.15266 0.29965,-0.69129 0.75596,1.13393 0.0611,0.24446 -0.0797,0.5169 0,0.75595 0.0563,0.16904 0.27913,0.22973 0.37797,0.37798 0.15628,0.23441 0.17877,0.55674 0.37798,0.75595 0.19921,0.19921 0.59968,0.14357 0.75595,0.37798 0.13978,0.20966 -0.0611,0.51149 0,0.75595 0.0683,0.27332 0.28889,0.48868 0.37798,0.75596 0.0797,0.23905 -0.0797,0.51689 0,0.75595 0.45675,1.37027 0.17933,0.269 0.75595,1.13392 0.15627,0.23442 0.27334,0.49438 0.37798,0.75596 0.14797,0.36992 0.13892,0.81519 0.37797,1.13393 0.16904,0.22538 0.59968,0.14356 0.75595,0.37797 0.13978,0.20967 -0.13977,0.54629 0,0.75595 0.15628,0.23442 0.62997,0.126 0.75596,0.37798 0.16903,0.33807 -0.20967,0.81944 0,1.13393 0.13977,0.20966 0.53057,-0.11269 0.75595,0 0.11269,0.0564 -0.0891,0.28888 0,0.37798 0.0891,0.0891 0.28888,-0.0891 0.37797,0 0.0891,0.0891 -0.0563,0.26528 0,0.37797 1.25359,1.25359 -0.17818,-0.35636 0.37798,0.75596 0.0797,0.15936 0.29829,0.2186 0.37798,0.37797 0.0563,0.11269 -0.0564,0.26529 0,0.37798 0.86492,1.72985 -0.15666,-1.60391 0.75595,1.13392 0.0398,0.11953 -0.0398,0.25845 0,0.37798 0.0891,0.26727 0.28889,0.48869 0.37798,0.75595 0.37505,1.12517 -0.895,-0.77553 0.37797,1.13393 0.0988,0.14826 0.29829,0.21861 0.37798,0.37798 0.0563,0.11269 0,0.25198 0,0.37797 0.12599,0.25199 0.20894,0.53058 0.37797,0.75596 0.21382,0.28508 0.62361,0.42508 0.75596,0.75595 0.14037,0.35094 -0.13272,0.78002 0,1.13393 0.25795,0.68788 0.80538,1.23279 1.13393,1.88988 0.17817,0.35636 0.22103,0.76772 0.37797,1.13393 0.44029,1.02733 1.09614,1.9844 1.51191,3.02381 0.14797,0.36992 0.23,0.764 0.37797,1.13393 0.10463,0.26157 0.28889,0.48868 0.37798,0.75595 0.0797,0.23905 -0.11269,0.53057 0,0.75595 0.0797,0.15937 0.29829,0.21861 0.37797,0.37798 0.0563,0.11269 -0.0891,0.28888 0,0.37797 0.19921,0.19921 0.61101,0.1364 0.75596,0.37798 0.26727,0.44545 0.2137,1.01908 0.37797,1.5119 0.91262,2.73784 -0.10897,-0.59592 0.75596,1.13393 0.0563,0.11269 0,0.25199 0,0.37798 0.12599,0.37797 0.17299,0.79228 0.37797,1.13393 0.18335,0.30557 0.59658,0.43721 0.75595,0.75595 0.1127,0.22538 -0.0797,0.5169 0,0.75595 0.0564,0.16904 0.2983,0.21861 0.37798,0.37798 0.0563,0.11269 -0.0398,0.25845 0,0.37798 0.0891,0.26726 0.28889,0.48868 0.37798,0.75595 0.0398,0.11952 -0.0891,0.28888 0,0.37797 0.0891,0.0891 0.28888,-0.0891 0.37797,0 0.17818,0.17818 -0.17818,0.57778 0,0.75595 0.19921,0.19922 0.55675,0.17877 0.75596,0.37798 0.0891,0.0891 -0.0399,0.25845 0,0.37798 0.91261,2.73784 -0.10898,-0.59592 0.75595,1.13393 0.0563,0.11269 -0.0891,0.28888 0,0.37797 0.0891,0.0891 0.25198,0 0.37797,0 0.25199,0 0.50397,0 0.75596,0 1.76388,0 3.5293,0.0734 5.29166,0 6.69709,-0.27904 0.92774,-0.30009 7.18155,-1.13393 7.81359,-1.04181 -5.81721,2.03003 6.04762,-1.13393 0.62074,-0.16553 1.25241,-0.29829 1.88988,-0.37797 2.0987,-0.26234 0.15524,0.45222 2.64583,-0.37798 0.53454,-0.17818 0.96528,-0.61929 1.51191,-0.75595 0.48892,-0.12223 1.01772,0.0988 1.5119,0 0.78137,-0.15627 1.49481,-0.56269 2.26786,-0.75595 0.24446,-0.0611 0.5169,0.0797 0.75595,0 0.53454,-0.17818 0.9594,-0.64545 1.51191,-0.75595 0.37063,-0.0741 0.75595,0 1.13393,0 0.75595,0 1.52219,0.12427 2.26785,0 0.2779,-0.0463 0.48264,-0.30965 0.75596,-0.37798 0.24446,-0.0611 0.50739,0.0414 0.75595,0 0.51241,-0.0854 0.99765,-0.30451 1.5119,-0.37798 0.37418,-0.0534 0.78299,0.14038 1.13393,0 0.33087,-0.13235 0.43722,-0.59658 0.75595,-0.75595 0.22539,-0.11269 0.5169,0.0797 0.75596,0 4.68756,-2.34378 -0.37096,-0.0962 2.26785,-0.75595 0.54663,-0.13666 0.96528,-0.6193 1.51191,-0.75595 0.24446,-0.0611 0.51149,0.0611 0.75595,0 0.27332,-0.0683 0.47806,-0.33166 0.75595,-0.37798 0.49711,-0.0829 1.00794,0 1.51191,0 0.25198,0 0.51149,0.0611 0.75595,0 0.27332,-0.0683 0.48264,-0.30965 0.75595,-0.37798 0.24446,-0.0611 0.51149,0.0611 0.75595,0 0.77306,-0.19326 1.49481,-0.56269 2.26786,-0.75595 0.24446,-0.0611 0.51149,0.0611 0.75595,0 0.27332,-0.0683 0.48869,-0.28889 0.75595,-0.37798 0.35859,-0.11952 0.76724,0.0917 1.13393,0 0.27332,-0.0683 0.48264,-0.30964 0.75596,-0.37797 0.24446,-0.0611 0.51149,0.0611 0.75595,0 0.27332,-0.0683 0.48264,-0.30965 0.75595,-0.37798 0.24446,-0.0611 0.50397,0 0.75595,0 0.126,0 0.27315,0.0699 0.37798,0 0.29651,-0.19767 0.43722,-0.59658 0.75595,-0.75595 0.45077,-0.22538 1.0338,0.15937 1.51191,0 0.16903,-0.0563 0.2186,-0.29829 0.37797,-0.37797 0.22145,-0.11073 1.61136,0.0696 1.88988,0 0.27332,-0.0683 0.47806,-0.33167 0.75596,-0.37798 2.87295,0 0.45778,0.22538 2.26785,-0.37798 0.25676,-0.0856 2.1583,0 2.64584,0 0.25198,0 0.53057,0.11269 0.75595,0 0.4278,-0.2139 -0.24282,-0.48564 -0.37798,-0.75595 -0.0563,-0.11269 0.0399,-0.25845 0,-0.37798 -0.0891,-0.26727 -0.30058,-0.48506 -0.37797,-0.75595 -0.12599,-0.62996 -0.25199,-1.25992 -0.37798,-1.88988 0,-0.12599 0.0247,-0.25443 0,-0.37798 -0.10188,-0.50939 -0.29257,-0.99949 -0.37797,-1.5119 -0.0414,-0.24856 0.0494,-0.50886 0,-0.75595 -0.0781,-0.39069 -0.28135,-0.74741 -0.37798,-1.13393 -0.15582,-0.62326 -0.1524,-1.28835 -0.37798,-1.88988 -1.24804,-3.32811 -0.41257,1.32164 -1.13393,-2.64584 -0.78885,-4.33867 0.0275,-1.01012 -0.75595,-4.53571 -0.11269,-0.50711 -0.16028,-1.04024 -0.37797,-1.51191 -0.54359,-1.17777 -1.43442,-2.1872 -1.88989,-3.40178 -0.31281,-0.83417 -0.2425,-1.7653 -0.37797,-2.64583 -0.11653,-0.75747 -0.28292,-1.5074 -0.37798,-2.26786 -0.0312,-0.25004 0.0494,-0.50886 0,-0.75595 -0.0781,-0.39069 -0.29984,-0.74325 -0.37798,-1.13393 -0.0494,-0.24709 0.0797,-0.5169 0,-0.75596 -0.17817,-0.53453 -0.54669,-0.98875 -0.75595,-1.5119 -0.0468,-0.11698 0.0247,-0.25443 0,-0.37797 -0.10187,-0.5094 -0.2137,-1.01909 -0.37797,-1.51191 -0.0891,-0.26727 -0.32273,-0.4797 -0.37798,-0.75595 -0.0741,-0.37064 0.0469,-0.75887 0,-1.13393 -0.16285,-1.30284 -0.47849,-2.15321 -0.75595,-3.40179 -0.13936,-0.62713 -0.13089,-1.29686 -0.37798,-1.88988 -0.39068,-0.93764 -1.05763,-1.73729 -1.5119,-2.64583 -0.17818,-0.35636 -0.23808,-0.76087 -0.37798,-1.13393 -0.23823,-0.63529 -0.57743,-1.2353 -0.75595,-1.88988 -0.20165,-0.73938 -0.1921,-1.52436 -0.37798,-2.26786 -0.13665,-0.54663 -0.61929,-0.96527 -0.75595,-1.5119 -0.0611,-0.24446 0.0797,-0.5169 0,-0.75596 -0.0563,-0.16903 -0.29829,-0.2186 -0.37798,-0.37797 -0.0563,-0.11269 0,-0.25199 0,-0.37798 0,-0.25198 0.0797,-0.5169 0,-0.75595 -0.0563,-0.16904 -0.29829,-0.21861 -0.37797,-0.37797 -0.0564,-0.1127 0.0891,-0.28889 0,-0.37798 -0.0891,-0.0891 -0.33814,0.11952 -0.37798,0 -0.11952,-0.35858 0,-0.75596 0,-1.13393 -0.37798,-0.50397 -0.8522,-0.94845 -1.13393,-1.5119 -0.0117,-0.0235 -0.73284,-2.9545 -0.75595,-3.02382 -0.17818,-0.53453 -0.61929,-0.96527 -0.75595,-1.5119 -0.0611,-0.24446 0.0494,-0.50886 0,-0.75595 -0.0781,-0.39069 -0.28134,-0.7474 -0.37798,-1.13393 -0.0306,-0.12223 0.0564,-0.26529 0,-0.37798 -0.78652,-1.57304 0.0261,0.40407 -0.75595,-0.37797 -0.17818,-0.17818 0.11269,-0.53057 0,-0.75595 -0.0797,-0.15937 -0.29829,-0.21861 -0.37798,-0.37798 -0.0563,-0.11269 0.0563,-0.26529 0,-0.37798 -0.0797,-0.15937 -0.29829,-0.2186 -0.37797,-0.37797 -0.11269,-0.22538 0.17818,-0.57778 0,-0.75596 -0.19921,-0.19921 -0.55674,-0.17876 -0.75595,-0.37797 -0.19922,-0.19921 -0.20199,-0.53596 -0.37798,-0.75596 -0.5187,-0.64837 -1.28233,-1.28233 -1.88988,-1.88987 -0.25198,-0.25199 -0.57261,-0.45038 -0.75595,-0.75596 -0.2899,-0.48315 -0.40397,-1.07192 -0.75596,-1.5119 -0.17599,-0.22 -0.52154,-0.2217 -0.75595,-0.37798 -0.74879,0.0377 -0.17876,-0.55674 -0.37797,-0.75595 -0.0891,-0.0891 -0.28889,0.0891 -0.37798,0 -0.0891,-0.0891 0.0891,-0.28889 0,-0.37798 -0.0891,-0.0891 -0.25199,0 -0.37798,0 0,-0.12599 0.0564,-0.26528 0,-0.37797 -0.28945,-0.5789 -0.67356,-0.29559 -1.13393,-0.75596 -0.39842,-0.39842 -0.35753,-1.11348 -0.75595,-1.5119 -0.26049,-0.26049 -1.85212,-0.85678 -2.26785,-1.13393 -0.16022,-0.10681 -1.05574,-0.97754 -1.13393,-1.13393 -0.0563,-0.11269 0.0563,-0.26528 0,-0.37797 -0.22679,-0.45357 -0.90715,-0.68036 -1.13393,-1.13393 -0.0564,-0.11269 0.0891,-0.28889 0,-0.37798 -0.0891,-0.0891 -0.25845,0.0398 -0.37798,0 -0.26727,-0.0891 -0.55674,-0.17876 -0.75595,-0.37797 -0.0891,-0.0891 0.0563,-0.26529 0,-0.37798 -0.78652,-1.57305 0.0261,0.40407 -0.75595,-0.37798 -0.0891,-0.0891 0.0891,-0.28888 0,-0.37797 -0.0891,-0.0891 -0.26529,0.0563 -0.37798,0 -0.20187,-0.10094 -0.93494,-0.93494 -1.13393,-1.13393 -0.86663,-0.86664 0.15937,0.23905 -0.75595,-1.13393 -0.5789,-0.86835 -0.2159,0.16208 -1.13393,-0.75595 -0.0891,-0.0891 0.0891,-0.28889 0,-0.37798 -0.0891,-0.0891 -0.28888,0.0891 -0.37797,0 -0.0891,-0.0891 0.0891,-0.28888 0,-0.37797 -0.0891,-0.0891 -0.28889,0.0891 -0.37798,0 -0.0891,-0.0891 0.0891,-0.28889 0,-0.37798 -0.0891,-0.0891 -0.28889,0.0891 -0.37798,0 -0.78204,-0.78205 1.19507,0.0306 -0.37797,-0.75595 -0.11269,-0.0564 -0.28889,0.0891 -0.37798,0 -0.0891,-0.0891 0.0891,-0.28889 0,-0.37798 -0.0891,-0.0891 -0.32163,0.11269 -0.37798,0 -0.11269,-0.22538 0.22539,-0.64326 0,-0.75595 -0.45076,-0.22538 -1.10181,0.29292 -1.5119,0 -0.59781,-0.42701 -0.80538,-1.23279 -1.13393,-1.88988 -0.0563,-0.1127 -0.12599,-0.37798 0,-0.37798 0.12599,0 -0.0563,0.26528 0,0.37798 0.32326,0.64652 0.81067,0.10943 1.13393,0.75595 0.16903,0.33807 0,0.75595 0,1.13393 z"
       id="path1526"
       inkscape:connector-curvature="0" />
    <path
       style="fill:none;stroke:#000000;stroke-width:0.26458332px;stroke-linecap:butt;stroke-linejoin:miter;stroke-opacity:1"
       d="m 12.85119,157.90475 c 0,0.88195 0,1.76389 0,2.64584 0,0.12599 -0.05635,0.26528 0,0.37797 0.07968,0.15937 0.298292,0.21861 0.377977,0.37798 0.09708,0.19416 -0.05739,1.83249 0,1.88988 0.08909,0.0891 0.288886,-0.0891 0.377976,0 0.08909,0.0891 0,0.25198 0,0.37797 0,0.3407 -0.0793,1.65199 0,1.88989 0.08909,0.26727 0.288886,0.48868 0.377976,0.75595 0.111565,0.33469 -0.09367,1.5152 0,1.88988 0.06833,0.27331 0.309647,0.48264 0.377976,0.75595 0.07433,0.29732 0,1.87479 0,2.26786 0,1.76389 0,3.52778 0,5.29167 0,4.91369 0,9.82737 0,14.74106 0,1.38592 0,2.77183 0,4.15774 0,0.2629 0.06835,1.7532 0,1.88989 -0.07968,0.15936 -0.298292,0.2186 -0.377976,0.37797 -0.05634,0.11269 0,0.25199 0,0.37798 0,0.37797 0,0.75595 0,1.13392 0,1.25993 0,2.51985 0,3.77977 0,1.38591 0,2.77182 0,4.15773 0,0.126 0,0.25199 0,0.37798 0,0.126 0.08909,0.28889 0,0.37798 -0.08909,0.0891 -0.288886,-0.0891 -0.377976,0 -0.08909,0.0891 0,0.25198 0,0.37797 0,0.75596 0,1.51191 0,2.26786 0,0.12599 0,0.25199 0,0.37798 0,0.12599 -0.08909,0.28888 0,0.37797 0.0378,0.0378 1.096131,0.0378 1.133928,0 0.08909,-0.0891 -0.11269,-0.32163 0,-0.37797 0.225382,-0.11269 0.546289,0.13977 0.755953,0 0.234411,-0.15628 0.178765,-0.55674 0.377976,-0.75596 0.178179,-0.17817 0.577773,0.17818 0.755952,0 0.08909,-0.0891 -0.08909,-0.28888 0,-0.37797 0.08909,-0.0891 0.288887,0.0891 0.377976,0 0.08909,-0.0891 -0.08909,-0.28889 0,-0.37798 0.08909,-0.0891 0.265286,0.0564 0.377977,0 0.159368,-0.0797 0.218607,-0.29829 0.377976,-0.37797 0.11269,-0.0564 0.288886,0.0891 0.377976,0 0.08909,-0.0891 -0.08909,-0.28889 0,-0.37798 0.08909,-0.0891 0.288886,0.0891 0.377976,0 0.08909,-0.0891 -0.08909,-0.28888 0,-0.37798 0.08909,-0.0891 0.288886,0.0891 0.377976,0 0.08909,-0.0891 -0.08909,-0.28888 0,-0.37797 0.17818,-0.17818 0.577773,0.17818 0.755953,0 0.08909,-0.0891 -0.08909,-0.28889 0,-0.37798 0.08909,-0.0891 0.251984,0 0.377976,0 0.125992,-0.12599 0.27914,-0.22972 0.377976,-0.37798 0.230184,-0.34527 0.322634,-0.91726 0.755952,-1.13392 0.112691,-0.0563 0.288887,0.0891 0.377976,0 0.782047,-0.78205 -1.19507,0.0306 0.377977,-0.75595 0.112691,-0.0564 0.251984,0 0.377976,0 0.562586,0 0.482446,0.0563 1.133929,-0.37798 0.148254,-0.0988 0.251984,-0.25199 0.377976,-0.37798 0.125992,-0.12599 0.298291,-0.21861 0.377976,-0.37797 0.05635,-0.1127 -0.08909,-0.28889 0,-0.37798 0.08909,-0.0891 0.265285,0.0564 0.377976,0 0.159369,-0.0797 0.218608,-0.29829 0.377976,-0.37798 0.112691,-0.0563 0.288887,0.0891 0.377977,0 0.08909,-0.0891 -0.08909,-0.28888 0,-0.37797 0.259183,-0.25918 0.496768,0.25918 0.755952,0 0.199211,-0.19921 0.178765,-0.55674 0.377976,-0.75596 0.08909,-0.0891 0.251984,0 0.377976,0 0.251984,0 0.503968,0 0.755951,0 1.637898,0 3.275796,0 4.913691,0 0.215144,0 1.473211,-0.0258 1.511906,0 0.23441,0.15628 0.178766,0.55675 0.377976,0.75596 0.08909,0.0891 0.251984,0 0.377976,0 0.251984,0 0.503967,0 0.755951,0 1.007938,0 2.015874,0 3.023812,0 0.377976,0 0.775348,-0.11953 1.133928,0 0.169036,0.0563 0.218606,0.29829 0.377975,0.37797 0.225383,0.1127 0.577774,-0.17818 0.755952,0 0.08909,0.0891 -0.08909,0.28889 0,0.37798 0.07727,0.0773 0.984065,-0.0749 1.13393,0 0.159369,0.0797 0.218607,0.29829 0.377976,0.37798 0.112691,0.0563 0.288885,-0.0891 0.377976,0 0.08909,0.0891 -0.112692,0.32163 0,0.37797 0.338071,0.16904 0.795856,-0.16903 1.13393,0 0.159366,0.0797 0.218606,0.2983 0.377975,0.37798 0.225381,0.11269 0.516898,-0.0797 0.755952,0 0.267269,0.0891 0.488683,0.28889 0.755952,0.37798 0.34018,0.11339 0.79375,-0.1134 1.13393,0 0.267269,0.0891 0.488683,0.28888 0.755951,0.37797 0.401643,0.13388 1.110263,-0.13388 1.511906,0 0.169035,0.0563 0.208939,0.32163 0.377976,0.37798 0.0016,5.3e-4 1.133568,-2.7e-4 1.133928,0 0.19921,0.19921 0.125991,0.62996 0.377975,0.75595 2.015874,1.00794 0.503968,-0.33598 1.511906,0 0.267269,0.0891 0.488683,0.28889 0.755952,0.37797 0.119528,0.0399 0.265287,-0.0563 0.377976,0 0.159369,0.0797 0.218609,0.2983 0.377975,0.37798 0.112692,0.0563 0.251987,0 0.377979,0 0.251984,0 0.530569,-0.11269 0.755951,0 0.112692,0.0563 -0.112691,0.32163 0,0.37798 0.298167,0.33807 0.795857,-0.16904 1.133928,0 0.159369,0.0797 0.218609,0.29829 0.377976,0.37797 0.115033,0.0575 0.963705,0 1.13393,0 0.881943,0 1.76389,0 2.645833,0 0.62996,0 1.259919,0 1.889882,0 0.125992,0 0.251984,0 0.377976,0 0.125992,0 0.265284,-0.0563 0.377975,0 0.15937,0.0797 0.218607,0.2983 0.377976,0.37798 0.238453,0.11923 1.651429,-0.11923 1.889882,0 0.159369,0.0797 0.218607,0.29829 0.377976,0.37798 0.11503,0.0575 0.963702,0 1.133927,0 0.377976,0 0.795856,-0.16904 1.13393,0 0.112689,0.0563 -0.08909,0.28888 0,0.37797 0.103423,0.10343 1.306857,-0.10252 1.511903,0 0.15937,0.0797 0.21861,0.29829 0.377976,0.37798 0.149866,0.0749 1.056659,-0.0773 1.13393,0 0.08909,0.0891 -0.112691,0.32163 0,0.37797 0.08888,0.0445 1.263603,0 1.511904,0 0.125991,0 0.321632,-0.11268 0.377978,0 0.112689,0.22539 -0.112691,0.53058 0,0.75596 0.05634,0.11269 0.288885,0.0891 0.377976,0 0.08909,-0.0891 0,-0.25199 0,-0.37798 0,-0.12599 0,-0.25198 0,-0.37798 0,-1.00793 0,-2.01587 0,-3.02381 0,-1.76388 0,-3.52777 0,-5.29166 0,-0.25199 0,-0.50397 0,-0.75595 0,-0.25199 0.06111,-0.5115 0,-0.75596 -0.06833,-0.27331 -0.309647,-0.48263 -0.377976,-0.75595 -0.06112,-0.24446 0,-0.50397 0,-0.75595 0,-0.62996 0,-1.25992 0,-1.88988 0,-0.12599 0.03984,-0.25845 0,-0.37798 -1.070748,-2.14149 0.140861,0.56346 -0.377978,-1.5119 -0.06833,-0.27332 -0.309648,-0.48264 -0.377976,-0.75596 -0.06111,-0.24446 0,-0.50396 0,-0.75595 0,-0.88194 0,-1.76388 0,-2.64583 0,-0.25198 0.04143,-0.5074 0,-0.75595 -0.0854,-0.51241 -0.313542,-0.99644 -0.377976,-1.51191 -0.590619,-4.72494 0.885714,1.90119 -0.755952,-3.02381 -0.07968,-0.23905 0,-0.50397 0,-0.75595 0,-0.62996 0,-1.25992 0,-1.88988 0,-1.91541 0.112692,0.45076 -0.377976,-1.5119 -0.06112,-0.24447 0,-0.50397 0,-0.75596 0,-0.25198 0,-0.50397 0,-0.75595 0,-0.37798 0.09167,-0.76724 0,-1.13393 -0.04321,-0.17286 -0.298291,-0.21861 -0.377975,-0.37798 -0.06023,-0.12044 0,-1.55207 0,-1.88987 0,-1.00794 0,-2.01588 0,-3.02381 0,-0.32002 0.06773,-1.30871 0,-1.51191 -0.05635,-0.16904 -0.334762,-0.20512 -0.377979,-0.37798 -0.09167,-0.36669 0,-0.75595 0,-1.13393 0,-0.25198 0,-0.50396 0,-0.75595 0,-1.25992 0,-2.51984 0,-3.77976 0,-0.31651 0.07186,-1.60244 0,-1.88988 -0.06833,-0.27331 -0.288885,-0.48868 -0.377976,-0.75595 -0.105706,-0.31713 0.106786,-1.67631 0,-1.88988 -0.07968,-0.15937 -0.298291,-0.21861 -0.377975,-0.37798 -0.130541,-0.26108 0.132678,-1.7572 0,-1.88988 -0.08909,-0.0891 -0.251984,0 -0.377976,0 -0.755952,0 -1.511906,0 -2.267858,0 -0.125992,0 -0.32163,0.11269 -0.377975,0 -0.112692,-0.22538 0.112691,-0.53057 0,-0.75595 -0.05635,-0.11269 -0.251984,0 -0.377976,0 -0.503968,0 -1.007938,0 -1.511906,0 -1.763887,0 -3.527777,0 -5.291667,0 -0.629959,0 -1.259919,0 -1.889879,0 -0.251986,0 -0.511492,-0.0611 -0.755954,0 -0.273315,0.0683 -0.482637,0.30965 -0.755952,0.37797 -0.244461,0.0611 -0.511492,-0.0611 -0.755951,0 -0.546632,0.13666 -0.965274,0.6193 -1.511906,0.75596 -0.244459,0.0611 -0.516898,-0.0797 -0.755952,0 -0.338071,0.11269 -0.459443,0.55828 -0.755951,0.75595 -0.234413,0.15627 -0.488683,0.28888 -0.755955,0.37798 -0.119525,0.0398 -0.288885,-0.0891 -0.377975,0 -0.08909,0.0891 0.104833,0.30808 0,0.37797 -0.267576,1.15247 -1.047269,0.14566 -1.511904,0.37798 -0.318738,0.15937 -0.41788,0.64326 -0.755954,0.75595 -0.239054,0.0797 -0.546288,-0.13978 -0.755952,0 -0.23441,0.15627 -0.143565,0.59968 -0.377975,0.75595 -0.209664,0.13978 -0.516901,-0.0797 -0.755952,0 -0.169037,0.0563 -0.208941,0.32163 -0.377978,0.37798 -0.239052,0.0797 -0.516898,-0.0797 -0.755952,0 -0.338071,0.11269 -0.41788,0.64326 -0.755952,0.75595 -0.09423,0.0314 -1.850945,-0.0389 -1.889881,0 -0.08909,0.0891 0.08909,0.28889 0,0.37798 -0.08909,0.0891 -0.251984,0 -0.377976,0 -0.251984,0 -0.503968,0 -0.755952,0 -1.637898,0 -3.275795,0 -4.913691,0 -1.007938,0 -2.015873,0 -3.023809,0 -0.629962,0 -1.259922,0 -1.889881,0 -0.251984,0 -0.511493,0.0611 -0.755952,0 -0.273317,-0.0683 -0.488683,-0.28889 -0.755954,-0.37798 -0.239051,-0.0797 -0.503968,0 -0.755952,0 -0.881943,0 -1.76389,0 -2.645833,0 -0.251984,0 -0.530571,0.11269 -0.755952,0 -0.112691,-0.0564 0.11269,-0.32163 0,-0.37798 -0.198563,-0.0993 -1.624239,0.0531 -1.889881,0 -0.390685,-0.0781 -0.743244,-0.29983 -1.133929,-0.37797 -0.370636,-0.0741 -0.775348,0.11952 -1.133928,0 -0.26727,-0.0891 -0.488683,-0.28889 -0.755953,-0.37798 -0.377976,-0.12599 -0.755952,0.25199 -1.133928,0 -0.234411,-0.15627 -0.125992,-0.62996 -0.377976,-0.75595 -0.338073,-0.16904 -0.763293,0.0741 -1.133929,0 -0.276256,-0.0553 -0.482637,-0.30965 -0.755952,-0.37798 -0.488921,-0.12223 -1.061142,0.22539 -1.511905,0 -0.112691,-0.0563 0.112691,-0.32163 0,-0.37797 -0.377976,-0.18899 -0.755952,0.0945 -1.133929,0 -1.671273,-0.41782 -0.603381,-0.37798 -1.511904,-0.37798 -0.886422,0 0.178179,0.0891 -0.755953,-0.37797 -0.225381,-0.1127 -0.516899,0.0797 -0.755952,0 -0.26727,-0.0891 -0.488683,-0.28889 -0.755952,-0.37798 -0.119527,-0.0398 -0.255746,0.0306 -0.377977,0 -0.386526,-0.0966 -0.747402,-0.28135 -1.1339282,-0.37798 -0.2444605,-0.0611 -0.5305708,0.11269 -0.7559524,0 -0.1593686,-0.0797 -0.2186075,-0.29829 -0.3779761,-0.37797 -0.1126908,-0.0564 -0.2888864,0.0891 -0.3779763,0 -0.08909,-0.0891 0.08909,-0.28889 0,-0.37798 -0.2252046,-0.22521 -1.1339285,0.37725 -1.1339285,-0.37798 0,-0.12599 0.2519841,0 0.3779763,0 0.503968,0 1.0079363,0 1.5119046,0 0.2662481,0 1.6569776,0.0666 1.8898806,0 0.652383,-0.18639 1.259921,-0.50396 1.889881,-0.75595 z"
       id="path2618"
       inkscape:connector-curvature="0" />
    <path
       id="path2740"
       style="fill:none;stroke:#000000;stroke-width:0.26458332px;stroke-linecap:butt;stroke-linejoin:miter;stroke-opacity:1"
       d="M14.085053819397558 157.32937002738157L14.085053819397544 211.63233075254539L26.084507779473945 204.7044427785668L27.60539726721886 202.0701849130953L30.239655132690366 200.54929542535038L33.28143410818012 200.54929542535035L74.84144684685569 211.6852672761056L74.84144684685569 157.94575039234388L59.51798733314579 157.94575039234388L46.24748212041068 165.60748014919884L15.353154555138307 157.32937002738157L14.085053819397558 157.32937002738157" />
    <path
       id="path2766"
       style="fill:none;stroke:#000000;stroke-width:0.26458332px;stroke-linecap:butt;stroke-linejoin:miter;stroke-opacity:1"
       d="m 109.71303,2.359132 v 54.302957 l 11.99945,-6.92788 1.52089,-2.63426 2.63426,-1.52089 h 3.04178 l 41.56001,11.13597 V 2.975512 h -15.32346 l -13.2705,7.66173 -30.89433,-8.27811 h -1.2681"
       inkscape:connector-curvature="0" />
    <path
       sodipodi:type="star"
       style="opacity:1;fill:#e9f000;fill-opacity:1;stroke:#00ff00;stroke-width:1.26499999;stroke-linecap:butt;stroke-miterlimit:4;stroke-dasharray:none;stroke-opacity:1;paint-order:normal"
       id="path2773"
       sodipodi:sides="12"
       sodipodi:cx="133.70908"
       sodipodi:cy="74.749992"
       sodipodi:r1="48.76479"
       sodipodi:r2="0.48764789"
       sodipodi:arg1="-1.586299"
       sodipodi:arg2="-1.3244996"
       inkscape:flatsided="false"
       inkscape:rounded="0"
       inkscape:randomized="0"
       d="m 132.95312,25.991063 0.87485,48.285998 23.6059,-42.131518 -23.38536,42.254326 41.50906,-24.684017 -41.37948,24.900641 48.28992,-0.622455 -48.286,0.87485 42.13151,23.605894 L 134.0592,75.089425 158.74322,116.59849 133.84258,75.219011 134.46503,123.50892 133.59018,75.222924 109.98429,117.35444 133.36964,75.100115 91.860581,99.784133 133.24006,74.883492 84.950146,75.505947 133.23614,74.631097 91.104627,51.025203 133.35895,74.41056 108.67494,32.901498 133.57558,74.280974 Z"
       inkscape:transform-center-x="1.280748e-06"
       transform="matrix(0.74327716,0,0,0.74521514,22.428805,-5.6210973)" />
  </g>
</svg>
