<?xml version="1.0" encoding="utf-8"?>
<!-- Generator: Adobe Illustrator 24.0.0, SVG Export Plug-In . SVG Version: 6.00 Build 0)  -->
<svg version="1.1" id="Layer_1" xmlns="http://www.w3.org/2000/svg" xmlns:xlink="http://www.w3.org/1999/xlink" x="0px" y="0px"
	 viewBox="0 0 482.8 201.6" style="enable-background:new 0 0 482.8 201.6;" xml:space="preserve">
<style type="text/css">
	.st0{fill:url(#SVGID_1_);}
	.st1{fill-rule:evenodd;clip-rule:evenodd;fill:#FFFDC1;}
	.st2{fill-rule:evenodd;clip-rule:evenodd;fill:url(#Oval-19_1_);}
	.st3{fill-rule:evenodd;clip-rule:evenodd;fill:url(#Oval-19-Copy_1_);}
	.st4{fill-rule:evenodd;clip-rule:evenodd;fill:url(#Oval-19-Copy-3_1_);}
	.st5{fill-rule:evenodd;clip-rule:evenodd;fill:url(#Oval-19-Copy-2_1_);}
	.st6{fill-rule:evenodd;clip-rule:evenodd;fill:url(#Path-23_1_);}
	.st7{fill-rule:evenodd;clip-rule:evenodd;fill:url(#Path-11-Copy_1_);}
	.st8{fill-rule:evenodd;clip-rule:evenodd;fill:url(#Path-19-Copy-2_1_);}
	.st9{fill-rule:evenodd;clip-rule:evenodd;fill:url(#Path-19_1_);}
	.st10{fill-rule:evenodd;clip-rule:evenodd;fill:url(#Path-19-Copy_1_);}
	.st11{fill-rule:evenodd;clip-rule:evenodd;fill:#FFFEF4;}
	.st12{fill:none;stroke:#FFFEF3;stroke-width:0.2;stroke-linecap:square;}
	.st13{fill-rule:evenodd;clip-rule:evenodd;fill:url(#Path-11_1_);}
	.st14{fill-rule:evenodd;clip-rule:evenodd;fill:url(#Path-10_1_);}
	.st15{fill-rule:evenodd;clip-rule:evenodd;fill:#F6F1F1;}
	.st16{fill-rule:evenodd;clip-rule:evenodd;fill:#E2E2E2;}
	.st17{fill-rule:evenodd;clip-rule:evenodd;fill:url(#Path-9_1_);}
	.st18{fill-rule:evenodd;clip-rule:evenodd;fill:url(#Path-25_1_);}
	.st19{fill-rule:evenodd;clip-rule:evenodd;fill:url(#Path-5-Copy-6_1_);}
	.st20{fill-rule:evenodd;clip-rule:evenodd;fill:#CCFCF4;}
	.st21{fill-rule:evenodd;clip-rule:evenodd;fill:#9FEADF;}
	.st22{fill-rule:evenodd;clip-rule:evenodd;fill:#6BC3B7;}
	.st23{fill-rule:evenodd;clip-rule:evenodd;fill:#78D3C6;}
	.st24{fill-rule:evenodd;clip-rule:evenodd;fill:#4DB0A2;}
	.st25{fill-rule:evenodd;clip-rule:evenodd;fill:#78D1C4;}
	.st26{fill-rule:evenodd;clip-rule:evenodd;fill:#4FBEAE;}
	.st27{fill-rule:evenodd;clip-rule:evenodd;fill:url(#Path-3-Copy-7_1_);}
</style>
<title>Artboard</title>
<desc>Created with Sketch.</desc>
<g id="Artboard">
	<g id="Group-54-Copy" transform="translate(-1.000000, -7.000000)">
		<linearGradient id="SVGID_1_" gradientUnits="userSpaceOnUse" x1="242.3913" y1="7" x2="242.3913" y2="209.1767">
			<stop  offset="0" style="stop-color:#302D7E"/>
			<stop  offset="0.3547" style="stop-color:#31307F"/>
			<stop  offset="0.5808" style="stop-color:#353880"/>
			<stop  offset="0.771" style="stop-color:#3C4784"/>
			<stop  offset="0.9403" style="stop-color:#455C88"/>
			<stop  offset="1" style="stop-color:#49658A"/>
		</linearGradient>
		<rect x="1" y="7" class="st0" width="482.8" height="202.2"/>
		<g id="Group-3" transform="translate(206.000000, 30.000000)">
			<path id="Combined-Shape" class="st1" d="M37.4,47.9c13.9-1.6,24.7-13.4,24.7-27.8c0-15.4-12.5-28-27.9-28c-3.9,0-7.6,0.8-11,2.3
				c5.6-5.4,13.2-8.6,21.6-8.6c17.3,0,31.4,14.1,31.4,31.5S62.2,48.8,44.9,48.8C42.3,48.8,39.8,48.5,37.4,47.9z"/>
			
				<linearGradient id="Oval-19_1_" gradientUnits="userSpaceOnUse" x1="-65.8823" y1="134.7538" x2="-65.8823" y2="134.0425" gradientTransform="matrix(7.128 -3.6319 -3.6319 -7.128 1024.2882 754.0516)">
				<stop  offset="0" style="stop-color:#FFFDC1"/>
				<stop  offset="1" style="stop-color:#E7DA88"/>
			</linearGradient>
			<path id="Oval-19" class="st2" d="M66.1,36.7c-2.2,0.5-4.3-0.9-4.7-3.1c-0.5-2.2,0.9-4.3,3.1-4.7c2.2-0.5,4.3,0.9,4.7,3.1
				C69.6,34.1,68.3,36.3,66.1,36.7z"/>
			
				<linearGradient id="Oval-19-Copy_1_" gradientUnits="userSpaceOnUse" x1="-66.9722" y1="134.391" x2="-66.9722" y2="133.659" gradientTransform="matrix(7.3084 -3.2539 -3.2539 -7.3084 994.0121 768.057)">
				<stop  offset="0" style="stop-color:#FFFDC1"/>
				<stop  offset="1" style="stop-color:#E7DA88"/>
			</linearGradient>
			<circle id="Oval-19-Copy" class="st3" cx="67.3" cy="3.8" r="4"/>
			
				<linearGradient id="Oval-19-Copy-3_1_" gradientUnits="userSpaceOnUse" x1="-45.6647" y1="130.7909" x2="-45.6647" y2="130.0589" gradientTransform="matrix(0.975 -7.9404 -7.9404 -0.975 1138.3102 -241.2801)">
				<stop  offset="0" style="stop-color:#FFFDC1"/>
				<stop  offset="1" style="stop-color:#E7DA88"/>
			</linearGradient>
			<circle id="Oval-19-Copy-3" class="st4" cx="55.3" cy="-6.2" r="4"/>
			
				<linearGradient id="Oval-19-Copy-2_1_" gradientUnits="userSpaceOnUse" x1="-49.7206" y1="125.0239" x2="-50.3519" y2="124.1125" gradientTransform="matrix(1.0459 -11.9543 -11.9543 -1.0459 1612.1606 -450.0439)">
				<stop  offset="0" style="stop-color:#FFFDC1"/>
				<stop  offset="1" style="stop-color:#E7DA88"/>
			</linearGradient>
			<circle id="Oval-19-Copy-2" class="st5" cx="68.3" cy="15.8" r="6"/>
		</g>
		
			<g id="Group-32-Copy" transform="translate(430.500000, 223.000000) scale(-1, 1) translate(-430.500000, -223.000000) translate(331.000000, 160.000000)">
			
				<linearGradient id="Path-23_1_" gradientUnits="userSpaceOnUse" x1="382.2957" y1="-12.8072" x2="382.2957" y2="-13.8072" gradientTransform="matrix(-126 0 0 -67 48677 -910.2856)">
				<stop  offset="0" style="stop-color:#AC9083"/>
				<stop  offset="1" style="stop-color:#73574B"/>
			</linearGradient>
			<path id="Path-23" class="st6" d="M444.7-17.6c15.1-5.2,27.5-11.5,37-19.1s16-12.7,19.4-15.6c11,11.1,20.3,20.4,27.8,27.9
				c7.1,7,21,20.1,41.8,39.1L444.7-17.6z"/>
			
				<linearGradient id="Path-11-Copy_1_" gradientUnits="userSpaceOnUse" x1="382.5294" y1="-14.1746" x2="382.5294" y2="-15.1746" gradientTransform="matrix(-156.3294 0 0 -125.5442 60365.2813 -1831.7408)">
				<stop  offset="0" style="stop-color:#F2DCCF"/>
				<stop  offset="1" style="stop-color:#B4846B"/>
			</linearGradient>
			<path id="Path-11-Copy" class="st7" d="M501.4-52.2c0,0,19.8,19.6,35,34.2s98.1,85.5,106.3,91.2c4.3,3-94.2-30.4-119.6-38.9
				c-23-7.7-43.8-47.4-34.1-51.2C504.5-23,501.4-52.2,501.4-52.2z"/>
		</g>
		
			<linearGradient id="Path-19-Copy-2_1_" gradientUnits="userSpaceOnUse" x1="144.8009" y1="151.0368" x2="143.7605" y2="151.0368" gradientTransform="matrix(69 0 0 -27 -9938 4179.2939)">
			<stop  offset="0" style="stop-color:#AFE3DB"/>
			<stop  offset="1" style="stop-color:#F3E1FF"/>
		</linearGradient>
		<path id="Path-19-Copy-2" class="st8" d="M-14.9,114.8h68.1c-1.9-4.9-3.3-7.7-4.1-8.4c-4.1-3.4-5.3,1.8-5.9,1.1
			c-1.6-2.1-3-4.7-5.2-5.5c-3-1.1-5.7-0.8-8.1,1C27,92.8,21.8,87.8,14.3,87.8s-12.8,3.4-16,10.1c-3.2,0-5.9,1.1-8.2,3.4
			c-2.1,2.1-5.1,6.4-5.9,12.5C-15.8,114.3-15.5,114.7-14.9,114.8z"/>
		
			<linearGradient id="Path-19_1_" gradientUnits="userSpaceOnUse" x1="146.4855" y1="146.5454" x2="145.4451" y2="146.5454" gradientTransform="matrix(120 0 0 -49 -17241 7299.0254)">
			<stop  offset="0" style="stop-color:#AFE3DB"/>
			<stop  offset="1" style="stop-color:#F3E1FF"/>
		</linearGradient>
		<path id="Path-19" class="st9" d="M218.8,142.8h118.5c-4.2-11.1-9.6-18.2-16.2-21.5s-14.4-3.3-23.7,0
			c-5.2-18.3-14.3-27.5-27.4-27.5c-13.1,0-22.4,6.1-28,18.3c-5.5,0-10.3,2.1-14.3,6.2c-3.8,3.9-8.9,11.6-10.4,22.6
			C217.1,142,217.6,142.6,218.8,142.8z"/>
		
			<linearGradient id="Path-19-Copy_1_" gradientUnits="userSpaceOnUse" x1="146.3361" y1="147.3516" x2="145.2957" y2="147.3516" gradientTransform="matrix(93.0001 0 0 -38 -13260.0088 5738.1597)">
			<stop  offset="0" style="stop-color:#AFE3DB"/>
			<stop  offset="1" style="stop-color:#F3E1FF"/>
		</linearGradient>
		<path id="Path-19-Copy" class="st10" d="M257.4,157.8h91.8c-3.3-8.6-7.5-14.1-12.5-16.7s-11.2-2.5-18.4,0
			c-4-14.2-11.1-21.3-21.2-21.3s-17.4,4.7-21.7,14.2c-4.3,0-8,1.6-11.1,4.8c-2.9,3-6.9,9-8.1,17.5
			C256.2,157.2,256.6,157.7,257.4,157.8z"/>
		
			<g id="Group-52" transform="translate(556.005393, 39.868297) rotate(89.000000) translate(-556.005393, -39.868297) translate(518.005393, -42.131703)">
			<circle id="Oval-20" class="st11" cx="22.1" cy="535.5" r="2.5"/>
			<circle id="Oval-20-Copy-9" class="st11" cx="55.1" cy="518.5" r="2.5"/>
			<circle id="Oval-20-Copy-12" class="st11" cx="79.1" cy="576.5" r="2.5"/>
			<circle id="Oval-20-Copy-5" class="st11" cx="69.1" cy="432.5" r="2.5"/>
			<circle id="Oval-20-Copy" class="st11" cx="34.1" cy="501.5" r="1.5"/>
			<circle id="Oval-20-Copy-11" class="st11" cx="83.1" cy="524.5" r="1.5"/>
			<circle id="Oval-20-Copy-2" class="st11" cx="21.6" cy="484" r="1"/>
			<circle id="Oval-20-Copy-10" class="st11" cx="36.6" cy="553" r="1"/>
			<circle id="Oval-20-Copy-3" class="st11" cx="42.6" cy="469" r="1"/>
			<circle id="Oval-20-Copy-8" class="st11" cx="85.6" cy="496" r="1"/>
			<circle id="Oval-20-Copy-6" class="st11" cx="11.6" cy="430" r="1"/>
			<circle id="Oval-20-Copy-7" class="st11" cx="58.6" cy="416" r="1"/>
			<path id="Line-2" class="st12" d="M69.1,433.5l-14,85"/>
			<path id="Line-2-Copy-2" class="st12" d="M22.1,535.5l34-18"/>
			<path id="Line-2-Copy-3" class="st12" d="M23.1,535.5l54,41"/>
		</g>
		
			<g id="Group-31-Copy" transform="translate(513.000000, 193.000000) scale(-1, 1) translate(-513.000000, -193.000000) translate(401.000000, 121.000000)">
			
				<linearGradient id="Path-11_1_" gradientUnits="userSpaceOnUse" x1="477.8197" y1="24.646" x2="477.8197" y2="23.646" gradientTransform="matrix(-223.0484 0 0 -141.794 107133.2734 3444.4617)">
				<stop  offset="0" style="stop-color:#F2DDCF"/>
				<stop  offset="1" style="stop-color:#D4A890"/>
			</linearGradient>
			<path id="Path-11" class="st13" d="M526.4-50.2c0,0,19.5,23.8,31.7,38.6C570.2,3.2,667.9,91.6,667.9,91.6s-90.8-18.4-109.8-21.2
				C531.2,66.5,444.8,47,444.8,47s61.5-59.5,71.3-74.5C525.9-42.6,526.4-50.2,526.4-50.2z"/>
			
				<linearGradient id="Path-10_1_" gradientUnits="userSpaceOnUse" x1="476.5016" y1="24.4334" x2="477.1907" y2="26.0055" gradientTransform="matrix(-64 0 0 -70 30984.9961 1772.496)">
				<stop  offset="0" style="stop-color:#B1A7A7"/>
				<stop  offset="1" style="stop-color:#73574B"/>
			</linearGradient>
			<path id="Path-10" class="st14" d="M525.9-52.2l-45.2,57l14.5,13l26.6-3.7c0,0,23-1.6,22.8-16c-0.2-14.4-18.8-11.3-18.8-23.2
				C525.9-49.9,525.9-52.2,525.9-52.2z"/>
			<path id="Path-25-Copy-3" class="st15" d="M512.3-35c0,0,0.6,1.8,2.9,1.8s2,0,4.3,0c2.9,0,2.8,6,6,6c3.2,0,4.5-5.7,6.5-7.8
				c2-2.1,4.6-3,4.6-3L526.2-52c0,0-1.3-0.8-2.3,0.5C522.9-50.3,512.3-35,512.3-35z"/>
			<path id="Path-25-Copy-5" class="st16" d="M512.2-35c0,0,0.6,2.5,3,2.5c2.4,0,2.3-0.8,4.7-0.8c2.2,0,2.4,6.1,5.8,6.1
				c0.2,0.1,0-3.7,0-8.3c0-7.3,0-16.7,0-16.7s-0.2,0-0.5,0.1c-0.2,0.1-1,0.3-1.5,0.9C522.7-50,512.2-35,512.2-35z"/>
		</g>
		
			<g id="Group-30-Copy-2" transform="translate(601.500000, 207.500000) scale(-1, 1) translate(-601.500000, -207.500000) translate(478.000000, 153.000000)">
			
				<linearGradient id="Path-9_1_" gradientUnits="userSpaceOnUse" x1="577.7996" y1="-6.9391" x2="577.7996" y2="-7.2666" gradientTransform="matrix(-216.6615 0 0 -108.3774 125769.4063 -802.9033)">
				<stop  offset="0" style="stop-color:#EFDDD2"/>
				<stop  offset="1" style="stop-color:#E8C3AF"/>
			</linearGradient>
			<path id="Path-9" class="st17" d="M489.5,30.9c22.2-14.5,26.5-21.2,41-34.4s45.1-48.6,45.1-48.6s6.8,8.6,29.6,31.2
				c8.3,8.3,21.8,23.2,39.3,40.3c21.9,21.3,34,43.3,45.7,35.2S550.3,38.8,542.9,42C528.9,48,438.8,63.9,489.5,30.9z"/>
			
				<linearGradient id="Path-25_1_" gradientUnits="userSpaceOnUse" x1="577.3361" y1="-6.8111" x2="577.3361" y2="-7.7607" gradientTransform="matrix(-130.3734 0 0 -99.2833 75779.8203 -723.4254)">
				<stop  offset="0" style="stop-color:#CAAA9A"/>
				<stop  offset="1" style="stop-color:#737271"/>
			</linearGradient>
			<path id="Path-25" class="st18" d="M573.6-8.3c-3,9.1-13.1,22.7-26.5,25.6s-66.3,14.2-97.9,28.3c-21.6,9.6,53.5-28.3,73.6-44.8
				c23.8-19.5,52.7-52.9,52.7-52.9S576.6-17.4,573.6-8.3z"/>
			<path id="Path-25-Copy-2" class="st15" d="M560.7-35.6c0,0,1.2,4.9,3.8,4.9c2.6,0,2.4-2.3,4.9-2.3c3.2,0,3.2,5.8,6.8,5.8
				c3.5,0,5-5.5,7.3-7.5s5.2-2.9,5.2-2.9L575.6-52c0,0-0.9,0.2-1.9,1.4S560.7-35.6,560.7-35.6z"/>
			<path id="Path-25-Copy-4" class="st16" d="M560.7-36c0,0,1.1,5.4,3.7,5.4s2.4-2.7,5-2.7c2.9,0,2.6,5,6.2,6.1c0.2,0.1,0-3.7,0-8.3
				c0-7.3,0-16.7,0-16.7s-0.2,0-0.5,0.1s-0.6,0.2-1.1,0.9C573-50,560.7-36,560.7-36z"/>
		</g>
		
			<linearGradient id="Path-5-Copy-6_1_" gradientUnits="userSpaceOnUse" x1="146.1839" y1="146.0629" x2="146.1839" y2="145.0629" gradientTransform="matrix(480 0 0 -109 -70182 16103.6533)">
			<stop  offset="0" style="stop-color:#727E8A"/>
			<stop  offset="1" style="stop-color:#98A6B4"/>
		</linearGradient>
		<path id="Path-5-Copy-6" class="st19" d="M-253.4,281.8c12.7-25.7,18-32.8,25.2-39.6c7.2-6.7,19.2-18,43.3-18h26.7
			c7.8,0,8-1.1,8-21.5s-3.3-20,28.2-20c31.4,0-14.2,0,149.5,0.7c52.7,0.2,104.7-0.4,151.2-0.1c98,0.7,18.5,40.9-9.2,58.8
			C111.9,279.7-266.1,307.5-253.4,281.8z"/>
		<g id="Group-9-Copy-3" transform="translate(464.000000, 235.000000)">
			<path id="Path-7" class="st20" d="M-245.1-50.1l-148.1,0.6c0,0-11.1,0.3-11.1,11s0,66.9,0,66.9s-9.6,4.4-21.5,6.3
				c-11.9,1.9-18.7,2.7-18.7,2.7s0-76,0-79.3c0-3.2-1.5-10.3,9.4-10.3s188.8,0,188.8,0L-245.1-50.1z"/>
			<path id="Path-7-Copy" class="st21" d="M-251.5-50.1l-138,0.6c0,0-10.8,0.3-10.8,11s0,66.9,0,66.9s-9.3,3.2-20.9,5.2
				s-18.2,2.7-18.2,2.7v-78.1c0,0-1.9-10.3,9.1-10.3c11,0,177.4,0,177.4,0L-251.5-50.1z"/>
			<path id="Path-7-Copy-8" class="st22" d="M-245.3-50.1l-137.1,0.6c0,0-10.8,0.3-10.8,11s0,66.9,0,66.9s-9.3,3.2-20.9,5.2
				c-11.6,1.9-18.2,2.7-18.2,2.7s-0.6-72.6,0-78.1c0.6-5.5-1.9-10.3,9.1-10.3c11,0,176.6,0,176.6,0L-245.3-50.1z"/>
			<path id="Path-7-Copy-2" class="st23" d="M-266.8-50.1l-138.1,0.6c0,0-10.3,0.3-10.3,11v66.9c0,0,13.4,3.2,2.3,5.2
				s-17.3,2.7-17.3,2.7v-78.1c0,0-1.8-10.3,8.7-10.3s175,0,175,0L-266.8-50.1z"/>
			<path id="Path-7-Copy-3" class="st22" d="M-245.2-50.1l-145.4,0.6c0,0-10,0.3-10,11v66.9c0,0,9.1,3.2-1.6,5.2s-16.8,2.7-16.8,2.7
				v-78.1c0,0-1.7-10.3,8.4-10.3h164.3L-245.2-50.1z"/>
			<path id="Path-7-Copy-7" class="st24" d="M-245.3-50.1l-131.5,0.6c0,0-10,0.3-10,11v66.9c0,0,9.1,3.2-1.6,5.2
				c-10.7,1.9-16.8,2.7-16.8,2.7v-78.1c0,0-1.7-10.3,8.4-10.3h150.4L-245.3-50.1z"/>
			<path id="Path-7-Copy-4" class="st21" d="M-245.4-50.1l-148.2,0.6c0,0-9.7,0.3-9.7,11v66.9c0,0,9.2,3.2-1.2,5.2
				c-10.4,1.9-10.6,2.7-10.6,2.7v-78.1c0,0-1.7-10.3,8.2-10.3s160.5,0,160.5,0L-245.4-50.1z"/>
			<path id="Path-7-Copy-5" class="st25" d="M-259.4-50.1l-132.2,0.6c0,0-9.1,0.3-9.1,11v66.9c0,0,6.9,3.2-2.9,5.2s-6.3,0.4-6.3,0.4
				v-75.8c0,0-1.6-10.3,7.7-10.3c9.3,0,155.8,0,155.8,0L-259.4-50.1z"/>
			<path id="Path-7-Copy-6" class="st26" d="M-256.3-50.1l-126.6,0.6c0,0-8.7,0.3-8.7,11s0,66.9,0,66.9s-9.7,5.2-9.7,5.2
				s0-75.4,0-75.4s-1.5-10.3,7.3-10.3s136.5,0,136.5,0L-256.3-50.1z"/>
		</g>
		
			<linearGradient id="Path-3-Copy-7_1_" gradientUnits="userSpaceOnUse" x1="146.364" y1="145.3909" x2="146.364" y2="144.3909" gradientTransform="matrix(1115.9841 0 0 -173.7989 -163226.6875 25442.5762)">
			<stop  offset="0" style="stop-color:#81D585"/>
			<stop  offset="1" style="stop-color:#688E54"/>
		</linearGradient>
		<path id="Path-3-Copy-7" class="st27" d="M14.3,228.6c0,0-33.8-5.8-67.3,1.4c-33.6,7.2-62.2,31.4-80.2,39.6s-22.5,10.7-49.6,16.2
			c-27.1,5.5-65.5,5-65.5,5h-70.5c0,0-126.7,13.9-125.9,29.8c0.8,15.9,1.5,19.5,2.4,26.8c0,0,386.9,0,412,0s583.8,0,693.6,0
			c37.8,0-65.1-59.9-171.2-68.9s-117.6-18.3-158.8-45.4c-59.9-39.5-87.2-53.8-117.9-57.7c-102.7-13-123.5,49.1-177.6,54.5
			C24.4,231.4,14.3,228.6,14.3,228.6z"/>
		<g id="Group-9-Copy-4" transform="translate(426.000000, 279.000000)">
			<path id="Path-7_1_" class="st20" d="M-373.9-50.1l-19.4,0.6c0,0-11.1,0.3-11.1,11s0,66.9,0,66.9s-9.6,4.4-21.5,6.3
				c-11.9,1.9-18.7,2.7-18.7,2.7s0-76,0-79.3c0-3.2-1.5-10.3,9.4-10.3s60.1,0,60.1,0L-373.9-50.1z"/>
			<path id="Path-7-Copy_1_" class="st21" d="M-375.6-50.1l-13.8,0.6c0,0-10.8,0.3-10.8,11s0,66.9,0,66.9s-9.3,3.2-20.9,5.2
				s-18.2,2.7-18.2,2.7v-78.1c0,0-1.9-10.3,9.1-10.3c11,0,53.3,0,53.3,0L-375.6-50.1z"/>
			<path id="Path-7-Copy-8_1_" class="st22" d="M-373.5-48.9l-8.9,0.9c0,0-10.8,0.5-10.8,17.2s0,105.1,0,105.1s-9.3,5.1-20.9,8.1
				c-11.6,3-18.2,4.2-18.2,4.2s-0.6-114.1,0-122.8c0.6-8.7-1.9-16.1,9.1-16.1c11,0,48.4,0,48.4,0L-373.5-48.9z"/>
			<path id="Path-7-Copy-2_1_" class="st23" d="M-392.8-48.9l-12.2,0.9c0,0-10.3,0.5-10.3,17.2V74.4c0,0,13.4,5.1,2.3,8.1
				c-11,3-17.3,4.2-17.3,4.2V-36.1c0,0-1.8-16.1,8.7-16.1s49,0,49,0L-392.8-48.9z"/>
			<path id="Path-7-Copy-3_1_" class="st22" d="M-375.2-48.9l-15.4,0.9c0,0-10,0.5-10,17.2V74.4c0,0,9.1,5.1-1.6,8.1
				c-10.7,3-16.8,4.2-16.8,4.2V-36.1c0,0-1.7-16.1,8.4-16.1h34.3L-375.2-48.9z"/>
			<path id="Path-7-Copy-7_1_" class="st24" d="M-375.7-48.9l-1.1,0.9c0,0-10,0.5-10,17.2V74.4c0,0,9.1,5.1-1.6,8.1
				c-10.7,3-16.8,4.2-16.8,4.2V-36.1c0,0-1.7-16.1,8.4-16.1h20L-375.7-48.9z"/>
			<path id="Path-7-Copy-4_1_" class="st21" d="M-373.7-48.9l-19.9,0.9c0,0-9.7,0.5-9.7,17.2V74.4c0,0,9.2,5.1-1.2,8.1
				c-10.4,3-10.6,4.2-10.6,4.2V-36.1c0,0-1.7-16.1,8.2-16.1s32.2,0,32.2,0L-373.7-48.9z"/>
			<path id="Path-7-Copy-5_1_" class="st25" d="M-382.3-48.9l-9.3,0.9c0,0-9.1,0.5-9.1,17.2V74.4c0,0,6.9,5.1-2.9,8.1
				c-9.8,3-6.3,0.6-6.3,0.6V-36.1c0,0-1.6-16.1,7.7-16.1c9.3,0,32.9,0,32.9,0L-382.3-48.9z"/>
			<path id="Path-7-Copy-6_1_" class="st26" d="M-376.1-48.9l-6.8,0.9c0,0-8.7,0.5-8.7,17.2s0,105.1,0,105.1s-9.7,8.1-9.7,8.1
				s0-118.6,0-118.6s-1.5-16.1,7.3-16.1s16.7,0,16.7,0L-376.1-48.9z"/>
		</g>
	</g>
</g>
</svg>
