<?xml version="1.0" encoding="utf-8"?>
<!-- Generator: Adobe Illustrator 23.0.0, SVG Export Plug-In . SVG Version: 6.00 Build 0)  -->
<svg version="1.1" id="Layer_1" xmlns="http://www.w3.org/2000/svg" xmlns:xlink="http://www.w3.org/1999/xlink" x="0px" y="0px"
	 viewBox="0 0 61 61" style="enable-background:new 0 0 61 61;" xml:space="preserve">
<style type="text/css">
<!-- #F15E5E -->
	.st0{fill-rule:evenodd;clip-rule:evenodd;fill:#FF8080;} 
</style>
<title>Group 2</title>
<desc>Created with Sketch.</desc>
<path id="Rectangle-40-Copy" class="st0" d="M44.1,44.6L44.1,44.6c-0.4,0.4-1,0.4-1.4,0L17.9,19.8c-0.4-0.4-0.4-1,0-1.4l0,0
	c0.4-0.4,1-0.4,1.4,0l24.7,24.7C44.5,43.6,44.5,44.2,44.1,44.6z"/>
<path class="st0" d="M50,58.4L2.6,11c-2.3-2.3-2.3-6.1,0-8.5l0,0c2.3-2.3,6.1-2.3,8.5,0L58.4,50c2.3,2.3,2.3,6.1,0,8.5l0,0
	C56.1,60.8,52.3,60.8,50,58.4z"/>
<path class="st0" d="M58.4,11L11,58.4c-2.3,2.3-6.1,2.3-8.5,0l0,0c-2.3-2.3-2.3-6.1,0-8.5L50,2.6c2.3-2.3,6.1-2.3,8.5,0l0,0
	C60.8,4.9,60.8,8.7,58.4,11z"/>
</svg>
