<?xml version="1.0" encoding="utf-8"?>
<!-- Generator: Adobe Illustrator 23.0.0, SVG Export Plug-In . SVG Version: 6.00 Build 0)  -->
<svg version="1.1" id="Layer_1" xmlns="http://www.w3.org/2000/svg" xmlns:xlink="http://www.w3.org/1999/xlink" x="0px" y="0px"
	 viewBox="0 0 75 75" style="enable-background:new 0 0 75 75;" xml:space="preserve">
<style type="text/css">
	.st0{fill-rule:evenodd;clip-rule:evenodd;fill:#F15F5E;}
</style>
<title>Group</title>
<desc>Created with Sketch.</desc>
<g id="Modals">
	<g id="Group">
		<path id="Combined-Shape" class="st0" d="M35.9,5C17.9,5.9,3.7,21.4,5.1,39.9c1.2,16,14.1,28.9,30.1,30C54.2,71.2,70,56.2,70,37.5
			c0-1.6-0.1-3.2-0.3-4.7c-0.1-0.6,0.3-1.1,0.8-1.3l2.7-0.7c0.6-0.2,1.3,0.3,1.4,0.9c0.3,2.3,0.5,4.6,0.4,7
			C74.3,59,57.3,75.2,37.1,75C16.6,74.8,0,58.1,0,37.5C0,17.3,15.9,0.9,35.8,0C36.5,0,37,0.5,37,1.2v2.7C37,4.5,36.5,5,35.9,5z"/>
		<path id="Rectangle-40-Copy" class="st0" d="M46.4,46.8L46.4,46.8c-0.3,0.3-0.7,0.3-0.9,0L29.2,30.5c-0.3-0.3-0.3-0.7,0-0.9l0,0
			c0.3-0.3,0.7-0.3,0.9,0l16.2,16.2C46.7,46.1,46.7,46.5,46.4,46.8z"/>
		<path class="st0" d="M50.3,55.8L19.2,24.7c-1.5-1.5-1.5-4,0-5.6l0,0c1.5-1.5,4-1.5,5.6,0l31,31.2c1.5,1.5,1.5,4,0,5.6l0,0
			C54.3,57.4,51.8,57.4,50.3,55.8z"/>
		<path class="st0" d="M55.8,24.7L24.7,55.8c-1.5,1.5-4,1.5-5.6,0l0,0c-1.5-1.5-1.5-4,0-5.6l31.2-31c1.5-1.5,4-1.5,5.6,0l0,0
			C57.4,20.7,57.4,23.2,55.8,24.7z"/>
	</g>
</g>
</svg>
