<?xml version="1.0" encoding="utf-8"?>
<!-- Generator: Adobe Illustrator 23.0.0, SVG Export Plug-In . SVG Version: 6.00 Build 0)  -->
<svg version="1.1" id="Layer_1" xmlns="http://www.w3.org/2000/svg" xmlns:xlink="http://www.w3.org/1999/xlink" x="0px" y="0px"
	 viewBox="0 0 61 61" style="enable-background:new 0 0 61 61;" xml:space="preserve">
<style type="text/css">
	.st0{fill-rule:evenodd;clip-rule:evenodd;fill:#F15E5E;}
</style>
<path class="st0" d="M25.4,39l0-31.1c0-3.1,2.5-5.7,5.7-5.7h0c3.1,0,5.7,2.5,5.7,5.7l0,31.1c0,3.1-2.5,5.7-5.7,5.7h0
	C27.9,44.7,25.4,42.1,25.4,39z"/>
<path class="st0" d="M25.4,53.5L25.4,53.5c0-3.1,2.5-5.7,5.7-5.7h0.1c3.1,0,5.7,2.5,5.7,5.7v0c0,3.1-2.5,5.7-5.7,5.7H31
	C27.9,59.1,25.4,56.6,25.4,53.5z"/>
</svg>
