<?xml version="1.0" encoding="utf-8"?>
<!-- Generator: Adobe Illustrator 23.0.3, SVG Export Plug-In . SVG Version: 6.00 Build 0)  -->
<svg version="1.1" id="Layer_1" xmlns="http://www.w3.org/2000/svg" xmlns:xlink="http://www.w3.org/1999/xlink" x="0px" y="0px"
	 viewBox="0 0 14 14" style="enable-background:new 0 0 14 14;" xml:space="preserve">
<style type="text/css">
	.st0{fill-rule:evenodd;clip-rule:evenodd;fill:#FFFFFF;}
</style>
<title>Group 44 Copy 33</title>
<desc>Created with Sketch.</desc>
<g id="Code-Editor">
	<g id="Artboard-3-Copy-9" transform="translate(-347.000000, -56.000000)">
		<g id="Group-44-Copy-33" transform="translate(347.000000, 56.000000)">
			<path id="Rectangle-40" class="st0" d="M7,0L7,0c0.5,0,0.9,0.4,0.9,0.9v11.4c0,0.5-0.4,0.9-0.9,0.9l0,0c-0.5,0-0.9-0.4-0.9-0.9
				V0.9C6.1,0.4,6.5,0,7,0z"/>
			<path id="Rectangle-40-Copy" class="st0" d="M13.6,6.6L13.6,6.6c0,0.5-0.4,0.9-0.9,0.9H1.3c-0.5,0-0.9-0.4-0.9-0.9l0,0
				c0-0.5,0.4-0.9,0.9-0.9h11.4C13.2,5.7,13.6,6.1,13.6,6.6z"/>
		</g>
	</g>
</g>
</svg>
