<?xml version="1.0" encoding="utf-8"?>
<!-- Generator: Adobe Illustrator 23.0.3, SVG Export Plug-In . SVG Version: 6.00 Build 0)  -->
<svg version="1.1"
	 id="Capa_1" xmlns:cc="http://creativecommons.org/ns#" xmlns:dc="http://purl.org/dc/elements/1.1/" xmlns:inkscape="http://www.inkscape.org/namespaces/inkscape" xmlns:rdf="http://www.w3.org/1999/02/22-rdf-syntax-ns#" xmlns:sodipodi="http://sodipodi.sourceforge.net/DTD/sodipodi-0.dtd" xmlns:svg="http://www.w3.org/2000/svg"
	 xmlns="http://www.w3.org/2000/svg" xmlns:xlink="http://www.w3.org/1999/xlink" x="0px" y="0px" viewBox="0 0 512 512"
	 style="enable-background:new 0 0 512 512;" xml:space="preserve">
<style type="text/css">
	.st0{fill:#FFFFFF;}
</style>
<sodipodi:namedview  bordercolor="#666666" borderopacity="1" gridtolerance="10" guidetolerance="10" id="namedview51" inkscape:current-layer="Capa_1" inkscape:cx="256" inkscape:cy="256" inkscape:pageopacity="0" inkscape:pageshadow="2" inkscape:window-height="480" inkscape:window-maximized="0" inkscape:window-width="740" inkscape:window-x="0" inkscape:window-y="0" inkscape:zoom="0.4609375" objecttolerance="10" pagecolor="#ffffff" showgrid="false">
	</sodipodi:namedview>
<g id="g6">
	<g id="g4">
		<path id="path2" class="st0" d="M259.3,0c-10.8,0-19.5,8.7-19.5,19.5v310.1c0,10.8,8.7,19.5,19.5,19.5c10.8,0,19.5-8.7,19.5-19.5
			V19.5C278.8,8.7,270.1,0,259.3,0z"/>
	</g>
</g>
<g id="g12">
	<g id="g10">
		<path id="path8" class="st0" d="M380.7,106.2L272.6,5.3c-7.5-7-19.2-7-26.7,0l-108.1,101c-7.9,7.4-8.3,19.7-1,27.6
			c3.8,4.1,9.1,6.2,14.3,6.2c4.8,0,9.6-1.7,13.3-5.3l94.8-88.5l94.8,88.5c7.9,7.4,20.3,6.9,27.6-1C389,126,388.6,113.6,380.7,106.2z
			"/>
	</g>
</g>
<g id="g18">
	<g id="g16">
		<path id="path14" class="st0" d="M454.7,166.8H350.5c-10.8,0-19.5,8.7-19.5,19.5c0,10.8,8.7,19.5,19.5,19.5h84.7v267.1H76.9V205.8
			h84.7c10.8,0,19.5-8.7,19.5-19.5s-8.7-19.5-19.5-19.5H57.3c-10.8,0-19.5,8.7-19.5,19.5v306.2c0,10.8,8.7,19.5,19.5,19.5h397.4
			c10.8,0,19.5-8.7,19.5-19.5V186.3C474.2,175.5,465.5,166.8,454.7,166.8z"/>
	</g>
</g>
<g id="g20">
</g>
<g id="g22">
</g>
<g id="g24">
</g>
<g id="g26">
</g>
<g id="g28">
</g>
<g id="g30">
</g>
<g id="g32">
</g>
<g id="g34">
</g>
<g id="g36">
</g>
<g id="g38">
</g>
<g id="g40">
</g>
<g id="g42">
</g>
<g id="g44">
</g>
<g id="g46">
</g>
<g id="g48">
</g>
</svg>
