<svg id="Layer_1" data-name="Layer 1" xmlns="http://www.w3.org/2000/svg" viewBox="0 0 214.86 217.68"><defs><style>.cls-1{fill:none;stroke:#191919;stroke-width:11px;}.cls-2{fill:#191919;fill-rule:evenodd;}</style></defs><title>mascot-mark</title><g id="Style-Guide"><g id="Artboard-Copy-4"><g id="Page-1-Copy-9"><path id="Stroke-3" class="cls-1" d="M163.36,203.36a1.45,1.45,0,0,0,2.24-.19c5.29-7.72,31-48.06,35.31-83C208,62,169.66,13.2,109.62,13.2S6.55,60.27,13.93,120.17c5.35,43.48,31.37,77.58,36.21,83.55a1.46,1.46,0,0,0,2.23,0l17.19-22.91a1.45,1.45,0,0,1,2.3.14l15.58,22.85a1.46,1.46,0,0,0,2.34.09l17.52-21.61a1.46,1.46,0,0,1,2.32.07l15.25,21.38a1.46,1.46,0,0,0,2.39,0l16.17-23.33a1.47,1.47,0,0,1,2.25-.18Z"/><path id="Fill-7" class="cls-2" d="M122.59,92.43c0,3.84-2.63,6.95-5.87,6.95s-5.87-3.11-5.87-6.95,2.63-7,5.87-7,5.87,3.12,5.87,7"/><path id="Fill-9" class="cls-2" d="M160.94,89.51c0,5-3.18,9-7.11,9s-7.11-4-7.11-9,3.19-9,7.11-9,7.11,4,7.11,9"/></g></g></g></svg>