<svg id="Layer_1" data-name="Layer 1" xmlns="http://www.w3.org/2000/svg" viewBox="0 0 267.26 267.26"><defs><style>.cls-1{fill:#b6b6b6;fill-rule:evenodd;}</style></defs><title>mascot-mark</title><path class="cls-1" d="M230.17,143.48c-4.42,36.15-32.25,77.14-33.43,78.87a6.85,6.85,0,0,1-10.55.9l-.42-.5-12.72-16.62-11.62,16.78a6.83,6.83,0,0,1-5.58,2.94h0a6.84,6.84,0,0,1-5.56-2.86l-10.88-15.24-12.69,15.66a6.85,6.85,0,0,1-5.32,2.5h-.28a6.88,6.88,0,0,1-5.37-3l-11.07-16.19L92.08,223.41a6.84,6.84,0,0,1-9.65.64,6.46,6.46,0,0,1-.81-.84c-4.87-6-29.4-38.05-34.53-79.72-3.43-27.88,4.25-54,21.62-73.7,17.67-20,43.22-31,72-31,27,0,51.1,10.37,67.76,29.19C225.73,87.55,233.66,115.06,230.17,143.48ZM202.36,267.26H64.9A64.9,64.9,0,0,1,0,202.36V64.9A64.9,64.9,0,0,1,64.9,0H202.36a64.9,64.9,0,0,1,64.9,64.9V202.36A64.9,64.9,0,0,1,202.36,267.26Z"/></svg>